<svg width="4" height="11" viewBox="0 0 4 11" fill="none" xmlns="http://www.w3.org/2000/svg">
<path d="M0.664062 9.33464C0.664062 10.068 1.26406 10.668 1.9974 10.668C2.73073 10.668 3.33073 10.068 3.33073 9.33464C3.33073 8.6013 2.73073 8.0013 1.9974 8.0013C1.26406 8.0013 0.664062 8.6013 0.664062 9.33464ZM0.664062 1.33463C0.664062 2.06797 1.26406 2.66797 1.9974 2.66797C2.73073 2.66797 3.33073 2.06797 3.33073 1.33463C3.33073 0.601301 2.73073 0.00130168 1.9974 0.00130171C1.26406 0.00130174 0.664062 0.601301 0.664062 1.33463ZM0.664062 5.33464C0.664062 6.06797 1.26406 6.66797 1.9974 6.66797C2.73073 6.66797 3.33073 6.06797 3.33073 5.33464C3.33073 4.6013 2.73073 4.0013 1.9974 4.0013C1.26406 4.0013 0.664062 4.6013 0.664062 5.33464Z" fill="#929292"/>
</svg>
