<svg width="196" height="101" viewBox="0 0 196 101" fill="none" xmlns="http://www.w3.org/2000/svg">
<g clip-path="url(#clip0_11995_3628)">
<path d="M99.0052 5.66602C83.3652 5.66602 70.6719 18.3593 70.6719 33.9993C70.6719 49.6393 83.3652 62.3327 99.0052 62.3327C114.645 62.3327 127.339 49.6393 127.339 33.9993C127.339 18.3593 114.645 5.66602 99.0052 5.66602ZM99.0052 56.666C86.5102 56.666 76.3385 46.4943 76.3385 33.9993C76.3385 21.5043 86.5102 11.3327 99.0052 11.3327C111.5 11.3327 121.672 21.5043 121.672 33.9993C121.672 46.4943 111.5 56.666 99.0052 56.666ZM112.01 21.476L93.3385 40.1477L86.0002 32.8377L82.0052 36.8327L93.3385 48.166L116.005 25.4993L112.01 21.476Z" fill="#1FA3FF"/>
</g>
<path d="M1.48 100V85.8H4.24V100H1.48ZM16.6827 100H14.0027V94.12C14.0027 93.28 13.856 92.6667 13.5627 92.28C13.2693 91.8933 12.8627 91.7 12.3427 91.7C11.9827 91.7 11.616 91.7933 11.2427 91.98C10.8827 92.1667 10.556 92.4267 10.2627 92.76C9.96932 93.08 9.75599 93.4533 9.62266 93.88V100H6.94266V89.52H9.36266V91.46C9.62932 91.0067 9.96932 90.6267 10.3827 90.32C10.796 90 11.2693 89.76 11.8027 89.6C12.3493 89.4267 12.9227 89.34 13.5227 89.34C14.176 89.34 14.7093 89.46 15.1227 89.7C15.5493 89.9267 15.8693 90.24 16.0827 90.64C16.3093 91.0267 16.4627 91.4667 16.5427 91.96C16.636 92.4533 16.6827 92.9533 16.6827 93.46V100ZM25.2344 99.46C25.0077 99.5533 24.7344 99.66 24.4144 99.78C24.0944 99.9 23.7477 99.9933 23.3744 100.06C23.0144 100.14 22.6477 100.18 22.2744 100.18C21.781 100.18 21.3277 100.093 20.9144 99.92C20.501 99.7467 20.1677 99.4733 19.9144 99.1C19.6744 98.7133 19.5544 98.2133 19.5544 97.6V91.58H18.1744V89.52H19.5544V86.12H22.2344V89.52H24.4344V91.58H22.2344V96.7C22.2477 97.06 22.3477 97.32 22.5344 97.48C22.721 97.64 22.9544 97.72 23.2344 97.72C23.5144 97.72 23.7877 97.6733 24.0544 97.58C24.321 97.4867 24.5344 97.4067 24.6944 97.34L25.2344 99.46ZM31.373 100.2C30.533 100.2 29.773 100.06 29.093 99.78C28.413 99.4867 27.833 99.0933 27.353 98.6C26.873 98.0933 26.4996 97.52 26.233 96.88C25.9796 96.2267 25.853 95.54 25.853 94.82C25.853 93.82 26.073 92.9067 26.513 92.08C26.9663 91.2533 27.6063 90.5933 28.433 90.1C29.273 89.5933 30.2596 89.34 31.393 89.34C32.5396 89.34 33.5196 89.5933 34.333 90.1C35.1463 90.5933 35.7663 91.2533 36.193 92.08C36.633 92.8933 36.853 93.7733 36.853 94.72C36.853 94.88 36.8463 95.0467 36.833 95.22C36.8196 95.38 36.8063 95.5133 36.793 95.62H28.693C28.7463 96.1533 28.8996 96.62 29.153 97.02C29.4196 97.42 29.753 97.7267 30.153 97.94C30.5663 98.14 31.0063 98.24 31.473 98.24C32.0063 98.24 32.5063 98.1133 32.973 97.86C33.453 97.5933 33.7796 97.2467 33.953 96.82L36.253 97.46C35.9996 97.9933 35.633 98.4667 35.153 98.88C34.6863 99.2933 34.133 99.62 33.493 99.86C32.853 100.087 32.1463 100.2 31.373 100.2ZM28.633 93.92H34.113C34.0596 93.3867 33.9063 92.9267 33.653 92.54C33.413 92.14 33.093 91.8333 32.693 91.62C32.293 91.3933 31.8463 91.28 31.353 91.28C30.873 91.28 30.433 91.3933 30.033 91.62C29.6463 91.8333 29.3263 92.14 29.073 92.54C28.833 92.9267 28.6863 93.3867 28.633 93.92ZM44.7256 91.84C43.9123 91.84 43.1856 92 42.5456 92.32C41.9056 92.6267 41.4456 93.0733 41.1656 93.66V100H38.4856V89.52H40.9456V91.76C41.319 91.04 41.7923 90.4733 42.3656 90.06C42.939 89.6467 43.5456 89.42 44.1856 89.38C44.3323 89.38 44.4456 89.38 44.5256 89.38C44.6056 89.38 44.6723 89.3867 44.7256 89.4V91.84ZM49.04 100L45.18 89.52H47.96L50.6 97.56L53.26 89.52H55.8L51.96 100H49.04ZM57.2161 100V89.52H59.8961V100H57.2161ZM57.2161 88.06V85.4H59.8961V88.06H57.2161ZM67.1738 100.2C66.3338 100.2 65.5738 100.06 64.8938 99.78C64.2138 99.4867 63.6338 99.0933 63.1538 98.6C62.6738 98.0933 62.3004 97.52 62.0338 96.88C61.7804 96.2267 61.6538 95.54 61.6538 94.82C61.6538 93.82 61.8738 92.9067 62.3138 92.08C62.7671 91.2533 63.4071 90.5933 64.2338 90.1C65.0738 89.5933 66.0604 89.34 67.1938 89.34C68.3404 89.34 69.3204 89.5933 70.1338 90.1C70.9471 90.5933 71.5671 91.2533 71.9938 92.08C72.4338 92.8933 72.6538 93.7733 72.6538 94.72C72.6538 94.88 72.6471 95.0467 72.6338 95.22C72.6204 95.38 72.6071 95.5133 72.5938 95.62H64.4938C64.5471 96.1533 64.7004 96.62 64.9538 97.02C65.2204 97.42 65.5538 97.7267 65.9538 97.94C66.3671 98.14 66.8071 98.24 67.2738 98.24C67.8071 98.24 68.3071 98.1133 68.7738 97.86C69.2538 97.5933 69.5804 97.2467 69.7538 96.82L72.0538 97.46C71.8004 97.9933 71.4338 98.4667 70.9538 98.88C70.4871 99.2933 69.9338 99.62 69.2938 99.86C68.6538 100.087 67.9471 100.2 67.1738 100.2ZM64.4338 93.92H69.9138C69.8604 93.3867 69.7071 92.9267 69.4538 92.54C69.2138 92.14 68.8938 91.8333 68.4938 91.62C68.0938 91.3933 67.6471 91.28 67.1538 91.28C66.6738 91.28 66.2338 91.3933 65.8338 91.62C65.4471 91.8333 65.1271 92.14 64.8738 92.54C64.6338 92.9267 64.4871 93.3867 64.4338 93.92ZM86.9934 89.52H89.5334L85.1534 100H82.9134L81.1534 95.5L79.4334 100H77.1734L72.8134 89.52H75.3334L78.4534 97.44L79.6734 94.02L77.8534 89.54H80.0734L81.1534 92.74L82.2534 89.54H84.4734L82.6534 94.02L83.8934 97.44L86.9934 89.52ZM98.8691 100.2C97.9757 100.2 97.1224 100.053 96.3091 99.76C95.4957 99.4667 94.7957 99.0333 94.2091 98.46L95.1691 96.72C95.7957 97.2267 96.4091 97.6 97.0091 97.84C97.6224 98.08 98.2091 98.2 98.7691 98.2C99.2891 98.2 99.7024 98.1067 100.009 97.92C100.329 97.7333 100.489 97.4533 100.489 97.08C100.489 96.8267 100.402 96.6333 100.229 96.5C100.056 96.3533 99.8024 96.2267 99.4691 96.12C99.1491 96.0133 98.7557 95.8933 98.2891 95.76C97.5157 95.5067 96.8691 95.26 96.3491 95.02C95.8291 94.78 95.4357 94.48 95.1691 94.12C94.9157 93.7467 94.7891 93.2733 94.7891 92.7C94.7891 92.0067 94.9624 91.4133 95.3091 90.92C95.6691 90.4133 96.1624 90.02 96.7891 89.74C97.4291 89.46 98.1757 89.32 99.0291 89.32C99.7757 89.32 100.482 89.44 101.149 89.68C101.816 89.9067 102.422 90.28 102.969 90.8L101.889 92.5C101.356 92.0867 100.849 91.7867 100.369 91.6C99.8891 91.4 99.4024 91.3 98.9091 91.3C98.6291 91.3 98.3624 91.3333 98.1091 91.4C97.8691 91.4667 97.6691 91.58 97.5091 91.74C97.3624 91.8867 97.2891 92.1 97.2891 92.38C97.2891 92.6333 97.3557 92.8333 97.4891 92.98C97.6357 93.1133 97.8491 93.2333 98.1291 93.34C98.4224 93.4467 98.7757 93.5667 99.1891 93.7C100.029 93.94 100.736 94.1867 101.309 94.44C101.896 94.6933 102.336 95.0067 102.629 95.38C102.922 95.74 103.069 96.24 103.069 96.88C103.069 97.92 102.689 98.7333 101.929 99.32C101.169 99.9067 100.149 100.2 98.8691 100.2ZM109.772 100.2C108.919 100.2 108.152 100.06 107.472 99.78C106.792 99.4867 106.212 99.0867 105.732 98.58C105.252 98.06 104.879 97.4733 104.612 96.82C104.359 96.1667 104.232 95.48 104.232 94.76C104.232 93.7733 104.452 92.8733 104.892 92.06C105.345 91.2333 105.985 90.5733 106.812 90.08C107.639 89.5867 108.619 89.34 109.752 89.34C110.885 89.34 111.859 89.5867 112.672 90.08C113.485 90.5733 114.092 91.22 114.492 92.02L111.872 92.82C111.645 92.4333 111.345 92.14 110.972 91.94C110.599 91.7267 110.185 91.62 109.732 91.62C109.225 91.62 108.759 91.7533 108.332 92.02C107.919 92.2733 107.592 92.64 107.352 93.12C107.112 93.5867 106.992 94.1333 106.992 94.76C106.992 95.3733 107.112 95.92 107.352 96.4C107.605 96.8667 107.939 97.24 108.352 97.52C108.765 97.7867 109.225 97.92 109.732 97.92C110.052 97.92 110.352 97.8667 110.632 97.76C110.925 97.6533 111.185 97.5067 111.412 97.32C111.639 97.1333 111.805 96.92 111.912 96.68L114.532 97.48C114.292 98 113.939 98.4667 113.472 98.88C113.019 99.2933 112.479 99.62 111.852 99.86C111.239 100.087 110.545 100.2 109.772 100.2ZM125.921 100H123.241V94.12C123.241 93.3067 123.081 92.7 122.761 92.3C122.454 91.9 122.028 91.7 121.481 91.7C121.161 91.7 120.821 91.7933 120.461 91.98C120.101 92.1667 119.774 92.4267 119.481 92.76C119.201 93.08 118.994 93.4533 118.861 93.88V100H116.181V85.4H118.861V91.46C119.248 90.7933 119.774 90.2733 120.441 89.9C121.108 89.5267 121.834 89.34 122.621 89.34C123.301 89.34 123.854 89.46 124.281 89.7C124.708 89.9267 125.041 90.24 125.281 90.64C125.521 91.0267 125.688 91.4667 125.781 91.96C125.874 92.44 125.921 92.94 125.921 93.46V100ZM133.111 100.2C132.271 100.2 131.511 100.06 130.831 99.78C130.151 99.4867 129.571 99.0933 129.091 98.6C128.611 98.0933 128.238 97.52 127.971 96.88C127.718 96.2267 127.591 95.54 127.591 94.82C127.591 93.82 127.811 92.9067 128.251 92.08C128.705 91.2533 129.345 90.5933 130.171 90.1C131.011 89.5933 131.998 89.34 133.131 89.34C134.278 89.34 135.258 89.5933 136.071 90.1C136.885 90.5933 137.505 91.2533 137.931 92.08C138.371 92.8933 138.591 93.7733 138.591 94.72C138.591 94.88 138.585 95.0467 138.571 95.22C138.558 95.38 138.545 95.5133 138.531 95.62H130.431C130.485 96.1533 130.638 96.62 130.891 97.02C131.158 97.42 131.491 97.7267 131.891 97.94C132.305 98.14 132.745 98.24 133.211 98.24C133.745 98.24 134.245 98.1133 134.711 97.86C135.191 97.5933 135.518 97.2467 135.691 96.82L137.991 97.46C137.738 97.9933 137.371 98.4667 136.891 98.88C136.425 99.2933 135.871 99.62 135.231 99.86C134.591 100.087 133.885 100.2 133.111 100.2ZM130.371 93.92H135.851C135.798 93.3867 135.645 92.9267 135.391 92.54C135.151 92.14 134.831 91.8333 134.431 91.62C134.031 91.3933 133.585 91.28 133.091 91.28C132.611 91.28 132.171 91.3933 131.771 91.62C131.385 91.8333 131.065 92.14 130.811 92.54C130.571 92.9267 130.425 93.3867 130.371 93.92ZM139.584 94.76C139.584 93.7467 139.784 92.8333 140.184 92.02C140.584 91.1933 141.137 90.54 141.844 90.06C142.551 89.58 143.357 89.34 144.264 89.34C145.037 89.34 145.731 89.5333 146.344 89.92C146.971 90.2933 147.457 90.7733 147.804 91.36V85.4H150.484V97C150.484 97.28 150.531 97.48 150.624 97.6C150.717 97.72 150.877 97.7933 151.104 97.82V100C150.637 100.093 150.257 100.14 149.964 100.14C149.484 100.14 149.084 100.02 148.764 99.78C148.457 99.54 148.284 99.2267 148.244 98.84L148.204 98.18C147.817 98.8333 147.291 99.3333 146.624 99.68C145.971 100.027 145.284 100.2 144.564 100.2C143.844 100.2 143.177 100.06 142.564 99.78C141.964 99.5 141.437 99.1133 140.984 98.62C140.544 98.1267 140.197 97.5533 139.944 96.9C139.704 96.2333 139.584 95.52 139.584 94.76ZM147.804 96.16V93.66C147.671 93.2733 147.457 92.9267 147.164 92.62C146.871 92.3133 146.544 92.0733 146.184 91.9C145.824 91.7133 145.464 91.62 145.104 91.62C144.691 91.62 144.317 91.7067 143.984 91.88C143.651 92.0533 143.357 92.2867 143.104 92.58C142.864 92.8733 142.677 93.2133 142.544 93.6C142.424 93.9867 142.364 94.3933 142.364 94.82C142.364 95.2467 142.431 95.6533 142.564 96.04C142.711 96.4133 142.917 96.74 143.184 97.02C143.451 97.3 143.757 97.52 144.104 97.68C144.464 97.84 144.851 97.92 145.264 97.92C145.517 97.92 145.771 97.88 146.024 97.8C146.291 97.7067 146.537 97.5867 146.764 97.44C147.004 97.28 147.211 97.0933 147.384 96.88C147.571 96.6533 147.711 96.4133 147.804 96.16ZM153.015 96.08V89.52H155.695V95.5C155.695 96.3 155.841 96.9067 156.135 97.32C156.428 97.72 156.861 97.92 157.435 97.92C157.781 97.92 158.121 97.8533 158.455 97.72C158.801 97.5733 159.115 97.36 159.395 97.08C159.688 96.8 159.935 96.4467 160.135 96.02V89.52H162.815V97C162.815 97.28 162.861 97.48 162.955 97.6C163.061 97.72 163.228 97.7933 163.455 97.82V100C163.188 100.04 162.961 100.067 162.775 100.08C162.601 100.107 162.441 100.12 162.295 100.12C161.815 100.12 161.421 100.013 161.115 99.8C160.821 99.5733 160.648 99.2667 160.595 98.88L160.535 98.04C160.068 98.7467 159.468 99.2867 158.735 99.66C158.001 100.02 157.195 100.2 156.315 100.2C155.235 100.2 154.415 99.8533 153.855 99.16C153.295 98.4533 153.015 97.4267 153.015 96.08ZM165.458 85.4H168.138V96.64C168.138 97.12 168.218 97.4467 168.378 97.62C168.538 97.78 168.758 97.86 169.038 97.86C169.251 97.86 169.471 97.8333 169.698 97.78C169.924 97.7267 170.124 97.66 170.298 97.58L170.658 99.62C170.298 99.7933 169.878 99.9267 169.398 100.02C168.918 100.113 168.484 100.16 168.098 100.16C167.258 100.16 166.604 99.94 166.138 99.5C165.684 99.0467 165.458 98.4067 165.458 97.58V85.4ZM176.685 100.2C175.845 100.2 175.085 100.06 174.405 99.78C173.725 99.4867 173.145 99.0933 172.665 98.6C172.185 98.0933 171.812 97.52 171.545 96.88C171.292 96.2267 171.165 95.54 171.165 94.82C171.165 93.82 171.385 92.9067 171.825 92.08C172.279 91.2533 172.919 90.5933 173.745 90.1C174.585 89.5933 175.572 89.34 176.705 89.34C177.852 89.34 178.832 89.5933 179.645 90.1C180.459 90.5933 181.079 91.2533 181.505 92.08C181.945 92.8933 182.165 93.7733 182.165 94.72C182.165 94.88 182.159 95.0467 182.145 95.22C182.132 95.38 182.119 95.5133 182.105 95.62H174.005C174.059 96.1533 174.212 96.62 174.465 97.02C174.732 97.42 175.065 97.7267 175.465 97.94C175.879 98.14 176.319 98.24 176.785 98.24C177.319 98.24 177.819 98.1133 178.285 97.86C178.765 97.5933 179.092 97.2467 179.265 96.82L181.565 97.46C181.312 97.9933 180.945 98.4667 180.465 98.88C179.999 99.2933 179.445 99.62 178.805 99.86C178.165 100.087 177.459 100.2 176.685 100.2ZM173.945 93.92H179.425C179.372 93.3867 179.219 92.9267 178.965 92.54C178.725 92.14 178.405 91.8333 178.005 91.62C177.605 91.3933 177.159 91.28 176.665 91.28C176.185 91.28 175.745 91.3933 175.345 91.62C174.959 91.8333 174.639 92.14 174.385 92.54C174.145 92.9267 173.999 93.3867 173.945 93.92ZM183.158 94.76C183.158 93.7467 183.358 92.8333 183.758 92.02C184.158 91.1933 184.711 90.54 185.418 90.06C186.125 89.58 186.931 89.34 187.838 89.34C188.611 89.34 189.305 89.5333 189.918 89.92C190.545 90.2933 191.031 90.7733 191.378 91.36V85.4H194.058V97C194.058 97.28 194.105 97.48 194.198 97.6C194.291 97.72 194.451 97.7933 194.678 97.82V100C194.211 100.093 193.831 100.14 193.538 100.14C193.058 100.14 192.658 100.02 192.338 99.78C192.031 99.54 191.858 99.2267 191.818 98.84L191.778 98.18C191.391 98.8333 190.865 99.3333 190.198 99.68C189.545 100.027 188.858 100.2 188.138 100.2C187.418 100.2 186.751 100.06 186.138 99.78C185.538 99.5 185.011 99.1133 184.558 98.62C184.118 98.1267 183.771 97.5533 183.518 96.9C183.278 96.2333 183.158 95.52 183.158 94.76ZM191.378 96.16V93.66C191.245 93.2733 191.031 92.9267 190.738 92.62C190.445 92.3133 190.118 92.0733 189.758 91.9C189.398 91.7133 189.038 91.62 188.678 91.62C188.265 91.62 187.891 91.7067 187.558 91.88C187.225 92.0533 186.931 92.2867 186.678 92.58C186.438 92.8733 186.251 93.2133 186.118 93.6C185.998 93.9867 185.938 94.3933 185.938 94.82C185.938 95.2467 186.005 95.6533 186.138 96.04C186.285 96.4133 186.491 96.74 186.758 97.02C187.025 97.3 187.331 97.52 187.678 97.68C188.038 97.84 188.425 97.92 188.838 97.92C189.091 97.92 189.345 97.88 189.598 97.8C189.865 97.7067 190.111 97.5867 190.338 97.44C190.578 97.28 190.785 97.0933 190.958 96.88C191.145 96.6533 191.285 96.4133 191.378 96.16Z" fill="#1FA3FF"/>
<defs>
<clipPath id="clip0_11995_3628">
<rect width="68" height="68" fill="white" transform="translate(65)"/>
</clipPath>
</defs>
</svg>
