<svg width="16" height="16" viewBox="0 0 16 16" fill="none" xmlns="http://www.w3.org/2000/svg">
<path d="M4.5 2C3.12743 2 2 3.12743 2 4.5V11.5C2 12.8726 3.12743 14 4.5 14H11.5C12.8726 14 14 12.8726 14 11.5V4.5C14 3.12743 12.8726 2 11.5 2H4.5ZM4.5 3.33333H11.5C12.1501 3.33333 12.6667 3.84991 12.6667 4.5V11.5C12.6667 12.1501 12.1501 12.6667 11.5 12.6667H4.5C3.84991 12.6667 3.33333 12.1501 3.33333 11.5V4.5C3.33333 3.84991 3.84991 3.33333 4.5 3.33333ZM5.33333 4.41276C5.2585 4.41276 5.18328 4.45567 5.15495 4.54167C5.02495 4.93767 4.71434 5.2476 4.31901 5.3776C4.14701 5.43427 4.14701 5.67641 4.31901 5.73307C4.71434 5.86374 5.02495 6.17431 5.15495 6.57031C5.21161 6.74231 5.45505 6.74231 5.51172 6.57031C5.64172 6.17431 5.95232 5.86374 6.34766 5.73307C6.51966 5.67641 6.51966 5.43427 6.34766 5.3776C5.95232 5.2476 5.64172 4.93767 5.51172 4.54167C5.48339 4.45567 5.40817 4.41276 5.33333 4.41276ZM9.33333 4.93359C9.2445 4.93359 9.15573 4.98394 9.1224 5.08594L8.8099 6.03906C8.65523 6.5084 8.28704 6.87658 7.81771 7.03125L6.86458 7.34505C6.66058 7.41172 6.66058 7.70026 6.86458 7.76693L7.81771 8.07943C8.28704 8.23409 8.65523 8.60228 8.8099 9.07161L9.1237 10.0247C9.19103 10.2287 9.47891 10.2287 9.54557 10.0247L9.85807 9.07161C10.0121 8.60228 10.3809 8.23409 10.8503 8.07943L11.8034 7.76693C12.0074 7.70026 12.0074 7.41172 11.8034 7.34505L10.8503 7.03125C10.3809 6.87725 10.0127 6.5084 9.85807 6.03906L9.54427 5.08594C9.51094 4.98394 9.42217 4.93359 9.33333 4.93359ZM6.22266 8.93359C6.13382 8.93359 6.04505 8.98394 6.01172 9.08594L5.97266 9.20313C5.81799 9.67246 5.4498 10.0406 4.98047 10.1953L4.86458 10.2331C4.66058 10.2997 4.66058 10.5883 4.86458 10.6549L4.98047 10.694C5.4498 10.8487 5.81799 11.2169 5.97266 11.6862L6.01172 11.8021C6.07905 12.0061 6.36693 12.0061 6.43359 11.8021L6.47135 11.6862C6.62602 11.2169 6.99421 10.8487 7.46354 10.694L7.58073 10.6549C7.78473 10.5883 7.78473 10.2997 7.58073 10.2331L7.46354 10.1953C6.99421 10.0406 6.62602 9.67246 6.47135 9.20313L6.43359 9.08594C6.40026 8.98394 6.31149 8.93359 6.22266 8.93359Z" fill="#1FA3FF"/>
</svg>
