<svg width="80" height="80" viewBox="0 0 80 80" fill="none" xmlns="http://www.w3.org/2000/svg">
<mask id="mask0_16910_1544" style="mask-type:alpha" maskUnits="userSpaceOnUse" x="0" y="0" width="80" height="80">
<rect width="80" height="80" transform="matrix(-1 0 0 1 80 0)" fill="#D9D9D9"/>
</mask>
<g mask="url(#mask0_16910_1544)">
<path d="M39.9481 26.64L44.6147 31.3066L39.2814 36.64H53.2814V43.3066H39.2814L44.6147 48.64L39.9481 53.3066L26.6147 39.9733L39.9481 26.64ZM39.9481 6.63998C35.337 6.63998 31.0036 7.51498 26.9481 9.26498C22.8925 11.015 19.3647 13.39 16.3647 16.39C13.3647 19.39 10.9897 22.9178 9.23975 26.9733C7.48975 31.0289 6.61475 35.3622 6.61475 39.9733C6.61475 44.5844 7.48975 48.9178 9.23975 52.9733C10.9897 57.0289 13.3647 60.5566 16.3647 63.5566C19.3647 66.5566 22.8925 68.9316 26.9481 70.6816C31.0036 72.4316 35.337 73.3066 39.9481 73.3066C44.5592 73.3066 48.8925 72.4316 52.9481 70.6816C57.0036 68.9316 60.5314 66.5566 63.5314 63.5566C66.5314 60.5566 68.9064 57.0289 70.6564 52.9733C72.4064 48.9178 73.2814 44.5844 73.2814 39.9733C73.2814 35.3622 72.4064 31.0289 70.6564 26.9733C68.9064 22.9178 66.5314 19.39 63.5314 16.39C60.5314 13.39 57.0036 11.015 52.9481 9.26498C48.8925 7.51498 44.5592 6.63998 39.9481 6.63998ZM39.9481 13.3066C47.3925 13.3066 53.6981 15.89 58.8647 21.0566C64.0314 26.2233 66.6147 32.5289 66.6147 39.9733C66.6147 47.4178 64.0314 53.7233 58.8647 58.89C53.6981 64.0566 47.3925 66.64 39.9481 66.64C32.5036 66.64 26.1981 64.0566 21.0314 58.89C15.8647 53.7233 13.2814 47.4178 13.2814 39.9733C13.2814 32.5289 15.8647 26.2233 21.0314 21.0566C26.1981 15.89 32.5036 13.3066 39.9481 13.3066Z" fill="#1C1B1F"/>
</g>
</svg>
