<svg width="80" height="80" viewBox="0 0 80 80" fill="none" xmlns="http://www.w3.org/2000/svg">
<mask id="mask0_16835_3168" style="mask-type:alpha" maskUnits="userSpaceOnUse" x="0" y="0" width="80" height="80">
<rect width="80" height="80" transform="matrix(-1 0 0 1 80 0)" fill="#D9D9D9"/>
</mask>
<g mask="url(#mask0_16835_3168)">
<path d="M39.9479 53.3073L35.2812 48.6406L40.6146 43.3073H26.6146V36.6406H40.6146L35.2812 31.3073L39.9479 26.6406L53.2812 39.974L39.9479 53.3073ZM39.9479 73.3073C44.559 73.3073 48.8924 72.4323 52.9479 70.6823C57.0035 68.9323 60.5312 66.5573 63.5312 63.5573C66.5313 60.5573 68.9062 57.0295 70.6562 52.974C72.4063 48.9184 73.2812 44.5851 73.2812 39.974C73.2812 35.3628 72.4063 31.0295 70.6562 26.974C68.9062 22.9184 66.5313 19.3906 63.5312 16.3906C60.5312 13.3906 57.0035 11.0156 52.9479 9.26562C48.8924 7.51562 44.559 6.64062 39.9479 6.64062C35.3368 6.64062 31.0035 7.51562 26.9479 9.26562C22.8924 11.0156 19.3646 13.3906 16.3646 16.3906C13.3646 19.3906 10.9896 22.9184 9.23959 26.974C7.48959 31.0295 6.61459 35.3628 6.61459 39.974C6.61459 44.5851 7.48959 48.9184 9.23959 52.974C10.9896 57.0295 13.3646 60.5573 16.3646 63.5573C19.3646 66.5573 22.8924 68.9323 26.9479 70.6823C31.0035 72.4323 35.3368 73.3073 39.9479 73.3073ZM39.9479 66.6406C32.5035 66.6406 26.1979 64.0573 21.0312 58.8906C15.8646 53.724 13.2812 47.4184 13.2812 39.974C13.2812 32.5295 15.8646 26.224 21.0312 21.0573C26.1979 15.8906 32.5035 13.3073 39.9479 13.3073C47.3924 13.3073 53.6979 15.8906 58.8646 21.0573C64.0312 26.224 66.6146 32.5295 66.6146 39.974C66.6146 47.4184 64.0312 53.724 58.8646 58.8906C53.6979 64.0573 47.3924 66.6406 39.9479 66.6406Z" fill="#1C1B1F"/>
</g>
</svg>
