<svg width="192" height="123" viewBox="0 0 192 123" fill="none" xmlns="http://www.w3.org/2000/svg">
<path d="M176.02 61.0646L175.985 61.0175C175.071 59.7824 174.497 58.3266 174.321 56.7966C174.145 55.2665 174.373 53.7163 174.982 52.3018C175.438 51.2437 175.682 50.106 175.701 48.9537C175.719 47.8014 175.511 46.6571 175.089 45.5862C174.667 44.5154 174.039 43.539 173.24 42.7129C172.442 41.8868 171.489 41.2272 170.437 40.7719C169.031 40.1625 167.81 39.192 166.897 37.9576C165.983 36.7233 165.41 35.2686 165.233 33.7398L165.226 33.6811C164.959 31.3711 163.79 29.2636 161.976 27.8222C160.162 26.3808 157.852 25.7236 155.553 25.9951L155.52 25.9995C153.997 26.1799 152.455 25.9542 151.048 25.345C149.641 24.7358 148.419 23.7647 147.505 22.5294L147.449 22.4558C146.766 21.5321 145.908 20.7531 144.925 20.1632C143.942 19.5732 142.852 19.184 141.718 19.0178C140.585 18.8516 139.429 18.9115 138.318 19.1943C137.207 19.477 136.161 19.977 135.242 20.6657L135.167 20.7202C133.937 21.6411 132.488 22.2204 130.965 22.4C129.442 22.5795 127.9 22.353 126.493 21.743L126.463 21.7292C124.339 20.8112 121.937 20.7792 119.787 21.6403C117.636 22.5015 115.913 24.1852 114.995 26.3213L114.972 26.3755C114.364 27.7874 113.397 29.0144 112.169 29.9335C110.941 30.8526 109.495 31.4316 107.975 31.6123C106.837 31.7464 105.736 32.1045 104.735 32.6662C103.733 33.2279 102.852 33.9821 102.14 34.8858C101.429 35.7895 100.901 36.825 100.587 37.9332C100.273 39.0413 100.18 40.2003 100.312 41.3441C100.489 42.874 100.263 44.4244 99.6549 45.8395C99.0469 47.2545 98.079 48.4842 96.8486 49.4048L96.8016 49.4399C95.8818 50.1282 95.1056 50.9916 94.5174 51.9809C93.9291 52.9701 93.5403 54.0658 93.3732 55.2055C93.2061 56.3451 93.2639 57.5063 93.5434 58.6228C93.8228 59.7393 94.3184 60.7892 95.0019 61.7126L95.0211 61.7403C95.9359 62.9751 96.5105 64.4309 96.6869 65.9611C96.8632 67.4912 96.6352 69.0416 96.0258 70.4562L95.9885 70.5411C95.0703 72.6775 95.0334 75.0917 95.886 77.2528C96.7386 79.4138 98.4108 81.1448 100.535 82.0649L100.62 82.1007C102.025 82.7098 103.246 83.6803 104.16 84.9147C105.073 86.1491 105.647 87.6039 105.823 89.1328L105.828 89.1662C106.095 91.4754 107.265 93.5818 109.079 95.022C110.893 96.4622 113.204 97.1184 115.502 96.8461L115.56 96.8391C117.083 96.6589 118.625 96.8847 120.032 97.4939C121.439 98.103 122.661 99.0741 123.575 100.309C124.258 101.233 125.116 102.011 126.099 102.601C127.083 103.191 128.172 103.58 129.306 103.746C130.439 103.912 131.595 103.852 132.706 103.57C133.817 103.287 134.862 102.788 135.782 102.099C137.012 101.179 138.462 100.6 139.984 100.42C141.507 100.24 143.049 100.467 144.456 101.076L144.508 101.1C145.56 101.556 146.691 101.798 147.837 101.815C148.983 101.831 150.121 101.62 151.186 101.194C152.252 100.769 153.223 100.136 154.046 99.3332C154.869 98.5303 155.526 97.5725 155.981 96.5146L155.995 96.484C156.602 95.0724 157.568 93.8455 158.795 92.9263C160.022 92.007 161.468 91.4278 162.987 91.2465L163.078 91.2365C165.377 90.9649 167.476 89.787 168.913 87.9617C170.35 86.1364 171.008 83.8133 170.742 81.5032L170.73 81.4112C170.553 79.8812 170.78 78.3306 171.388 76.9155C171.996 75.5004 172.964 74.2709 174.195 73.3507L174.222 73.3297C176.077 71.9396 177.308 69.8671 177.646 67.5674C177.983 65.2677 177.398 62.9288 176.02 61.0646Z" fill="#FFC900"/>
<path d="M129.717 100.921C128.601 100.762 127.529 100.381 126.561 99.8015C125.594 99.2218 124.751 98.4546 124.081 97.5445C123.295 96.4855 122.246 95.6529 121.038 95.13C119.831 94.6071 118.507 94.4121 117.2 94.5647L117.147 94.5709C114.89 94.8351 112.622 94.1891 110.841 92.7746C109.06 91.3601 107.911 89.2926 107.646 87.0255L107.642 86.9921C107.49 85.6791 106.997 84.4299 106.213 83.3692C105.429 82.3086 104.382 81.4738 103.175 80.9483L103.098 80.9151C102.065 80.4679 101.13 79.8203 100.346 79.0093C99.5625 78.1984 98.9458 77.24 98.5312 76.1889C98.1165 75.1378 97.9121 74.0146 97.9296 72.8835C97.9471 71.7523 98.1862 70.6354 98.6331 69.5965L98.6662 69.5187C99.1871 68.3035 99.3816 66.9725 99.2302 65.659C99.0787 64.3455 98.5867 63.0956 97.8033 62.0342L97.7839 62.0079C96.4299 60.1767 95.8555 57.8791 96.1868 55.62C96.5181 53.3608 97.728 51.3249 99.5507 49.9595L99.5942 49.9269C100.65 49.1351 101.481 48.0787 102.004 46.8634C102.526 45.6481 102.722 44.3167 102.572 43.0024C102.312 40.7338 102.959 38.453 104.37 36.6606C105.781 34.8682 107.841 33.7107 110.098 33.4422C111.405 33.2862 112.649 32.7881 113.705 31.9979C114.761 31.2076 115.593 30.1528 116.116 28.939L116.138 28.8891C116.584 27.85 117.23 26.9092 118.038 26.1205C118.846 25.3317 119.801 24.7105 120.847 24.2922C121.894 23.8739 123.011 23.6668 124.137 23.6827C125.262 23.6985 126.373 23.9371 127.406 24.3847L127.434 24.3966C128.642 24.9183 129.966 25.1118 131.274 24.9576C132.581 24.8034 133.825 24.307 134.883 23.5181L134.951 23.4657C136.775 22.1026 139.062 21.5221 141.309 21.8517C143.556 22.1812 145.58 23.3939 146.936 25.2234L146.987 25.29C147.773 26.3492 148.822 27.1821 150.03 27.7053C151.237 28.2285 152.561 28.4237 153.868 28.2713L153.901 28.2684C155.019 28.1364 156.151 28.227 157.234 28.5351C158.316 28.8431 159.327 29.3624 160.209 30.0635C161.091 30.7646 161.827 31.6337 162.375 32.6211C162.922 33.6085 163.271 34.6949 163.4 35.8183L163.406 35.8722C163.56 37.1864 164.054 38.4364 164.84 39.4972C165.626 40.5579 166.675 41.392 167.884 41.9161C169.969 42.8213 171.61 44.5216 172.447 46.6437C173.284 48.7658 173.249 51.1362 172.349 53.2348C171.828 54.45 171.634 55.7808 171.786 57.094C171.938 58.4073 172.43 59.6569 173.213 60.718L173.246 60.7617C174.599 62.5931 175.173 64.8906 174.842 67.1496C174.511 69.4086 173.301 71.4445 171.479 72.8102L171.456 72.8271C170.401 73.6187 169.57 74.6747 169.048 75.8894C168.525 77.104 168.329 78.4348 168.479 79.7486L168.488 79.8341C168.618 80.9576 168.526 82.0961 168.218 83.1847C167.91 84.2732 167.392 85.2904 166.693 86.1782C165.994 87.066 165.128 87.807 164.145 88.3588C163.161 88.9106 162.08 89.2625 160.962 89.3943L160.877 89.4036C159.57 89.5599 158.327 90.0581 157.271 90.8484C156.215 91.6387 155.384 92.6934 154.86 93.907L154.856 93.936C154.41 94.9756 153.764 95.9168 152.956 96.706C152.148 97.4951 151.193 98.1167 150.146 98.5351C149.1 98.9536 147.981 99.1607 146.856 99.1447C145.73 99.1287 144.619 98.8898 143.585 98.4417L143.536 98.4204C142.328 97.899 141.004 97.7058 139.697 97.86C138.39 98.0142 137.146 98.5104 136.089 99.2992C135.186 99.9802 134.158 100.474 133.064 100.753C131.97 101.031 130.832 101.089 129.717 100.921ZM119.308 93.5247C121.561 93.8532 123.591 95.0676 124.951 96.9008C126.136 98.5031 127.908 99.5653 129.875 99.8538C131.842 100.142 133.844 99.6334 135.44 98.4391C136.649 97.5376 138.072 96.9705 139.566 96.7944C141.061 96.6182 142.574 96.8391 143.956 97.4351L144.004 97.4562C145.83 98.2421 147.892 98.2688 149.739 97.5304C151.587 96.792 153.069 95.3486 153.862 93.5161L153.874 93.4882C154.473 92.1008 155.424 90.895 156.631 89.9914C157.838 89.0878 159.26 88.5179 160.754 88.3387L160.839 88.3293C162.813 88.0947 164.615 87.0818 165.849 85.5135C167.083 83.9451 167.647 81.9496 167.418 79.9654L167.408 79.8797C167.237 78.3777 167.461 76.8564 168.058 75.4676C168.655 74.0789 169.605 72.8715 170.811 71.966L170.833 71.949C171.624 71.3576 172.291 70.6157 172.796 69.7656C173.302 68.9155 173.636 67.9739 173.78 66.9946C173.923 66.0153 173.874 65.0174 173.633 64.0579C173.393 63.0985 172.967 62.1963 172.38 61.4028L172.348 61.3576C171.452 60.1442 170.889 58.715 170.716 57.2131C170.543 55.7113 170.766 54.1896 171.362 52.8002C172.149 50.9645 172.18 48.8909 171.448 47.0346C170.715 45.1783 169.28 43.6908 167.456 42.8987C166.078 42.299 164.881 41.3466 163.985 40.1365C163.088 38.9264 162.523 37.5008 162.346 36.0018L162.34 35.9479C162.227 34.965 161.922 34.0145 161.443 33.1506C160.964 32.2866 160.32 31.5263 159.548 30.913C158.776 30.2996 157.891 29.8453 156.944 29.576C155.997 29.3067 155.006 29.2276 154.028 29.3434L153.998 29.3389C152.503 29.5133 150.99 29.2904 149.609 28.6926C148.228 28.0948 147.028 27.1429 146.129 25.9322L146.078 25.864C144.892 24.2621 143.121 23.2002 141.154 22.9117C139.186 22.6233 137.185 23.1319 135.589 24.3258L135.52 24.3781C134.311 25.2795 132.889 25.8467 131.394 26.0228C129.9 26.199 128.386 25.978 127.004 25.382L126.976 25.3778C126.072 24.9862 125.1 24.7774 124.115 24.7634C123.131 24.7495 122.153 24.9306 121.238 25.2965C120.322 25.6624 119.487 26.2059 118.78 26.8959C118.073 27.5859 117.508 28.4089 117.118 29.3179L117.096 29.3678C116.498 30.7556 115.547 31.9615 114.34 32.865C113.133 33.7685 111.711 34.3377 110.217 34.5158C108.243 34.751 106.441 35.7635 105.207 37.3311C103.972 38.8987 103.406 40.8934 103.633 42.8776C103.804 44.3795 103.58 45.9008 102.983 47.2895C102.386 48.6782 101.437 49.8858 100.231 50.7915L100.188 50.8241C98.5919 52.0185 97.5324 53.8004 97.2424 55.7779C96.9524 57.7554 97.4557 59.7665 98.6417 61.3688L98.6611 61.395C99.5562 62.6088 100.118 64.038 100.291 65.5396C100.464 67.0413 100.242 68.5628 99.6472 69.9524L99.6125 70.0299C98.8236 71.8654 98.7918 73.9396 99.5242 75.7964C100.257 77.6532 101.693 79.1406 103.518 79.9314L103.597 79.9648C104.977 80.5646 106.176 81.518 107.074 82.7297C107.971 83.9415 108.537 85.3692 108.714 86.8704L108.709 86.9025C108.943 88.8852 109.948 90.6931 111.506 91.9305C113.064 93.1679 115.046 93.7342 117.021 93.5055L117.073 93.4991C117.816 93.4085 118.568 93.4171 119.308 93.5247Z" fill="#181818"/>
<path d="M131.239 40.8046L130.749 44.1476L129.745 44.0003L130.508 38.7966L131.316 38.9152L133.478 42.7328L133.979 39.3135L134.978 39.4599L134.217 44.6453L133.387 44.5236L131.239 40.8046Z" fill="#181818"/>
<path d="M139.024 44.4503L138.894 45.341L135.307 44.815L136.07 39.6113L139.595 40.1282L139.465 41.0142L136.948 40.6452L136.764 41.8973L138.935 42.2156L138.815 43.0362L136.644 42.7178L136.445 44.0721L139.024 44.4503Z" fill="#181818"/>
<path d="M142.212 40.531L143.142 40.6674L143.481 42.4666L144.331 40.8418L145.257 40.9775L144.03 43.2061L144.434 44.962L146.489 41.1427L147.582 41.3029L144.751 46.2003L143.885 46.0733L143.294 43.7589L142.078 45.8083L141.212 45.6813L139.914 40.1815L140.991 40.3395L141.863 44.5881L142.755 43.0223L142.212 40.531Z" fill="#181818"/>
<path d="M147.73 44.6355L148.211 41.355L149.186 41.498L148.705 44.7786L147.73 44.6355ZM147.443 46.5892L147.605 45.485L148.581 45.6281L148.418 46.7383L147.443 46.5892Z" fill="#181818"/>
<path d="M120.347 52.3167C120.183 52.1185 119.999 51.938 119.798 51.7781C119.479 51.5145 119.144 51.2709 118.795 51.0487C118.377 50.7798 117.936 50.5491 117.477 50.3593C116.999 50.1573 116.496 50.0165 115.983 49.9403C115.275 49.7867 114.538 49.8554 113.87 50.137C113.624 50.2682 113.414 50.4595 113.259 50.6933C113.105 50.9272 113.012 51.1961 112.988 51.4753C112.948 51.6796 112.951 51.89 112.998 52.0928C113.044 52.2956 113.133 52.4861 113.258 52.6518C113.592 53.0306 114.002 53.3347 114.46 53.5447C115.014 53.8211 115.708 54.1365 116.542 54.4908C117.518 54.8748 118.452 55.3581 119.33 55.9331C120.041 56.383 120.621 57.0135 121.012 57.7611C121.38 58.5915 121.484 59.5165 121.309 60.4093C121.213 61.2151 120.921 61.9851 120.459 62.6515C120.039 63.2384 119.482 63.7128 118.838 64.033C118.165 64.3636 117.439 64.5665 116.693 64.6315C115.87 64.7032 115.041 64.6765 114.224 64.5519C113.364 64.4256 112.519 64.2105 111.703 63.9101C110.888 63.6135 110.104 63.2366 109.363 62.7848C108.642 62.3483 107.968 61.8384 107.351 61.2634L109.251 58.5895C109.457 58.8401 109.688 59.069 109.939 59.2726C110.33 59.603 110.744 59.9044 111.178 60.1743C111.705 60.5026 112.259 60.7865 112.832 61.0232C113.431 61.2758 114.06 61.4513 114.702 61.5455C115.622 61.6803 116.328 61.6334 116.82 61.4048C117.058 61.2975 117.263 61.129 117.414 60.9164C117.566 60.7038 117.659 60.4548 117.683 60.1946C117.728 59.9641 117.718 59.7265 117.655 59.5007C117.591 59.2749 117.476 59.0671 117.319 58.894C116.91 58.4766 116.429 58.1375 115.899 57.8934C115.261 57.5702 114.512 57.2305 113.65 56.8745C112.745 56.4892 111.885 56.0061 111.085 55.4338C110.479 55.0084 109.995 54.4314 109.679 53.7599C109.391 53.0491 109.312 52.2699 109.453 51.515C109.57 50.4575 110.018 49.4641 110.732 48.6777C111.424 47.9556 112.303 47.4424 113.27 47.1963C114.333 46.9213 115.441 46.8691 116.524 47.0431C117.293 47.1525 118.046 47.3542 118.766 47.6441C119.433 47.9171 120.072 48.2519 120.676 48.6442C121.22 49.0004 121.734 49.3996 122.215 49.8379L120.347 52.3167Z" fill="#181818"/>
<path d="M122.42 61.823C122.512 61.0528 122.858 60.3356 123.404 59.7865C123.996 59.222 124.727 58.8261 125.522 58.6398C126.477 58.4111 127.468 58.3772 128.436 58.54C128.977 58.6202 129.512 58.74 130.036 58.8986C130.516 59.0351 130.977 59.2359 131.405 59.4955L131.507 58.794C131.576 58.462 131.572 58.1192 131.497 57.789C131.422 57.4587 131.277 57.1487 131.072 56.88C130.667 56.3843 129.998 56.0669 129.066 55.9279C128.379 55.8215 127.678 55.845 127 55.9969C126.264 56.1723 125.549 56.4255 124.867 56.7522L124.17 54.4899C125.031 54.0582 125.953 53.7634 126.903 53.6159C127.839 53.4759 128.791 53.4772 129.727 53.62C131.532 53.8847 132.872 54.5338 133.749 55.5673C134.626 56.6008 134.941 57.9551 134.695 59.6301L134.109 63.6268C134.049 63.8766 134.076 64.1396 134.185 64.3717C134.317 64.5563 134.515 64.6818 134.737 64.7214L134.349 67.3689C134.053 67.3772 133.786 67.3759 133.546 67.3752C133.346 67.3784 133.147 67.3573 132.952 67.3122C132.424 67.2734 131.928 67.0467 131.552 66.6727C131.271 66.3596 131.115 65.9526 131.116 65.5305L131.15 64.8775C130.492 65.5011 129.698 65.9616 128.831 66.2222C127.992 66.4884 127.104 66.5619 126.233 66.4371C125.447 66.3349 124.698 66.0406 124.052 65.5799C123.46 65.1576 122.991 64.5846 122.692 63.9196C122.399 63.2628 122.304 62.5338 122.42 61.823ZM130.205 63.5882C130.402 63.4587 130.576 63.2953 130.718 63.1052C130.84 62.9637 130.925 62.7938 130.965 62.6109L131.149 61.3563C130.767 61.1328 130.363 60.9478 129.945 60.8042C129.536 60.6576 129.114 60.5508 128.686 60.4852C127.964 60.3494 127.218 60.4293 126.541 60.715C126.273 60.8215 126.039 60.9969 125.861 61.2237C125.682 61.4504 125.567 61.7204 125.525 62.0062C125.479 62.329 125.525 62.6582 125.657 62.9557C125.798 63.2823 126.026 63.5636 126.316 63.7689C126.669 64.0085 127.075 64.159 127.499 64.2077C127.987 64.2782 128.484 64.2528 128.963 64.133C129.408 64.0328 129.829 63.8479 130.205 63.5882Z" fill="#181818"/>
<path d="M136.294 63.8558C136.393 63.0849 136.745 62.3688 137.295 61.8218C137.888 61.2581 138.619 60.8624 139.413 60.6751C140.369 60.4471 141.359 60.4131 142.327 60.5753C142.87 60.6557 143.405 60.7757 143.93 60.9344C144.411 61.0709 144.871 61.2717 145.299 61.5313L145.402 60.8298C145.47 60.4979 145.467 60.1551 145.392 59.8248C145.317 59.4945 145.171 59.1845 144.966 58.9159C144.559 58.4187 143.893 58.1005 142.957 57.9632C142.27 57.8568 141.569 57.8802 140.891 58.0322C140.154 58.2082 139.438 58.4612 138.755 58.787L138.058 56.5247C138.919 56.0931 139.841 55.7982 140.791 55.6508C141.727 55.5107 142.679 55.5121 143.614 55.6548C145.415 55.9189 146.755 56.5678 147.633 57.6016C148.512 58.6354 148.828 59.9897 148.58 61.6645L147.994 65.6611C147.933 65.9109 147.96 66.1739 148.07 66.406C148.202 66.5908 148.402 66.7163 148.625 66.7562L148.237 69.4037C147.937 69.4115 147.67 69.4103 147.434 69.41C147.233 69.4131 147.032 69.3918 146.836 69.3465C146.31 69.308 145.814 69.0814 145.439 68.7076C145.157 68.3948 145 67.9875 145 67.5648L145.026 66.9002C144.371 67.5083 143.59 67.9634 142.74 68.233C141.89 68.5027 140.991 68.5801 140.109 68.4599C139.323 68.3576 138.574 68.0633 137.928 67.6026C137.335 67.1814 136.865 66.6082 136.567 65.9424C136.276 65.2887 136.181 64.5636 136.294 63.8558ZM144.082 65.6215C144.279 65.49 144.452 65.3268 144.595 65.1386C144.717 64.9971 144.802 64.8272 144.843 64.6443L145.026 63.3897C144.265 62.9519 143.43 62.6568 142.563 62.5186C141.842 62.3827 141.096 62.4626 140.418 62.7484C140.151 62.8548 139.917 63.0303 139.738 63.257C139.56 63.4838 139.444 63.7537 139.403 64.0396C139.357 64.3623 139.402 64.6916 139.535 64.9891C139.675 65.3162 139.903 65.5977 140.193 65.8023C140.546 66.0417 140.95 66.192 141.373 66.2406C141.862 66.3112 142.361 66.286 142.841 66.1663C143.285 66.0653 143.706 65.8804 144.082 65.6215Z" fill="#181818"/>
<path d="M162.876 58.5527C162.712 58.3545 162.528 58.174 162.327 58.0141C162.008 57.7505 161.673 57.5069 161.324 57.2847C160.906 57.0159 160.465 56.7852 160.006 56.5953C159.527 56.3933 159.025 56.2526 158.512 56.1764C157.804 56.0227 157.067 56.0914 156.399 56.373C156.15 56.5019 155.937 56.6919 155.779 56.9254C155.622 57.1589 155.526 57.4284 155.501 57.7089C155.46 57.9131 155.463 58.1236 155.51 58.3264C155.556 58.5292 155.645 58.7197 155.77 58.8854C156.104 59.2642 156.514 59.5683 156.972 59.7783C157.524 60.0543 158.218 60.3697 159.054 60.7244C160.03 61.1084 160.964 61.5917 161.842 62.1667C162.553 62.6166 163.133 63.2471 163.524 63.9947C163.892 64.8251 163.996 65.75 163.821 66.6428C163.725 67.4487 163.433 68.2187 162.971 68.8851C162.551 69.472 161.994 69.9464 161.35 70.2665C160.678 70.5972 159.951 70.8001 159.206 70.8651C158.382 70.9368 157.553 70.91 156.736 70.7855C155.876 70.6592 155.031 70.4441 154.215 70.1436C153.4 69.847 152.616 69.4701 151.875 69.0184C151.154 68.5818 150.48 68.072 149.863 67.4969L151.764 64.7989C151.969 65.0495 152.2 65.2784 152.452 65.4821C152.842 65.8125 153.256 66.1139 153.69 66.3837C154.218 66.712 154.771 66.996 155.345 67.2327C155.943 67.4853 156.572 67.6608 157.215 67.755C158.134 67.8898 158.84 67.8429 159.333 67.6143C159.57 67.507 159.775 67.3385 159.926 67.1259C160.078 66.9133 160.171 66.6642 160.196 66.4041C160.24 66.1736 160.23 65.9359 160.167 65.7101C160.104 65.4843 159.989 65.2766 159.831 65.1034C159.422 64.686 158.941 64.347 158.412 64.1029C157.774 63.7796 157.024 63.44 156.162 63.084C155.258 62.6986 154.398 62.2156 153.597 61.6433C152.992 61.2178 152.507 60.6409 152.191 59.9694C151.903 59.2586 151.825 58.4794 151.965 57.7244C152.082 56.6669 152.53 55.6736 153.245 54.8872C153.936 54.1651 154.815 53.6519 155.782 53.4058C156.845 53.1308 157.953 53.0786 159.036 53.2526C159.805 53.3619 160.558 53.5637 161.279 53.8535C161.945 54.1265 162.584 54.4613 163.188 54.8536C163.732 55.2099 164.246 55.609 164.727 56.0473L162.876 58.5527Z" fill="#181818"/>
<path d="M113.021 80.0158L114.164 72.2193L117.453 72.7017C117.795 72.7484 118.122 72.8731 118.409 73.0661C118.685 73.2528 118.921 73.4935 119.103 73.774C119.284 74.0517 119.414 74.3593 119.489 74.6828C119.564 75.0006 119.578 75.3299 119.531 75.6533C119.467 76.0867 119.303 76.4991 119.052 76.8575C118.805 77.221 118.468 77.5137 118.074 77.7064C117.665 77.9039 117.205 77.9693 116.759 77.8936L114.912 77.6229L114.529 80.2369L113.021 80.0158ZM115.107 76.2914L116.855 76.5477C117.034 76.5774 117.217 76.5498 117.38 76.4689C117.55 76.378 117.692 76.2412 117.789 76.074C117.907 75.8762 117.983 75.6561 118.013 75.4275C118.053 75.1906 118.035 74.9475 117.962 74.719C117.9 74.5319 117.789 74.3647 117.642 74.2344C117.505 74.1139 117.337 74.0351 117.156 74.0073L115.478 73.7612L115.107 76.2914Z" fill="#181818"/>
<path d="M123.762 77.0152C123.348 76.9526 122.925 76.9804 122.523 77.0967C122.172 77.1959 121.866 77.4142 121.657 77.7145L121.145 81.207L119.692 80.9939L120.527 75.2945L121.872 75.4916L121.699 76.6675C121.936 76.3246 122.251 76.0438 122.617 75.8487C122.94 75.6733 123.305 75.5945 123.67 75.6214C123.728 75.6349 123.787 75.6436 123.846 75.6473C123.888 75.6489 123.928 75.6601 123.964 75.6801L123.762 77.0152Z" fill="#181818"/>
<path d="M126.253 82.0686C125.823 82.0121 125.409 81.8671 125.037 81.6426C124.704 81.4405 124.415 81.1718 124.189 80.853C123.969 80.5452 123.813 80.196 123.731 79.8261C123.647 79.4514 123.634 79.0643 123.692 78.6847C123.746 78.2947 123.871 77.9179 124.061 77.5735C124.246 77.2371 124.499 76.943 124.803 76.7097C125.107 76.4765 125.456 76.3093 125.828 76.2186C126.68 76.0257 127.573 76.1567 128.334 76.5861C128.668 76.7849 128.958 77.05 129.186 77.3653C129.41 77.6726 129.569 78.0225 129.655 78.3937C129.741 78.778 129.755 79.1754 129.695 79.565C129.641 79.9458 129.515 80.3128 129.324 80.6464C129.132 80.9818 128.875 81.2752 128.569 81.5093C128.262 81.7434 127.912 81.9135 127.539 82.0095C127.119 82.1179 126.681 82.1381 126.253 82.0686ZM125.188 78.9056C125.139 79.2078 125.163 79.5173 125.257 79.8084C125.34 80.076 125.496 80.3147 125.707 80.4976C125.914 80.6735 126.166 80.7866 126.434 80.8239C126.703 80.8671 126.978 80.8289 127.225 80.714C127.476 80.5967 127.692 80.4165 127.854 80.1908C128.032 79.9397 128.146 79.6479 128.184 79.3419C128.234 79.0416 128.208 78.7337 128.11 78.446C128.021 78.1812 127.866 77.9439 127.659 77.7568C127.454 77.5778 127.202 77.4628 126.933 77.4259C126.664 77.383 126.389 77.4207 126.142 77.5343C125.89 77.6526 125.675 77.8361 125.517 78.0658C125.342 78.3154 125.229 78.6033 125.188 78.9056Z" fill="#181818"/>
<path d="M130.32 79.6473C130.389 79.132 130.576 78.6395 130.866 78.2084C131.132 77.8066 131.5 77.484 131.933 77.2743C132.362 77.0694 132.843 77.0008 133.312 77.0777C133.713 77.132 134.09 77.298 134.402 77.5569C134.7 77.7976 134.93 78.1115 135.071 78.4683L135.56 75.1329L137.035 75.3491L136.101 81.718C136.074 81.8319 136.084 81.9514 136.13 82.0588C136.158 82.1004 136.194 82.1359 136.235 82.1632C136.277 82.1905 136.324 82.209 136.373 82.2175L136.198 83.4148C135.987 83.4309 135.775 83.4223 135.566 83.3891C135.332 83.3718 135.112 83.2722 134.944 83.1078C134.871 83.0356 134.814 82.9485 134.777 82.8523C134.74 82.756 134.724 82.6529 134.73 82.5499L134.76 82.1835C134.507 82.5046 134.168 82.7467 133.782 82.8814C133.407 83.0177 133.005 83.0587 132.61 83.0008C132.236 82.9498 131.877 82.8196 131.557 82.6189C131.243 82.4256 130.975 82.1669 130.771 81.8602C130.564 81.5481 130.418 81.1995 130.34 80.8327C130.263 80.4421 130.256 80.0406 130.32 79.6473ZM134.7 81.0499L134.896 79.7139C134.854 79.4928 134.763 79.2841 134.629 79.103C134.499 78.9187 134.337 78.7589 134.152 78.631C133.982 78.5103 133.788 78.4311 133.583 78.3996C133.373 78.3662 133.158 78.3832 132.955 78.4494C132.76 78.5165 132.58 78.6213 132.425 78.758C132.267 78.8979 132.137 79.0671 132.042 79.2564C131.942 79.4562 131.875 79.6711 131.843 79.8925C131.808 80.119 131.815 80.3501 131.866 80.5735C131.913 80.7825 131.997 80.9811 132.115 81.1599C132.231 81.3349 132.385 81.4815 132.565 81.5889C132.754 81.7016 132.963 81.7752 133.181 81.8055C133.326 81.8271 133.473 81.8245 133.617 81.7978C133.766 81.7708 133.91 81.7238 134.045 81.6581C134.185 81.5896 134.315 81.504 134.433 81.4033C134.545 81.3058 134.633 81.1848 134.693 81.0488L134.7 81.0499Z" fill="#181818"/>
<path d="M137.094 81.3693L137.617 77.8005L139.087 78.0161L138.612 81.2601C138.548 81.6952 138.58 82.0343 138.707 82.2774C138.773 82.3994 138.868 82.503 138.983 82.579C139.099 82.6549 139.231 82.7008 139.369 82.7125C139.562 82.7406 139.759 82.7303 139.948 82.6821C140.151 82.6318 140.343 82.5424 140.512 82.419C140.702 82.2789 140.865 82.1054 140.993 81.9069L141.512 78.3716L142.986 78.5879L142.391 82.6462C142.365 82.7586 142.375 82.8766 142.421 82.9824C142.45 83.0248 142.488 83.0605 142.532 83.0873C142.576 83.1141 142.625 83.1314 142.676 83.1382L142.5 84.3354C142.345 84.336 142.226 84.3341 142.125 84.3319C142.035 84.3288 141.945 84.3208 141.856 84.308C141.631 84.2848 141.42 84.1876 141.255 84.0313C141.111 83.8908 141.028 83.699 141.024 83.4973L141.057 83.0348C140.76 83.3729 140.378 83.6256 139.952 83.767C139.509 83.9118 139.039 83.9496 138.58 83.8773C137.99 83.7909 137.568 83.5348 137.314 83.1091C137.061 82.6835 136.987 82.1036 137.094 81.3693Z" fill="#181818"/>
<path d="M146.244 85.0002C145.811 84.9447 145.393 84.8024 145.016 84.5817C144.681 84.3813 144.391 84.1122 144.166 83.7919C143.944 83.4796 143.786 83.1266 143.699 82.7527C143.6 82.3125 143.596 81.856 143.688 81.4139C143.779 80.9718 143.964 80.5544 144.229 80.1899C144.535 79.7769 144.949 79.4574 145.425 79.2669C145.955 79.0618 146.53 79.0045 147.089 79.1012C147.65 79.1679 148.182 79.3893 148.625 79.7409C149.013 80.0547 149.3 80.476 149.452 80.9526L147.967 81.1836C147.881 80.9615 147.736 80.7674 147.548 80.622C147.353 80.4764 147.124 80.3834 146.884 80.3517C146.622 80.3106 146.353 80.3453 146.11 80.4516C145.86 80.562 145.644 80.7374 145.483 80.9596C145.302 81.2152 145.188 81.5123 145.151 81.8237C145.1 82.1299 145.125 82.4438 145.223 82.7379C145.309 83.004 145.465 83.242 145.673 83.4271C145.879 83.6044 146.132 83.7178 146.4 83.7534C146.571 83.7805 146.746 83.776 146.915 83.7401C147.077 83.7034 147.231 83.6409 147.373 83.5549C147.504 83.4789 147.616 83.3745 147.702 83.2494L149.057 83.8969C148.878 84.1678 148.644 84.3987 148.372 84.5754C148.079 84.7692 147.753 84.9058 147.41 84.9779C147.025 85.0558 146.631 85.0633 146.244 85.0002Z" fill="#181818"/>
<path d="M153.231 85.6206C153.092 85.6594 152.931 85.6982 152.749 85.7353C152.558 85.773 152.364 85.7966 152.169 85.806C151.963 85.8163 151.757 85.8064 151.553 85.7764C151.293 85.7426 151.042 85.6565 150.815 85.5234C150.605 85.3989 150.44 85.2111 150.342 84.9866C150.233 84.7213 150.203 84.4293 150.258 84.147L150.738 80.8695L149.999 80.7611L150.164 79.6402L150.906 79.749L151.179 77.8822L152.654 78.0985L152.38 79.9652L153.582 80.1414L153.418 81.2624L152.216 81.0862L151.808 83.8711C151.793 83.9495 151.794 84.0301 151.811 84.108C151.829 84.1859 151.862 84.2593 151.909 84.3237C152.005 84.4327 152.139 84.5017 152.283 84.5172C152.433 84.5383 152.585 84.5321 152.732 84.4989C152.892 84.4663 153.013 84.4326 153.114 84.3992L153.231 85.6206Z" fill="#181818"/>
<g clip-path="url(#clip0_11729_1243)">
<path d="M102.816 79.7332L35.4696 102.403L19.1202 53.5582L23.9083 46.0902L84.7043 25.626L102.816 79.7332Z" fill="#1FA3FF" fill-opacity="0.1"/>
<path d="M98.6541 78.1578L37.8345 98.6303L21.5128 49.8708L82.3324 29.3983L98.6541 78.1578ZM38.4288 97.4431L97.462 77.5737L81.7342 30.5878L22.6996 50.458L38.4288 97.4431Z" fill="#181818"/>
<path d="M23.9029 46.0902L23.7846 51.3895L19.1148 53.5582L23.9029 46.0902Z" fill="url(#paint0_linear_11729_1243)"/>
<path d="M37.1045 54.8475C37.2335 54.8841 37.3673 54.901 37.5015 54.8979C37.6969 54.8954 37.8907 54.8607 38.0749 54.7951C38.2497 54.7439 38.4097 54.6515 38.5414 54.5257C38.6482 54.4151 38.7171 54.2737 38.7384 54.1218C38.7622 53.9312 38.7523 53.7381 38.7092 53.5511C38.6542 53.2927 38.5841 53.0377 38.4994 52.7875L37.6358 50.1804L38.4197 49.919L39.2481 52.4189C39.3618 52.7539 39.4531 53.0961 39.5214 53.4433C39.5808 53.729 39.59 54.0231 39.5486 54.3123C39.5061 54.573 39.3831 54.8141 39.1968 55.0021C38.95 55.2317 38.652 55.3995 38.3277 55.4915C38.1221 55.5633 37.9075 55.6061 37.6903 55.6188C37.4976 55.6285 37.3048 55.6065 37.1195 55.5537L37.1045 54.8475Z" fill="#181818"/>
<path d="M43.1944 53.8711C42.8641 53.9861 42.5121 54.0241 42.1654 53.982C41.8331 53.9395 41.5128 53.8315 41.2231 53.6643C40.9329 53.4964 40.6758 53.2773 40.4641 53.0177C40.2526 52.76 40.0905 52.4655 39.9857 52.149C39.8768 51.8253 39.8321 51.4833 39.8539 51.1421C39.8748 50.8056 39.9571 50.4756 40.0969 50.1683C40.2335 49.8642 40.4278 49.5892 40.669 49.3585C40.919 49.1198 41.2201 48.9411 41.5493 48.8361C41.8836 48.7186 42.2409 48.6821 42.5916 48.7298C42.9236 48.7767 43.2428 48.889 43.5305 49.0601C43.8178 49.2301 44.0723 49.4499 44.2821 49.7092C44.4913 49.9667 44.6517 50.2602 44.7556 50.5754C44.8631 50.8961 44.9095 51.2343 44.8922 51.5725C44.8757 51.9079 44.7958 52.2374 44.6567 52.5437C44.5203 52.8469 44.3258 53.1209 44.0844 53.3501C43.8298 53.5872 43.5258 53.7652 43.1944 53.8711ZM40.7985 51.8761C40.8742 52.1076 40.9866 52.3253 41.1316 52.5208C41.2711 52.7083 41.4433 52.869 41.6401 52.9953C41.8306 53.1183 42.0456 53.1988 42.2705 53.2312C42.5128 53.2595 42.7586 53.2334 42.99 53.1549C43.2214 53.0764 43.4325 52.9475 43.6081 52.7775C43.768 52.6116 43.8906 52.4135 43.9676 52.1966C44.0452 51.9755 44.0841 51.743 44.0825 51.5091C44.0817 51.2742 44.0437 51.0412 43.9699 50.8185C43.8945 50.5874 43.7808 50.3707 43.6336 50.1774C43.4916 49.9922 43.3177 49.8337 43.1199 49.7095C42.9278 49.5871 42.7115 49.5075 42.4856 49.4758C42.2517 49.4422 42.0128 49.4659 41.7897 49.5449C41.5531 49.6176 41.3382 49.7478 41.1642 49.9237C41.0055 50.0888 40.8833 50.2853 40.8058 50.5005C40.7276 50.7197 40.6884 50.9508 40.6899 51.1832C40.6865 51.4191 40.7207 51.6538 40.7911 51.8787L40.7985 51.8761Z" fill="#181818"/>
<path d="M46.3937 52.7664L44.7517 47.8075L45.5438 47.5448L47.1858 52.5037L46.3937 52.7664Z" fill="#181818"/>
<path d="M47.933 48.3622L49.0921 51.8658L48.3 52.1284L46.6566 47.1703L47.302 46.9552L51.3057 49.5986L50.1211 46.023L50.9063 45.7608L52.5466 50.7136L51.8668 50.9398L47.933 48.3622Z" fill="#181818"/>
<path d="M58.6898 48.672L55.4712 46.9451C55.2437 46.8325 55.0224 46.7081 54.8081 46.5723C54.6631 46.4825 54.5318 46.3724 54.4184 46.2452C54.328 46.1394 54.2579 46.018 54.2115 45.8868C54.1385 45.677 54.1313 45.4498 54.1907 45.2352C54.2529 45.0234 54.3718 44.8323 54.5347 44.6827C54.7153 44.5136 54.9324 44.3883 55.1692 44.3164C55.3814 44.2427 55.6065 44.2133 55.8303 44.2302C56.0374 44.2443 56.237 44.3121 56.4094 44.4267C56.5825 44.548 56.71 44.7234 56.7719 44.9253C56.843 45.129 56.8508 45.3496 56.7943 45.5583C56.7306 45.7788 56.6315 45.9878 56.5011 46.177C56.3505 46.396 56.189 46.6074 56.0172 46.8103C55.8842 46.9694 55.7601 47.1356 55.6453 47.3082C55.5466 47.4549 55.4732 47.6169 55.428 47.7876C55.3878 47.9382 55.393 48.0971 55.4429 48.2444C55.4904 48.3954 55.5861 48.5265 55.7154 48.6179C55.8481 48.711 56.0033 48.7673 56.1651 48.7812C56.342 48.7968 56.5202 48.7752 56.6885 48.718C56.9061 48.6452 57.1023 48.5197 57.2596 48.3528C57.4253 48.1756 57.5547 47.968 57.6408 47.7417C57.7359 47.4904 57.782 47.2235 57.7769 46.9553C57.7731 46.6556 57.7216 46.3586 57.6243 46.0754L58.2622 45.8628C58.3928 46.2402 58.4518 46.6388 58.4362 47.0383C58.421 47.3902 58.3407 47.7365 58.1995 48.0597C58.0658 48.361 57.8723 48.6322 57.6307 48.857C57.3924 49.0778 57.1094 49.2448 56.8009 49.3467C56.5064 49.4523 56.1907 49.4838 55.8817 49.4386C55.609 49.4002 55.3514 49.2907 55.1351 49.1211C54.9296 48.9584 54.7769 48.7389 54.6959 48.4898C54.6132 48.2563 54.5988 48.0038 54.6542 47.7618C54.7108 47.5239 54.8097 47.2979 54.946 47.0944C55.082 46.8843 55.2288 46.6814 55.3859 46.4865C55.5464 46.2965 55.6846 46.1264 55.8034 45.9782C55.9077 45.8496 55.9905 45.705 56.0485 45.55C56.0957 45.4279 56.0991 45.2934 56.058 45.1694C56.0376 45.1036 56.0026 45.0433 55.9557 44.9929C55.9087 44.9425 55.851 44.9033 55.7868 44.8782C55.6432 44.8222 55.4837 44.821 55.3388 44.875C55.2307 44.9133 55.1334 44.9773 55.0555 45.0615C54.9848 45.136 54.9333 45.2265 54.9055 45.3251C54.8805 45.4234 54.8846 45.5268 54.9174 45.6226C54.9436 45.6981 54.9878 45.7661 55.046 45.8209C55.1353 45.9007 55.2345 45.969 55.341 46.0239C55.4791 46.1 55.6754 46.206 55.9271 46.3403L59.7016 48.3374L58.6898 48.672Z" fill="#181818"/>
<path d="M64.0601 46.9209C63.7438 47.0286 63.4074 47.0637 63.0761 47.0236C62.7482 46.9848 62.4317 46.8805 62.1455 46.7169C61.5448 46.3746 61.0937 45.8215 60.8797 45.1648C60.661 44.5176 60.6977 43.8106 60.9822 43.1874C61.117 42.8872 61.3109 42.617 61.5524 42.3928C61.8009 42.1605 62.0978 41.9861 62.4217 41.8821C62.8371 41.7275 63.2871 41.6913 63.7211 41.7778C64.0973 41.8599 64.4415 42.048 64.713 42.3199L64.2547 42.9544C64.0496 42.7398 63.7837 42.5928 63.4923 42.5328C63.2077 42.477 62.9131 42.498 62.6388 42.5937C62.4147 42.6639 62.211 42.7876 62.0453 42.9541C61.8883 43.1134 61.767 43.3041 61.6894 43.5135C61.6091 43.7327 61.5683 43.9642 61.5687 44.1972C61.5693 44.4414 61.609 44.6837 61.6864 44.915C61.7637 45.1559 61.8829 45.3812 62.0386 45.5805C62.1838 45.7666 62.3626 45.9238 62.5658 46.0442C62.7622 46.1596 62.9803 46.2336 63.2067 46.2616C63.4327 46.289 63.6622 46.2659 63.8786 46.194C64.1526 46.1035 64.3981 45.9428 64.5906 45.7281C64.8086 45.481 64.9754 45.1934 65.0814 44.882L65.3455 45.678C65.236 45.9666 65.064 46.2277 64.8418 46.4426C64.6196 46.6575 64.3526 46.8208 64.0601 46.9209ZM64.8493 44.4798L63.8066 44.8288L63.6081 44.2355L65.3117 43.6678L66.143 46.182L65.4788 46.4045L64.8493 44.4798Z" fill="#181818"/>
<path d="M70.2403 44.0556L70.4634 44.7498L67.05 45.887L65.4079 40.9281L68.7594 39.8036L68.9832 40.499L66.4253 41.3511L66.8897 42.7712L69.1111 42.032L69.3235 42.6738L67.1136 43.4082L67.6152 44.9236L70.2403 44.0556Z" fill="#181818"/>
<path d="M73.5191 38.9914L71.8648 39.543L73.2785 43.8109L72.4872 44.0749L71.0735 39.807L69.4118 40.3612L69.188 39.6657L73.2948 38.298L73.5191 38.9914Z" fill="#181818"/>
<path d="M56.0504 62.6422C55.8173 62.4845 55.5499 62.3842 55.2701 62.3495C54.9644 62.3186 54.6554 62.3538 54.3641 62.4526C54.0728 62.5515 53.806 62.7118 53.5819 62.9225C53.3817 63.1249 53.231 63.3706 53.1415 63.6404C53.0518 63.9113 53.0078 64.195 53.0113 64.48C53.0139 64.7743 53.0625 65.0663 53.1554 65.3453C53.2481 65.6286 53.3857 65.895 53.5631 66.1345C53.7313 66.3666 53.9396 66.5669 54.1783 66.7261C54.4127 66.8806 54.6778 66.9828 54.9557 67.0258C55.2648 67.0691 55.5801 67.0359 55.8739 66.9292C56.16 66.8421 56.421 66.687 56.6342 66.4773C56.8475 66.2675 57.0067 66.0094 57.0981 65.7251C57.1859 65.4504 57.2267 65.163 57.2188 64.8751C57.2122 64.5835 57.1617 64.2947 57.0689 64.0184C56.9772 63.737 56.8406 63.4723 56.6643 63.2345C56.4952 63.0034 56.2876 62.8031 56.0504 62.6422Z" fill="#181818"/>
<path d="M26.9035 63.3725L33.3505 82.8322L93.0253 62.9534L86.5796 43.493L26.9035 63.3725ZM38.4404 68.0372C38.5323 68.3101 38.5626 68.6002 38.5292 68.8866C38.5013 69.1656 38.409 69.4346 38.2595 69.6724C38.115 69.9033 37.9115 70.0917 37.6699 70.218C37.9645 70.1707 38.2662 70.2009 38.5451 70.3055C38.8269 70.4118 39.0794 70.5832 39.2817 70.8057C39.5029 71.0489 39.6691 71.3367 39.7691 71.6498C39.9146 72.0556 39.9264 72.4977 39.8026 72.9116C39.6632 73.3351 39.4075 73.7114 39.0647 73.9977C38.6447 74.3522 38.1568 74.6176 37.6311 74.7777C37.1521 74.9462 36.6467 75.0263 36.1396 75.0141C35.6884 74.9999 35.2462 74.8866 34.8444 74.6824L35.3465 73.1662C35.5889 73.2998 35.8577 73.3789 36.1343 73.398C36.4482 73.4121 36.7621 73.3649 37.0583 73.2591C37.4498 73.1287 37.7198 72.958 37.8683 72.7473C37.9424 72.6337 37.9876 72.5038 38 72.369C38.0123 72.2342 37.9913 72.0985 37.9389 71.9739C37.9008 71.8265 37.8257 71.6913 37.7207 71.581C37.6157 71.4708 37.4842 71.3891 37.3387 71.3436C37.0499 71.259 36.6541 71.3 36.1486 71.468L35.8498 71.5661L35.451 70.3612L35.7869 70.2505C36.1174 70.1597 36.4092 69.9633 36.6175 69.6913C36.6984 69.5808 36.7513 69.4526 36.7717 69.3175C36.7921 69.1824 36.7795 69.0446 36.7349 68.9157C36.6957 68.7781 36.6144 68.6564 36.5022 68.5675C36.39 68.4787 36.2527 68.4272 36.1094 68.4203C35.9426 68.4124 35.7758 68.4372 35.6183 68.4932C35.3423 68.5828 35.0937 68.7416 34.8964 68.9543C34.6964 69.178 34.5572 69.4491 34.4924 69.7414L33.0414 68.8874C33.1374 68.6076 33.2926 68.3514 33.4964 68.1363C33.7345 67.8809 34.0068 67.6594 34.3054 67.4781C34.6266 67.2774 34.9705 67.1156 35.3299 66.9963C35.7728 66.8398 36.2419 66.7716 36.7105 66.7956C37.1043 66.8147 37.4849 66.9415 37.8107 67.162C38.1091 67.3758 38.3291 67.6812 38.4373 68.0319L38.4404 68.0372ZM51.3916 70.0661L49.6686 70.6433L48.1896 66.1884L47.6409 69.9541L46.7049 70.2662L44.0281 67.5752L45.4994 72.0169L43.7748 72.5914L41.3111 65.1534L43.1887 64.533L46.4117 67.7758L47.0583 63.2439L48.9289 62.6205L51.3916 70.0661ZM58.8358 63.4677C58.9982 63.9518 59.064 64.4632 59.0297 64.9732C58.9609 66.0008 58.4991 66.9643 57.7398 67.6645C57.338 68.0311 56.8613 68.3063 56.3429 68.471C55.8285 68.6495 55.281 68.7111 54.7406 68.651C54.2284 68.592 53.7332 68.433 53.2832 68.183C52.8396 67.9368 52.4465 67.6098 52.124 67.2189C51.8012 66.8316 51.5546 66.3868 51.3973 65.9078C51.2345 65.4235 51.1702 64.9114 51.2082 64.4013C51.2435 63.8961 51.3726 63.4016 51.5889 62.9428C51.8101 62.4643 52.1284 62.0364 52.5235 61.6865C52.9187 61.3365 53.3821 61.0719 53.8844 60.9097C54.403 60.73 54.9547 60.6677 55.4996 60.7274C56.0109 60.7872 56.5047 60.9485 56.9519 61.202C57.3932 61.453 57.785 61.7821 58.108 62.1732C58.428 62.5545 58.674 62.9921 58.8335 63.4637L58.8358 63.4677ZM67.5699 64.6753L66.1717 65.141L61.3448 62.0138L62.7576 66.2769L61.0337 66.8528L58.5692 59.4135L59.9364 58.9586L64.8455 62.1852L63.3944 57.8063L65.1012 57.2349L67.5699 64.6753ZM72.6091 63.0047L70.8844 63.5792L68.9199 57.6492L66.6378 58.4094L66.1325 56.8908L72.4052 54.8017L72.9043 56.3097L70.633 57.0671L72.6091 63.0047ZM80.1975 60.4763L79.1868 57.4268L76.2134 58.418L77.2189 61.4616L75.4956 62.0354L73.0319 54.5974L74.7551 54.0236L75.7077 56.9049L78.6886 55.9112L77.736 53.0299L79.4598 52.4541L81.9186 59.8896L80.1975 60.4763ZM83.2906 53.9391C83.4889 54.0052 83.6981 54.0333 83.9072 54.022C84.1618 54.0177 84.4725 54.0047 84.8391 53.983C85.3045 53.9532 85.7715 53.9693 86.2335 54.0309C86.607 54.0767 86.9617 54.2189 87.2626 54.4436C87.5726 54.7079 87.7962 55.0588 87.9049 55.4513C88.0356 55.8132 88.0769 56.2015 88.0253 56.5833C87.976 56.918 87.839 57.2339 87.6281 57.4993C87.4114 57.7715 87.1483 58.0037 86.851 58.185C86.5387 58.3785 86.2046 58.5346 85.8558 58.6499C85.4793 58.7737 85.0916 58.8601 84.6983 58.9076C84.2982 58.9573 83.8946 58.9712 83.4924 58.9491C83.1127 58.9285 82.7357 58.875 82.3656 58.7892L82.6111 57.0318C82.7225 57.0818 82.8402 57.1169 82.9609 57.136C83.1818 57.1814 83.4052 57.2137 83.63 57.2328C83.9131 57.2595 84.1978 57.266 84.4819 57.2523C84.7822 57.2418 85.0797 57.1892 85.3657 57.096C85.6137 57.0338 85.8396 56.9034 86.0175 56.7197C86.0737 56.6549 86.1119 56.5766 86.1283 56.4926C86.1447 56.4086 86.1386 56.3219 86.1108 56.2411C86.0835 56.1545 86.034 56.0765 85.9672 56.0148C85.9005 55.9532 85.8187 55.9099 85.73 55.8894C85.4891 55.828 85.2405 55.8017 84.9918 55.8113C84.6899 55.8086 84.3533 55.826 83.9701 55.8455C83.5385 55.8571 83.107 55.8245 82.6824 55.7484C82.3603 55.6929 82.0596 55.5517 81.8119 55.3396C81.5655 55.1059 81.3855 54.8112 81.2902 54.4853C81.1182 54.0209 81.0952 53.5142 81.2242 53.0351C81.3559 52.5917 81.6108 52.1942 81.9593 51.8887C82.3308 51.5557 82.7675 51.3036 83.2416 51.1484C83.5853 51.033 83.9419 50.9609 84.3031 50.9337C84.6426 50.9108 84.9832 50.9142 85.3219 50.9436C85.6165 50.9691 85.9089 51.0156 86.1967 51.0827L85.9088 52.7389C85.8191 52.7067 85.7271 52.6812 85.6336 52.6625C85.451 52.621 85.2659 52.5913 85.0794 52.5737C84.8512 52.5515 84.6215 52.5479 84.3926 52.5632C84.154 52.5786 83.9182 52.6244 83.6909 52.6993C83.4485 52.7648 83.2293 52.8975 83.0588 53.0819C82.9971 53.1555 82.9561 53.2441 82.94 53.3386C82.924 53.4331 82.9335 53.5301 82.9675 53.6195C82.9932 53.6918 83.0351 53.7571 83.0901 53.8107C83.145 53.8642 83.2115 53.9045 83.2845 53.9285L83.2906 53.9391Z" fill="#181818"/>
<path d="M47.2859 89.2229L45.6276 84.2698L48.9309 83.1572L49.1619 83.8467L46.6546 84.6909L47.1542 86.172L49.2616 85.4632L49.4774 86.1048L47.37 86.8137L48.0881 88.9562L47.2859 89.2229Z" fill="#181818"/>
<path d="M51.3406 87.8579L49.6823 82.9048L51.8436 82.1755C52.0564 82.1013 52.2835 82.0781 52.5066 82.1077C52.7217 82.1371 52.9292 82.2071 53.1179 82.3139C53.3062 82.4206 53.4739 82.5599 53.6131 82.7253C53.7511 82.8841 53.8572 83.0679 53.9257 83.2668C53.9993 83.4826 54.0308 83.7107 54.0186 83.9387C54.0068 84.1578 53.9489 84.3721 53.8486 84.5677C53.7514 84.7589 53.6117 84.9255 53.4403 85.0548L55.2388 86.5416L54.3564 86.8387L52.7003 85.4785L51.553 85.8648L52.1302 87.5878L51.3406 87.8579ZM51.3228 85.1766L52.6876 84.7178C52.828 84.6727 52.9488 84.5811 53.03 84.4581C53.1152 84.3299 53.1676 84.183 53.1828 84.0302C53.2005 83.8621 53.1802 83.6924 53.1236 83.5335C53.0725 83.3773 52.9847 83.2357 52.8675 83.1205C52.7503 83.0053 52.6071 82.9199 52.4498 82.8713C52.3109 82.8291 52.162 82.832 52.0245 82.8797L50.7016 83.325L51.3228 85.1766Z" fill="#181818"/>
<path d="M59.1428 84.464L59.3746 85.1548L55.9663 86.298L54.306 81.3443L57.6525 80.2174L57.8843 80.9082L55.3297 81.769L55.8042 83.185L58.0215 82.4358L58.2373 83.0774L56.0187 83.8274L56.5264 85.3411L59.1428 84.464Z" fill="#181818"/>
<path d="M63.3619 83.0383L63.5937 83.7292L60.1843 84.8765L58.5248 79.9241L61.8712 78.7972L62.103 79.488L59.5477 80.3475L60.0222 81.7635L62.2395 81.0143L62.4553 81.6559L60.2367 82.406L60.7444 83.9196L63.3619 83.0383Z" fill="#181818"/>
<path d="M68.158 77.4468L66.5054 78.0045L67.934 82.2673L67.1421 82.5334L65.7149 78.2698L64.0602 78.827L63.8284 78.1362L67.931 76.755L68.158 77.4468Z" fill="#181818"/>
<path d="M70.2562 81.4858L68.6031 76.5262L70.7644 75.8092C70.9773 75.7357 71.2043 75.7125 71.4273 75.7415C71.6417 75.7713 71.8483 75.8411 72.0366 75.9472C72.2254 76.0542 72.3937 76.1936 72.5339 76.359C72.6711 76.5184 72.7771 76.702 72.8465 76.9005C72.9173 77.1143 72.9472 77.3394 72.9348 77.5645C72.9222 77.7835 72.8643 77.9976 72.7648 78.1935C72.6683 78.3857 72.5279 78.5528 72.3551 78.6814L74.1552 80.1708L73.2736 80.4692L71.6187 79.1083L70.4701 79.4953L71.0473 81.2184L70.2562 81.4858ZM70.2391 78.8058L71.6053 78.3462C71.7449 78.3007 71.8651 78.2094 71.9464 78.0874C72.031 77.9589 72.0834 77.8121 72.0992 77.6594C72.1173 77.4912 72.0975 77.3212 72.0413 77.1619C71.9902 77.0058 71.9024 76.8642 71.7852 76.749C71.668 76.6338 71.5248 76.5483 71.3675 76.4998C71.2279 76.4578 71.0784 76.4605 70.9401 76.5076L69.6172 76.9529L70.2391 78.8058Z" fill="#181818"/>
<path d="M74.5806 74.5178L75.3237 74.2658L78.9127 78.5642L78.0871 78.8427L77.1501 77.6601L75.1624 78.3299L75.1264 79.8407L74.3 80.1178L74.5806 74.5178ZM76.7502 77.1583L75.2414 75.2529L75.1784 77.6836L76.7502 77.1583Z" fill="#181818"/>
<path d="M79.5281 78.3579L77.8698 73.4048L78.6596 73.1382L80.32 78.0918L79.5281 78.3579Z" fill="#181818"/>
<path d="M81.4351 77.7206L79.7748 72.7669L80.5666 72.5008L81.9921 76.7584L84.6508 75.8622L84.8825 76.553L81.4351 77.7206Z" fill="#181818"/>
<path d="M85.5699 76.327L85.251 75.3715L86.0168 75.1063L86.3378 76.0624L85.5699 76.327ZM84.9793 74.5622L83.8999 71.3382L84.6657 71.0731L85.7456 74.2949L84.9793 74.5622Z" fill="#181818"/>
</g>
<defs>
<linearGradient id="paint0_linear_11729_1243" x1="23.3268" y1="51.1229" x2="21.2909" y2="49.6595" gradientUnits="userSpaceOnUse">
<stop offset="0.5" stop-color="white"/>
<stop offset="1" stop-color="#BBDFF2"/>
</linearGradient>
<clipPath id="clip0_11729_1243">
<rect width="86.1122" height="87.7369" fill="white" transform="translate(0 46.0562) rotate(-30)"/>
</clipPath>
</defs>
</svg>
