<svg width="121" height="106" viewBox="0 0 121 106" fill="none" xmlns="http://www.w3.org/2000/svg">
<g clip-path="url(#clip0_17012_1567)">
<path d="M73.5587 79.1311L66.1336 17.5025C65.6848 13.7736 62.8208 10.9749 59.7366 11.2278L17.5601 14.818L13.8557 9.63672L3.38709 16.5233L3.33813 16.5641L3.21574 16.6457C2.25208 17.3895 1.50642 18.379 1.05705 19.5103C0.607671 20.6417 0.47115 21.8731 0.661814 23.0754L8.39701 88.8817C8.83763 92.6514 11.7261 95.4828 14.8512 95.1972L69.2424 90.2281C70.1348 90.153 70.9858 89.8183 71.6902 89.2652L83.4073 81.3179L84.5496 76.2508L73.5587 79.1311Z" fill="#1FA3FF" stroke="black" stroke-width="1.22392" stroke-linecap="round" stroke-linejoin="round"/>
<path d="M14.6875 95.1632L32.2794 83.5523L117.807 75.0664V78.3302L104.85 87.3056L40.3899 93.0173L14.6875 95.1632Z" fill="#8BCFFF" stroke="black" stroke-width="1.22392"/>
<path d="M66.1326 17.5019L108.219 76.0708L119.202 73.1986L118.06 78.2657L106.343 86.213C105.625 86.7435 104.781 87.0756 103.895 87.1758L14.8583 95.2048C11.7333 95.4904 8.84479 92.659 8.40418 88.8893L0.668979 23.083C0.484454 21.8858 0.624015 20.661 1.07315 19.536C1.52229 18.411 2.2646 17.4269 3.2229 16.686L3.34529 16.6044L3.38609 16.5228L13.8466 9.60352L17.551 14.7848L59.7274 11.1946C62.8199 10.9743 65.6838 13.7404 66.1326 17.5019Z" stroke="black" stroke-width="1.22392"/>
<path d="M71.209 3.44453L16.9891 8.07097C13.8804 8.33207 11.71 11.5877 12.1506 15.3329L19.8776 81.1474C20.3182 84.9171 23.2148 87.7484 26.3399 87.4628L115.091 79.6787C118.183 79.3931 120.321 76.1211 119.872 72.3351L111.974 6.896C111.525 3.16711 108.661 0.368403 105.569 0.621348L71.209 3.44453Z" fill="#F5FBFF" stroke="black" stroke-width="1.22392" stroke-linecap="round" stroke-linejoin="round"/>
<path d="M8.40625 88.8879L19.8785 81.1445" stroke="black" stroke-width="1.22392" stroke-linecap="round" stroke-linejoin="round"/>
<path d="M14.8594 95.2046L26.3398 87.4531" stroke="black" stroke-width="1.22392" stroke-linecap="round" stroke-linejoin="round"/>
<path d="M12.15 15.332L0.677734 23.0836" stroke="black" stroke-width="1.22392" stroke-linecap="round" stroke-linejoin="round"/>
<mask id="mask0_17012_1567" style="mask-type:luminance" maskUnits="userSpaceOnUse" x="31" y="7" width="72" height="72">
<path d="M97.0094 7.63858L31.8105 13.2969L37.4688 78.4957L102.668 72.8374L97.0094 7.63858Z" fill="white"/>
</mask>
<g mask="url(#mask0_17012_1567)">
<path d="M53.646 26.4395L53.472 26.3563L53.3131 26.4622L47.8506 30.177L50.5667 24.1244L50.6424 23.9504L50.5365 23.8672L46.8292 18.4047L52.8819 21.1208L53.0559 21.1964L53.2148 21.0905L58.6772 17.3757L55.9611 23.4283L55.8855 23.6024L55.9914 23.7612L59.6986 29.2237L53.646 26.4395ZM88.2745 50.8542L88.4485 50.9299L88.6074 50.824L94.0699 47.1092L91.3462 53.1618L91.2706 53.3358L91.3765 53.4947L95.0913 58.9572L89.0387 56.2411L88.8647 56.1579L88.7058 56.2713L83.2433 59.9786L85.967 53.926L86.0426 53.7519L85.9367 53.5931L82.2219 48.1306L88.2745 50.8542ZM79.4226 15.5448L85.4752 18.2609L85.6492 18.3441L85.8081 18.2307L91.2706 14.5234L88.5545 20.5761L88.4712 20.7501L88.5847 20.9089L92.292 26.3714L86.2393 23.6553L86.0653 23.5797L85.9064 23.6856L80.444 27.4004L83.1601 21.3478L83.2357 21.1737L83.1298 21.0149L79.4226 15.5448ZM79.2259 35.8211C79.4666 36.0209 79.6653 36.2665 79.8105 36.5435C79.9558 36.8206 80.0447 37.1237 80.0721 37.4354C80.0996 37.747 80.065 38.061 79.9704 38.3592C79.8758 38.6574 79.723 38.9339 79.5209 39.1727L50.5894 73.5969C50.3885 73.8362 50.1423 74.0335 49.8649 74.1775C49.5876 74.3215 49.2846 74.4094 48.9733 74.4361C48.6619 74.4628 48.3484 74.4278 48.0506 74.3332C47.7528 74.2385 47.4766 74.086 47.2378 73.8844L40.3303 68.0815C40.091 67.8805 39.8937 67.6343 39.7497 67.357C39.6057 67.0797 39.5178 66.7767 39.4911 66.4653C39.4644 66.154 39.4994 65.8404 39.594 65.5426C39.6887 65.2448 39.8412 64.9686 40.0428 64.7299L68.997 30.2678C69.1979 30.0285 69.4441 29.8312 69.7214 29.6872C69.9988 29.5432 70.3018 29.4554 70.6131 29.4287C70.9245 29.4019 71.238 29.4369 71.5358 29.5316C71.8336 29.6262 72.1098 29.7787 72.3486 29.9803L79.2259 35.8211ZM70.843 45.1345L71.1002 45.3539L71.3196 45.0967L77.3723 37.8941L77.5917 37.6293L77.3344 37.4099L71.0775 32.1138L70.8127 31.8944L70.5933 32.1592L64.5407 39.3619L64.3213 39.6191L64.5861 39.8385L70.843 45.1345Z" fill="#8BCFFF" stroke="black" stroke-width="1.22392"/>
</g>
</g>
<defs>
<clipPath id="clip0_17012_1567">
<rect width="120.54" height="106" fill="white"/>
</clipPath>
</defs>
</svg>
