<svg width="35" height="30" viewBox="0 0 35 30" fill="none" xmlns="http://www.w3.org/2000/svg">
<path d="M16.7893 28.4622C14.6711 28.4078 12.5882 28.1508 10.5701 27.4494C9.88757 27.2135 9.19033 27.2347 8.52252 27.5219C6.88682 28.2264 5.25995 28.9459 3.63013 29.6594C3.42126 29.7501 3.21533 29.856 3.00057 29.9285C2.60047 30.0616 2.21802 30.0192 1.89735 29.7139C1.58551 29.4176 1.67965 29.079 1.7885 28.7222C2.25627 27.2105 2.69167 25.6867 3.17708 24.1811C3.40067 23.4857 3.28005 22.9143 2.83876 22.358C1.8238 21.0791 1.02655 19.6672 0.56173 18.0799C-0.726825 13.6779 0.238119 9.75661 3.08 6.30392C5.55708 3.29265 8.79024 1.48467 12.4882 0.632083C18.6692 -0.7889 24.4706 0.115087 29.6307 4.06663C32.2519 6.07415 34.0671 8.70448 34.7408 12.0544C35.4733 15.7187 34.6408 19.0202 32.402 21.9287C30.0514 24.9823 26.8859 26.7358 23.2791 27.7245C21.1521 28.305 18.981 28.5106 16.7893 28.4622ZM3.54776 28.0359C4.83337 27.4645 6.0425 26.9324 7.25162 26.3912C8.31365 25.9195 9.39921 25.6021 10.5642 25.8802C11.0937 26.0072 11.6086 26.2068 12.1381 26.3337C15.3625 27.1107 18.6103 27.1531 21.8464 26.5C25.1266 25.8379 28.0656 24.432 30.4485 21.9499C34.1347 18.1102 34.5584 12.526 31.4988 8.15725C29.8749 5.83832 27.7126 4.21477 25.1825 3.10822C21.308 1.41514 17.2894 1.08559 13.1913 2.00167C9.65222 2.79379 6.53085 4.42641 4.15968 7.31977C1.73261 10.2827 0.873568 13.6537 1.92383 17.442C2.32393 18.8842 3.02999 20.1721 3.94786 21.3331C4.74806 22.3459 4.98341 23.4374 4.55978 24.6921C4.19498 25.7684 3.89785 26.8628 3.54776 28.0359Z" fill="#6D6D6D"/>
</svg>
