<svg width="48" height="48" viewBox="0 0 48 48" fill="none" xmlns="http://www.w3.org/2000/svg">
<rect width="48" height="48" rx="14.1799" fill="#00111D"/>
<g clip-path="url(#clip0_11843_2154)">
<path d="M24 14.2534C18.48 14.2534 14 18.7334 14 24.2534C14 29.7734 18.48 34.2534 24 34.2534C29.52 34.2534 34 29.7734 34 24.2534C34 18.7334 29.52 14.2534 24 14.2534ZM24 32.2534C19.59 32.2534 16 28.6634 16 24.2534C16 19.8434 19.59 16.2534 24 16.2534C28.41 16.2534 32 19.8434 32 24.2534C32 28.6634 28.41 32.2534 24 32.2534ZM28.59 19.8334L22 26.4234L19.41 23.8434L18 25.2534L22 29.2534L30 21.2534L28.59 19.8334Z" fill="#1FA3FF"/>
</g>
<defs>
<clipPath id="clip0_11843_2154">
<rect width="24" height="24" fill="white" transform="translate(12 12.2534)"/>
</clipPath>
</defs>
</svg>
