<svg width="24" height="24" viewBox="0 0 24 24" fill="none" xmlns="http://www.w3.org/2000/svg">
<path d="M12 1C7.04148 1 3 5.04148 3 10C3 14.9585 7.04148 19 12 19V22.0918L13.5391 21.1055C15.7749 19.6714 19.8521 16.5753 20.7988 11.8828C20.9284 11.2776 21 10.6478 21 10C21 5.04148 16.9585 1 12 1ZM12 3C15.8775 3 19 6.12252 19 10C19 10.5042 18.9446 10.9954 18.8418 11.4727L18.8398 11.4805L18.8379 11.4863C18.2437 14.4344 15.9716 16.6052 14 18.1387V16.7988L12.875 16.9395C12.5741 16.9771 12.2839 17 12 17C8.12252 17 5 13.8775 5 10C5 6.12252 8.12252 3 12 3Z" fill="#FFC900"/>
</svg>
