<svg width="320" height="263" viewBox="0 0 320 263" fill="none" xmlns="http://www.w3.org/2000/svg">
<g clip-path="url(#clip0_11277_512)">
<path d="M118 0C117.172 3.85616 116.803 7.62241 115.557 11.059C110.97 23.6564 101.596 31.6485 89.2504 35.7144C69.3061 42.2679 50.9474 39.2709 35.4009 24.4357C29.6293 18.9069 26.0066 11.5034 25.1795 3.54647C25.0399 2.44756 25.0598 1.32868 25 0H118Z" fill="#C4C4C4" fill-opacity="0.09"/>
<path d="M377 263L295.002 263C294.951 257.034 296.168 251.127 298.568 245.689C300.969 240.252 304.496 235.412 308.905 231.507C314.818 226.158 322.117 222.672 329.922 221.468C337.728 220.264 345.707 221.394 352.899 224.722C360.091 228.05 366.19 233.433 370.46 240.225C374.731 247.016 376.992 254.925 376.97 263L377 263Z" fill="#1FA3FF"/>
<path d="M337 136C322.65 135.619 311.091 129.987 303.002 118.412C293.29 104.532 292.387 89.6094 300.465 74.7772C308.117 60.7468 320.691 53.8619 337 53V136Z" fill="#FFC900"/>
<path d="M29 263C29.0523 253.894 32.6983 245.178 39.144 238.749C50.0297 227.587 63.5818 223.244 78.878 224.106C92.9112 224.899 105.01 230.194 114.141 241.226C118.857 246.775 121.618 253.721 122 260.994C122 261.606 122 262.228 122 263L29 263Z" fill="#C4C4C4" fill-opacity="0.09"/>
<path d="M25 1.65873e-06C24.9382 9.17424 21.2409 17.9489 14.7201 24.3972C2.86715 36.3601 -11.8012 40.3611 -28.1629 38.6062C-39.3735 37.5956 -49.8484 32.5887 -57.68 24.4974C-63.7791 18.4523 -67.451 10.3782 -68 1.80495C-68 1.26346 -68 0.722 -68 0.0200683L25 1.65873e-06Z" fill="#EF1E1E"/>
<path d="M-11 235.991L-11 143C-7.28722 143.718 -3.69718 143.998 -0.39352 145.135C13.3325 149.776 21.8218 159.614 25.9846 172.746C32.2033 192.325 29.053 210.336 14.2019 225.524C8.07679 231.896 -0.375144 235.656 -9.32261 235.991C-9.7931 236.011 -10.2738 235.991 -11 235.991Z" fill="#FFC900"/>
<path d="M295.13 0H388C387.411 3.29694 387.171 6.55392 386.242 9.5911C382.957 20.3611 375.677 27.8142 365.941 33.0194C346.298 43.5196 320.335 39.883 305.385 24.5472C299.612 18.8094 295.984 11.2614 295.11 3.16706C295.03 2.45772 295.01 1.7284 295 1.01906C295.014 0.67628 295.057 0.335343 295.13 0Z" fill="#469763"/>
</g>
<defs>
<clipPath id="clip0_11277_512">
<rect width="320" height="263" fill="white"/>
</clipPath>
</defs>
</svg>
