<svg width="186" height="50" viewBox="0 0 186 50" fill="none" xmlns="http://www.w3.org/2000/svg">
<path d="M180.054 10.9852C181.901 10.9852 183.667 10.9852 185.507 10.9852C184.35 16.5349 183.21 22.0159 182.062 27.4969C181.65 29.4669 181.273 31.444 180.799 33.3974C180.095 36.311 178.001 38.0226 175.078 38.1696C172.034 38.3237 169.574 36.8254 168.623 33.9972C167.668 31.1595 166.904 28.2555 166.065 25.3799C165.558 23.6374 165.112 21.876 164.531 20.1597C164.372 19.6879 163.827 19.3442 163.46 18.9411C163.097 19.3513 162.547 19.7045 162.402 20.1786C161.07 24.5952 159.844 29.0449 158.517 33.4638C157.4 37.1786 154.19 38.9495 150.478 37.9515C148.285 37.3635 146.713 35.9601 146.227 33.7507C144.568 26.2025 143.029 18.6258 141.417 10.9307C143.153 10.9307 144.802 10.8951 146.445 10.971C146.687 10.9828 147.04 11.4949 147.112 11.8268C148.47 18.192 149.795 24.5644 151.127 30.9367C151.168 31.1287 151.156 31.3634 151.263 31.508C151.583 31.9371 151.952 32.333 152.301 32.7431C152.687 32.3591 153.285 32.039 153.427 31.5768C154.375 28.5257 155.224 25.4462 156.106 22.3762C156.499 21.0107 156.869 19.6405 157.301 18.2868C158.249 15.3046 160.608 13.4886 163.481 13.4886C166.525 13.4863 168.649 15.0746 169.614 18.2513C170.911 22.5137 172.117 26.8046 173.362 31.0837C173.44 31.3492 173.452 31.6787 173.62 31.8589C173.94 32.1979 174.336 32.6412 174.732 32.6744C175.002 32.6981 175.498 32.1457 175.595 31.7712C176.019 30.1307 176.347 28.4641 176.693 26.8046C177.748 21.7456 178.795 16.6843 179.85 11.6253C179.893 11.4333 179.969 11.2507 180.054 10.9852Z" fill="#F9C802"/>
<path d="M57.209 32.1694C59.5465 33.727 61.9124 34.0328 64.4134 33.7222C67.8533 33.2979 70.1244 31.2544 70.7715 27.8406C71.2575 25.2827 71.1817 22.7342 70.3022 20.2521C69.6573 18.4362 68.4175 17.1513 66.6182 16.4828C64.0815 15.5393 61.4833 15.4918 58.9799 16.5065C55.9502 17.7345 54.689 20.2711 54.6487 23.379C54.5681 29.538 54.6155 35.7017 54.6131 41.8607C54.6108 44.4589 54.6131 47.0596 54.6131 49.7384C52.802 49.7384 51.0832 49.7384 49.2531 49.7384C49.2317 49.435 49.1891 49.096 49.1891 48.7569C49.1867 40.4644 49.1251 32.1694 49.2341 23.8769C49.2602 21.9827 49.5826 19.9771 50.2772 18.2252C52.2117 13.3416 56.0995 10.8975 61.2368 10.4969C62.9863 10.3594 64.8141 10.4589 66.5281 10.8145C71.8834 11.9264 75.392 15.8996 76.1956 21.4635C76.6057 24.306 76.5963 27.1365 75.8969 29.9315C74.5646 35.2655 69.9821 39.023 64.4632 39.3691C62.2727 39.5066 60.1154 39.3288 58.0672 38.5038C57.7021 38.3569 57.2659 37.8401 57.2469 37.475C57.1592 35.7894 57.209 34.0897 57.209 32.1694Z" fill="#F9C802"/>
<path d="M43.6986 38.1624C42.0628 38.1624 40.3702 38.1624 38.5116 38.1624C38.5116 37.7144 38.5116 37.2971 38.5116 36.8799C38.5116 32.653 38.5448 28.4285 38.4903 24.2016C38.476 23.0708 38.3267 21.9068 38.0138 20.8234C37.3405 18.5025 35.7782 16.9474 33.4502 16.2551C31.3593 15.634 29.2305 15.6317 27.1419 16.2433C24.6172 16.9853 23.0596 18.7183 22.4362 21.2525C21.898 23.4335 21.8862 25.643 22.4314 27.8216C23.126 30.5929 24.8803 32.3448 27.6872 33.011C30.3731 33.6487 32.7959 33.2931 35.9086 31.7237C35.9086 33.625 35.9323 35.4575 35.8778 37.29C35.8707 37.5176 35.4819 37.8353 35.2045 37.9396C27.7725 40.7559 17.3819 37.5057 16.7489 26.3139C16.6328 24.2514 16.7561 22.1059 17.197 20.0909C18.4226 14.4914 22.8984 10.8334 28.6402 10.4636C31.4707 10.2811 34.2492 10.4873 36.845 11.7699C40.7495 13.6972 43.3098 16.8786 43.6038 21.1387C43.9902 26.7501 43.6986 32.4064 43.6986 38.1624Z" fill="#F9C802"/>
<path d="M112.147 24.5951C112.185 19.97 113.37 15.8308 117.277 12.9196C124.036 7.88437 134.933 10.3214 138.12 17.6657C140.094 22.215 140.125 26.9468 138.091 31.4724C135.704 36.7827 131.171 38.7883 125.588 38.7219C117.239 38.6223 112.173 33.267 112.147 24.5951ZM125.847 15.8569C121.606 15.8474 118.763 17.6728 118.042 21.2786C117.666 23.168 117.63 25.2186 117.91 27.127C118.429 30.6688 120.461 32.5653 123.957 33.1248C125.109 33.3097 126.33 33.3073 127.492 33.1603C130.953 32.7241 133.191 30.6143 133.755 27.1981C133.983 25.816 134.033 24.3581 133.883 22.9665C133.366 18.1659 130.707 15.8687 125.847 15.8569Z" fill="#F9C802"/>
<path d="M86.2496 13.4956C90.1754 13.4956 94.113 13.4956 98.1455 13.4956C98.1455 15.3258 98.1455 17.0706 98.1455 18.9197C94.1937 18.9197 90.2607 18.9197 86.1998 18.9197C86.1998 25.3513 86.1998 31.6833 86.1998 38.1055C84.327 38.1055 82.5822 38.1055 80.7164 38.1055C80.7164 37.738 80.7164 37.3943 80.7164 37.0505C80.7164 29.1942 80.707 21.3354 80.7212 13.479C80.7283 10.0131 81.6552 6.85542 84.0046 4.2145C86.3349 1.59729 89.3267 0.307653 92.7594 0.0658451C94.6346 -0.0669118 96.5288 0.0421385 98.4822 0.0421385C98.4822 1.83436 98.4822 3.55072 98.4822 5.42117C97.1902 5.42117 95.9337 5.36664 94.6868 5.43776C93.5133 5.50414 92.3019 5.54681 91.1853 5.86685C87.909 6.81037 85.9106 9.94913 86.2496 13.4956Z" fill="#F9C802"/>
<path d="M108.373 49.9895C106.758 49.9895 105.189 50.0345 103.629 49.9373C103.408 49.9231 103.067 49.2024 103.065 48.8065C103.024 43.7546 103.034 38.7028 103.034 33.6485C103.034 22.8336 103.039 12.0186 103.041 1.20367C103.041 0.857552 103.041 0.509065 103.041 0.0847168C104.859 0.0847168 106.576 0.0847168 108.373 0.0847168C108.373 16.6651 108.373 33.2526 108.373 49.9895Z" fill="#F9C802"/>
<path d="M14.0274 38.1126C6.76372 38.7526 0.384269 33.4613 0.149574 26.2545C-0.104087 18.4076 0.0476353 10.5465 0.0215581 2.69017C0.0191874 1.83436 0.0215581 0.976181 0.0215581 0.0634766C1.84223 0.0634766 3.52539 0.0634766 5.35554 0.0634766C5.35554 3.63606 5.35554 7.20153 5.35554 10.8832C8.24064 10.8832 10.9835 10.8832 13.8069 10.8832C13.8069 12.7441 13.8069 14.4889 13.8069 16.3618C11.0096 16.3618 8.26671 16.3618 5.63054 16.3618C5.63054 19.9509 5.3508 23.4382 5.70877 26.859C6.07148 30.3107 8.89968 32.4799 12.4414 32.7312C12.9464 32.7667 13.4513 32.7881 14.025 32.8189C14.0274 34.5969 14.0274 36.3132 14.0274 38.1126Z" fill="#F9C802"/>
<path d="M17.6593 6.97876C24.1288 0.577973 37.5823 0.995209 43.2671 7.07121C42.3829 7.78952 41.5034 8.50309 40.6547 9.19058C33.6921 4.6081 27.1917 4.69581 19.8972 9.44898C19.1718 8.65007 18.4345 7.83693 17.6593 6.97876Z" fill="#F9C802"/>
<path d="M117.637 44.7694C117.668 44.6627 117.67 44.62 117.692 44.5892C118.237 43.8164 118.635 42.7117 119.38 42.375C120.041 42.0763 121.101 42.5837 121.964 42.8183C127.082 44.217 135.827 41.9578 139.096 36.7637C139.179 36.6309 139.269 36.5005 139.412 36.2896C140.422 36.951 141.337 37.5484 142.245 38.141C138.52 45.3668 125.282 49.3756 117.637 44.7694Z" fill="#F9C802"/>
</svg>
