<svg width="1280" height="81" viewBox="0 0 1280 81" fill="none" xmlns="http://www.w3.org/2000/svg">
<path d="M3.1709 3.13623C82.7613 3.13623 82.7613 65.8635 162.373 65.8635C241.984 65.8635 241.984 3.13623 321.575 3.13623C401.186 3.13623 401.186 65.8635 480.777 65.8635C560.367 65.8635 560.367 3.13623 639.979 3.13623C719.59 3.13623 719.59 65.8635 799.181 65.8635C878.792 65.8635 878.792 3.13623 958.383 3.13623C1037.99 3.13623 1037.99 65.8635 1117.61 65.8635C1197.22 65.8635 1197.22 3.13623 1276.83 3.13623" stroke="#49505B" stroke-width="3" stroke-miterlimit="10" stroke-linecap="round"/>
<circle cx="160" cy="65" r="15" fill="#FFC900"/>
<circle cx="482" cy="65" r="15" fill="#FFC900"/>
<circle cx="798" cy="65" r="15" fill="#FFC900"/>
<circle cx="1120" cy="66" r="15" fill="#FFC900"/>
</svg>
