<svg width="25" height="25" viewBox="0 0 25 25" fill="none" xmlns="http://www.w3.org/2000/svg">
<path d="M17.3967 9.01418L17.5079 8.90643L17.3967 8.79868L16.4608 7.89225L16.3565 7.79118L16.2521 7.89225L12.6462 11.3847L9.04023 7.89225L8.93587 7.79118L8.83151 7.89225L7.89564 8.79868L7.7844 8.90643L7.89564 9.01418L11.4947 12.5L7.89564 15.9858L7.7844 16.0936L7.89564 16.2013L8.83151 17.1077L8.93587 17.2088L9.04023 17.1077L12.6462 13.6153L16.2521 17.1077L16.3565 17.2088L16.4608 17.1077L17.3967 16.2013L17.5079 16.0936L17.3967 15.9858L13.7976 12.5L17.3967 9.01418Z" fill="#D84E2C" stroke="#D84E2C" stroke-width="0.3"/>
<rect width="25" height="25" rx="12.5" fill="#D6492C" fill-opacity="0.1"/>
</svg>
