<svg width="44" height="44" viewBox="0 0 44 44" fill="none" xmlns="http://www.w3.org/2000/svg">
<mask id="mask0_17031_2744" style="mask-type:alpha" maskUnits="userSpaceOnUse" x="0" y="0" width="44" height="44">
<rect width="44" height="44" fill="#D9D9D9"/>
<rect x="0.5" y="0.5" width="43" height="43" stroke="#C4C4C4" stroke-opacity="0.5"/>
</mask>
<g mask="url(#mask0_17031_2744)">
<path d="M3.83909 34.8272L3.82867 34.8458H3.85H29.15H29.1713L29.1609 34.8272C27.8765 32.5336 26.1026 30.7368 23.8396 29.4371C21.5765 28.1374 19.1299 27.4875 16.5 27.4875C13.8701 27.4875 11.4235 28.1374 9.16044 29.4371C6.89736 30.7368 5.12352 32.5336 3.83909 34.8272ZM3.66667 38.4875C2.66167 38.4875 1.80165 38.1298 1.08592 37.4141C0.370192 36.6983 0.0125 35.8383 0.0125 34.8333V9.16667C0.0125 8.16167 0.370192 7.30165 1.08592 6.58592C1.80165 5.87019 2.66167 5.5125 3.66667 5.5125H40.3333C41.3383 5.5125 42.1983 5.87019 42.9141 6.58592C43.6298 7.30165 43.9875 8.16167 43.9875 9.16667V34.8333C43.9875 35.8383 43.6298 36.6983 42.9141 37.4141C42.1983 38.1298 41.3383 38.4875 40.3333 38.4875H3.66667ZM16.5 25.6792C18.0311 25.6792 19.3329 25.1432 20.4047 24.0713C21.4765 22.9995 22.0125 21.6977 22.0125 20.1667C22.0125 18.6356 21.4765 17.3338 20.4047 16.262C19.3329 15.1902 18.0311 14.6542 16.5 14.6542C14.9689 14.6542 13.6671 15.1902 12.5953 16.262C11.5235 17.3338 10.9875 18.6356 10.9875 20.1667C10.9875 21.6977 11.5235 22.9995 12.5953 24.0713C13.6671 25.1432 14.9689 25.6792 16.5 25.6792Z" fill="#181818" stroke="#181818" stroke-width="0.025"/>
</g>
<path d="M30.1545 19.9324H28.4416V13.2623H30.1545V19.9324ZM30.0525 9.94673C30.2108 10.0999 30.31 10.3216 30.317 10.5952C30.316 10.8529 30.2201 11.0721 30.0577 11.2281C29.8969 11.3824 29.6501 11.4942 29.3128 11.4972H29.2984H29.2824C28.6543 11.4972 28.2963 11.0872 28.2963 10.591C28.2963 10.325 28.3952 10.105 28.5594 9.95001C28.7243 9.79434 28.9767 9.68451 29.3149 9.68451C29.6517 9.68451 29.8942 9.79349 30.0525 9.94673ZM32.2827 16.8596C32.2859 15.4571 32.2867 13.9852 32.2785 13.2626H33.9835V13.827L33.6559 14.3386H34.3431H34.3595H34.7354V14.0508C34.8765 13.845 35.0544 13.6295 35.302 13.4546C35.59 13.251 35.9923 13.0883 36.5808 13.0883C37.3077 13.0883 37.9088 13.3239 38.3311 13.7824C38.7561 14.244 39.0422 14.9776 39.0422 16.0528V19.9324H37.3296V16.3382C37.3296 15.8051 37.2361 15.2977 36.9745 14.9133C36.6966 14.505 36.262 14.2839 35.7051 14.2839C34.8209 14.2839 34.3064 14.8887 34.0922 15.4207C33.9969 15.6535 33.9834 15.9414 33.9834 16.164V19.9324H32.2723L32.2751 19.2483C32.2776 18.6068 32.2807 17.7441 32.2827 16.8596Z" fill="white" stroke="#181818" stroke-width="0.751829"/>
</svg>
