<svg width="12" height="13" viewBox="0 0 12 13" fill="none" xmlns="http://www.w3.org/2000/svg">
<mask id="mask0_17700_3908" style="mask-type:alpha" maskUnits="userSpaceOnUse" x="0" y="0" width="12" height="13">
<rect y="0.248047" width="12" height="12" fill="#D9D9D9"/>
</mask>
<g mask="url(#mask0_17700_3908)">
<path d="M1.5 10.748V3.74805H3.5V1.74805H8.5V5.74805H10.5V10.748H6.5V8.74805H5.5V10.748H1.5ZM2.5 9.74805H3.5V8.74805H2.5V9.74805ZM2.5 7.74805H3.5V6.74805H2.5V7.74805ZM2.5 5.74805H3.5V4.74805H2.5V5.74805ZM4.5 7.74805H5.5V6.74805H4.5V7.74805ZM4.5 5.74805H5.5V4.74805H4.5V5.74805ZM4.5 3.74805H5.5V2.74805H4.5V3.74805ZM6.5 7.74805H7.5V6.74805H6.5V7.74805ZM6.5 5.74805H7.5V4.74805H6.5V5.74805ZM6.5 3.74805H7.5V2.74805H6.5V3.74805ZM8.5 9.74805H9.5V8.74805H8.5V9.74805ZM8.5 7.74805H9.5V6.74805H8.5V7.74805Z" fill="#1C1B1F"/>
</g>
</svg>
