<svg width="45" height="45" viewBox="0 0 45 45" fill="none" xmlns="http://www.w3.org/2000/svg">
<path d="M35.625 5.625L9.375 5.625C7.30312 5.625 5.625 7.30312 5.625 9.375L5.625 35.625C5.625 37.6969 7.30312 39.375 9.375 39.375H35.625C37.6969 39.375 39.375 37.6969 39.375 35.625V9.375C39.375 7.30312 37.6969 5.625 35.625 5.625ZM16.875 31.875H12.1444L12.1444 18.75H16.875V31.875ZM14.4262 16.3444C12.9806 16.3444 12.015 15.3806 12.015 14.0944C12.015 12.8081 12.9787 11.8444 14.5856 11.8444C16.0312 11.8444 16.9969 12.8081 16.9969 14.0944C16.9969 15.3806 16.0331 16.3444 14.4262 16.3444ZM33.75 31.875H29.1712V24.7012C29.1712 22.7175 27.9506 22.26 27.4931 22.26C27.0356 22.26 25.5094 22.5656 25.5094 24.7012C25.5094 25.0069 25.5094 31.875 25.5094 31.875H20.7787V18.75H25.5094V20.5819C26.1187 19.5131 27.3394 18.75 29.6287 18.75C31.9181 18.75 33.75 20.5819 33.75 24.7012V31.875Z" fill="#181818"/>
</svg>
