<svg width="45" height="45" viewBox="0 0 45 45" fill="none" xmlns="http://www.w3.org/2000/svg">
<mask id="mask0_17031_2753" style="mask-type:alpha" maskUnits="userSpaceOnUse" x="0" y="0" width="45" height="45">
<rect width="45" height="45" fill="#D9D9D9"/>
<rect x="0.5" y="0.5" width="44" height="44" stroke="#C4C4C4" stroke-opacity="0.5"/>
</mask>
<g mask="url(#mask0_17031_2753)">
<path d="M20.6125 31.875V39.3625H5.6375V13.1375H13.125H13.1375V13.125V5.6375H31.8625V20.625V20.6375H31.875H39.3625V39.3625H24.3875V31.875V31.8625H24.375H20.625H20.6125V31.875ZM9.3625 35.625V35.6375H9.375H13.125H13.1375V35.625V31.875V31.8625H13.125H9.375H9.3625V31.875V35.625ZM9.3625 28.125V28.1375H9.375H13.125H13.1375V28.125V24.375V24.3625H13.125H9.375H9.3625V24.375V28.125ZM9.3625 20.625V20.6375H9.375H13.125H13.1375V20.625V16.875V16.8625H13.125H9.375H9.3625V16.875V20.625ZM16.8625 28.125V28.1375H16.875H20.625H20.6375V28.125V24.375V24.3625H20.625H16.875H16.8625V24.375V28.125ZM16.8625 20.625V20.6375H16.875H20.625H20.6375V20.625V16.875V16.8625H20.625H16.875H16.8625V16.875V20.625ZM16.8625 13.125V13.1375H16.875H20.625H20.6375V13.125V9.375V9.3625H20.625H16.875H16.8625V9.375V13.125ZM24.3625 28.125V28.1375H24.375H28.125H28.1375V28.125V24.375V24.3625H28.125H24.375H24.3625V24.375V28.125ZM24.3625 20.625V20.6375H24.375H28.125H28.1375V20.625V16.875V16.8625H28.125H24.375H24.3625V16.875V20.625ZM24.3625 13.125V13.1375H24.375H28.125H28.1375V13.125V9.375V9.3625H28.125H24.375H24.3625V9.375V13.125ZM31.8625 35.625V35.6375H31.875H35.625H35.6375V35.625V31.875V31.8625H35.625H31.875H31.8625V31.875V35.625ZM31.8625 28.125V28.1375H31.875H35.625H35.6375V28.125V24.375V24.3625H35.625H31.875H31.8625V24.375V28.125Z" fill="#181818" stroke="#181818" stroke-width="0.025"/>
</g>
</svg>
