<svg width="31" height="31" viewBox="0 0 31 31" fill="none" xmlns="http://www.w3.org/2000/svg">
<rect width="31" height="31" rx="15.5" fill="#9747FF" fill-opacity="0.21"/>
<path d="M21.3432 19.6628C21.2474 19.7587 21.0557 19.8545 20.9599 19.9503L18.6599 20.3337L20.2891 23.7837C20.4807 24.167 20.2891 24.5503 19.9057 24.742L17.2224 25.9878C17.1266 26.0837 17.0307 26.0837 16.9349 26.0837C16.6474 26.0837 16.3599 25.892 16.2641 25.7003L14.7307 22.2503L12.9099 23.6878C12.8141 23.7837 12.6224 23.8795 12.4307 23.8795C12.0474 23.8795 11.6641 23.592 11.6641 23.1128V12.1878C11.6641 11.7087 11.9516 11.4212 12.4307 11.4212C12.6224 11.4212 12.8141 11.517 12.9099 11.6128L21.2474 18.7045C21.5349 18.8962 21.6307 19.3753 21.3432 19.6628ZM9.7474 16.5003H7.83073V8.83366H23.1641V16.5003H21.6307L23.7391 18.3212C24.5057 18.0337 24.9849 17.3628 24.9849 16.5003V8.83366C24.9849 7.77949 24.1224 6.91699 23.0682 6.91699H7.83073C6.77656 6.91699 5.91406 7.77949 5.91406 8.83366V16.5003C5.91406 17.5545 6.77656 18.417 7.83073 18.417H9.7474V16.5003Z" fill="#9747FF"/>
</svg>
