<svg width="148" height="145" viewBox="0 0 148 145" fill="none" xmlns="http://www.w3.org/2000/svg">
<rect width="147.207" height="144.814" rx="72.4069" fill="#1FA3FF" fill-opacity="0.1"/>
<rect x="32.9119" y="20.9441" width="59.8404" height="55.0532" rx="2.99202" fill="white"/>
<line x1="38.2979" y1="35.6041" x2="46.6755" y2="35.6041" stroke="#1FA3FF" stroke-width="0.598404"/>
<line x1="38.2979" y1="36.8014" x2="83.7766" y2="36.8014" stroke="#D9D9D9" stroke-width="0.598404"/>
<line x1="38.2979" y1="37.9986" x2="83.7766" y2="37.9986" stroke="#D9D9D9" stroke-width="0.598404"/>
<line x1="38.2979" y1="57.1471" x2="46.6755" y2="57.1471" stroke="#1FA3FF" stroke-width="0.598404"/>
<line x1="38.2979" y1="39.1949" x2="83.7766" y2="39.1949" stroke="#D9D9D9" stroke-width="0.598404"/>
<line x1="38.2979" y1="40.3922" x2="62.234" y2="40.3922" stroke="#D9D9D9" stroke-width="0.598404"/>
<line x1="38.2979" y1="45.1793" x2="46.6755" y2="45.1793" stroke="#181818" stroke-width="0.598404"/>
<line x1="38.2979" y1="49.9664" x2="46.6755" y2="49.9664" stroke="#181818" stroke-width="0.598404"/>
<line x1="38.2979" y1="54.7535" x2="46.6755" y2="54.7535" stroke="#181818" stroke-width="0.598404"/>
<line x1="38.2979" y1="59.5406" x2="46.6755" y2="59.5406" stroke="#181818" stroke-width="0.598404"/>
<line x1="38.2979" y1="47.2737" x2="55.0532" y2="47.2737" stroke="#D9D9D9" stroke-width="1.19681"/>
<line x1="38.2979" y1="52.0608" x2="55.0532" y2="52.0608" stroke="#D9D9D9" stroke-width="1.19681"/>
<line x1="38.2979" y1="56.8479" x2="55.0532" y2="56.8479" stroke="#D9D9D9" stroke-width="1.19681"/>
<line x1="38.2979" y1="61.635" x2="55.0532" y2="61.635" stroke="#D9D9D9" stroke-width="1.19681"/>
<line x1="38.2979" y1="52.36" x2="55.0532" y2="52.36" stroke="#D9D9D9" stroke-width="0.598404"/>
<path d="M39.9364 25.6869H40.7742L42.336 29.9355H41.4863L41.0913 28.8764H39.6073L39.2183 29.9355H38.3686L39.9364 25.6869ZM40.9417 28.2959L40.3553 26.5426L39.7449 28.2959H40.9417ZM44.6032 29.9954C44.3599 29.9954 44.1444 29.9415 43.9569 29.8338C43.7734 29.7221 43.6298 29.5725 43.5261 29.385V31.2101H42.7242V26.7999H43.4243V27.3385C43.544 27.155 43.6956 27.0113 43.8791 26.9076C44.0626 26.7999 44.2721 26.7461 44.5075 26.7461C44.7189 26.7461 44.9124 26.7879 45.0879 26.8717C45.2674 26.9555 45.423 27.0732 45.5547 27.2248C45.6863 27.3724 45.788 27.5439 45.8599 27.7394C45.9357 27.9309 45.9736 28.1383 45.9736 28.3617C45.9736 28.6649 45.9137 28.9402 45.794 29.1875C45.6783 29.4349 45.5168 29.6324 45.3093 29.78C45.1059 29.9236 44.8705 29.9954 44.6032 29.9954ZM44.3339 29.3132C44.4576 29.3132 44.5693 29.2873 44.669 29.2354C44.7688 29.1836 44.8545 29.1137 44.9263 29.026C45.0021 28.9342 45.058 28.8325 45.0939 28.7208C45.1338 28.6051 45.1537 28.4854 45.1537 28.3617C45.1537 28.2301 45.1318 28.1084 45.0879 27.9967C45.048 27.885 44.9882 27.7873 44.9084 27.7035C44.8286 27.6157 44.7349 27.5479 44.6271 27.5C44.5234 27.4522 44.4097 27.4282 44.2861 27.4282C44.2103 27.4282 44.1325 27.4422 44.0527 27.4701C43.9769 27.4941 43.9031 27.53 43.8313 27.5778C43.7595 27.6257 43.6956 27.6816 43.6398 27.7454C43.5879 27.8092 43.55 27.879 43.5261 27.9548V28.6909C43.5739 28.8066 43.6378 28.9123 43.7176 29.008C43.8013 29.1038 43.8971 29.1796 44.0048 29.2354C44.1125 29.2873 44.2222 29.3132 44.3339 29.3132ZM48.3958 29.9954C48.1525 29.9954 47.937 29.9415 47.7495 29.8338C47.566 29.7221 47.4224 29.5725 47.3187 29.385V31.2101H46.5168V26.7999H47.217V27.3385C47.3366 27.155 47.4882 27.0113 47.6718 26.9076C47.8553 26.7999 48.0647 26.7461 48.3001 26.7461C48.5115 26.7461 48.705 26.7879 48.8805 26.8717C49.0601 26.9555 49.2156 27.0732 49.3473 27.2248C49.4789 27.3724 49.5807 27.5439 49.6525 27.7394C49.7283 27.9309 49.7662 28.1383 49.7662 28.3617C49.7662 28.6649 49.7063 28.9402 49.5866 29.1875C49.471 29.4349 49.3094 29.6324 49.1019 29.78C48.8985 29.9236 48.6631 29.9954 48.3958 29.9954ZM48.1265 29.3132C48.2502 29.3132 48.3619 29.2873 48.4616 29.2354C48.5614 29.1836 48.6472 29.1137 48.719 29.026C48.7948 28.9342 48.8506 28.8325 48.8865 28.7208C48.9264 28.6051 48.9464 28.4854 48.9464 28.3617C48.9464 28.2301 48.9244 28.1084 48.8805 27.9967C48.8406 27.885 48.7808 27.7873 48.701 27.7035C48.6212 27.6157 48.5275 27.5479 48.4198 27.5C48.316 27.4522 48.2023 27.4282 48.0787 27.4282C48.0029 27.4282 47.9251 27.4422 47.8453 27.4701C47.7695 27.4941 47.6957 27.53 47.6239 27.5778C47.5521 27.6257 47.4882 27.6816 47.4324 27.7454C47.3805 27.8092 47.3426 27.879 47.3187 27.9548V28.6909C47.3666 28.8066 47.4304 28.9123 47.5102 29.008C47.594 29.1038 47.6897 29.1796 47.7974 29.2354C47.9051 29.2873 48.0148 29.3132 48.1265 29.3132ZM50.3035 25.5672H51.1053V28.9302C51.1053 29.0738 51.1293 29.1716 51.1771 29.2234C51.225 29.2713 51.2908 29.2953 51.3746 29.2953C51.4384 29.2953 51.5043 29.2873 51.5721 29.2713C51.6399 29.2554 51.6997 29.2354 51.7516 29.2115L51.8593 29.8219C51.7516 29.8737 51.6259 29.9136 51.4823 29.9415C51.3387 29.9695 51.2091 29.9834 51.0934 29.9834C50.842 29.9834 50.6466 29.9176 50.5069 29.7859C50.3713 29.6503 50.3035 29.4588 50.3035 29.2115V25.5672ZM52.2087 29.9355V26.7999H53.0106V29.9355H52.2087ZM52.2087 26.3631V25.5672H53.0106V26.3631H52.2087ZM55.194 29.9954C54.9387 29.9954 54.7093 29.9535 54.5059 29.8697C54.3024 29.782 54.1289 29.6623 53.9852 29.5107C53.8416 29.3551 53.7299 29.1796 53.6501 28.9841C53.5743 28.7886 53.5364 28.5832 53.5364 28.3677C53.5364 28.0725 53.6023 27.8032 53.7339 27.5599C53.8696 27.3125 54.061 27.1151 54.3084 26.9675C54.5557 26.8199 54.8489 26.7461 55.188 26.7461C55.5271 26.7461 55.8184 26.8199 56.0617 26.9675C56.3051 27.1151 56.4866 27.3086 56.6063 27.5479L55.8224 27.7873C55.7545 27.6716 55.6648 27.5838 55.5531 27.524C55.4414 27.4601 55.3177 27.4282 55.1821 27.4282C55.0305 27.4282 54.8908 27.4681 54.7632 27.5479C54.6395 27.6237 54.5418 27.7334 54.47 27.877C54.3981 28.0167 54.3622 28.1802 54.3622 28.3677C54.3622 28.5512 54.3981 28.7148 54.47 28.8584C54.5458 28.998 54.6455 29.1097 54.7692 29.1935C54.8928 29.2733 55.0305 29.3132 55.1821 29.3132C55.2778 29.3132 55.3676 29.2972 55.4513 29.2653C55.5391 29.2334 55.6169 29.1895 55.6847 29.1337C55.7525 29.0778 55.8024 29.014 55.8343 28.9422L56.6182 29.1816C56.5464 29.3371 56.4407 29.4768 56.3011 29.6004C56.1654 29.7241 56.0039 29.8219 55.8164 29.8937C55.6329 29.9615 55.4254 29.9954 55.194 29.9954ZM56.8962 29.008C56.8962 28.8046 56.9521 28.627 57.0638 28.4754C57.1795 28.3199 57.339 28.2002 57.5425 28.1164C57.7459 28.0326 57.9793 27.9907 58.2426 27.9907C58.3743 27.9907 58.5079 28.0007 58.6435 28.0207C58.7792 28.0406 58.8969 28.0725 58.9966 28.1164V27.9488C58.9966 27.7494 58.9368 27.5958 58.8171 27.4881C58.7014 27.3804 58.5279 27.3265 58.2965 27.3265C58.1249 27.3265 57.9614 27.3564 57.8058 27.4163C57.6502 27.4761 57.4866 27.5639 57.3151 27.6796L57.0578 27.153C57.2652 27.0173 57.4767 26.9156 57.6921 26.8478C57.9115 26.78 58.1409 26.7461 58.3802 26.7461C58.8271 26.7461 59.1741 26.8578 59.4215 27.0812C59.6728 27.3046 59.7985 27.6237 59.7985 28.0386V29.0379C59.7985 29.1217 59.8124 29.1816 59.8404 29.2175C59.8723 29.2534 59.9221 29.2753 59.99 29.2833V29.9355C59.9181 29.9475 59.8523 29.9575 59.7925 29.9655C59.7366 29.9734 59.6888 29.9774 59.6489 29.9774C59.4893 29.9774 59.3676 29.9415 59.2838 29.8697C59.2041 29.7979 59.1542 29.7101 59.1342 29.6064L59.1163 29.4449C58.9806 29.6204 58.8111 29.756 58.6076 29.8518C58.4042 29.9475 58.1967 29.9954 57.9853 29.9954C57.7779 29.9954 57.5904 29.9535 57.4228 29.8697C57.2592 29.782 57.1296 29.6643 57.0338 29.5167C56.9421 29.3651 56.8962 29.1955 56.8962 29.008ZM58.847 29.1696C58.8909 29.1217 58.9268 29.0738 58.9547 29.026C58.9826 28.9781 58.9966 28.9342 58.9966 28.8943V28.5772C58.9009 28.5373 58.7971 28.5074 58.6854 28.4874C58.5737 28.4635 58.468 28.4515 58.3683 28.4515C58.1608 28.4515 57.9893 28.4974 57.8537 28.5891C57.722 28.6769 57.6562 28.7946 57.6562 28.9422C57.6562 29.022 57.6781 29.0978 57.722 29.1696C57.7659 29.2414 57.8297 29.2992 57.9135 29.3431C57.9973 29.387 58.097 29.409 58.2127 29.409C58.3324 29.409 58.4501 29.387 58.5658 29.3431C58.6814 29.2953 58.7752 29.2374 58.847 29.1696ZM62.3976 29.774C62.3297 29.8019 62.248 29.8338 62.1522 29.8697C62.0565 29.9056 61.9527 29.9336 61.841 29.9535C61.7333 29.9774 61.6236 29.9894 61.5119 29.9894C61.3643 29.9894 61.2287 29.9635 61.105 29.9116C60.9813 29.8597 60.8816 29.778 60.8058 29.6663C60.734 29.5506 60.6981 29.401 60.6981 29.2175V27.4163H60.2852V26.7999H60.6981V25.7826H61.4999V26.7999H62.1582V27.4163H61.4999V28.9482C61.5039 29.0559 61.5339 29.1337 61.5897 29.1816C61.6456 29.2294 61.7154 29.2534 61.7991 29.2534C61.8829 29.2534 61.9647 29.2394 62.0445 29.2115C62.1243 29.1836 62.1881 29.1596 62.236 29.1397L62.3976 29.774ZM62.8152 29.9355V26.7999H63.617V29.9355H62.8152ZM62.8152 26.3631V25.5672H63.617V26.3631H62.8152ZM65.7885 29.9954C65.5332 29.9954 65.3038 29.9535 65.1004 29.8697C64.8969 29.782 64.7234 29.6623 64.5798 29.5107C64.4401 29.3591 64.3324 29.1855 64.2566 28.9901C64.1808 28.7946 64.1429 28.5891 64.1429 28.3737C64.1429 28.1543 64.1808 27.9468 64.2566 27.7514C64.3324 27.5559 64.4401 27.3824 64.5798 27.2308C64.7234 27.0792 64.8969 26.9615 65.1004 26.8777C65.3038 26.7899 65.5332 26.7461 65.7885 26.7461C66.0439 26.7461 66.2713 26.7899 66.4707 26.8777C66.6742 26.9615 66.8477 27.0792 66.9913 27.2308C67.1349 27.3824 67.2427 27.5559 67.3145 27.7514C67.3903 27.9468 67.4282 28.1543 67.4282 28.3737C67.4282 28.5891 67.3903 28.7946 67.3145 28.9901C67.2427 29.1855 67.1349 29.3591 66.9913 29.5107C66.8517 29.6623 66.6802 29.782 66.4767 29.8697C66.2732 29.9535 66.0439 29.9954 65.7885 29.9954ZM64.9687 28.3737C64.9687 28.5572 65.0046 28.7208 65.0764 28.8644C65.1482 29.004 65.246 29.1137 65.3697 29.1935C65.4933 29.2733 65.633 29.3132 65.7885 29.3132C65.9401 29.3132 66.0778 29.2733 66.2014 29.1935C66.3251 29.1097 66.4228 28.998 66.4947 28.8584C66.5705 28.7148 66.6084 28.5512 66.6084 28.3677C66.6084 28.1882 66.5705 28.0266 66.4947 27.883C66.4228 27.7394 66.3251 27.6277 66.2014 27.5479C66.0778 27.4681 65.9401 27.4282 65.7885 27.4282C65.633 27.4282 65.4933 27.4701 65.3697 27.5539C65.246 27.6337 65.1482 27.7454 65.0764 27.889C65.0046 28.0286 64.9687 28.1902 64.9687 28.3737ZM70.8836 29.9355H70.0818V28.1762C70.0818 27.9249 70.0379 27.7414 69.9501 27.6257C69.8623 27.51 69.7407 27.4522 69.5851 27.4522C69.4774 27.4522 69.3677 27.4801 69.256 27.5359C69.1483 27.5918 69.0505 27.6696 68.9627 27.7693C68.875 27.8651 68.8112 27.9768 68.7713 28.1044V29.9355H67.9694V26.7999H68.6935V27.3804C68.7733 27.2447 68.875 27.131 68.9987 27.0393C69.1223 26.9435 69.2639 26.8717 69.4235 26.8238C69.5871 26.772 69.7586 26.7461 69.9381 26.7461C70.1336 26.7461 70.2932 26.782 70.4169 26.8538C70.5445 26.9216 70.6403 27.0153 70.7041 27.135C70.7719 27.2507 70.8178 27.3824 70.8417 27.53C70.8697 27.6776 70.8836 27.8272 70.8836 27.9788V29.9355ZM74.8974 29.9954C74.6541 29.9954 74.4386 29.9415 74.2511 29.8338C74.0676 29.7221 73.924 29.5725 73.8203 29.385V31.2101H73.0184V26.7999H73.7186V27.3385C73.8382 27.155 73.9898 27.0113 74.1734 26.9076C74.3569 26.7999 74.5663 26.7461 74.8017 26.7461C75.0131 26.7461 75.2066 26.7879 75.3821 26.8717C75.5616 26.9555 75.7172 27.0732 75.8489 27.2248C75.9805 27.3724 76.0823 27.5439 76.1541 27.7394C76.2299 27.9309 76.2678 28.1383 76.2678 28.3617C76.2678 28.6649 76.2079 28.9402 76.0882 29.1875C75.9726 29.4349 75.811 29.6324 75.6035 29.78C75.4001 29.9236 75.1647 29.9954 74.8974 29.9954ZM74.6281 29.3132C74.7518 29.3132 74.8635 29.2873 74.9632 29.2354C75.063 29.1836 75.1488 29.1137 75.2206 29.026C75.2964 28.9342 75.3522 28.8325 75.3881 28.7208C75.428 28.6051 75.448 28.4854 75.448 28.3617C75.448 28.2301 75.426 28.1084 75.3821 27.9967C75.3422 27.885 75.2824 27.7873 75.2026 27.7035C75.1228 27.6157 75.0291 27.5479 74.9214 27.5C74.8176 27.4522 74.7039 27.4282 74.5803 27.4282C74.5045 27.4282 74.4267 27.4422 74.3469 27.4701C74.2711 27.4941 74.1973 27.53 74.1255 27.5778C74.0537 27.6257 73.9898 27.6816 73.934 27.7454C73.8821 27.8092 73.8442 27.879 73.8203 27.9548V28.6909C73.8682 28.8066 73.932 28.9123 74.0118 29.008C74.0956 29.1038 74.1913 29.1796 74.299 29.2354C74.4067 29.2873 74.5164 29.3132 74.6281 29.3132ZM76.5956 29.008C76.5956 28.8046 76.6515 28.627 76.7632 28.4754C76.8789 28.3199 77.0384 28.2002 77.2419 28.1164C77.4454 28.0326 77.6787 27.9907 77.942 27.9907C78.0737 27.9907 78.2073 28.0007 78.343 28.0207C78.4786 28.0406 78.5963 28.0725 78.696 28.1164V27.9488C78.696 27.7494 78.6362 27.5958 78.5165 27.4881C78.4008 27.3804 78.2273 27.3265 77.9959 27.3265C77.8244 27.3265 77.6608 27.3564 77.5052 27.4163C77.3496 27.4761 77.1861 27.5639 77.0145 27.6796L76.7572 27.153C76.9646 27.0173 77.1761 26.9156 77.3915 26.8478C77.6109 26.78 77.8403 26.7461 78.0797 26.7461C78.5265 26.7461 78.8736 26.8578 79.1209 27.0812C79.3722 27.3046 79.4979 27.6237 79.4979 28.0386V29.0379C79.4979 29.1217 79.5119 29.1816 79.5398 29.2175C79.5717 29.2534 79.6216 29.2753 79.6894 29.2833V29.9355C79.6176 29.9475 79.5517 29.9575 79.4919 29.9655C79.4361 29.9734 79.3882 29.9774 79.3483 29.9774C79.1887 29.9774 79.067 29.9415 78.9833 29.8697C78.9035 29.7979 78.8536 29.7101 78.8337 29.6064L78.8157 29.4449C78.6801 29.6204 78.5105 29.756 78.3071 29.8518C78.1036 29.9475 77.8962 29.9954 77.6847 29.9954C77.4773 29.9954 77.2898 29.9535 77.1222 29.8697C76.9587 29.782 76.829 29.6643 76.7333 29.5167C76.6415 29.3651 76.5956 29.1955 76.5956 29.008ZM78.5464 29.1696C78.5903 29.1217 78.6262 29.0738 78.6541 29.026C78.6821 28.9781 78.696 28.9342 78.696 28.8943V28.5772C78.6003 28.5373 78.4966 28.5074 78.3849 28.4874C78.2732 28.4635 78.1674 28.4515 78.0677 28.4515C77.8603 28.4515 77.6887 28.4974 77.5531 28.5891C77.4214 28.6769 77.3556 28.7946 77.3556 28.9422C77.3556 29.022 77.3775 29.0978 77.4214 29.1696C77.4653 29.2414 77.5291 29.2992 77.6129 29.3431C77.6967 29.387 77.7964 29.409 77.9121 29.409C78.0318 29.409 78.1495 29.387 78.2652 29.3431C78.3809 29.2953 78.4746 29.2374 78.5464 29.1696ZM81.4739 29.9535C81.2665 29.9535 81.075 29.9136 80.8995 29.8338C80.7279 29.75 80.5783 29.6344 80.4507 29.4867C80.327 29.3391 80.2312 29.1696 80.1634 28.9781C80.0956 28.7866 80.0617 28.5832 80.0617 28.3677C80.0617 28.1403 80.0976 27.9289 80.1694 27.7334C80.2412 27.5379 80.341 27.3664 80.4686 27.2188C80.6003 27.0672 80.7539 26.9515 80.9294 26.8717C81.1089 26.7879 81.3064 26.7461 81.5218 26.7461C81.7652 26.7461 81.9786 26.8019 82.1621 26.9136C82.3456 27.0213 82.4972 27.1669 82.6169 27.3504V26.7999H83.317V29.7859C83.317 30.0971 83.2412 30.3624 83.0896 30.5818C82.942 30.8052 82.7366 30.9748 82.4733 31.0905C82.21 31.2101 81.9108 31.27 81.5757 31.27C81.2366 31.27 80.9493 31.2121 80.714 31.0965C80.4786 30.9847 80.2771 30.8252 80.1096 30.6177L80.5464 30.1929C80.6661 30.3405 80.8157 30.4562 80.9952 30.5399C81.1787 30.6237 81.3722 30.6656 81.5757 30.6656C81.7472 30.6656 81.9028 30.6337 82.0424 30.5699C82.186 30.51 82.2997 30.4143 82.3835 30.2826C82.4713 30.155 82.5152 29.9894 82.5152 29.7859V29.391C82.4114 29.5705 82.2638 29.7101 82.0723 29.8099C81.8848 29.9056 81.6854 29.9535 81.4739 29.9535ZM81.7432 29.3132C81.831 29.3132 81.9148 29.2992 81.9945 29.2713C82.0743 29.2434 82.1481 29.2055 82.216 29.1576C82.2838 29.1097 82.3436 29.0539 82.3955 28.9901C82.4473 28.9222 82.4872 28.8544 82.5152 28.7866V28.0386C82.4673 27.9149 82.3995 27.8072 82.3117 27.7155C82.2279 27.6237 82.1322 27.5539 82.0245 27.506C81.9207 27.4542 81.811 27.4282 81.6953 27.4282C81.5717 27.4282 81.46 27.4542 81.3602 27.506C81.2605 27.5579 81.1747 27.6317 81.1029 27.7274C81.0311 27.8192 80.9753 27.9229 80.9354 28.0386C80.8995 28.1503 80.8815 28.268 80.8815 28.3917C80.8815 28.5193 80.9035 28.639 80.9473 28.7507C80.9912 28.8624 81.0511 28.9601 81.1269 29.0439C81.2066 29.1277 81.2984 29.1935 81.4021 29.2414C81.5098 29.2893 81.6235 29.3132 81.7432 29.3132ZM85.4939 29.9954C85.2426 29.9954 85.0152 29.9535 84.8118 29.8697C84.6083 29.782 84.4348 29.6643 84.2912 29.5167C84.1475 29.3651 84.0358 29.1935 83.956 29.002C83.8802 28.8066 83.8424 28.6011 83.8424 28.3857C83.8424 28.0865 83.9082 27.8132 84.0398 27.5659C84.1755 27.3185 84.367 27.1211 84.6143 26.9734C84.8656 26.8218 85.1608 26.7461 85.4999 26.7461C85.843 26.7461 86.1362 26.8218 86.3796 26.9734C86.6229 27.1211 86.8084 27.3185 86.9361 27.5659C87.0677 27.8092 87.1336 28.0725 87.1336 28.3558C87.1336 28.4036 87.1316 28.4535 87.1276 28.5054C87.1236 28.5532 87.1196 28.5931 87.1156 28.625H84.6921C84.708 28.7846 84.7539 28.9242 84.8297 29.0439C84.9095 29.1636 85.0092 29.2554 85.1289 29.3192C85.2526 29.379 85.3842 29.409 85.5239 29.409C85.6834 29.409 85.833 29.3711 85.9727 29.2953C86.1163 29.2155 86.214 29.1117 86.2659 28.9841L86.9541 29.1756C86.8783 29.3351 86.7685 29.4768 86.6249 29.6004C86.4853 29.7241 86.3197 29.8219 86.1283 29.8937C85.9368 29.9615 85.7253 29.9954 85.4939 29.9954ZM84.6741 28.1164H86.3138C86.2978 27.9568 86.2519 27.8192 86.1761 27.7035C86.1043 27.5838 86.0086 27.4921 85.8889 27.4282C85.7692 27.3604 85.6356 27.3265 85.488 27.3265C85.3443 27.3265 85.2127 27.3604 85.093 27.4282C84.9773 27.4921 84.8816 27.5838 84.8058 27.7035C84.734 27.8192 84.6901 27.9568 84.6741 28.1164Z" fill="#181818"/>
<rect x="64.627" y="64.627" width="22.7394" height="7.18085" rx="1.19681" fill="#F66B0E"/>
<path d="M71.577 66.275H72.0797L73.0168 68.8242H72.507L72.27 68.1887H71.3796L71.1462 68.8242H70.6363L71.577 66.275ZM72.1802 67.8404L71.8284 66.7884L71.4621 67.8404H72.1802ZM74.3771 68.8601C74.2311 68.8601 74.1019 68.8278 73.9894 68.7632C73.8792 68.6962 73.7931 68.6064 73.7308 68.4939V69.589H73.2497V66.9428H73.6698V67.266C73.7416 67.1559 73.8326 67.0697 73.9427 67.0075C74.0528 66.9428 74.1784 66.9105 74.3197 66.9105C74.4465 66.9105 74.5626 66.9357 74.6679 66.9859C74.7757 67.0362 74.869 67.1068 74.948 67.1978C75.027 67.2863 75.088 67.3892 75.1311 67.5065C75.1766 67.6214 75.1993 67.7459 75.1993 67.8799C75.1993 68.0619 75.1634 68.227 75.0916 68.3754C75.0222 68.5238 74.9253 68.6423 74.8008 68.7309C74.6787 68.817 74.5375 68.8601 74.3771 68.8601ZM74.2156 68.4508C74.2898 68.4508 74.3568 68.4353 74.4166 68.4041C74.4765 68.373 74.5279 68.3311 74.571 68.2785C74.6165 68.2234 74.65 68.1624 74.6715 68.0954C74.6955 68.0259 74.7074 67.9541 74.7074 67.8799C74.7074 67.8009 74.6943 67.7279 74.6679 67.6609C74.644 67.5939 74.6081 67.5353 74.5602 67.485C74.5124 67.4323 74.4561 67.3916 74.3915 67.3629C74.3292 67.3342 74.261 67.3198 74.1868 67.3198C74.1413 67.3198 74.0947 67.3282 74.0468 67.345C74.0013 67.3593 73.957 67.3809 73.914 67.4096C73.8709 67.4383 73.8326 67.4718 73.7991 67.5101C73.7679 67.5484 73.7452 67.5903 73.7308 67.6358V68.0774C73.7596 68.1468 73.7979 68.2103 73.8457 68.2677C73.896 68.3251 73.9534 68.3706 74.0181 68.4041C74.0827 68.4353 74.1485 68.4508 74.2156 68.4508ZM76.6527 68.8601C76.5067 68.8601 76.3774 68.8278 76.2649 68.7632C76.1548 68.6962 76.0686 68.6064 76.0064 68.4939V69.589H75.5253V66.9428H75.9454V67.266C76.0172 67.1559 76.1081 67.0697 76.2183 67.0075C76.3284 66.9428 76.454 66.9105 76.5952 66.9105C76.7221 66.9105 76.8382 66.9357 76.9435 66.9859C77.0512 67.0362 77.1446 67.1068 77.2236 67.1978C77.3026 67.2863 77.3636 67.3892 77.4067 67.5065C77.4522 67.6214 77.4749 67.7459 77.4749 67.8799C77.4749 68.0619 77.439 68.227 77.3672 68.3754C77.2978 68.5238 77.2008 68.6423 77.0764 68.7309C76.9543 68.817 76.8131 68.8601 76.6527 68.8601ZM76.4911 68.4508C76.5653 68.4508 76.6323 68.4353 76.6922 68.4041C76.752 68.373 76.8035 68.3311 76.8466 68.2785C76.8921 68.2234 76.9256 68.1624 76.9471 68.0954C76.971 68.0259 76.983 67.9541 76.983 67.8799C76.983 67.8009 76.9698 67.7279 76.9435 67.6609C76.9196 67.5939 76.8837 67.5353 76.8358 67.485C76.7879 67.4323 76.7317 67.3916 76.6671 67.3629C76.6048 67.3342 76.5366 67.3198 76.4624 67.3198C76.4169 67.3198 76.3702 67.3282 76.3224 67.345C76.2769 67.3593 76.2326 67.3809 76.1895 67.4096C76.1464 67.4383 76.1081 67.4718 76.0746 67.5101C76.0435 67.5484 76.0208 67.5903 76.0064 67.6358V68.0774C76.0351 68.1468 76.0734 68.2103 76.1213 68.2677C76.1716 68.3251 76.229 68.3706 76.2936 68.4041C76.3583 68.4353 76.4241 68.4508 76.4911 68.4508ZM77.7973 66.2032H78.2784V68.221C78.2784 68.3072 78.2928 68.3658 78.3215 68.397C78.3502 68.4257 78.3897 68.44 78.44 68.44C78.4783 68.44 78.5178 68.4353 78.5585 68.4257C78.5991 68.4161 78.635 68.4041 78.6662 68.3898L78.7308 68.756C78.6662 68.7871 78.5908 68.8111 78.5046 68.8278C78.4184 68.8446 78.3406 68.8529 78.2712 68.8529C78.1204 68.8529 78.0031 68.8134 77.9194 68.7345C77.838 68.6531 77.7973 68.5382 77.7973 68.3898V66.2032ZM78.8887 69.1904C78.9318 69.2 78.9713 69.2084 79.0072 69.2156C79.0455 69.2228 79.0778 69.2263 79.1042 69.2263C79.1496 69.2263 79.1867 69.2144 79.2155 69.1904C79.2466 69.1689 79.2765 69.1282 79.3052 69.0684C79.334 69.0109 79.3639 68.9295 79.395 68.8242L78.6518 66.9428H79.1508L79.6571 68.3323L80.1023 66.9428H80.5619L79.772 69.1976C79.7433 69.2814 79.699 69.3568 79.6391 69.4238C79.5817 69.4932 79.5087 69.5471 79.4201 69.5854C79.334 69.6261 79.237 69.6464 79.1293 69.6464C79.091 69.6464 79.0527 69.6428 79.0144 69.6357C78.9761 69.6309 78.9342 69.6213 78.8887 69.6069V69.1904Z" fill="white"/>
<rect x="32.9119" y="20.9441" width="59.8404" height="55.0532" rx="2.99202" stroke="#181818" stroke-width="1.19681"/>
<path d="M97.6345 38.6897C97.557 38.8722 97.6421 39.083 97.8246 39.1606L100.799 40.4243C100.981 40.5019 101.192 40.4168 101.269 40.2343C101.347 40.0518 101.262 39.841 101.079 39.7634L98.4358 38.6401L99.5592 35.9965C99.6367 35.814 99.5516 35.6032 99.3691 35.5257C99.1866 35.4481 98.9758 35.5332 98.8983 35.7157L97.6345 38.6897ZM120.549 55.0884C120.58 54.4765 120.597 53.8839 120.6 53.3101L119.882 53.3056C119.879 53.8684 119.862 54.4504 119.832 55.0522L120.549 55.0884ZM120.437 49.7847C120.303 48.5119 120.09 47.3549 119.806 46.3041L119.113 46.491C119.385 47.5016 119.593 48.621 119.723 49.8599L120.437 49.7847ZM118.516 42.9873C117.906 41.8483 117.183 40.8995 116.378 40.1147L115.877 40.629C116.627 41.3608 117.306 42.2502 117.883 43.3265L118.516 42.9873ZM113.429 38.0707C112.331 37.5492 111.177 37.211 110.015 37.009L109.892 37.7165C111 37.9091 112.091 38.2299 113.121 38.7193L113.429 38.0707ZM106.469 36.7663C105.225 36.7971 104.028 36.9357 102.944 37.1215L103.066 37.8293C104.122 37.6482 105.284 37.514 106.487 37.4842L106.469 36.7663ZM99.5074 37.9292C98.9866 38.0852 98.5694 38.2264 98.2815 38.3289C98.1375 38.3802 98.0258 38.4219 97.9496 38.4509C97.9115 38.4654 97.8823 38.4768 97.8623 38.4846C97.8523 38.4885 97.8447 38.4916 97.8394 38.4937C97.8367 38.4947 97.8347 38.4956 97.8332 38.4962C97.8325 38.4965 97.8319 38.4967 97.8315 38.4969C97.8312 38.4969 97.8311 38.497 97.8309 38.4971C97.8308 38.4971 97.8308 38.4971 97.8307 38.4971C97.8307 38.4972 97.8307 38.4972 97.8307 38.4972C97.8306 38.4972 97.8306 38.4972 97.965 38.8301C98.0994 39.1631 98.0993 39.1631 98.0993 39.1631C98.0993 39.1631 98.0993 39.1631 98.0993 39.1631C98.0993 39.1631 98.0993 39.1631 98.0993 39.1631C98.0993 39.1631 98.0993 39.1631 98.0994 39.1631C98.0996 39.163 98.0999 39.1629 98.1004 39.1627C98.1013 39.1623 98.1028 39.1617 98.105 39.1609C98.1092 39.1592 98.1158 39.1566 98.1247 39.1531C98.1425 39.1461 98.1695 39.1356 98.2053 39.122C98.2769 39.0947 98.3837 39.0548 98.5225 39.0054C98.8002 38.9065 99.2057 38.7692 99.7134 38.6171L99.5074 37.9292ZM97.3041 38.5493C97.149 38.9143 97.3192 39.3359 97.6842 39.491L103.632 42.0185C103.997 42.1736 104.419 42.0034 104.574 41.6384C104.729 41.2734 104.559 40.8518 104.194 40.6967L98.9067 38.4501L101.153 33.1629C101.308 32.7979 101.138 32.3763 100.773 32.2212C100.408 32.0661 99.9866 32.2363 99.8315 32.6013L97.3041 38.5493ZM120.908 55.1064C120.939 54.4895 120.956 53.8917 120.959 53.3124L119.523 53.3033C119.52 53.8606 119.503 54.4374 119.473 55.0342L120.908 55.1064ZM120.794 49.7471C120.659 48.4574 120.442 47.2815 120.153 46.2107L118.766 46.5844C119.033 47.5749 119.237 48.6755 119.366 49.8975L120.794 49.7471ZM118.833 42.8177C118.205 41.6474 117.461 40.6688 116.628 39.8576L115.626 40.8861C116.35 41.5915 117.007 42.4511 117.567 43.4961L118.833 42.8177ZM113.583 37.7465C112.452 37.2088 111.265 36.8619 110.077 36.6553L109.831 38.0702C110.912 38.2582 111.971 38.5702 112.966 39.0436L113.583 37.7465ZM106.46 36.4074C105.196 36.4387 103.981 36.5795 102.884 36.7676L103.126 38.1831C104.169 38.0044 105.313 37.8724 106.496 37.8431L106.46 36.4074ZM99.4044 37.5853C98.8771 37.7432 98.454 37.8863 98.161 37.9907C98.0145 38.0429 97.9003 38.0855 97.8218 38.1154C97.7826 38.1303 97.7522 38.1421 97.7311 38.1504C97.7206 38.1545 97.7124 38.1578 97.7066 38.1601C97.7036 38.1613 97.7013 38.1622 97.6996 38.1629C97.6987 38.1632 97.698 38.1635 97.6975 38.1638C97.6972 38.1639 97.6969 38.164 97.6967 38.164C97.6966 38.1641 97.6965 38.1641 97.6965 38.1642C97.6964 38.1642 97.6964 38.1642 97.6963 38.1642C97.6963 38.1642 97.6962 38.1642 97.965 38.8301C98.2337 39.496 98.2337 39.4961 98.2336 39.4961C98.2336 39.4961 98.2336 39.4961 98.2336 39.4961C98.2335 39.4961 98.2335 39.4961 98.2335 39.4962C98.2334 39.4962 98.2334 39.4962 98.2334 39.4962C98.2334 39.4962 98.2336 39.4961 98.234 39.4959C98.2346 39.4957 98.2359 39.4952 98.2378 39.4944C98.2415 39.493 98.2475 39.4906 98.2559 39.4873C98.2726 39.4807 98.2984 39.4707 98.3331 39.4575C98.4024 39.4311 98.5067 39.3921 98.643 39.3436C98.9155 39.2465 99.3152 39.1112 99.8164 38.9611L99.4044 37.5853Z" fill="#1FA3FF"/>
<path d="M28.5742 68.8352C28.7644 68.8913 28.8731 69.091 28.817 69.2811L27.9022 72.3803C27.846 72.5705 27.6464 72.6792 27.4562 72.6231C27.266 72.5669 27.1573 72.3672 27.2135 72.1771L28.0266 69.4222L25.2718 68.6091C25.0816 68.5529 24.9729 68.3533 25.029 68.1631C25.0852 67.9729 25.2849 67.8642 25.475 67.9204L28.5742 68.8352ZM26.6688 96.9485C26.1768 96.5833 25.7086 96.2197 25.2634 95.8578L25.7163 95.3006C26.153 95.6556 26.6129 96.0127 27.0968 96.3718L26.6688 96.9485ZM22.6454 93.491C21.7481 92.5785 20.9907 91.6781 20.3595 90.7916L20.9445 90.3751C21.5515 91.2278 22.2839 92.0993 23.1574 92.9876L22.6454 93.491ZM18.619 87.6873C18.1277 86.4921 17.8546 85.331 17.7607 84.2106L18.4762 84.1505C18.5639 85.1954 18.8189 86.2848 19.2832 87.4142L18.619 87.6873ZM18.0571 80.6348C18.352 79.4561 18.825 78.3496 19.4074 77.3245L20.0317 77.6793C19.4762 78.657 19.0304 79.7031 18.7537 80.8091L18.0571 80.6348ZM21.4738 74.433C22.2885 73.4919 23.156 72.6563 23.9884 71.9376L24.4577 72.4811C23.6463 73.1817 22.8045 73.993 22.0167 74.903L21.4738 74.433ZM26.7967 69.7976C27.2481 69.4947 27.6223 69.2623 27.8845 69.1053C28.0156 69.0267 28.1187 68.967 28.1896 68.9266C28.225 68.9064 28.2524 68.8911 28.2711 68.8806C28.2805 68.8754 28.2877 68.8714 28.2927 68.8687C28.2952 68.8673 28.2971 68.8662 28.2985 68.8655C28.2992 68.8651 28.2998 68.8648 28.3002 68.8646C28.3004 68.8645 28.3005 68.8644 28.3007 68.8643C28.3007 68.8643 28.3008 68.8642 28.3009 68.8642C28.3009 68.8642 28.3009 68.8642 28.3009 68.8642C28.3009 68.8642 28.301 68.8641 28.4726 69.1795C28.6442 69.4949 28.6442 69.4949 28.6443 69.4949C28.6443 69.4949 28.6443 69.4948 28.6443 69.4948C28.6443 69.4948 28.6443 69.4948 28.6443 69.4948C28.6443 69.4948 28.6442 69.4949 28.6442 69.4949C28.644 69.495 28.6437 69.4952 28.6433 69.4954C28.6424 69.4959 28.6409 69.4967 28.6389 69.4978C28.6349 69.5 28.6287 69.5034 28.6204 69.5081C28.6037 69.5173 28.5784 69.5315 28.5451 69.5505C28.4786 69.5884 28.3799 69.6456 28.2535 69.7213C28.0006 69.8728 27.6369 70.0985 27.1968 70.3938L26.7967 69.7976ZM28.6759 68.4908C29.0562 68.6031 29.2736 69.0024 29.1613 69.3828L27.3317 75.5812C27.2195 75.9615 26.8201 76.1789 26.4397 76.0666C26.0594 75.9543 25.842 75.555 25.9543 75.1746L27.5806 69.6649L22.0709 68.0386C21.6906 67.9264 21.4732 67.527 21.5855 67.1467C21.6978 66.7663 22.0971 66.549 22.4775 66.6612L28.6759 68.4908ZM26.4549 97.2368C25.9588 96.8686 25.4864 96.5018 25.0369 96.1365L25.9427 95.022C26.3752 95.3735 26.8309 95.7274 27.3108 96.0835L26.4549 97.2368ZM22.3894 93.7428C21.4802 92.8182 20.7102 91.9033 20.067 90.9999L21.2369 90.1669C21.8319 91.0026 22.5519 91.8597 23.4134 92.7358L22.3894 93.7428ZM18.2869 87.8238C17.7821 86.5957 17.5 85.3988 17.4029 84.2406L18.834 84.1205C18.9185 85.1277 19.1645 86.1812 19.6153 87.2777L18.2869 87.8238ZM17.7088 80.5477C18.0127 79.3326 18.4993 78.1959 19.0952 77.1472L20.3439 77.8566C19.8018 78.8107 19.3696 79.8265 19.102 80.8962L17.7088 80.5477ZM21.2023 74.198C22.0305 73.2414 22.9108 72.3936 23.7538 71.6658L24.6924 72.7529C23.8914 73.4444 23.0625 74.2435 22.2881 75.138L21.2023 74.198ZM26.5966 69.4994C27.0537 69.1927 27.4331 68.9571 27.7 68.7973C27.8334 68.7173 27.9388 68.6563 28.0118 68.6147C28.0483 68.5939 28.0767 68.5779 28.0965 68.5669C28.1064 68.5614 28.1141 68.5571 28.1196 68.5541C28.1223 68.5526 28.1245 68.5514 28.1262 68.5505C28.127 68.5501 28.1277 68.5497 28.1282 68.5494C28.1285 68.5493 28.1287 68.5491 28.1289 68.549C28.129 68.549 28.1291 68.5489 28.1291 68.5489C28.1292 68.5489 28.1292 68.5488 28.1293 68.5488C28.1293 68.5488 28.1293 68.5488 28.4726 69.1795C28.8158 69.8102 28.8159 69.8102 28.8159 69.8102C28.8159 69.8102 28.816 69.8102 28.816 69.8102C28.816 69.8101 28.8161 69.8101 28.8161 69.8101C28.8162 69.8101 28.8162 69.8101 28.8162 69.8101C28.8161 69.8101 28.8159 69.8102 28.8156 69.8104C28.815 69.8107 28.8138 69.8114 28.812 69.8123C28.8085 69.8143 28.8028 69.8174 28.795 69.8218C28.7793 69.8305 28.7551 69.8441 28.7229 69.8624C28.6585 69.8991 28.5621 69.955 28.438 70.0293C28.1898 70.178 27.8313 70.4005 27.3969 70.692L26.5966 69.4994Z" fill="#1FA3FF"/>
<rect x="105.918" y="60.4382" width="28.7234" height="28.7234" rx="14.3617" fill="white"/>
<path d="M119.742 74.4532C121.004 74.4532 121.903 74.5714 122.757 74.9313C124.106 75.4996 124.919 76.5151 125.211 77.9391C125.296 78.3525 125.305 78.7811 125.355 79.2021C125.383 79.4357 125.28 79.5956 125.07 79.6622C124.703 79.778 124.335 79.8984 123.957 79.9662C123.053 80.128 122.137 80.1744 121.22 80.1802C120.289 80.1862 119.357 80.1941 118.427 80.166C117.526 80.1388 116.623 80.0835 115.743 79.8646C115.502 79.7995 115.268 79.7086 115.046 79.5932C114.97 79.555 114.894 79.4273 114.894 79.3408C114.892 78.1308 115.118 76.987 115.932 76.0333C116.492 75.3772 117.215 74.9759 118.031 74.7338C118.699 74.5352 119.387 74.4498 119.742 74.4532Z" fill="#F77A27"/>
<path d="M122.959 71.0863C122.957 72.6444 121.677 73.9169 120.113 73.9143C119.739 73.9136 119.369 73.8391 119.024 73.6951C118.679 73.5512 118.366 73.3406 118.102 73.0754C117.838 72.8102 117.63 72.4956 117.488 72.1497C117.346 71.8038 117.274 71.4333 117.275 71.0594C117.277 69.4773 118.549 68.214 120.138 68.2178C121.703 68.2221 122.961 69.4996 122.959 71.0863Z" fill="#F77A27"/>
<rect x="105.918" y="60.4382" width="28.7234" height="28.7234" rx="14.3617" stroke="#181818" stroke-width="1.19681"/>
<rect x="28.1248" y="90.3582" width="28.7234" height="28.7234" rx="14.3617" fill="white"/>
<path d="M41.9488 104.373C43.2115 104.373 44.1102 104.491 44.9644 104.851C46.3134 105.42 47.1256 106.435 47.4177 107.859C47.5028 108.272 47.5118 108.701 47.5625 109.122C47.5897 109.356 47.4872 109.515 47.2767 109.582C46.9104 109.698 46.5415 109.818 46.1643 109.886C45.2603 110.048 44.3436 110.094 43.4266 110.1C42.4957 110.106 41.5642 110.114 40.6342 110.086C39.7329 110.059 38.8303 110.003 37.9501 109.784C37.7088 109.719 37.4752 109.629 37.2535 109.513C37.1773 109.475 37.1009 109.347 37.1006 109.261C37.0989 108.051 37.3247 106.907 38.1389 105.953C38.6989 105.297 39.4222 104.896 40.2381 104.654C40.9064 104.455 41.5944 104.37 41.9488 104.373Z" fill="#F77A27"/>
<path d="M45.1662 101.006C45.1645 102.564 43.8838 103.837 42.32 103.834C41.9461 103.833 41.5761 103.759 41.231 103.615C40.8859 103.471 40.5727 103.26 40.3091 102.995C40.0455 102.73 39.8368 102.416 39.695 102.07C39.5532 101.724 39.4809 101.353 39.4824 100.979C39.4842 99.3972 40.7564 98.1339 42.3449 98.1377C43.9105 98.142 45.1677 99.4195 45.1662 101.006Z" fill="#F77A27"/>
<rect x="28.1248" y="90.3582" width="28.7234" height="28.7234" rx="14.3617" stroke="#181818" stroke-width="1.19681"/>
<rect x="83.1775" y="104.72" width="28.7234" height="28.7234" rx="14.3617" fill="white"/>
<path d="M97.0015 118.734C98.2642 118.734 99.163 118.853 100.017 119.213C101.366 119.781 102.178 120.796 102.47 122.22C102.556 122.634 102.565 123.062 102.615 123.483C102.642 123.717 102.54 123.877 102.329 123.943C101.963 124.059 101.594 124.18 101.217 124.247C100.313 124.409 99.3963 124.456 98.4793 124.461C97.5484 124.467 96.617 124.475 95.687 124.447C94.7856 124.42 93.8831 124.365 93.0029 124.146C92.7615 124.081 92.5279 123.99 92.3062 123.874C92.2301 123.836 92.1536 123.709 92.1533 123.622C92.1516 122.412 92.3774 121.268 93.1916 120.315C93.7516 119.658 94.4749 119.257 95.2909 119.015C95.9591 118.816 96.6471 118.731 97.0015 118.734Z" fill="#F77A27"/>
<path d="M100.219 115.368C100.217 116.926 98.9366 118.198 97.3727 118.196C96.9988 118.195 96.6288 118.12 96.2837 117.976C95.9387 117.832 95.6254 117.622 95.3618 117.357C95.0983 117.091 94.8896 116.777 94.7477 116.431C94.6059 116.085 94.5337 115.715 94.5352 115.341C94.5369 113.759 95.8092 112.495 97.3976 112.499C98.9632 112.503 100.22 113.781 100.219 115.368Z" fill="#F77A27"/>
<rect x="83.1775" y="104.72" width="28.7234" height="28.7234" rx="14.3617" stroke="#181818" stroke-width="1.19681"/>
<path d="M75.4828 82.2305C75.2901 82.184 75.0961 82.3025 75.0496 82.4953L74.2914 85.6364C74.2448 85.8292 74.3634 86.0232 74.5561 86.0697C74.7489 86.1162 74.9429 85.9977 74.9894 85.8049L75.6634 83.0128L78.4555 83.6867C78.6483 83.7333 78.8422 83.6147 78.8888 83.422C78.9353 83.2292 78.8168 83.0352 78.624 82.9887L75.4828 82.2305ZM88.8698 103.935L88.2116 102.858L87.5989 103.232L88.2571 104.309L88.8698 103.935ZM86.8951 100.703L85.5786 98.5492L84.9659 98.9237L86.2824 101.078L86.8951 100.703ZM84.2621 96.395L82.9456 94.2407L82.3329 94.6151L83.6494 96.7694L84.2621 96.395ZM81.6291 92.0864L80.3127 89.9322L79.6999 90.3066L81.0164 92.4609L81.6291 92.0864ZM78.9962 87.7779L77.6797 85.6237L77.067 85.9981L78.3834 88.1524L78.9962 87.7779ZM76.3632 83.4694L75.7049 82.3923L75.0922 82.7667L75.7505 83.8439L76.3632 83.4694ZM75.5671 81.8815C75.1816 81.7884 74.7936 82.0255 74.7005 82.411L73.1841 88.6934C73.0911 89.0789 73.3281 89.4668 73.7137 89.5599C74.0992 89.653 74.4871 89.4159 74.5802 89.0303L75.9281 83.446L81.5124 84.794C81.8979 84.887 82.2859 84.65 82.379 84.2644C82.472 83.8789 82.2349 83.491 81.8494 83.3979L75.5671 81.8815ZM89.1762 103.748L88.518 102.67L87.2925 103.419L87.9507 104.497L89.1762 103.748ZM87.2015 100.516L85.885 98.362L84.6595 99.1109L85.976 101.265L87.2015 100.516ZM84.5685 96.2077L83.252 94.0535L82.0265 94.8024L83.343 96.9566L84.5685 96.2077ZM81.9355 91.8992L80.619 89.745L79.3936 90.4939L80.7101 92.6481L81.9355 91.8992ZM79.3025 87.5907L77.986 85.4365L76.7606 86.1853L78.0771 88.3396L79.3025 87.5907ZM76.6696 83.2822L76.0113 82.2051L74.7859 82.954L75.4441 84.0311L76.6696 83.2822Z" fill="#1FA3FF"/>
<g clip-path="url(#clip0_13938_2926)">
<rect x="114.894" width="28.7234" height="28.7234" rx="14.3617" fill="white"/>
<g clip-path="url(#clip1_13938_2926)">
<path d="M125.06 18.9316C124.095 17.9668 124.095 16.3984 125.06 15.4337L127.317 13.1769L126.245 12.105L123.988 14.3617C122.431 15.9189 122.431 18.4464 123.988 20.0035C125.545 21.5607 128.073 21.5607 129.63 20.0035L131.886 17.7468L130.814 16.6749L128.558 18.9316C127.593 19.8963 126.025 19.8963 125.06 18.9316ZM127.937 17.1826L132.451 12.6692L131.322 11.5408L126.809 16.0543L127.937 17.1826ZM129.63 8.7199L127.373 10.9766L128.445 12.0486L130.702 9.79185C131.666 8.8271 133.235 8.8271 134.2 9.79185C135.164 10.7566 135.164 12.325 134.2 13.2898L131.943 15.5465L133.015 16.6184L135.272 14.3617C136.829 12.8046 136.829 10.277 135.272 8.7199C133.714 7.16276 131.187 7.16276 129.63 8.7199Z" fill="#1FA3FF"/>
</g>
</g>
<rect x="115.492" y="0.598404" width="27.5266" height="27.5266" rx="13.7633" stroke="#1FA3FF" stroke-width="1.19681"/>
<defs>
<clipPath id="clip0_13938_2926">
<rect x="114.894" width="28.7234" height="28.7234" rx="14.3617" fill="white"/>
</clipPath>
<clipPath id="clip1_13938_2926">
<rect width="19.1489" height="19.1489" fill="white" transform="translate(116.09 14.3613) rotate(-45)"/>
</clipPath>
</defs>
</svg>
