<svg width="31" height="31" viewBox="0 0 31 31" fill="none" xmlns="http://www.w3.org/2000/svg">
<rect width="31" height="31" rx="15.5" fill="#EF1E1E" fill-opacity="0.1"/>
<g clip-path="url(#clip0_10482_757)">
<path d="M17.0013 10H11.0013C10.448 10 9.97464 10.3333 9.77464 10.8133L7.7613 15.5133C7.7013 15.6667 7.66797 15.8267 7.66797 16V17.3333C7.66797 18.0667 8.26797 18.6667 9.0013 18.6667H13.208L12.5746 21.7133L12.5546 21.9267C12.5546 22.2 12.668 22.4533 12.848 22.6333L13.5546 23.3333L17.948 18.94C18.188 18.7 18.3346 18.3667 18.3346 18V11.3333C18.3346 10.6 17.7346 10 17.0013 10ZM19.668 10V18H22.3346V10H19.668Z" fill="#EF1E1E"/>
</g>
<defs>
<clipPath id="clip0_10482_757">
<rect width="16" height="16" fill="white" transform="translate(7 8)"/>
</clipPath>
</defs>
</svg>
