<svg width="24" height="24" viewBox="0 0 24 24" fill="none" xmlns="http://www.w3.org/2000/svg">
<g clip-path="url(#clip0_11140_1889)">
<path d="M12.3065 10.7056C10.5226 10.2794 9.94892 9.83889 9.94892 9.15278C9.94892 8.36556 10.7426 7.81667 12.0707 7.81667C13.4695 7.81667 13.9882 8.43056 14.0354 9.33333H15.7721C15.7171 8.09111 14.8919 6.95 13.2495 6.58167V5H10.8919V6.56C9.36739 6.86333 8.14145 7.77333 8.14145 9.16722C8.14145 10.8356 9.64244 11.6661 11.835 12.15C13.7996 12.5833 14.1925 13.2189 14.1925 13.8906C14.1925 14.3889 13.8075 15.1833 12.0707 15.1833C10.4519 15.1833 9.81532 14.5189 9.72888 13.6667H8C8.0943 15.2483 9.3831 16.1367 10.8919 16.4328V18H13.2495V16.4472C14.7819 16.18 16 15.3639 16 13.8833C16 11.8322 14.0904 11.1317 12.3065 10.7056Z" fill="#F66B0E"/>
<path d="M21 12C21 16.9706 16.9706 21 12 21C7.02944 21 3 16.9706 3 12C3 7.02944 7.02944 3 12 3C16.9706 3 21 7.02944 21 12Z" stroke="#F66B0E" stroke-width="2"/>
</g>
<defs>
<clipPath id="clip0_11140_1889">
<rect width="24" height="24" fill="white"/>
</clipPath>
</defs>
</svg>
