<svg width="10" height="10" viewBox="0 0 10 10" fill="none" xmlns="http://www.w3.org/2000/svg">
<g clip-path="url(#clip0_14248_2908)">
<path d="M3.80533 9C3.50111 9 3.21298 8.88399 3.02835 8.68397L0.529596 5.986C0.452341 5.90268 0.395941 5.80774 0.363618 5.70659C0.331296 5.60545 0.323685 5.50009 0.341222 5.39654C0.358758 5.293 0.401097 5.19329 0.465819 5.10312C0.530542 5.01295 0.616377 4.93409 0.718419 4.87104C0.820424 4.80774 0.936716 4.7615 1.06063 4.73499C1.18454 4.70848 1.31364 4.70221 1.44052 4.71654C1.5674 4.73088 1.68958 4.76553 1.80004 4.81852C1.9105 4.87151 2.00708 4.9418 2.08424 5.02534L3.7284 6.79922L7.86223 1.37472C7.99932 1.19561 8.21775 1.06826 8.4696 1.02058C8.72145 0.972909 8.98616 1.00881 9.20567 1.12041C9.66234 1.35243 9.80291 1.8439 9.51757 2.21765L4.63335 8.62397C4.54997 8.73382 4.43505 8.82538 4.29856 8.89071C4.16206 8.95604 4.00812 8.99316 3.85008 8.99886C3.8347 9 3.82071 9 3.80533 9V9Z" fill="#929292"/>
</g>
<defs>
<clipPath id="clip0_14248_2908">
<rect width="9.92" height="8.32" fill="white" transform="translate(0.0390625 0.839844)"/>
</clipPath>
</defs>
</svg>
