<svg width="89" height="87" viewBox="0 0 89 87" fill="none" xmlns="http://www.w3.org/2000/svg">
<path d="M86.9233 57.6846C87.182 58.4593 87.376 59.0506 87.6011 59.7271H85.5938L86.9233 57.6846Z" fill="#1FA3FF"/>
<path d="M84.7594 9.74217C84.9053 10.4007 84.997 11.07 85.0336 11.7434C85.0336 17.7162 85.0336 23.689 84.9612 29.6618C84.9612 30.6069 85.119 31.3429 85.9778 31.7974C87.8635 32.7941 88.3058 34.3125 88.3058 36.4248C88.148 51.6318 88.1377 66.8439 88.0782 82.0509C88.0782 84.9121 86.8417 86.1567 84.0015 86.1464C57.3202 86.0328 30.6373 85.9157 3.95256 85.7952C1.25719 85.7823 -0.00772471 84.517 3.54842e-05 81.8469C0.0543568 66.0357 0.13454 50.227 0.131953 34.4158C0.131953 33.0291 0.977816 32.4584 1.83144 31.9549C3.25672 31.1131 3.53351 29.9949 3.5154 28.4456C3.44815 22.7646 3.5154 17.1016 3.55161 11.431C3.55161 8.84871 4.67425 7.71509 7.24029 7.72542C15.2022 7.75383 23.1642 7.76674 31.1262 7.85195C32.1507 7.87663 33.1474 7.51734 33.9198 6.84487C36.272 4.95121 38.6449 3.09283 41.0385 1.26975C43.3148 -0.46554 45.5291 -0.408731 47.764 1.35754C50.255 3.33298 52.7253 5.33424 55.2655 7.25803C55.799 7.65473 56.44 7.88152 57.1047 7.90877C65.2399 7.98623 73.3726 8.01205 81.5079 8.03271C82.7159 8.0353 83.7687 8.35291 84.7594 9.74217ZM53.804 7.80547C53.8296 7.82771 53.8584 7.84599 53.8894 7.8597C53.9075 7.8597 53.9334 7.84163 53.9566 7.8313L53.8014 7.81838L48.8634 3.68675C48.227 3.1703 47.5959 2.65384 46.9492 2.16579C45.2678 0.874657 43.5631 0.812683 41.8456 2.04701C40.8109 2.79845 39.7969 3.59637 38.7855 4.40979C37.4326 5.47885 36.0927 6.56598 34.4346 7.89843L40.7307 7.74608L53.804 7.80547ZM85.4811 82.8385L86.5494 83.825L86.909 83.701C86.9711 67.5127 87.0357 51.3219 87.1004 34.9477L55.5992 56.1714L56.7115 57.1268C56.8729 57.3268 57.0457 57.5173 57.2289 57.6975C61.3521 61.385 65.4797 65.0682 69.6115 68.7471C74.8919 73.4502 80.1818 78.1474 85.4811 82.8385ZM69.3528 70.1079C62.5342 63.9957 55.7441 57.8525 48.8815 51.7945C46.6517 49.8294 43.1105 49.9326 40.7514 51.8487C38.9821 53.2844 37.2722 54.7951 35.5339 56.2695C29.4982 61.391 23.4625 66.5117 17.4268 71.6315C14.3797 74.2137 11.3506 76.8322 8.31378 79.4351L2.5221 84.2097L2.65143 84.6513L85.5121 85.0128L85.6518 84.6203C84.555 83.6261 83.466 82.6216 82.3589 81.6378C78.0167 77.7902 73.677 73.9495 69.3399 70.1157L69.3528 70.1079ZM33.3688 9.07337C33.2927 9.03755 33.2116 9.01319 33.1283 9.00106C24.3627 8.9563 15.5954 8.91757 6.82641 8.88486C5.4244 8.88486 4.70271 9.63631 4.69495 11.0695C4.65356 18.8783 4.63114 26.687 4.62769 34.4958C4.63813 34.7135 4.69445 34.9265 4.79295 35.1209C4.89146 35.3154 5.02995 35.4869 5.19936 35.6243C8.50003 37.7831 11.8369 39.8876 15.166 42.0051C21.6665 46.1987 28.1644 50.4 34.6907 54.5549C34.9493 54.7253 35.5857 54.6272 35.8599 54.4155C37.2877 53.3077 38.6225 52.0914 40.0504 50.9733C43.2217 48.5098 47.1949 48.6983 50.1981 51.3942C51.6674 52.7112 53.1444 54.0204 54.6732 55.3838C55.0301 55.1514 55.3561 54.9474 55.6716 54.7331C64.8114 48.5683 73.9512 42.3924 83.091 36.2053C83.5048 35.9238 83.792 35.1724 83.7971 34.6301C83.8722 27.0202 83.8877 19.4102 83.911 11.8002C83.911 9.77833 83.3393 9.20507 81.2932 9.19732C70.053 9.14567 58.8137 9.09747 47.5752 9.05271C42.8311 9.03722 38.1 9.06562 33.3688 9.07337ZM1.15371 83.435L1.6038 83.5125L34.344 55.7505L1.32185 34.5501C1.26236 50.9888 1.20545 67.2132 1.15371 83.435ZM84.9638 32.4842C84.9638 33.3725 84.9638 34.0852 84.9638 34.9193L86.6451 33.8244L84.9638 32.4842ZM3.44038 32.0762L1.81075 33.4939L3.43262 34.5268C3.44038 33.6979 3.44297 33.0368 3.44555 32.0633L3.44038 32.0762Z" fill="#181818"/>
<path d="M8.29688 79.4426C11.3337 76.8397 14.3628 74.229 17.4099 71.639C23.4456 66.5106 29.4813 61.3899 35.517 56.277C37.2553 54.8026 38.9652 53.2919 40.7345 51.8562C43.0936 49.9401 46.6348 49.8369 48.8646 51.802C55.7272 57.86 62.5173 64.0032 69.3359 70.1154C70.2051 72.8397 69.7731 74.2471 67.5873 75.9849C65.6266 77.5524 63.3063 78.3219 60.9342 78.9287C55.1236 80.3811 49.161 81.1404 43.1712 81.1908C33.3675 81.3302 23.5586 81.2218 13.7549 81.1056C11.8484 81.0823 9.88513 80.7466 8.29688 79.4426Z" fill="white"/>
<path d="M1.15625 83.4348C1.21574 67.213 1.27265 50.9886 1.33215 34.5576L34.3466 55.7503L1.59858 83.5123L1.15625 83.4348Z" fill="white"/>
<path d="M85.478 82.8392C80.1907 78.1394 74.9043 73.4397 69.6188 68.74C65.48 65.0628 61.3524 61.3796 57.2361 57.6904C57.0529 57.5102 56.8802 57.3196 56.7188 57.1197L85.3125 37.5332C85.3513 38.0497 85.3875 38.3518 85.3875 38.641C85.403 42.8931 85.4159 47.1461 85.4263 51.4C85.4383 61.884 85.4556 72.3637 85.478 82.8392Z" fill="#FFC900"/>
<path d="M8.2995 79.4434C9.88775 80.7345 11.8511 81.0831 13.7601 81.1064C23.5638 81.2226 33.3727 81.331 43.1764 81.1916C49.1662 81.1412 55.1288 80.3819 60.9394 78.9295C63.3115 78.3227 65.6318 77.5531 67.5925 75.9857C69.7783 74.2401 70.2103 72.8405 69.3411 70.1162C73.6748 73.9586 78.0093 77.8019 82.3446 81.646C83.4518 82.6299 84.5408 83.6344 85.6375 84.6286L85.4979 85.0211L2.63715 84.6596L2.50781 84.218L8.2995 79.4434Z" fill="#FFC900"/>
<path d="M85.4757 82.8381C85.4601 72.3593 85.4438 61.8796 85.4265 51.399C85.4265 47.1468 85.4136 42.8938 85.3877 38.64C85.3877 38.3508 85.3515 38.0615 85.3127 37.5322L56.7061 57.1265L55.5938 56.171L87.082 34.9551C87.0174 51.3293 86.9527 67.5201 86.8906 83.7084L86.531 83.8323L85.4757 82.8381Z" fill="white"/>
<path d="M40.731 7.74549L34.4297 7.90818C36.0878 6.57573 37.4277 5.48859 38.7806 4.41953C39.792 3.61902 40.7956 2.80819 41.8407 2.05675C43.5582 0.822424 45.2629 0.879234 46.9443 2.17553C47.591 2.67391 48.2221 3.19037 48.8585 3.69649C45.2396 3.21619 43.0926 5.69259 40.731 7.74549Z" fill="white"/>
<path d="M40.7266 7.74619C43.0831 5.69328 45.2301 3.21688 48.8541 3.69719L53.7921 7.82882L40.7266 7.74619Z" fill="#FFC900"/>
<path d="M31.8814 36.6157C29.6904 37.3362 27.5072 38.0876 25.3033 38.7719C22.1992 39.7351 19.0693 40.6466 15.9549 41.5943C15.6792 41.7042 15.4143 41.839 15.1633 41.9972C11.8342 39.8797 8.49734 37.7752 5.19667 35.6164C5.02725 35.479 4.88877 35.3075 4.79026 35.113C4.69176 34.9186 4.63544 34.7056 4.625 34.4879C4.625 26.6791 4.64742 18.8703 4.69226 11.0616C4.69226 9.6284 5.42171 8.87438 6.82372 8.87696C15.591 8.89934 24.3583 8.93807 33.1256 8.99316C33.2089 9.00529 33.29 9.02965 33.3662 9.06546C33.2885 14.1939 33.1928 19.3222 33.1437 24.4506C33.1256 26.408 33.2161 28.3654 33.2549 30.3227C32.6238 30.6713 31.9823 31.0122 31.3589 31.3763C30.0836 32.12 29.9284 32.6339 30.5828 33.987C30.9941 34.8778 31.4442 35.7481 31.8814 36.6157Z" fill="#FAFAFA"/>
<path d="M33.3642 9.07335C38.0953 9.07335 42.8264 9.03719 47.5576 9.05269C58.7978 9.08884 70.0371 9.13705 81.2756 9.1973C83.3217 9.1973 83.9011 9.77831 83.8934 11.8002C83.8701 19.4102 83.8546 27.0201 83.7795 34.6301C83.7795 35.1672 83.4873 35.9212 83.0734 36.2053C73.9595 42.4131 64.8197 48.589 55.654 54.7331C55.3385 54.9474 55.0125 55.1514 54.6556 55.3838C53.1268 54.0204 51.6498 52.7112 50.1805 51.3942C47.1773 48.6983 43.1963 48.5098 40.0328 50.9733C38.6049 52.0811 37.2701 53.2973 35.8423 54.4155C35.5681 54.6272 34.9369 54.7253 34.6731 54.5549C28.1467 50.4 21.6489 46.1987 15.1484 42.0051C15.3994 41.8469 15.6644 41.7121 15.94 41.6022C19.0441 40.6545 22.1792 39.743 25.2884 38.7798C27.4923 38.0955 29.6859 37.3441 31.8665 36.6236C33.2866 39.2782 34.6886 41.9431 36.1346 44.5822C36.8796 45.9456 37.4616 46.067 38.8584 45.3414C43.2119 43.0741 47.5731 40.825 51.924 38.5526C55.4367 36.7217 58.9495 34.8883 62.4416 33.0188C63.8048 32.288 63.9342 31.6786 63.2176 30.2893C62.8788 29.6437 62.5503 28.9982 62.2011 28.3474C61.6371 27.3145 60.9077 27.0563 59.8549 27.6011C55.9903 29.5981 52.1318 31.6045 48.2793 33.6204L39.593 38.1497C38.3954 35.8567 37.2339 33.6617 36.1035 31.4487C35.3275 29.8994 34.8464 29.7057 33.2581 30.3306C33.2193 28.3732 33.1288 26.4159 33.1469 24.4585C33.1909 19.3301 33.2866 14.2017 33.3642 9.07335Z" fill="#FAFAFA"/>
<path d="M31.883 36.6162C31.4459 35.7408 30.9958 34.8706 30.5742 33.9875C29.9301 32.6343 30.0853 32.1205 31.3502 31.3768C31.9736 31.0127 32.6151 30.6718 33.2463 30.3232C34.8397 29.6983 35.3156 29.9023 36.0917 31.4413C37.2221 33.6543 38.3835 35.8493 39.5812 38.1423L48.2829 33.6208C52.1423 31.6118 56.0009 29.6053 59.8585 27.6015C60.9062 27.0618 61.6408 27.3045 62.1995 28.3529C62.5487 28.9933 62.8772 29.6441 63.2161 30.2948C63.9456 31.6841 63.8162 32.2935 62.4401 33.0243C58.948 34.8938 55.4352 36.7272 51.9224 38.5581C47.5716 40.8305 43.2103 43.0796 38.8569 45.3469C37.46 46.0725 36.878 45.9511 36.133 44.5877C34.7052 41.9434 33.3032 39.2785 31.883 36.6162ZM62.5875 31.6531C62.0702 30.677 61.7365 29.83 61.214 29.1095C61.0519 28.9624 60.8555 28.8581 60.6427 28.8063C60.4298 28.7544 60.2074 28.7566 59.9956 28.8126C58.472 29.502 57.0002 30.3026 55.518 31.0824C50.3549 33.8076 45.1961 36.5387 40.0416 39.2759C39.3354 39.653 38.9422 39.5083 38.606 38.8344C37.6644 36.9571 36.6633 35.1107 35.7605 33.2154C34.7466 31.085 34.6922 31.0359 32.5685 32.0895C32.4941 32.1323 32.4151 32.167 32.3331 32.1928C31.4252 32.4148 31.2984 32.8358 31.7511 33.6802C33.5618 37.0888 35.3156 40.5258 37.0617 43.9653C37.4187 44.6677 37.8687 44.6238 38.4301 44.3269C41.0478 42.9428 43.6604 41.5458 46.286 40.1746C49.8608 38.3102 53.4512 36.469 57.0287 34.6046C58.8368 33.6673 60.6475 32.6937 62.5875 31.6608V31.6531Z" fill="#FAFAFA"/>
<path d="M62.5843 31.6603C60.6391 32.6932 58.8387 33.6667 57.0229 34.6118C53.4454 36.4762 49.855 38.3174 46.2802 40.1818C43.6546 41.553 41.042 42.95 38.4243 44.3341C37.8629 44.6311 37.4129 44.675 37.0559 43.9726C35.3098 40.533 33.5561 37.096 31.7453 33.6874C31.2953 32.843 31.4194 32.4221 32.3274 32.2C32.4093 32.1742 32.4883 32.1396 32.5627 32.0967C34.6864 31.0431 34.7408 31.0922 35.7548 33.2226C36.6601 35.118 37.6612 36.9643 38.6002 38.8416C38.9365 39.5156 39.3296 39.6602 40.0358 39.2832C45.1851 36.5287 50.3439 33.7976 55.5122 31.0896C56.9944 30.3149 58.4662 29.5093 59.9898 28.8198C60.2016 28.7638 60.4241 28.7616 60.6369 28.8135C60.8497 28.8654 61.0461 28.9696 61.2082 29.1168C61.7333 29.8372 62.0773 30.6765 62.5843 31.6603Z" fill="#FAFAFA"/>
<path d="M21.8128 22.8329C21.9074 22.9039 22.0524 22.9749 22.2477 23.046C22.4429 23.111 22.6737 23.1436 22.94 23.1436C23.2003 23.1436 23.4104 23.1022 23.5701 23.0193C23.7358 22.9306 23.8601 22.8004 23.9429 22.6288C24.0317 22.4513 24.0908 22.2264 24.1204 21.9543C24.1559 21.6821 24.1737 21.3596 24.1737 20.9868V17.6408H25.1766V20.8448C25.1766 21.3123 25.15 21.7413 25.0967 22.1318C25.0494 22.5223 24.9517 22.8625 24.8038 23.1525C24.6559 23.4365 24.434 23.6554 24.1382 23.8092C23.8482 23.9631 23.4577 24.04 22.9666 24.04C22.6767 24.04 22.4193 24.0075 22.1944 23.9424C21.9696 23.8773 21.7625 23.7797 21.5731 23.6495L21.8128 22.8329ZM29.1465 23.9868C28.6908 23.9868 28.2796 23.898 27.9128 23.7205C27.5459 23.543 27.2293 23.3033 26.9631 23.0016C26.6968 22.6939 26.4897 22.3507 26.3418 21.972C26.1998 21.5874 26.1288 21.1939 26.1288 20.7916C26.1288 20.3715 26.2057 19.9721 26.3595 19.5934C26.5134 19.2088 26.7264 18.8685 26.9986 18.5727C27.2708 18.2709 27.5903 18.0342 27.9571 17.8626C28.3299 17.6851 28.7323 17.5964 29.1642 17.5964C29.6139 17.5964 30.0222 17.6881 30.389 17.8715C30.7618 18.0549 31.0784 18.3005 31.3387 18.6082C31.605 18.9159 31.8091 19.2591 31.9511 19.6378C32.099 20.0164 32.173 20.404 32.173 20.8004C32.173 21.2206 32.0961 21.6229 31.9422 22.0075C31.7943 22.3862 31.5843 22.7264 31.3121 23.0282C31.0399 23.3241 30.7174 23.5578 30.3447 23.7294C29.9778 23.901 29.5784 23.9868 29.1465 23.9868ZM27.1406 20.7916C27.1406 21.0874 27.1879 21.3744 27.2826 21.6525C27.3773 21.9306 27.5104 22.1791 27.682 22.398C27.8595 22.6111 28.0725 22.7797 28.321 22.9039C28.5695 23.0282 28.8476 23.0903 29.1553 23.0903C29.4748 23.0903 29.7589 23.0252 30.0074 22.8951C30.2559 22.7649 30.463 22.5903 30.6287 22.3714C30.8003 22.1466 30.9304 21.8981 31.0192 21.6259C31.1079 21.3478 31.1523 21.0697 31.1523 20.7916C31.1523 20.4957 31.105 20.2117 31.0103 19.9395C30.9216 19.6614 30.7884 19.4159 30.6109 19.2028C30.4334 18.9839 30.2204 18.8123 29.9719 18.6881C29.7293 18.5638 29.4571 18.5017 29.1553 18.5017C28.8358 18.5017 28.5518 18.5668 28.3033 18.6969C28.0548 18.8271 27.8447 19.0017 27.6731 19.2206C27.5015 19.4395 27.3684 19.6851 27.2737 19.9573C27.185 20.2295 27.1406 20.5076 27.1406 20.7916ZM38.1547 22.3182C38.1547 22.6554 38.0659 22.9454 37.8884 23.188C37.7168 23.4306 37.4831 23.6169 37.1873 23.7471C36.8914 23.8773 36.566 23.9424 36.211 23.9424H33.2022V17.6408H36.4506C36.7465 17.6408 37.0009 17.7206 37.2139 17.8804C37.4328 18.0342 37.5985 18.2354 37.7109 18.4839C37.8293 18.7265 37.8884 18.981 37.8884 19.2472C37.8884 19.5549 37.8086 19.8448 37.6488 20.117C37.495 20.3833 37.2731 20.5815 36.9831 20.7117C37.3441 20.8182 37.6281 21.0135 37.8352 21.2975C38.0482 21.5756 38.1547 21.9158 38.1547 22.3182ZM37.134 22.1318C37.134 21.9543 37.0956 21.7945 37.0186 21.6525C36.9476 21.5046 36.847 21.3862 36.7169 21.2975C36.5926 21.2028 36.4447 21.1555 36.2731 21.1555H34.1962V23.0815H36.211C36.3885 23.0815 36.5453 23.04 36.6814 22.9572C36.8234 22.8684 36.9328 22.7531 37.0098 22.6111C37.0926 22.4631 37.134 22.3034 37.134 22.1318ZM34.1962 18.5017V20.3567H36.0246C36.1903 20.3567 36.3382 20.3182 36.4684 20.2413C36.5985 20.1584 36.7021 20.049 36.779 19.9129C36.8559 19.7709 36.8944 19.6111 36.8944 19.4336C36.8944 19.2502 36.8589 19.0904 36.7879 18.9543C36.7169 18.8123 36.6192 18.7029 36.495 18.6259C36.3766 18.5431 36.2376 18.5017 36.0778 18.5017H34.1962ZM44.0026 23.9868C43.547 23.9868 43.1357 23.898 42.7689 23.7205C42.402 23.543 42.0855 23.3033 41.8192 23.0016C41.5529 22.6939 41.3458 22.3507 41.1979 21.972C41.0559 21.5874 40.9849 21.1939 40.9849 20.7916C40.9849 20.3715 41.0618 19.9721 41.2157 19.5934C41.3695 19.2088 41.5825 18.8685 41.8547 18.5727C42.1269 18.2709 42.4464 18.0342 42.8132 17.8626C43.186 17.6851 43.5884 17.5964 44.0203 17.5964C44.47 17.5964 44.8783 17.6881 45.2451 17.8715C45.6179 18.0549 45.9345 18.3005 46.1948 18.6082C46.4611 18.9159 46.6652 19.2591 46.8072 19.6378C46.9552 20.0164 47.0291 20.404 47.0291 20.8004C47.0291 21.2206 46.9522 21.6229 46.7984 22.0075C46.6504 22.3862 46.4404 22.7264 46.1682 23.0282C45.896 23.3241 45.5735 23.5578 45.2008 23.7294C44.8339 23.901 44.4345 23.9868 44.0026 23.9868ZM41.9967 20.7916C41.9967 21.0874 42.044 21.3744 42.1387 21.6525C42.2334 21.9306 42.3665 22.1791 42.5381 22.398C42.7156 22.6111 42.9286 22.7797 43.1771 22.9039C43.4257 23.0282 43.7038 23.0903 44.0114 23.0903C44.331 23.0903 44.615 23.0252 44.8635 22.8951C45.112 22.7649 45.3191 22.5903 45.4848 22.3714C45.6564 22.1466 45.7866 21.8981 45.8753 21.6259C45.9641 21.3478 46.0084 21.0697 46.0084 20.7916C46.0084 20.4957 45.9611 20.2117 45.8664 19.9395C45.7777 19.6614 45.6445 19.4159 45.467 19.2028C45.2895 18.9839 45.0765 18.8123 44.828 18.6881C44.5854 18.5638 44.3132 18.5017 44.0114 18.5017C43.6919 18.5017 43.4079 18.5668 43.1594 18.6969C42.9109 18.8271 42.7008 19.0017 42.5292 19.2206C42.3576 19.4395 42.2245 19.6851 42.1298 19.9573C42.0411 20.2295 41.9967 20.5076 41.9967 20.7916ZM48.0583 23.9424V17.6408H52.2564V18.5194H49.0523V20.401H51.7327V21.2265H49.0523V23.9424H48.0583ZM53.1981 23.9424V17.6408H57.3962V18.5194H54.1922V20.401H56.8726V21.2265H54.1922V23.9424H53.1981ZM62.6603 23.0637V23.9424H58.3379V17.6408H62.5804V18.5194H59.332V20.3123H62.1455V21.1377H59.332V23.0637H62.6603ZM63.6858 23.9424V17.6408H66.4283C66.7123 17.6408 66.9727 17.6999 67.2094 17.8183C67.4461 17.9366 67.6502 18.0934 67.8218 18.2887C67.9993 18.4839 68.1354 18.7029 68.2301 18.9455C68.3307 19.1881 68.3809 19.4366 68.3809 19.691C68.3809 19.9691 68.3307 20.2354 68.2301 20.4898C68.1295 20.7442 67.9845 20.9632 67.7952 21.1466C67.6117 21.33 67.3958 21.4632 67.1472 21.546L68.6295 23.9424H67.5111L66.1443 21.7501H64.6799V23.9424H63.6858ZM64.6799 20.8714H66.4195C66.6029 20.8714 66.7656 20.8182 66.9076 20.7117C67.0496 20.6052 67.162 20.4632 67.2449 20.2857C67.3277 20.1022 67.3691 19.904 67.3691 19.691C67.3691 19.4721 67.3218 19.2768 67.2271 19.1052C67.1325 18.9277 67.0082 18.7857 66.8544 18.6792C66.7064 18.5727 66.5437 18.5194 66.3662 18.5194H64.6799V20.8714Z" fill="#181818"/>
<line x1="15.1484" y1="32.1078" x2="76.0092" y2="32.1078" stroke="#181818" stroke-width="0.633967"/>
<line x1="15.1484" y1="36.5463" x2="76.0092" y2="36.5463" stroke="#181818" stroke-width="0.633967"/>
<line x1="15.1484" y1="41.6176" x2="76.0092" y2="41.6176" stroke="#181818" stroke-width="0.633967"/>
<line x1="21.4844" y1="46.6899" x2="67.7639" y2="46.6899" stroke="#181818" stroke-width="0.633967"/>
</svg>
