<svg width="109" height="103" viewBox="0 0 109 103" fill="none" xmlns="http://www.w3.org/2000/svg">
<g clip-path="url(#clip0_18047_3699)">
<path d="M7.56918 56.092C12.5993 29.7455 38.3776 5.41406 65.0424 5.41406C91.6973 5.41406 112.535 29.7455 107.495 56.092C102.455 82.4385 79.1767 102.248 52.5218 102.248C25.857 102.248 2.52906 82.4485 7.56918 56.092Z" fill="#F66B0E" stroke="black" stroke-width="1.5" stroke-linecap="round" stroke-linejoin="round"/>
<path d="M98.3416 77.4144L89.098 87.6803L79.1772 95.6203L70.5711 99.5402L63.5289 100.924L56.915 102.257H48.9863L39.7328 101.375L29.5928 97.3848L21.6641 92.0613L42.9999 82.417L89.108 70.918L98.3416 77.4144Z" fill="#C24E00"/>
<path d="M2.28312 55.2398C7.32324 28.8933 38.3907 5.41406 65.0455 5.41406C91.7004 5.41406 112.538 29.7455 107.498 56.092C102.458 82.4385 79.1798 102.248 52.515 102.248C25.8601 102.248 -2.74703 81.5863 2.28312 55.2398Z" stroke="black" stroke-width="1.5" stroke-linecap="round" stroke-linejoin="round"/>
<path d="M98.3414 77.4161L88.3906 70.0977" stroke="black" stroke-width="1.5" stroke-linecap="round" stroke-linejoin="round"/>
<path d="M1.61381 48.4624C6.64397 22.1159 32.3426 0.751953 58.9974 0.751953C85.6523 0.751953 103.183 22.1159 98.153 48.4624C93.1129 74.8089 67.4242 96.1728 40.7594 96.1728C14.1045 96.1728 -3.4263 74.8089 1.61381 48.4624Z" fill="#FFFACC" stroke="black" stroke-width="1.5" stroke-linecap="round" stroke-linejoin="round"/>
<path d="M34.0728 73.4061L45.926 51.992L22.5781 49.205L56.8728 17.4648H60.9567L49.1035 38.8789L72.4514 41.6659L38.1666 73.4061H34.0728Z" fill="#FFB787" stroke="black" stroke-width="1.5" stroke-miterlimit="10"/>
</g>
<defs>
<clipPath id="clip0_18047_3699">
<rect width="109" height="103" fill="white"/>
</clipPath>
</defs>
</svg>
