<svg width="24" height="24" viewBox="0 0 24 24" fill="none" xmlns="http://www.w3.org/2000/svg">
<g clip-path="url(#clip0_8701_2664)">
<path d="M12.005 22.0101C17.5307 22.0101 22.0101 17.5307 22.0101 12.0051C22.0101 6.47942 17.5307 2 12.005 2C6.4794 2 2 6.47942 2 12.0051C2 17.5307 6.4794 22.0101 12.005 22.0101Z" fill="white"/>
<path fill-rule="evenodd" clip-rule="evenodd" d="M12.0047 2C9.63152 2.0029 7.33568 2.84849 5.52257 4.38746C4.17653 5.53478 3.15891 7.02179 2.57437 8.69553C1.98983 10.3693 1.85948 12.1693 2.19674 13.9105C2.53399 15.6516 3.32667 17.271 4.49323 18.6022C5.6598 19.9333 7.15812 20.928 8.83409 21.4841C9.33737 21.5751 9.51854 21.2716 9.51854 21.0086C9.51854 20.7456 9.51854 19.997 9.51854 19.1472C6.74049 19.7542 6.14663 17.9636 6.14663 17.9636C5.96413 17.3598 5.57098 16.8426 5.03943 16.5068C4.13354 15.8796 5.10989 15.8897 5.10989 15.8897C5.42472 15.9301 5.72622 16.0422 5.99138 16.2175C6.25653 16.3929 6.47832 16.6268 6.63983 16.9014C6.77524 17.1492 6.95828 17.3675 7.17834 17.5437C7.3984 17.7198 7.65108 17.8503 7.92171 17.9274C8.19234 18.0046 8.47554 18.027 8.75484 17.9932C9.03415 17.9595 9.30401 17.8703 9.54874 17.7309C9.59666 17.2245 9.82129 16.7515 10.1829 16.3955C7.97853 16.1629 5.61316 15.303 5.61316 11.479C5.59653 10.4891 5.95656 9.53023 6.6197 8.79818C6.31755 7.93383 6.35354 6.98638 6.72035 6.1477C6.72035 6.1477 7.55579 5.87456 9.46822 7.15933C11.1158 6.70866 12.8533 6.70866 14.5009 7.15933C16.4134 5.86444 17.2488 6.1477 17.2488 6.1477C17.6259 6.98396 17.6621 7.93545 17.3494 8.79818C18.0171 9.52747 18.3778 10.4882 18.356 11.479C18.356 15.3232 16.0107 16.1629 13.7863 16.4158C14.0256 16.6567 14.2098 16.9471 14.3263 17.2668C14.4427 17.5865 14.4886 17.9278 14.4607 18.2671C14.4607 19.6024 14.4607 20.6748 14.4607 21.0086C14.4607 21.3424 14.6418 21.5852 15.1552 21.4841C16.8333 20.9307 18.3342 19.9372 19.5028 18.6062C20.6714 17.2752 21.4654 15.6549 21.8029 13.9125C22.1404 12.1701 22.0091 10.3687 21.4227 8.69431C20.8362 7.01992 19.8158 5.53315 18.4667 4.38746C16.6589 2.85296 14.371 2.00766 12.0047 2Z" fill="#191717"/>
</g>
<defs>
<clipPath id="clip0_8701_2664">
<rect width="20" height="20" fill="white" transform="translate(2 2)"/>
</clipPath>
</defs>
</svg>
