<svg width="16" height="16" viewBox="0 0 16 16" fill="none" xmlns="http://www.w3.org/2000/svg">
<path d="M7.2657 1.39966C4.19903 1.73299 1.73236 4.19966 1.39903 7.19966C1.0657 10.333 2.8657 13.133 5.59903 14.1997C5.79903 14.2663 5.99903 14.133 5.99903 13.8663V12.7997C5.99903 12.7997 5.73236 12.8663 5.39903 12.8663C4.4657 12.8663 4.0657 12.0663 3.99903 11.5997C3.93236 11.333 3.79903 11.133 3.59903 10.933C3.39903 10.8663 3.33236 10.8663 3.33236 10.7997C3.33236 10.6663 3.53236 10.6663 3.59903 10.6663C3.99903 10.6663 4.33236 11.133 4.4657 11.333C4.79903 11.8663 5.19903 11.9997 5.39903 11.9997C5.6657 11.9997 5.8657 11.933 5.99903 11.8663C6.0657 11.3997 6.2657 10.933 6.6657 10.6663C5.13236 10.333 3.99903 9.46633 3.99903 7.99966C3.99903 7.26633 4.33236 6.53299 4.79903 5.99966C4.73236 5.86633 4.6657 5.53299 4.6657 5.06633C4.6657 4.79966 4.6657 4.39966 4.8657 3.99966C4.8657 3.99966 5.79903 3.99966 6.73236 4.86633C7.0657 4.73299 7.53236 4.66633 7.99903 4.66633C8.4657 4.66633 8.93236 4.73299 9.33236 4.86633C10.199 3.99966 11.199 3.99966 11.199 3.99966C11.3324 4.39966 11.3324 4.79966 11.3324 5.06633C11.3324 5.59966 11.2657 5.86633 11.199 5.99966C11.6657 6.53299 11.999 7.19966 11.999 7.99966C11.999 9.46633 10.8657 10.333 9.33236 10.6663C9.73236 10.9997 9.99903 11.5997 9.99903 12.1997V13.933C9.99903 14.133 10.199 14.333 10.4657 14.2663C12.9324 13.2663 14.6657 10.8663 14.6657 8.06633C14.6657 4.06633 11.2657 0.932992 7.2657 1.39966Z" fill="#181818"/>
</svg>
