<svg width="24" height="24" viewBox="0 0 24 24" fill="none" xmlns="http://www.w3.org/2000/svg">
<path d="M1 12C1 4 4 1 12 1C20 1 23 4 23 12C23 20 20 23 12 23C4 23 1 20 1 12Z" fill="white"/>
<path d="M20.1556 9L16.2656 11.86V18.1H18.9956C19.2939 18.1029 19.5816 17.9898 19.798 17.7845C20.0144 17.5793 20.1427 17.298 20.1556 17V9Z" fill="#4CAF50"/>
<path d="M3.84375 9L7.72375 11.88V18.11H5.00375C4.70383 18.1128 4.41469 17.9983 4.19799 17.7909C3.98128 17.5836 3.85417 17.2998 3.84375 17V9Z" fill="#1E88E5"/>
<path d="M16.2744 7.09961L12.0044 10.2496L7.73438 7.09961V11.8696L12.0044 15.0196L16.2744 11.8696V7.09961Z" fill="#E53935"/>
<path d="M3.84375 7.52V9L7.72375 11.88V7.1L6.51375 6.21C6.22473 5.99504 5.87395 5.87928 5.51375 5.88C5.29623 5.87736 5.08034 5.91776 4.87849 5.99887C4.67664 6.07999 4.49282 6.20021 4.33762 6.35263C4.18241 6.50505 4.05887 6.68666 3.97411 6.887C3.88936 7.08735 3.84505 7.30247 3.84375 7.52Z" fill="#C62828"/>
<path d="M20.1556 7.52V9L16.2656 11.86V7.1L17.4856 6.21C17.7746 5.99504 18.1254 5.87928 18.4856 5.88C18.7031 5.87736 18.919 5.91776 19.1209 5.99887C19.3227 6.07999 19.5066 6.20021 19.6618 6.35263C19.817 6.50505 19.9405 6.68666 20.0253 6.887C20.11 7.08735 20.1543 7.30247 20.1556 7.52Z" fill="#FBC02D"/>
</svg>
