<svg width="19" height="20" viewBox="0 0 19 20" fill="none" xmlns="http://www.w3.org/2000/svg">
<path fill-rule="evenodd" clip-rule="evenodd" d="M18.62 10.2271C18.62 9.518 18.5595 8.83619 18.4473 8.18164H9.5V12.0498H14.6127C14.3925 13.2998 13.7232 14.3589 12.717 15.068V17.5771H15.7873C17.5836 15.8362 18.62 13.2725 18.62 10.2271Z" fill="#4285F4"/>
<path fill-rule="evenodd" clip-rule="evenodd" d="M9.50029 19.9999C12.0653 19.9999 14.2157 19.1044 15.7876 17.5772L12.7173 15.0681C11.8667 15.6681 10.7785 16.0226 9.50029 16.0226C7.02597 16.0226 4.93165 14.2635 4.18461 11.8999H1.01074V14.4908C2.57392 17.759 5.78665 19.9999 9.50029 19.9999Z" fill="#34A853"/>
<path fill-rule="evenodd" clip-rule="evenodd" d="M4.18432 11.9002C3.99432 11.3002 3.88636 10.6593 3.88636 10.0002C3.88636 9.3411 3.99432 8.70019 4.18432 8.10019V5.50928H1.01045C0.367045 6.85928 0 8.38655 0 10.0002C0 11.6138 0.367045 13.1411 1.01045 14.4911L4.18432 11.9002Z" fill="#FBBC05"/>
<path fill-rule="evenodd" clip-rule="evenodd" d="M9.50029 3.97727C10.8951 3.97727 12.1473 4.48182 13.1319 5.47273L15.8567 2.60455C14.2114 0.990909 12.061 0 9.50029 0C5.78665 0 2.57392 2.24091 1.01074 5.50909L4.18461 8.1C4.93165 5.73636 7.02597 3.97727 9.50029 3.97727Z" fill="#EF1E1E"/>
</svg>
