<svg width="105" height="98" viewBox="0 0 105 98" fill="none" xmlns="http://www.w3.org/2000/svg">
<path d="M15.576 80.1723L24.516 15.7323C24.745 13.8752 25.6617 12.1713 27.0853 10.9569C28.5089 9.74248 30.336 9.10575 32.206 9.17235L82.886 12.9323L86.806 7.15234L99.906 14.7423H99.966L100.126 14.8324C101.239 15.5312 102.122 16.5415 102.666 17.7379C103.21 18.9343 103.391 20.2642 103.186 21.5623L93.896 90.3324C93.6733 92.2083 92.7499 93.9308 91.3108 95.1548C89.8718 96.3787 88.0234 97.0136 86.136 96.9323L22.826 91.6323C21.7807 91.5513 20.7728 91.2073 19.896 90.6323L5.80602 82.3223L2.41602 77.1723L15.576 80.1723Z" fill="#56E494" stroke="black" stroke-width="1.5" stroke-linecap="round" stroke-linejoin="round"/>
<path d="M86.1244 96.974L64.9444 84.124L5.45508 81.5039L21.4551 91.5039L60.4551 95.0039L86.1244 96.974Z" fill="#469763" stroke="black" stroke-width="1.5"/>
<path d="M15.566 80.1717L24.506 15.7317C24.7393 13.8764 25.6573 12.1752 27.0799 10.9617C28.5025 9.74811 30.3271 9.10974 32.196 9.17172L82.876 12.9317L87.326 7.51172L99.906 14.7317H99.966L100.116 14.8217C101.229 15.5205 102.112 16.5309 102.656 17.7273C103.2 18.9237 103.381 20.2535 103.176 21.5517L93.886 90.3217C93.6633 92.1977 92.7399 93.9202 91.3008 95.1441C89.8618 96.3681 88.0134 97.003 86.126 96.9217L22.826 91.6217C21.7801 91.5437 20.7714 91.1995 19.896 90.6217L5.79602 82.3117L2.41602 77.1717L15.566 80.1717Z" stroke="black" stroke-width="1.5"/>
<path d="M19.4742 1.00286L83.6642 5.62286C84.5482 5.70107 85.406 5.96342 86.1825 6.39303C86.959 6.82263 87.637 7.40998 88.173 8.11732C88.7089 8.82465 89.0908 9.63631 89.2943 10.5001C89.4977 11.3639 89.5181 12.2607 89.3542 13.1329L79.8142 81.1929C79.5831 83.0464 78.6668 84.7464 77.2456 85.9585C75.8243 87.1707 74.001 87.8072 72.1342 87.7429L7.74421 82.7429C6.86262 82.6546 6.00908 82.3836 5.23797 81.9473C4.46686 81.5109 3.79509 80.9188 3.26545 80.2085C2.73581 79.4982 2.35991 78.6855 2.1617 77.8219C1.96349 76.9584 1.94732 76.063 2.11421 75.1929L11.8542 7.48286C12.1004 5.65262 13.0149 3.97815 14.4217 2.78181C15.8285 1.58546 17.6282 0.951814 19.4742 1.00286Z" fill="#EAFDF2" stroke="black" stroke-width="1.5" stroke-linecap="round" stroke-linejoin="round"/>
<path d="M93.8843 90.3717L79.6543 82.0117" stroke="black" stroke-width="1.5" stroke-linecap="round" stroke-linejoin="round"/>
<path d="M89.416 13.4922L103.206 21.6022" stroke="black" stroke-width="1.5" stroke-linecap="round" stroke-linejoin="round"/>
<path d="M17.7053 67.8528C17.1611 67.8134 16.6327 67.6529 16.1587 67.383C15.6846 67.1131 15.2768 66.7406 14.9652 66.2928C14.6227 65.8494 14.3772 65.339 14.2446 64.7946C14.1119 64.2502 14.0951 63.6841 14.1952 63.1328L19.7053 28.8228C19.8898 27.6836 20.5012 26.6573 21.4152 25.9528C22.2692 25.1981 23.3878 24.8132 24.5252 24.8828L37.0653 25.7428L38.1552 18.6728C38.3334 17.5285 38.9459 16.497 39.8652 15.7928C40.7374 15.0431 41.8673 14.6629 43.0152 14.7328L57.1152 15.6228C57.661 15.6484 58.1945 15.7933 58.6783 16.0473C59.162 16.3013 59.5842 16.6581 59.9152 17.0928C60.2678 17.5142 60.526 18.0062 60.6727 18.5358C60.8193 19.0653 60.8508 19.62 60.7652 20.1628L59.7652 27.3128L72.7052 28.1928C73.2628 28.2227 73.8073 28.3731 74.301 28.6338C74.7948 28.8945 75.2261 29.2592 75.5653 29.7028C75.9302 30.1297 76.1987 30.6303 76.3523 31.1705C76.5059 31.7107 76.541 32.2778 76.4552 32.8328L71.5653 68.0828C71.3963 69.2731 70.7682 70.3499 69.8153 71.0828C69.3673 71.4705 68.8464 71.7649 68.2832 71.9486C67.7199 72.1323 67.1257 72.2018 66.5353 72.1528L17.7053 67.8528ZM41.2853 26.0228L55.4452 27.0228L56.4452 19.8928L42.4152 18.9428L41.2853 26.0228Z" fill="#9BFFBF" stroke="black" stroke-width="1.5" stroke-linejoin="round"/>
</svg>
