<svg width="37" height="17" viewBox="0 0 37 17" fill="none" xmlns="http://www.w3.org/2000/svg">
<path d="M32.5285 15.432C32.2817 16.2228 31.4406 16.6638 30.6498 16.417L17.7628 12.3952C16.972 12.1484 16.531 11.3072 16.7778 10.5164C17.0246 9.72561 17.8657 9.28461 18.6565 9.53141L30.1116 13.1064L33.6866 1.65128C33.9334 0.860473 34.7746 0.419467 35.5654 0.666268C36.3562 0.913069 36.7972 1.75422 36.5504 2.54503L32.5285 15.432ZM0.245131 15.7383C3.62029 7.59355 7.31236 3.07064 11.2016 1.19802C15.2199 -0.736793 19.0555 0.326243 22.1711 2.33956C25.2534 4.33131 27.8182 7.35341 29.5813 9.79611C30.4722 11.0303 31.1784 12.1448 31.663 12.9527C31.9056 13.3571 32.0934 13.6859 32.2218 13.916C32.2861 14.0311 32.3355 14.1216 32.3696 14.1847C32.3866 14.2162 32.3998 14.2409 32.4091 14.2583C32.4137 14.267 32.4174 14.274 32.4201 14.279C32.4214 14.2816 32.4225 14.2836 32.4233 14.2852C32.4238 14.286 32.4242 14.2869 32.4244 14.2873C32.4248 14.288 32.4251 14.2886 31.0967 14.9852C29.7682 15.6817 29.7684 15.682 29.7685 15.6823C29.7685 15.6822 29.7686 15.6824 29.7685 15.6823C29.7683 15.682 29.768 15.6813 29.7673 15.6801C29.7661 15.6777 29.7639 15.6735 29.7607 15.6676C29.7544 15.6557 29.7442 15.6366 29.7303 15.6108C29.7024 15.5593 29.6595 15.4807 29.6022 15.3781C29.4876 15.1726 29.3154 14.871 29.0904 14.4959C28.6397 13.7447 27.9801 12.7035 27.1488 11.5519C25.4677 9.22292 23.1627 6.55215 20.5429 4.85926C17.9565 3.18795 15.2578 2.57459 12.503 3.90101C9.61909 5.28961 6.29911 8.96557 3.01659 16.8867L0.245131 15.7383Z" fill="#929292"/>
</svg>
