<svg width="52" height="52" viewBox="0 0 52 52" fill="none" xmlns="http://www.w3.org/2000/svg">
<mask id="mask0_17384_11071" style="mask-type:alpha" maskUnits="userSpaceOnUse" x="0" y="0" width="52" height="52">
<rect width="52" height="52" fill="#D9D9D9"/>
</mask>
<g mask="url(#mask0_17384_11071)">
<path d="M27.0833 25.8852C28.1306 24.7296 28.934 23.4115 29.4938 21.931C30.0535 20.4504 30.3333 18.9157 30.3333 17.3268C30.3333 15.7379 30.0535 14.2032 29.4938 12.7227C28.934 11.2421 28.1306 9.92404 27.0833 8.76849C29.25 9.05738 31.0556 10.0143 32.5 11.6393C33.9444 13.2643 34.6667 15.1602 34.6667 17.3268C34.6667 19.4935 33.9444 21.3893 32.5 23.0143C31.0556 24.6393 29.25 25.5963 27.0833 25.8852ZM39 43.3268V36.8268C39 35.5268 38.7111 34.29 38.1333 33.1164C37.5556 31.9428 36.7972 30.9046 35.8583 30.0018C37.7 30.6518 39.4063 31.4914 40.9771 32.5206C42.5479 33.5497 43.3333 34.9851 43.3333 36.8268V43.3268H39ZM43.3333 28.1602V23.8268H39V19.4935H43.3333V15.1602H47.6667V19.4935H52V23.8268H47.6667V28.1602H43.3333ZM17.3333 25.9935C14.95 25.9935 12.9097 25.1449 11.2125 23.4477C9.51528 21.7504 8.66667 19.7102 8.66667 17.3268C8.66667 14.9435 9.51528 12.9032 11.2125 11.206C12.9097 9.50877 14.95 8.66016 17.3333 8.66016C19.7167 8.66016 21.7569 9.50877 23.4542 11.206C25.1514 12.9032 26 14.9435 26 17.3268C26 19.7102 25.1514 21.7504 23.4542 23.4477C21.7569 25.1449 19.7167 25.9935 17.3333 25.9935ZM0 43.3268V37.2601C0 36.0324 0.315972 34.9039 0.947917 33.8747C1.57986 32.8456 2.41944 32.0601 3.46667 31.5185C5.70556 30.399 7.98056 29.5595 10.2917 28.9997C12.6028 28.44 14.95 28.1602 17.3333 28.1602C19.7167 28.1602 22.0639 28.44 24.375 28.9997C26.6861 29.5595 28.9611 30.399 31.2 31.5185C32.2472 32.0601 33.0868 32.8456 33.7188 33.8747C34.3507 34.9039 34.6667 36.0324 34.6667 37.2601V43.3268H0Z" fill="#C4C4C4" fill-opacity="0.5"/>
</g>
</svg>
