<svg width="14" height="12" viewBox="0 0 14 12" fill="none" xmlns="http://www.w3.org/2000/svg">
<path d="M6.89182 3.78947L8.90909 5.78526C8.90909 5.75368 8.90909 5.71579 8.90909 5.68421C8.90909 5.18169 8.70796 4.69976 8.34993 4.34443C7.99191 3.9891 7.50632 3.78947 7 3.78947C6.96182 3.78947 6.93 3.78947 6.89182 3.78947ZM4.15545 4.29474L5.14182 5.27368C5.11 5.40632 5.09091 5.53895 5.09091 5.68421C5.09091 6.18673 5.29204 6.66866 5.65007 7.02399C6.00809 7.37932 6.49368 7.57895 7 7.57895C7.14 7.57895 7.28 7.56 7.41364 7.52842L8.4 8.50737C7.97364 8.71579 7.50273 8.8421 7 8.8421C6.15613 8.8421 5.34682 8.5094 4.75011 7.91718C4.15341 7.32496 3.81818 6.52174 3.81818 5.68421C3.81818 5.18526 3.94545 4.71789 4.15545 4.29474ZM0.636364 0.802105L2.08727 2.24211L2.37364 2.52632C1.32364 3.34737 0.496364 4.42105 0 5.68421C1.10091 8.45684 3.81818 10.4211 7 10.4211C7.98636 10.4211 8.92818 10.2316 9.78727 9.89053L10.0609 10.1558L11.9191 12L12.7273 11.1979L1.44455 0M7 2.52632C7.84387 2.52632 8.65318 2.85902 9.24988 3.45124C9.84659 4.04346 10.1818 4.84668 10.1818 5.68421C10.1818 6.08842 10.0991 6.48 9.95273 6.83368L11.8173 8.68421C12.7718 7.89474 13.5355 6.85895 14 5.68421C12.8991 2.91158 10.1818 0.947368 7 0.947368C6.10909 0.947368 5.25636 1.10526 4.45455 1.38947L5.83545 2.74737C6.19818 2.60842 6.58636 2.52632 7 2.52632Z" fill="#929292"/>
</svg>
