<svg width="25" height="25" viewBox="0 0 25 25" fill="none" xmlns="http://www.w3.org/2000/svg">
<path d="M13.9043 5.61523C13.9043 6.83371 14.8948 7.82422 16.1133 7.82422H21.5215V22.3145C21.5215 23.5191 20.5406 24.5 19.3359 24.5H5.66406C4.45939 24.5 3.47852 23.5191 3.47852 22.3145V2.68555C3.47852 1.48088 4.45939 0.5 5.66406 0.5H13.9043V5.61523ZM10.5332 17.0781H6.98242C6.30179 17.0781 5.75 17.6299 5.75 18.3105C5.75 18.9912 6.30179 19.543 6.98242 19.543H10.5332C11.2138 19.543 11.7656 18.9912 11.7656 18.3105C11.7656 17.6299 11.2138 17.0781 10.5332 17.0781ZM6.98242 13.1719C6.30179 13.1719 5.75 13.7237 5.75 14.4043C5.75 15.0849 6.30179 15.6367 6.98242 15.6367H17.7246C18.4052 15.6367 18.957 15.0849 18.957 14.4043C18.957 13.7237 18.4052 13.1719 17.7246 13.1719H6.98242ZM18.957 10.498C18.957 9.81741 18.4052 9.26562 17.7246 9.26562H6.98242C6.30179 9.26562 5.75 9.81741 5.75 10.498C5.75 11.1787 6.30179 11.7305 6.98242 11.7305H17.7246C18.4052 11.7305 18.957 11.1787 18.957 10.498Z" stroke="#F9C802"/>
<path d="M16.3692 5.35933V1.32429L20.6343 5.35933H16.3692Z" stroke="#F9C802"/>
</svg>
