<svg width="66" height="66" viewBox="0 0 66 66" fill="none" xmlns="http://www.w3.org/2000/svg">
<g id="preview">
<mask id="mask0_17384_11707" style="mask-type:alpha" maskUnits="userSpaceOnUse" x="0" y="0" width="66" height="66">
<rect id="Bounding box" width="66" height="66" fill="#D9D9D9"/>
</mask>
<g mask="url(#mask0_17384_11707)">
<path id="preview_2" d="M13.5 57.75C11.9875 57.75 10.6927 57.2115 9.61563 56.1344C8.53854 55.0573 8 53.7625 8 52.25V13.75C8 12.2375 8.53854 10.9427 9.61563 9.86563C10.6927 8.78854 11.9875 8.25 13.5 8.25H52C53.5125 8.25 54.8073 8.78854 55.8844 9.86563C56.9615 10.9427 57.5 12.2375 57.5 13.75V52.25C57.5 53.7625 56.9615 55.0573 55.8844 56.1344C54.8073 57.2115 53.5125 57.75 52 57.75H13.5ZM13.5 52.25H52V19.25H13.5V52.25ZM32.75 46.75C28.9917 46.75 25.6344 45.7302 22.6781 43.6906C19.7219 41.651 17.5792 39.0042 16.25 35.75C17.5792 32.4958 19.7219 29.849 22.6781 27.8094C25.6344 25.7698 28.9917 24.75 32.75 24.75C36.5083 24.75 39.8656 25.7698 42.8219 27.8094C45.7781 29.849 47.9208 32.4958 49.25 35.75C47.9208 39.0042 45.7781 41.651 42.8219 43.6906C39.8656 45.7302 36.5083 46.75 32.75 46.75ZM32.75 42.625C35.3167 42.625 37.6542 42.0177 39.7625 40.8031C41.8708 39.5885 43.5208 37.9042 44.7125 35.75C43.5208 33.5958 41.8708 31.9115 39.7625 30.6969C37.6542 29.4823 35.3167 28.875 32.75 28.875C30.1833 28.875 27.8458 29.4823 25.7375 30.6969C23.6292 31.9115 21.9792 33.5958 20.7875 35.75C21.9792 37.9042 23.6292 39.5885 25.7375 40.8031C27.8458 42.0177 30.1833 42.625 32.75 42.625ZM32.75 39.875C33.8958 39.875 34.8698 39.474 35.6719 38.6719C36.474 37.8698 36.875 36.8958 36.875 35.75C36.875 34.6042 36.474 33.6302 35.6719 32.8281C34.8698 32.026 33.8958 31.625 32.75 31.625C31.6042 31.625 30.6302 32.026 29.8281 32.8281C29.026 33.6302 28.625 34.6042 28.625 35.75C28.625 36.8958 29.026 37.8698 29.8281 38.6719C30.6302 39.474 31.6042 39.875 32.75 39.875Z" fill="#F66B0E"/>
</g>
</g>
</svg>
