<svg width="32" height="32" viewBox="0 0 32 32" fill="none" xmlns="http://www.w3.org/2000/svg">
<rect width="32" height="32" rx="16" fill="white"/>
<path d="M12 7C9.239 7 7 9.239 7 12V20C7 22.761 9.239 25 12 25H20C22.761 25 25 22.761 25 20V12C25 9.239 22.761 7 20 7H12ZM22 9C22.552 9 23 9.448 23 10C23 10.552 22.552 11 22 11C21.448 11 21 10.552 21 10C21 9.448 21.448 9 22 9ZM16 11C18.761 11 21 13.239 21 16C21 18.761 18.761 21 16 21C13.239 21 11 18.761 11 16C11 13.239 13.239 11 16 11ZM16 13C15.2044 13 14.4413 13.3161 13.8787 13.8787C13.3161 14.4413 13 15.2044 13 16C13 16.7956 13.3161 17.5587 13.8787 18.1213C14.4413 18.6839 15.2044 19 16 19C16.7956 19 17.5587 18.6839 18.1213 18.1213C18.6839 17.5587 19 16.7956 19 16C19 15.2044 18.6839 14.4413 18.1213 13.8787C17.5587 13.3161 16.7956 13 16 13Z" fill="#181818"/>
</svg>
