<svg width="12" height="14" viewBox="0 0 12 14" fill="none" xmlns="http://www.w3.org/2000/svg">
<path d="M4 6.33203H2.66667V7.66536H4V6.33203ZM6.66667 6.33203H5.33333V7.66536H6.66667V6.33203ZM9.33333 6.33203H8V7.66536H9.33333V6.33203ZM10.6667 1.66536H10V0.332031H8.66667V1.66536H3.33333V0.332031H2V1.66536H1.33333C0.593333 1.66536 0.00666666 2.26536 0.00666666 2.9987L0 12.332C0 13.0654 0.593333 13.6654 1.33333 13.6654H10.6667C11.4 13.6654 12 13.0654 12 12.332V2.9987C12 2.26536 11.4 1.66536 10.6667 1.66536ZM10.6667 12.332H1.33333V4.9987H10.6667V12.332Z" fill="#FFC900"/>
</svg>
