<svg width="16" height="16" viewBox="0 0 16 16" fill="none" xmlns="http://www.w3.org/2000/svg">
<g clip-path="url(#clip0_12116_3065)">
<path d="M6 7.33203H4.66667V8.66536H6V7.33203ZM8.66667 7.33203H7.33333V8.66536H8.66667V7.33203ZM11.3333 7.33203H10V8.66536H11.3333V7.33203ZM12.6667 2.66536H12V1.33203H10.6667V2.66536H5.33333V1.33203H4V2.66536H3.33333C2.59333 2.66536 2.00667 3.26536 2.00667 3.9987L2 13.332C2 14.0654 2.59333 14.6654 3.33333 14.6654H12.6667C13.4 14.6654 14 14.0654 14 13.332V3.9987C14 3.26536 13.4 2.66536 12.6667 2.66536ZM12.6667 13.332H3.33333V5.9987H12.6667V13.332Z" fill="#929292"/>
</g>
<defs>
<clipPath id="clip0_12116_3065">
<rect width="16" height="16" fill="white"/>
</clipPath>
</defs>
</svg>
