<svg width="31" height="31" viewBox="0 0 31 31" fill="none" xmlns="http://www.w3.org/2000/svg">
<rect width="31" height="31" rx="15.5" fill="#5EDF8C" fill-opacity="0.2"/>
<g clip-path="url(#clip0_10482_743)">
<path d="M7.66797 22.0003H10.3346V14.0003H7.66797V22.0003ZM22.3346 14.667C22.3346 13.9337 21.7346 13.3337 21.0013 13.3337H16.7946L17.428 10.287L17.448 10.0737C17.448 9.80033 17.3346 9.54699 17.1546 9.36699L16.448 8.66699L12.0613 13.0603C11.8146 13.3003 11.668 13.6337 11.668 14.0003V20.667C11.668 21.4003 12.268 22.0003 13.0013 22.0003H19.0013C19.5546 22.0003 20.028 21.667 20.228 21.187L22.2413 16.487C22.3013 16.3337 22.3346 16.1737 22.3346 16.0003V14.667Z" fill="#469763"/>
</g>
<defs>
<clipPath id="clip0_10482_743">
<rect width="16" height="16" fill="white" transform="translate(7 8)"/>
</clipPath>
</defs>
</svg>
