<svg width="16" height="16" viewBox="0 0 16 16" fill="none" xmlns="http://www.w3.org/2000/svg">
<g id="thumb_down">
<mask id="mask0_17384_10299" style="mask-type:alpha" maskUnits="userSpaceOnUse" x="0" y="0" width="16" height="16">
<rect id="Bounding box" x="16" y="16" width="16" height="16" transform="rotate(180 16 16)" fill="#D9D9D9"/>
</mask>
<g mask="url(#mask0_17384_10299)">
<path id="thumb_down_2" d="M11.6982 13.3984H4.41572V5.39847L9.00891 1.00107L9.59469 1.56514C9.66657 1.63437 9.72626 1.72604 9.77375 1.84014C9.82123 1.95424 9.84497 2.06172 9.84497 2.16257V2.3318L9.11007 5.39847H13.7485C14.0778 5.39847 14.3687 5.52005 14.6212 5.76322C14.8737 6.00638 15 6.2865 15 6.6036V7.6805C15 7.74974 14.9907 7.82452 14.972 7.90485C14.9534 7.9852 14.9326 8.05999 14.9095 8.12922L12.9258 12.6369C12.8263 12.8506 12.6599 13.0309 12.4265 13.1779C12.1931 13.3249 11.9503 13.3984 11.6982 13.3984ZM5.45417 12.3985H11.6982C11.7471 12.3985 11.797 12.3856 11.848 12.36C11.8991 12.3343 11.9379 12.2916 11.9645 12.2318L13.9616 7.73179V6.6036C13.9616 6.54377 13.9416 6.49462 13.9017 6.45615C13.8617 6.41769 13.8107 6.39845 13.7485 6.39845H7.79737L8.66542 2.74461L5.45417 5.8241V12.3985ZM4.41572 5.39847V6.39845H2.19234V12.3985H4.41572V13.3984H1.1539V5.39847H4.41572Z" fill="#929292"/>
</g>
</g>
</svg>
