<svg width="64" height="64" viewBox="0 0 64 64" fill="none" xmlns="http://www.w3.org/2000/svg">
<rect width="64" height="64" rx="8" fill="#9E9E9E"/>
<mask id="mask0_17075_2686" style="mask-type:alpha" maskUnits="userSpaceOnUse" x="9" y="10" width="45" height="45">
<rect x="9" y="10" width="45" height="45" fill="#D9D9D9"/>
</mask>
<g mask="url(#mask0_17075_2686)">
<path d="M12.75 49.375C11.7188 49.375 10.8359 49.0078 10.1016 48.2734C9.36719 47.5391 9 46.6563 9 45.625V19.375C9 18.3438 9.36719 17.4609 10.1016 16.7266C10.8359 15.9922 11.7188 15.625 12.75 15.625H50.25C51.2813 15.625 52.1641 15.9922 52.8984 16.7266C53.6328 17.4609 54 18.3438 54 19.375V45.625C54 46.6563 53.6328 47.5391 52.8984 48.2734C52.1641 49.0078 51.2813 49.375 50.25 49.375H12.75ZM25.875 36.25C27.4375 36.25 28.7656 35.7031 29.8594 34.6094C30.9531 33.5156 31.5 32.1875 31.5 30.625C31.5 29.0625 30.9531 27.7344 29.8594 26.6406C28.7656 25.5469 27.4375 25 25.875 25C24.3125 25 22.9844 25.5469 21.8906 26.6406C20.7969 27.7344 20.25 29.0625 20.25 30.625C20.25 32.1875 20.7969 33.5156 21.8906 34.6094C22.9844 35.7031 24.3125 36.25 25.875 36.25ZM12.9375 45.625H38.8125C37.5 43.2813 35.6875 41.4453 33.375 40.1172C31.0625 38.7891 28.5625 38.125 25.875 38.125C23.1875 38.125 20.6875 38.7891 18.375 40.1172C16.0625 41.4453 14.25 43.2813 12.9375 45.625Z" fill="white"/>
</g>
<path d="M40.224 30.7693V23.1786H37.7033V30.7693H40.2243H40.224ZM38.9642 22.1424C39.843 22.1424 40.3902 21.5596 40.3902 20.8312C40.3737 20.0861 39.843 19.5195 38.9809 19.5195C38.1182 19.5195 37.5547 20.0861 37.5547 20.8311C37.5547 21.5595 38.1016 22.1424 38.9477 22.1424H38.964L38.9642 22.1424ZM41.6193 30.7693H44.1399V26.5308C44.1399 26.3042 44.1563 26.0771 44.2229 25.9152C44.4051 25.4618 44.8198 24.9924 45.5163 24.9924C46.4282 24.9924 46.7932 25.6884 46.7932 26.7089V30.7693H49.3137V26.417C49.3137 24.0856 48.0703 23.0007 46.4119 23.0007C45.0522 23.0007 44.4551 23.7613 44.1233 24.2794H44.1401V23.1789H41.6194C41.6523 23.891 41.6192 30.7695 41.6192 30.7695L41.6193 30.7693Z" fill="#9E9E9E"/>
</svg>
