<svg width="64" height="64" viewBox="0 0 64 64" fill="none" xmlns="http://www.w3.org/2000/svg">
<g clip-path="url(#clip0_17075_2684)">
<path d="M56.5 0.5L7.5 0.5C3.6325 0.5 0.5 3.6325 0.5 7.5L0.5 56.5C0.5 60.3675 3.6325 63.5 7.5 63.5H56.5C60.3675 63.5 63.5 60.3675 63.5 56.5V7.5C63.5 3.6325 60.3675 0.5 56.5 0.5ZM21.5 49.5H12.6695L12.6695 25H21.5L21.5 49.5ZM16.929 20.5095C14.2305 20.5095 12.428 18.7105 12.428 16.3095C12.428 13.9085 14.227 12.1095 17.2265 12.1095C19.925 12.1095 21.7275 13.9085 21.7275 16.3095C21.7275 18.7105 19.9285 20.5095 16.929 20.5095ZM53 49.5H44.453V36.109C44.453 32.406 42.1745 31.552 41.3205 31.552C40.4665 31.552 37.6175 32.1225 37.6175 36.109C37.6175 36.6795 37.6175 49.5 37.6175 49.5H28.787L28.787 25L37.6175 25V28.4195C38.755 26.4245 41.0335 25 45.307 25C49.5805 25 53 28.4195 53 36.109V49.5Z" fill="#0072B1"/>
</g>
<defs>
<clipPath id="clip0_17075_2684">
<rect width="64" height="64" fill="white"/>
</clipPath>
</defs>
</svg>
