<svg width="16" height="16" viewBox="0 0 16 16" fill="none" xmlns="http://www.w3.org/2000/svg">
<path d="M3.33333 2C2.59667 2 2 2.59667 2 3.33333V12.6667C2 13.4033 2.59667 14 3.33333 14H12.6667C13.4033 14 14 13.4033 14 12.6667V3.33333C14 2.59667 13.4033 2 12.6667 2H3.33333ZM3.33333 3.33333H12.6667V12.6667H3.33333V3.33333ZM5.1862 4.21094C4.61486 4.21094 4.27214 4.55439 4.27214 5.01172C4.27214 5.46905 4.61491 5.8112 5.12891 5.8112C5.70024 5.8112 6.04297 5.46905 6.04297 5.01172C6.04297 4.55439 5.7002 4.21094 5.1862 4.21094ZM4.31771 6.66667V11.3333H6V6.66667H4.31771ZM7.38802 6.66667V11.3333H9.07031V8.78255C9.07031 8.02322 9.61207 7.91406 9.77474 7.91406C9.93741 7.91406 10.3724 8.07722 10.3724 8.78255V11.3333H12V8.78255C12 7.31789 11.3492 6.66667 10.5352 6.66667C9.72116 6.66667 9.28698 6.93771 9.07031 7.31771V6.66667H7.38802Z" fill="#181818"/>
</svg>
