<svg width="25" height="30" viewBox="0 0 25 30" fill="none" xmlns="http://www.w3.org/2000/svg">
<g clip-path="url(#clip0_2712_2703)">
<path d="M19.7446 0C19.944 0.104591 20.1706 0.0934268 20.3824 0.150423C24.2475 1.18693 25.5532 5.91468 22.7601 8.80092C21.834 9.75811 20.8778 10.6871 19.9352 11.6284C18.3065 13.2554 16.6832 14.8878 15.0463 16.5072C13.4305 18.1054 11.0922 18.512 9.11525 17.5595C9.09877 17.5513 9.08465 17.5378 9.03758 17.5037C9.46887 17.0736 9.91252 16.6617 10.3173 16.2157C10.538 15.9725 10.7586 15.9078 11.0817 15.9343C11.9672 16.006 12.7509 15.7139 13.3782 15.0911C15.9847 12.5027 18.5854 9.90736 21.1755 7.30257C22.0269 6.44645 22.2911 5.40407 21.9216 4.2518C21.5527 3.10071 20.7342 2.40559 19.541 2.20523C18.599 2.04658 17.7352 2.28631 17.0468 2.95499C15.7117 4.2518 14.4043 5.57682 13.0869 6.89184C11.8042 8.17162 10.5244 9.4555 9.2394 10.7335C8.48861 11.4809 8.17088 12.3752 8.30209 13.4253C8.31386 13.521 8.31327 13.5892 8.24089 13.6615C7.7337 14.1639 7.23003 14.6704 6.70695 15.1933C6.25095 14.2796 6.08031 13.3412 6.18328 12.3564C6.32038 11.0479 6.91113 9.96905 7.84196 9.04654C10.305 6.6051 12.7586 4.15485 15.2028 1.69402C16.0418 0.849655 17.005 0.265003 18.1859 0.0599342C18.2259 0.0528831 18.2612 0.0446568 18.2736 0.00058759C18.7643 0 19.2544 0 19.7446 0Z" fill="#6D6D6E"/>
<path d="M17.5704 14.7714C18.3088 16.3961 18.2965 17.9656 17.5016 19.5203C17.255 20.0027 16.9208 20.4235 16.5366 20.8066C13.9853 23.3532 11.4446 25.9104 8.88042 28.4447C7.4365 29.8719 5.68427 30.3291 3.74492 29.765C1.81676 29.2038 0.584665 27.8829 0.143959 25.918C-0.244969 24.1823 0.148078 22.5817 1.39724 21.3043C4.04089 18.6013 6.72278 15.9349 9.41997 13.2848C10.8609 11.8693 13.1486 11.5197 14.9956 12.3359C15.1774 12.4164 15.2457 12.464 15.0621 12.6373C14.5996 13.0745 14.1548 13.5304 13.7088 13.9846C13.5993 14.0963 13.5034 14.1409 13.3293 14.1198C12.3355 13.997 11.4735 14.2914 10.7615 15.0012C9.81773 15.9413 8.87571 16.8832 7.9331 17.8246C6.29031 19.4651 4.64222 21.0998 3.00708 22.7486C1.40194 24.3674 2.07095 27.1026 4.23447 27.7437C5.3683 28.0798 6.40799 27.8289 7.24527 27.0021C9.85244 24.4285 12.4373 21.8319 15.0262 19.2395C15.7517 18.5132 16.0353 17.6289 15.8894 16.6135C15.8729 16.5001 15.8988 16.4331 15.9747 16.3585C16.4978 15.842 17.0167 15.3232 17.5704 14.7714Z" fill="#6D6D6E"/>
</g>
<defs>
<clipPath id="clip0_2712_2703">
<rect width="24.2553" height="30" fill="white"/>
</clipPath>
</defs>
</svg>
