<svg width="24" height="24" viewBox="0 0 24 24" fill="none" xmlns="http://www.w3.org/2000/svg">
<path d="M2 3.47359C2 2.66021 2.66203 2 3.47812 2H20.5219C21.3383 2 22 2.66021 22 3.47359V21.0981C22 21.9117 21.3383 22.5714 20.5219 22.5714H3.47812C2.66211 22.5714 2 21.9118 2 21.0983V3.47335V3.47359Z" fill="#006699"/>
<path d="M8.07742 19.2155V9.95423H5.08461V19.2155H8.07773H8.07742ZM6.58164 8.68997C7.62508 8.68997 8.27469 7.97881 8.27469 7.09006C8.25516 6.18106 7.62508 5.48975 6.60148 5.48975C5.57719 5.48975 4.9082 6.18106 4.9082 7.08998C4.9082 7.97873 5.55758 8.68989 6.56203 8.68989H6.58141L6.58164 8.68997ZM9.73398 19.2155H12.7266V14.0442C12.7266 13.7677 12.7461 13.4906 12.8252 13.2931C13.0414 12.7399 13.5338 12.1672 14.3608 12.1672C15.4434 12.1672 15.8768 13.0164 15.8768 14.2615V19.2155H18.8693V13.9054C18.8693 11.0608 17.393 9.7371 15.4241 9.7371C13.8098 9.7371 13.1008 10.6651 12.7069 11.2972H12.7268V9.95455H9.73414C9.7732 10.8234 9.73391 19.2159 9.73391 19.2159L9.73398 19.2155Z" fill="white"/>
</svg>
