<svg width="32" height="32" viewBox="0 0 32 32" fill="none" xmlns="http://www.w3.org/2000/svg">
<rect width="32" height="32" rx="16" fill="white"/>
<path d="M23 7H9C7.895 7 7 7.895 7 9V23C7 24.105 7.895 25 9 25H23C24.105 25 25 24.105 25 23V9C25 7.895 24.105 7 23 7ZM13 21H10.477V14H13V21ZM11.694 12.717C10.923 12.717 10.408 12.203 10.408 11.517C10.408 10.831 10.922 10.317 11.779 10.317C12.55 10.317 13.065 10.831 13.065 11.517C13.065 12.203 12.551 12.717 11.694 12.717ZM22 21H19.558V17.174C19.558 16.116 18.907 15.872 18.663 15.872C18.419 15.872 17.605 16.035 17.605 17.174C17.605 17.337 17.605 21 17.605 21H15.082V14H17.605V14.977C17.93 14.407 18.581 14 19.802 14C21.023 14 22 14.977 22 17.174V21Z" fill="#181818"/>
</svg>
