<svg width="40" height="40" viewBox="0 0 40 40" fill="none" xmlns="http://www.w3.org/2000/svg">
<mask id="mask0_18047_4869" style="mask-type:alpha" maskUnits="userSpaceOnUse" x="0" y="0" width="40" height="40">
<rect x="0.5" y="0.5" width="39" height="39" fill="#D9D9D9" stroke="black"/>
</mask>
<g mask="url(#mask0_18047_4869)">
<path d="M14.6374 26.9711L14.3676 28.1287L15.3837 27.5121L19.9993 24.7112L24.615 27.5121L25.6311 28.1287L25.3613 26.9711L24.1382 21.7235L28.2432 18.1711L29.1457 17.3901L27.956 17.2946L22.5507 16.8606L20.4602 11.8908L19.9993 10.7951L19.5385 11.8908L17.448 16.8606L12.0427 17.2946L10.853 17.3901L11.7555 18.1711L15.8605 21.7235L14.6374 26.9711ZM14.416 32.8346H7.16602V25.5846V25.3797L7.02222 25.2338L1.86787 20.0013L7.02222 14.7689L7.16602 14.6229V14.418V7.16797H14.416H14.6209L14.7669 7.02417L19.9993 1.86982L25.2318 7.02417L25.3778 7.16797H25.5827H32.8327V14.418V14.6229L32.9765 14.7689L38.1308 20.0013L32.9765 25.2338L32.8327 25.3797V25.5846V32.8346H25.5827H25.3778L25.2318 32.9784L19.9993 38.1328L14.7669 32.9784L14.6209 32.8346H14.416Z" fill="#FFC900" stroke="black"/>
</g>
</svg>
