<svg width="16" height="16" viewBox="0 0 16 16" fill="none" xmlns="http://www.w3.org/2000/svg">
<mask id="mask0_18014_2024" style="mask-type:alpha" maskUnits="userSpaceOnUse" x="0" y="0" width="16" height="16">
<rect width="16" height="16" fill="#D9D9D9"/>
</mask>
<g mask="url(#mask0_18014_2024)">
<path d="M2.66732 13.3327C2.30065 13.3327 1.98676 13.2021 1.72565 12.941C1.46454 12.6799 1.33398 12.366 1.33398 11.9993V3.99935C1.33398 3.63268 1.46454 3.31879 1.72565 3.05768C1.98676 2.79657 2.30065 2.66602 2.66732 2.66602H13.334C13.7007 2.66602 14.0145 2.79657 14.2757 3.05768C14.5368 3.31879 14.6673 3.63268 14.6673 3.99935V11.9993C14.6673 12.366 14.5368 12.6799 14.2757 12.941C14.0145 13.2021 13.7007 13.3327 13.334 13.3327H2.66732ZM8.00065 8.66602L2.66732 5.33268V11.9993H13.334V5.33268L8.00065 8.66602ZM8.00065 7.33268L13.334 3.99935H2.66732L8.00065 7.33268ZM2.66732 5.33268V3.99935V11.9993V5.33268Z" fill="#929292"/>
</g>
</svg>
