<svg width="16" height="3" viewBox="0 0 16 3" fill="none" xmlns="http://www.w3.org/2000/svg">
<path d="M15.5 1.25C15.5 1.94036 14.9404 2.5 14.25 2.5C13.5596 2.5 13 1.94036 13 1.25C13 0.559644 13.5596 0 14.25 0C14.9404 0 15.5 0.559644 15.5 1.25Z" fill="black"/>
<path d="M9 1.25C9 1.94036 8.44036 2.5 7.75 2.5C7.05964 2.5 6.5 1.94036 6.5 1.25C6.5 0.559644 7.05964 0 7.75 0C8.44036 0 9 0.559644 9 1.25Z" fill="black"/>
<path d="M2.5 1.25C2.5 1.94036 1.94036 2.5 1.25 2.5C0.559644 2.5 0 1.94036 0 1.25C0 0.559644 0.559644 0 1.25 0C1.94036 0 2.5 0.559644 2.5 1.25Z" fill="black"/>
</svg>
