<svg width="144" height="105" viewBox="0 0 144 105" fill="none" xmlns="http://www.w3.org/2000/svg">
<g clip-path="url(#clip0_11897_2976)">
<path d="M72.0052 5.66602C56.3652 5.66602 43.6719 18.3593 43.6719 33.9993C43.6719 49.6393 56.3652 62.3327 72.0052 62.3327C87.6452 62.3327 100.339 49.6393 100.339 33.9993C100.339 18.3593 87.6452 5.66602 72.0052 5.66602ZM72.0052 56.666C59.5102 56.666 49.3385 46.4943 49.3385 33.9993C49.3385 21.5043 59.5102 11.3327 72.0052 11.3327C84.5002 11.3327 94.6719 21.5043 94.6719 33.9993C94.6719 46.4943 84.5002 56.666 72.0052 56.666ZM85.0102 21.476L66.3385 40.1477L59.0002 32.8377L55.0052 36.8327L66.3385 48.166L89.0052 25.4993L85.0102 21.476Z" fill="#1FA3FF"/>
</g>
<path d="M7.54 100.1C6.5 100.1 5.55333 99.9 4.7 99.5C3.86 99.1 3.13333 98.56 2.52 97.88C1.92 97.1867 1.45333 96.4133 1.12 95.56C0.786667 94.6933 0.62 93.8067 0.62 92.9C0.62 91.9533 0.793333 91.0533 1.14 90.2C1.5 89.3333 1.98667 88.5667 2.6 87.9C3.22667 87.22 3.96 86.6867 4.8 86.3C5.65333 85.9 6.58667 85.7 7.6 85.7C8.62667 85.7 9.56 85.9067 10.4 86.32C11.2533 86.7333 11.98 87.2867 12.58 87.98C13.18 88.6733 13.6467 89.4467 13.98 90.3C14.3133 91.1533 14.48 92.0333 14.48 92.94C14.48 93.8733 14.3067 94.7733 13.96 95.64C13.6133 96.4933 13.1267 97.26 12.5 97.94C11.8867 98.6067 11.1533 99.1333 10.3 99.52C9.46 99.9067 8.54 100.1 7.54 100.1ZM3.42 92.9C3.42 93.5133 3.51333 94.1067 3.7 94.68C3.88667 95.2533 4.15333 95.7667 4.5 96.22C4.86 96.66 5.29333 97.0133 5.8 97.28C6.32 97.5333 6.90667 97.66 7.56 97.66C8.22667 97.66 8.82 97.5267 9.34 97.26C9.86 96.98 10.2933 96.6133 10.64 96.16C10.9867 95.6933 11.2467 95.18 11.42 94.62C11.6067 94.0467 11.7 93.4733 11.7 92.9C11.7 92.2867 11.6 91.7 11.4 91.14C11.2133 90.5667 10.94 90.06 10.58 89.62C10.2333 89.1667 9.8 88.8133 9.28 88.56C8.77333 88.2933 8.2 88.16 7.56 88.16C6.88 88.16 6.28 88.3 5.76 88.58C5.25333 88.8467 4.82667 89.2067 4.48 89.66C4.13333 90.1133 3.86667 90.62 3.68 91.18C3.50667 91.74 3.42 92.3133 3.42 92.9ZM16.9772 100V92.12H15.5972V90.08H16.9772V89.82C16.9772 89.0867 17.1239 88.4267 17.4172 87.84C17.7105 87.2533 18.1239 86.7867 18.6572 86.44C19.2039 86.0933 19.8505 85.92 20.5972 85.92C21.0905 85.92 21.5639 85.9867 22.0172 86.12C22.4705 86.24 22.9372 86.4067 23.4172 86.62L22.8572 88.66C22.5639 88.5 22.2705 88.3867 21.9772 88.32C21.6839 88.24 21.4039 88.2 21.1372 88.2C20.8972 88.2 20.6839 88.24 20.4972 88.32C20.3105 88.4 20.1505 88.5133 20.0172 88.66C19.8972 88.7933 19.8039 88.9533 19.7372 89.14C19.6839 89.3267 19.6572 89.52 19.6572 89.72V90.08H22.2172V92.12H19.6572V100H16.9772ZM22.2172 100V92.12H20.8372V90.08H22.2172V89.44C22.2172 88.5733 22.3572 87.8267 22.6372 87.2C22.9305 86.56 23.3372 86.0667 23.8572 85.72C24.3905 85.3733 25.0105 85.2 25.7172 85.2C26.1439 85.2 26.5705 85.2533 26.9972 85.36C27.4372 85.4667 27.8705 85.62 28.2972 85.82L27.7572 87.84C27.5572 87.7333 27.3239 87.6467 27.0572 87.58C26.7905 87.5 26.5372 87.46 26.2972 87.46C25.8439 87.46 25.4972 87.62 25.2572 87.94C25.0172 88.26 24.8972 88.7267 24.8972 89.34V90.08H27.4572V92.12H24.8972V100H22.2172ZM33.8925 100.2C33.0525 100.2 32.2925 100.06 31.6125 99.78C30.9325 99.4867 30.3525 99.0933 29.8725 98.6C29.3925 98.0933 29.0192 97.52 28.7525 96.88C28.4992 96.2267 28.3725 95.54 28.3725 94.82C28.3725 93.82 28.5925 92.9067 29.0325 92.08C29.4858 91.2533 30.1258 90.5933 30.9525 90.1C31.7925 89.5933 32.7792 89.34 33.9125 89.34C35.0592 89.34 36.0392 89.5933 36.8525 90.1C37.6658 90.5933 38.2858 91.2533 38.7125 92.08C39.1525 92.8933 39.3725 93.7733 39.3725 94.72C39.3725 94.88 39.3658 95.0467 39.3525 95.22C39.3392 95.38 39.3258 95.5133 39.3125 95.62H31.2125C31.2658 96.1533 31.4192 96.62 31.6725 97.02C31.9392 97.42 32.2725 97.7267 32.6725 97.94C33.0858 98.14 33.5258 98.24 33.9925 98.24C34.5258 98.24 35.0258 98.1133 35.4925 97.86C35.9725 97.5933 36.2992 97.2467 36.4725 96.82L38.7725 97.46C38.5192 97.9933 38.1525 98.4667 37.6725 98.88C37.2058 99.2933 36.6525 99.62 36.0125 99.86C35.3725 100.087 34.6658 100.2 33.8925 100.2ZM31.1525 93.92H36.6325C36.5792 93.3867 36.4258 92.9267 36.1725 92.54C35.9325 92.14 35.6125 91.8333 35.2125 91.62C34.8125 91.3933 34.3658 91.28 33.8725 91.28C33.3925 91.28 32.9525 91.3933 32.5525 91.62C32.1658 91.8333 31.8458 92.14 31.5925 92.54C31.3525 92.9267 31.2058 93.3867 31.1525 93.92ZM47.2452 91.84C46.4318 91.84 45.7052 92 45.0652 92.32C44.4252 92.6267 43.9652 93.0733 43.6852 93.66V100H41.0052V89.52H43.4652V91.76C43.8385 91.04 44.3118 90.4733 44.8852 90.06C45.4585 89.6467 46.0652 89.42 46.7052 89.38C46.8518 89.38 46.9652 89.38 47.0452 89.38C47.1252 89.38 47.1918 89.3867 47.2452 89.4V91.84ZM52.375 96.9C52.375 96.22 52.5617 95.6267 52.935 95.12C53.3217 94.6 53.855 94.2 54.535 93.92C55.215 93.64 55.995 93.5 56.875 93.5C57.315 93.5 57.7617 93.5333 58.215 93.6C58.6683 93.6667 59.0617 93.7733 59.395 93.92V93.36C59.395 92.6933 59.195 92.18 58.795 91.82C58.4083 91.46 57.8283 91.28 57.055 91.28C56.4817 91.28 55.935 91.38 55.415 91.58C54.895 91.78 54.3483 92.0733 53.775 92.46L52.915 90.7C53.6083 90.2467 54.315 89.9067 55.035 89.68C55.7683 89.4533 56.535 89.34 57.335 89.34C58.8283 89.34 59.9883 89.7133 60.815 90.46C61.655 91.2067 62.075 92.2733 62.075 93.66V97C62.075 97.28 62.1217 97.48 62.215 97.6C62.3217 97.72 62.4883 97.7933 62.715 97.82V100C62.475 100.04 62.255 100.073 62.055 100.1C61.8683 100.127 61.7083 100.14 61.575 100.14C61.0417 100.14 60.635 100.02 60.355 99.78C60.0883 99.54 59.9217 99.2467 59.855 98.9L59.795 98.36C59.3417 98.9467 58.775 99.4 58.095 99.72C57.415 100.04 56.7217 100.2 56.015 100.2C55.3217 100.2 54.695 100.06 54.135 99.78C53.5883 99.4867 53.155 99.0933 52.835 98.6C52.5283 98.0933 52.375 97.5267 52.375 96.9ZM58.895 97.44C59.0417 97.28 59.1617 97.12 59.255 96.96C59.3483 96.8 59.395 96.6533 59.395 96.52V95.46C59.075 95.3267 58.7283 95.2267 58.355 95.16C57.9817 95.08 57.6283 95.04 57.295 95.04C56.6017 95.04 56.0283 95.1933 55.575 95.5C55.135 95.7933 54.915 96.1867 54.915 96.68C54.915 96.9467 54.9883 97.2 55.135 97.44C55.2817 97.68 55.495 97.8733 55.775 98.02C56.055 98.1667 56.3883 98.24 56.775 98.24C57.175 98.24 57.5683 98.1667 57.955 98.02C58.3417 97.86 58.655 97.6667 58.895 97.44ZM69.4594 100.2C68.606 100.2 67.8394 100.06 67.1594 99.78C66.4794 99.4867 65.8994 99.0867 65.4194 98.58C64.9394 98.06 64.566 97.4733 64.2994 96.82C64.046 96.1667 63.9194 95.48 63.9194 94.76C63.9194 93.7733 64.1394 92.8733 64.5794 92.06C65.0327 91.2333 65.6727 90.5733 66.4994 90.08C67.326 89.5867 68.306 89.34 69.4394 89.34C70.5727 89.34 71.546 89.5867 72.3594 90.08C73.1727 90.5733 73.7794 91.22 74.1794 92.02L71.5594 92.82C71.3327 92.4333 71.0327 92.14 70.6594 91.94C70.286 91.7267 69.8727 91.62 69.4194 91.62C68.9127 91.62 68.446 91.7533 68.0194 92.02C67.606 92.2733 67.2794 92.64 67.0394 93.12C66.7994 93.5867 66.6794 94.1333 66.6794 94.76C66.6794 95.3733 66.7994 95.92 67.0394 96.4C67.2927 96.8667 67.626 97.24 68.0394 97.52C68.4527 97.7867 68.9127 97.92 69.4194 97.92C69.7394 97.92 70.0394 97.8667 70.3194 97.76C70.6127 97.6533 70.8727 97.5067 71.0994 97.32C71.326 97.1333 71.4927 96.92 71.5994 96.68L74.2194 97.48C73.9794 98 73.626 98.4667 73.1594 98.88C72.706 99.2933 72.166 99.62 71.5394 99.86C70.926 100.087 70.2327 100.2 69.4594 100.2ZM80.6508 100.2C79.7974 100.2 79.0308 100.06 78.3508 99.78C77.6708 99.4867 77.0908 99.0867 76.6108 98.58C76.1308 98.06 75.7574 97.4733 75.4908 96.82C75.2374 96.1667 75.1108 95.48 75.1108 94.76C75.1108 93.7733 75.3308 92.8733 75.7708 92.06C76.2241 91.2333 76.8641 90.5733 77.6908 90.08C78.5174 89.5867 79.4974 89.34 80.6308 89.34C81.7641 89.34 82.7374 89.5867 83.5508 90.08C84.3641 90.5733 84.9708 91.22 85.3708 92.02L82.7508 92.82C82.5241 92.4333 82.2241 92.14 81.8508 91.94C81.4774 91.7267 81.0641 91.62 80.6108 91.62C80.1041 91.62 79.6374 91.7533 79.2108 92.02C78.7974 92.2733 78.4708 92.64 78.2308 93.12C77.9908 93.5867 77.8708 94.1333 77.8708 94.76C77.8708 95.3733 77.9908 95.92 78.2308 96.4C78.4841 96.8667 78.8174 97.24 79.2308 97.52C79.6441 97.7867 80.1041 97.92 80.6108 97.92C80.9308 97.92 81.2308 97.8667 81.5108 97.76C81.8041 97.6533 82.0641 97.5067 82.2908 97.32C82.5174 97.1333 82.6841 96.92 82.7908 96.68L85.4108 97.48C85.1708 98 84.8174 98.4667 84.3508 98.88C83.8974 99.2933 83.3574 99.62 82.7308 99.86C82.1174 100.087 81.4241 100.2 80.6508 100.2ZM91.8222 100.2C90.9822 100.2 90.2222 100.06 89.5422 99.78C88.8622 99.4867 88.2822 99.0933 87.8022 98.6C87.3222 98.0933 86.9489 97.52 86.6822 96.88C86.4289 96.2267 86.3022 95.54 86.3022 94.82C86.3022 93.82 86.5222 92.9067 86.9622 92.08C87.4155 91.2533 88.0555 90.5933 88.8822 90.1C89.7222 89.5933 90.7089 89.34 91.8422 89.34C92.9889 89.34 93.9689 89.5933 94.7822 90.1C95.5955 90.5933 96.2155 91.2533 96.6422 92.08C97.0822 92.8933 97.3022 93.7733 97.3022 94.72C97.3022 94.88 97.2955 95.0467 97.2822 95.22C97.2689 95.38 97.2555 95.5133 97.2422 95.62H89.1422C89.1955 96.1533 89.3489 96.62 89.6022 97.02C89.8689 97.42 90.2022 97.7267 90.6022 97.94C91.0155 98.14 91.4555 98.24 91.9222 98.24C92.4555 98.24 92.9555 98.1133 93.4222 97.86C93.9022 97.5933 94.2289 97.2467 94.4022 96.82L96.7022 97.46C96.4489 97.9933 96.0822 98.4667 95.6022 98.88C95.1355 99.2933 94.5822 99.62 93.9422 99.86C93.3022 100.087 92.5955 100.2 91.8222 100.2ZM89.0822 93.92H94.5622C94.5089 93.3867 94.3555 92.9267 94.1022 92.54C93.8622 92.14 93.5422 91.8333 93.1422 91.62C92.7422 91.3933 92.2955 91.28 91.8022 91.28C91.3222 91.28 90.8822 91.3933 90.4822 91.62C90.0955 91.8333 89.7755 92.14 89.5222 92.54C89.2822 92.9267 89.1355 93.3867 89.0822 93.92ZM105.215 100.2C104.402 100.2 103.682 100.02 103.055 99.66C102.442 99.2867 101.962 98.7867 101.615 98.16V104.26H98.9348V89.52H101.275V91.32C101.675 90.7067 102.182 90.2267 102.795 89.88C103.408 89.52 104.108 89.34 104.895 89.34C105.602 89.34 106.248 89.48 106.835 89.76C107.435 90.04 107.955 90.4333 108.395 90.94C108.835 91.4333 109.175 92.0067 109.415 92.66C109.668 93.3 109.795 93.9933 109.795 94.74C109.795 95.7533 109.595 96.6733 109.195 97.5C108.808 98.3267 108.268 98.9867 107.575 99.48C106.895 99.96 106.108 100.2 105.215 100.2ZM104.315 97.92C104.728 97.92 105.102 97.8333 105.435 97.66C105.768 97.4867 106.055 97.2533 106.295 96.96C106.548 96.6533 106.735 96.3133 106.855 95.94C106.988 95.5533 107.055 95.1533 107.055 94.74C107.055 94.3 106.982 93.8933 106.835 93.52C106.702 93.1467 106.502 92.82 106.235 92.54C105.968 92.2467 105.655 92.02 105.295 91.86C104.948 91.7 104.568 91.62 104.155 91.62C103.902 91.62 103.642 91.6667 103.375 91.76C103.122 91.84 102.875 91.96 102.635 92.12C102.395 92.28 102.182 92.4667 101.995 92.68C101.822 92.8933 101.695 93.1267 101.615 93.38V95.84C101.775 96.2267 101.988 96.58 102.255 96.9C102.535 97.22 102.855 97.4733 103.215 97.66C103.575 97.8333 103.942 97.92 104.315 97.92ZM117.754 99.46C117.527 99.5533 117.254 99.66 116.934 99.78C116.614 99.9 116.267 99.9933 115.894 100.06C115.534 100.14 115.167 100.18 114.794 100.18C114.301 100.18 113.847 100.093 113.434 99.92C113.021 99.7467 112.687 99.4733 112.434 99.1C112.194 98.7133 112.074 98.2133 112.074 97.6V91.58H110.694V89.52H112.074V86.12H114.754V89.52H116.954V91.58H114.754V96.7C114.767 97.06 114.867 97.32 115.054 97.48C115.241 97.64 115.474 97.72 115.754 97.72C116.034 97.72 116.307 97.6733 116.574 97.58C116.841 97.4867 117.054 97.4067 117.214 97.34L117.754 99.46ZM123.893 100.2C123.053 100.2 122.293 100.06 121.613 99.78C120.933 99.4867 120.353 99.0933 119.873 98.6C119.393 98.0933 119.019 97.52 118.753 96.88C118.499 96.2267 118.373 95.54 118.373 94.82C118.373 93.82 118.593 92.9067 119.033 92.08C119.486 91.2533 120.126 90.5933 120.953 90.1C121.793 89.5933 122.779 89.34 123.913 89.34C125.059 89.34 126.039 89.5933 126.853 90.1C127.666 90.5933 128.286 91.2533 128.713 92.08C129.153 92.8933 129.373 93.7733 129.373 94.72C129.373 94.88 129.366 95.0467 129.353 95.22C129.339 95.38 129.326 95.5133 129.313 95.62H121.213C121.266 96.1533 121.419 96.62 121.673 97.02C121.939 97.42 122.273 97.7267 122.673 97.94C123.086 98.14 123.526 98.24 123.993 98.24C124.526 98.24 125.026 98.1133 125.493 97.86C125.973 97.5933 126.299 97.2467 126.473 96.82L128.773 97.46C128.519 97.9933 128.153 98.4667 127.673 98.88C127.206 99.2933 126.653 99.62 126.013 99.86C125.373 100.087 124.666 100.2 123.893 100.2ZM121.153 93.92H126.633C126.579 93.3867 126.426 92.9267 126.173 92.54C125.933 92.14 125.613 91.8333 125.213 91.62C124.813 91.3933 124.366 91.28 123.873 91.28C123.393 91.28 122.953 91.3933 122.553 91.62C122.166 91.8333 121.846 92.14 121.593 92.54C121.353 92.9267 121.206 93.3867 121.153 93.92ZM130.365 94.76C130.365 93.7467 130.565 92.8333 130.965 92.02C131.365 91.1933 131.918 90.54 132.625 90.06C133.332 89.58 134.138 89.34 135.045 89.34C135.818 89.34 136.512 89.5333 137.125 89.92C137.752 90.2933 138.238 90.7733 138.585 91.36V85.4H141.265V97C141.265 97.28 141.312 97.48 141.405 97.6C141.498 97.72 141.658 97.7933 141.885 97.82V100C141.418 100.093 141.038 100.14 140.745 100.14C140.265 100.14 139.865 100.02 139.545 99.78C139.238 99.54 139.065 99.2267 139.025 98.84L138.985 98.18C138.598 98.8333 138.072 99.3333 137.405 99.68C136.752 100.027 136.065 100.2 135.345 100.2C134.625 100.2 133.958 100.06 133.345 99.78C132.745 99.5 132.218 99.1133 131.765 98.62C131.325 98.1267 130.978 97.5533 130.725 96.9C130.485 96.2333 130.365 95.52 130.365 94.76ZM138.585 96.16V93.66C138.452 93.2733 138.238 92.9267 137.945 92.62C137.652 92.3133 137.325 92.0733 136.965 91.9C136.605 91.7133 136.245 91.62 135.885 91.62C135.472 91.62 135.098 91.7067 134.765 91.88C134.432 92.0533 134.138 92.2867 133.885 92.58C133.645 92.8733 133.458 93.2133 133.325 93.6C133.205 93.9867 133.145 94.3933 133.145 94.82C133.145 95.2467 133.212 95.6533 133.345 96.04C133.492 96.4133 133.698 96.74 133.965 97.02C134.232 97.3 134.538 97.52 134.885 97.68C135.245 97.84 135.632 97.92 136.045 97.92C136.298 97.92 136.552 97.88 136.805 97.8C137.072 97.7067 137.318 97.5867 137.545 97.44C137.785 97.28 137.992 97.0933 138.165 96.88C138.352 96.6533 138.492 96.4133 138.585 96.16Z" fill="#1FA3FF"/>
<defs>
<clipPath id="clip0_11897_2976">
<rect width="68" height="68" fill="white" transform="translate(38)"/>
</clipPath>
</defs>
</svg>
