<svg width="133" height="104" viewBox="0 0 133 104" fill="none" xmlns="http://www.w3.org/2000/svg">
<path d="M7.54 100.1C6.5 100.1 5.55333 99.9 4.7 99.5C3.86 99.1 3.13333 98.56 2.52 97.88C1.92 97.1867 1.45333 96.4133 1.12 95.56C0.786667 94.6933 0.62 93.8067 0.62 92.9C0.62 91.9533 0.793333 91.0533 1.14 90.2C1.5 89.3333 1.98667 88.5667 2.6 87.9C3.22667 87.22 3.96 86.6867 4.8 86.3C5.65333 85.9 6.58667 85.7 7.6 85.7C8.62667 85.7 9.56 85.9067 10.4 86.32C11.2533 86.7333 11.98 87.2867 12.58 87.98C13.18 88.6733 13.6467 89.4467 13.98 90.3C14.3133 91.1533 14.48 92.0333 14.48 92.94C14.48 93.8733 14.3067 94.7733 13.96 95.64C13.6133 96.4933 13.1267 97.26 12.5 97.94C11.8867 98.6067 11.1533 99.1333 10.3 99.52C9.46 99.9067 8.54 100.1 7.54 100.1ZM3.42 92.9C3.42 93.5133 3.51333 94.1067 3.7 94.68C3.88667 95.2533 4.15333 95.7667 4.5 96.22C4.86 96.66 5.29333 97.0133 5.8 97.28C6.32 97.5333 6.90667 97.66 7.56 97.66C8.22667 97.66 8.82 97.5267 9.34 97.26C9.86 96.98 10.2933 96.6133 10.64 96.16C10.9867 95.6933 11.2467 95.18 11.42 94.62C11.6067 94.0467 11.7 93.4733 11.7 92.9C11.7 92.2867 11.6 91.7 11.4 91.14C11.2133 90.5667 10.94 90.06 10.58 89.62C10.2333 89.1667 9.8 88.8133 9.28 88.56C8.77333 88.2933 8.2 88.16 7.56 88.16C6.88 88.16 6.28 88.3 5.76 88.58C5.25333 88.8467 4.82667 89.2067 4.48 89.66C4.13333 90.1133 3.86667 90.62 3.68 91.18C3.50667 91.74 3.42 92.3133 3.42 92.9ZM16.9772 100V92.12H15.5972V90.08H16.9772V89.82C16.9772 89.0867 17.1239 88.4267 17.4172 87.84C17.7105 87.2533 18.1239 86.7867 18.6572 86.44C19.2039 86.0933 19.8505 85.92 20.5972 85.92C21.0905 85.92 21.5639 85.9867 22.0172 86.12C22.4705 86.24 22.9372 86.4067 23.4172 86.62L22.8572 88.66C22.5639 88.5 22.2705 88.3867 21.9772 88.32C21.6839 88.24 21.4039 88.2 21.1372 88.2C20.8972 88.2 20.6839 88.24 20.4972 88.32C20.3105 88.4 20.1505 88.5133 20.0172 88.66C19.8972 88.7933 19.8039 88.9533 19.7372 89.14C19.6839 89.3267 19.6572 89.52 19.6572 89.72V90.08H22.2172V92.12H19.6572V100H16.9772ZM22.2172 100V92.12H20.8372V90.08H22.2172V89.44C22.2172 88.5733 22.3572 87.8267 22.6372 87.2C22.9305 86.56 23.3372 86.0667 23.8572 85.72C24.3905 85.3733 25.0105 85.2 25.7172 85.2C26.1439 85.2 26.5705 85.2533 26.9972 85.36C27.4372 85.4667 27.8705 85.62 28.2972 85.82L27.7572 87.84C27.5572 87.7333 27.3239 87.6467 27.0572 87.58C26.7905 87.5 26.5372 87.46 26.2972 87.46C25.8439 87.46 25.4972 87.62 25.2572 87.94C25.0172 88.26 24.8972 88.7267 24.8972 89.34V90.08H27.4572V92.12H24.8972V100H22.2172ZM33.8925 100.2C33.0525 100.2 32.2925 100.06 31.6125 99.78C30.9325 99.4867 30.3525 99.0933 29.8725 98.6C29.3925 98.0933 29.0192 97.52 28.7525 96.88C28.4992 96.2267 28.3725 95.54 28.3725 94.82C28.3725 93.82 28.5925 92.9067 29.0325 92.08C29.4858 91.2533 30.1258 90.5933 30.9525 90.1C31.7925 89.5933 32.7792 89.34 33.9125 89.34C35.0592 89.34 36.0392 89.5933 36.8525 90.1C37.6658 90.5933 38.2858 91.2533 38.7125 92.08C39.1525 92.8933 39.3725 93.7733 39.3725 94.72C39.3725 94.88 39.3658 95.0467 39.3525 95.22C39.3392 95.38 39.3258 95.5133 39.3125 95.62H31.2125C31.2658 96.1533 31.4192 96.62 31.6725 97.02C31.9392 97.42 32.2725 97.7267 32.6725 97.94C33.0858 98.14 33.5258 98.24 33.9925 98.24C34.5258 98.24 35.0258 98.1133 35.4925 97.86C35.9725 97.5933 36.2992 97.2467 36.4725 96.82L38.7725 97.46C38.5192 97.9933 38.1525 98.4667 37.6725 98.88C37.2058 99.2933 36.6525 99.62 36.0125 99.86C35.3725 100.087 34.6658 100.2 33.8925 100.2ZM31.1525 93.92H36.6325C36.5792 93.3867 36.4258 92.9267 36.1725 92.54C35.9325 92.14 35.6125 91.8333 35.2125 91.62C34.8125 91.3933 34.3658 91.28 33.8725 91.28C33.3925 91.28 32.9525 91.3933 32.5525 91.62C32.1658 91.8333 31.8458 92.14 31.5925 92.54C31.3525 92.9267 31.2058 93.3867 31.1525 93.92ZM47.2452 91.84C46.4318 91.84 45.7052 92 45.0652 92.32C44.4252 92.6267 43.9652 93.0733 43.6852 93.66V100H41.0052V89.52H43.4652V91.76C43.8385 91.04 44.3118 90.4733 44.8852 90.06C45.4585 89.6467 46.0652 89.42 46.7052 89.38C46.8518 89.38 46.9652 89.38 47.0452 89.38C47.1252 89.38 47.1918 89.3867 47.2452 89.4V91.84ZM59.335 91.84C58.5217 91.84 57.795 92 57.155 92.32C56.515 92.6267 56.055 93.0733 55.775 93.66V100H53.095V89.52H55.555V91.76C55.9283 91.04 56.4017 90.4733 56.975 90.06C57.5483 89.6467 58.155 89.42 58.795 89.38C58.9417 89.38 59.055 89.38 59.135 89.38C59.215 89.38 59.2817 89.3867 59.335 89.4V91.84ZM65.5527 100.2C64.7127 100.2 63.9527 100.06 63.2727 99.78C62.5927 99.4867 62.0127 99.0933 61.5327 98.6C61.0527 98.0933 60.6793 97.52 60.4127 96.88C60.1593 96.2267 60.0327 95.54 60.0327 94.82C60.0327 93.82 60.2527 92.9067 60.6927 92.08C61.146 91.2533 61.786 90.5933 62.6127 90.1C63.4527 89.5933 64.4393 89.34 65.5727 89.34C66.7193 89.34 67.6993 89.5933 68.5127 90.1C69.326 90.5933 69.946 91.2533 70.3727 92.08C70.8127 92.8933 71.0327 93.7733 71.0327 94.72C71.0327 94.88 71.026 95.0467 71.0127 95.22C70.9993 95.38 70.986 95.5133 70.9727 95.62H62.8727C62.926 96.1533 63.0793 96.62 63.3327 97.02C63.5993 97.42 63.9327 97.7267 64.3327 97.94C64.746 98.14 65.186 98.24 65.6527 98.24C66.186 98.24 66.686 98.1133 67.1527 97.86C67.6327 97.5933 67.9593 97.2467 68.1327 96.82L70.4327 97.46C70.1793 97.9933 69.8127 98.4667 69.3327 98.88C68.866 99.2933 68.3127 99.62 67.6727 99.86C67.0327 100.087 66.326 100.2 65.5527 100.2ZM62.8127 93.92H68.2927C68.2393 93.3867 68.086 92.9267 67.8327 92.54C67.5927 92.14 67.2727 91.8333 66.8727 91.62C66.4727 91.3933 66.026 91.28 65.5327 91.28C65.0527 91.28 64.6127 91.3933 64.2127 91.62C63.826 91.8333 63.506 92.14 63.2527 92.54C63.0127 92.9267 62.866 93.3867 62.8127 93.92ZM71.8053 103.92C71.312 103.92 70.8386 103.84 70.3853 103.68C69.932 103.533 69.5186 103.3 69.1453 102.98L70.3053 101.16C70.452 101.32 70.632 101.433 70.8453 101.5C71.0586 101.567 71.272 101.6 71.4853 101.6C71.7253 101.6 71.9386 101.54 72.1253 101.42C72.3253 101.313 72.4786 101.16 72.5853 100.96C72.7053 100.76 72.7653 100.533 72.7653 100.28V89.52H75.4453V100.08C75.4453 100.827 75.2786 101.493 74.9453 102.08C74.6253 102.667 74.192 103.12 73.6453 103.44C73.112 103.76 72.4986 103.92 71.8053 103.92ZM72.7653 88.06V85.4H75.4453V88.06H72.7653ZM82.7402 100.2C81.9002 100.2 81.1402 100.06 80.4602 99.78C79.7802 99.4867 79.2002 99.0933 78.7202 98.6C78.2402 98.0933 77.8668 97.52 77.6002 96.88C77.3468 96.2267 77.2202 95.54 77.2202 94.82C77.2202 93.82 77.4402 92.9067 77.8802 92.08C78.3335 91.2533 78.9735 90.5933 79.8002 90.1C80.6402 89.5933 81.6268 89.34 82.7602 89.34C83.9068 89.34 84.8868 89.5933 85.7002 90.1C86.5135 90.5933 87.1335 91.2533 87.5602 92.08C88.0002 92.8933 88.2202 93.7733 88.2202 94.72C88.2202 94.88 88.2135 95.0467 88.2002 95.22C88.1868 95.38 88.1735 95.5133 88.1602 95.62H80.0602C80.1135 96.1533 80.2668 96.62 80.5202 97.02C80.7868 97.42 81.1202 97.7267 81.5202 97.94C81.9335 98.14 82.3735 98.24 82.8402 98.24C83.3735 98.24 83.8735 98.1133 84.3402 97.86C84.8202 97.5933 85.1468 97.2467 85.3202 96.82L87.6202 97.46C87.3668 97.9933 87.0002 98.4667 86.5202 98.88C86.0535 99.2933 85.5002 99.62 84.8602 99.86C84.2202 100.087 83.5135 100.2 82.7402 100.2ZM80.0002 93.92H85.4802C85.4268 93.3867 85.2735 92.9267 85.0202 92.54C84.7802 92.14 84.4602 91.8333 84.0602 91.62C83.6602 91.3933 83.2135 91.28 82.7202 91.28C82.2402 91.28 81.8002 91.3933 81.4002 91.62C81.0135 91.8333 80.6935 92.14 80.4402 92.54C80.2002 92.9267 80.0535 93.3867 80.0002 93.92ZM94.7328 100.2C93.8795 100.2 93.1128 100.06 92.4328 99.78C91.7528 99.4867 91.1728 99.0867 90.6928 98.58C90.2128 98.06 89.8395 97.4733 89.5728 96.82C89.3195 96.1667 89.1928 95.48 89.1928 94.76C89.1928 93.7733 89.4128 92.8733 89.8528 92.06C90.3061 91.2333 90.9461 90.5733 91.7728 90.08C92.5995 89.5867 93.5795 89.34 94.7128 89.34C95.8461 89.34 96.8195 89.5867 97.6328 90.08C98.4461 90.5733 99.0528 91.22 99.4528 92.02L96.8328 92.82C96.6061 92.4333 96.3061 92.14 95.9328 91.94C95.5595 91.7267 95.1461 91.62 94.6928 91.62C94.1861 91.62 93.7195 91.7533 93.2928 92.02C92.8795 92.2733 92.5528 92.64 92.3128 93.12C92.0728 93.5867 91.9528 94.1333 91.9528 94.76C91.9528 95.3733 92.0728 95.92 92.3128 96.4C92.5661 96.8667 92.8995 97.24 93.3128 97.52C93.7261 97.7867 94.1861 97.92 94.6928 97.92C95.0128 97.92 95.3128 97.8667 95.5928 97.76C95.8861 97.6533 96.1461 97.5067 96.3728 97.32C96.5995 97.1333 96.7661 96.92 96.8728 96.68L99.4928 97.48C99.2528 98 98.8995 98.4667 98.4328 98.88C97.9795 99.2933 97.4395 99.62 96.8128 99.86C96.1995 100.087 95.5061 100.2 94.7328 100.2ZM107.422 99.46C107.195 99.5533 106.922 99.66 106.602 99.78C106.282 99.9 105.935 99.9933 105.562 100.06C105.202 100.14 104.835 100.18 104.462 100.18C103.969 100.18 103.515 100.093 103.102 99.92C102.689 99.7467 102.355 99.4733 102.102 99.1C101.862 98.7133 101.742 98.2133 101.742 97.6V91.58H100.362V89.52H101.742V86.12H104.422V89.52H106.622V91.58H104.422V96.7C104.435 97.06 104.535 97.32 104.722 97.48C104.909 97.64 105.142 97.72 105.422 97.72C105.702 97.72 105.975 97.6733 106.242 97.58C106.509 97.4867 106.722 97.4067 106.882 97.34L107.422 99.46ZM113.56 100.2C112.72 100.2 111.96 100.06 111.28 99.78C110.6 99.4867 110.02 99.0933 109.54 98.6C109.06 98.0933 108.687 97.52 108.42 96.88C108.167 96.2267 108.04 95.54 108.04 94.82C108.04 93.82 108.26 92.9067 108.7 92.08C109.154 91.2533 109.794 90.5933 110.62 90.1C111.46 89.5933 112.447 89.34 113.58 89.34C114.727 89.34 115.707 89.5933 116.52 90.1C117.334 90.5933 117.954 91.2533 118.38 92.08C118.82 92.8933 119.04 93.7733 119.04 94.72C119.04 94.88 119.034 95.0467 119.02 95.22C119.007 95.38 118.994 95.5133 118.98 95.62H110.88C110.934 96.1533 111.087 96.62 111.34 97.02C111.607 97.42 111.94 97.7267 112.34 97.94C112.754 98.14 113.194 98.24 113.66 98.24C114.194 98.24 114.694 98.1133 115.16 97.86C115.64 97.5933 115.967 97.2467 116.14 96.82L118.44 97.46C118.187 97.9933 117.82 98.4667 117.34 98.88C116.874 99.2933 116.32 99.62 115.68 99.86C115.04 100.087 114.334 100.2 113.56 100.2ZM110.82 93.92H116.3C116.247 93.3867 116.094 92.9267 115.84 92.54C115.6 92.14 115.28 91.8333 114.88 91.62C114.48 91.3933 114.034 91.28 113.54 91.28C113.06 91.28 112.62 91.3933 112.22 91.62C111.834 91.8333 111.514 92.14 111.26 92.54C111.02 92.9267 110.874 93.3867 110.82 93.92ZM120.033 94.76C120.033 93.7467 120.233 92.8333 120.633 92.02C121.033 91.1933 121.586 90.54 122.293 90.06C123 89.58 123.806 89.34 124.713 89.34C125.486 89.34 126.18 89.5333 126.793 89.92C127.42 90.2933 127.906 90.7733 128.253 91.36V85.4H130.933V97C130.933 97.28 130.98 97.48 131.073 97.6C131.166 97.72 131.326 97.7933 131.553 97.82V100C131.086 100.093 130.706 100.14 130.413 100.14C129.933 100.14 129.533 100.02 129.213 99.78C128.906 99.54 128.733 99.2267 128.693 98.84L128.653 98.18C128.266 98.8333 127.74 99.3333 127.073 99.68C126.42 100.027 125.733 100.2 125.013 100.2C124.293 100.2 123.626 100.06 123.013 99.78C122.413 99.5 121.886 99.1133 121.433 98.62C120.993 98.1267 120.646 97.5533 120.393 96.9C120.153 96.2333 120.033 95.52 120.033 94.76ZM128.253 96.16V93.66C128.12 93.2733 127.906 92.9267 127.613 92.62C127.32 92.3133 126.993 92.0733 126.633 91.9C126.273 91.7133 125.913 91.62 125.553 91.62C125.14 91.62 124.766 91.7067 124.433 91.88C124.1 92.0533 123.806 92.2867 123.553 92.58C123.313 92.8733 123.126 93.2133 122.993 93.6C122.873 93.9867 122.813 94.3933 122.813 94.82C122.813 95.2467 122.88 95.6533 123.013 96.04C123.16 96.4133 123.366 96.74 123.633 97.02C123.9 97.3 124.206 97.52 124.553 97.68C124.913 97.84 125.3 97.92 125.713 97.92C125.966 97.92 126.22 97.88 126.473 97.8C126.74 97.7067 126.986 97.5867 127.213 97.44C127.453 97.28 127.66 97.0933 127.833 96.88C128.02 96.6533 128.16 96.4133 128.253 96.16Z" fill="#EF1E1E"/>
<path d="M65.9974 5.66699C50.3829 5.66699 37.6641 18.3858 37.6641 34.0003C37.6641 49.6148 50.3829 62.3337 65.9974 62.3337C81.6119 62.3337 94.3307 49.6148 94.3307 34.0003C94.3307 18.3858 81.6119 5.66699 65.9974 5.66699ZM65.9974 11.3337C78.5494 11.3337 88.6641 21.4483 88.6641 34.0003C88.6641 46.5523 78.5494 56.667 65.9974 56.667C53.4454 56.667 43.3307 46.5523 43.3307 34.0003C43.3307 21.4483 53.4454 11.3337 65.9974 11.3337ZM56.6673 20.6637L52.6608 24.6702L61.9909 34.0003L52.6608 43.3304L56.6673 47.3369L65.9974 38.0068L75.3275 47.3369L79.334 43.3304L70.0039 34.0003L79.334 24.6702L75.3275 20.6637L65.9974 29.9938L56.6673 20.6637Z" fill="#EF1E1E"/>
</svg>
