<svg width="31" height="31" viewBox="0 0 31 31" fill="none" xmlns="http://www.w3.org/2000/svg">
<rect width="31" height="31" rx="15.5" fill="#1FA3FF" fill-opacity="0.1"/>
<g clip-path="url(#clip0_11554_1445)">
<path d="M14.8401 13.0853L22.5626 13.0499V9.79074C22.5626 9.3641 22.3974 8.95493 22.1034 8.65325C21.8094 8.35157 21.4106 8.18209 20.9949 8.18209H17.894V6.59596C17.894 6.38471 17.8534 6.17552 17.7747 5.98035C17.6959 5.78518 17.5804 5.60785 17.4348 5.45847C17.2892 5.30909 17.1164 5.1906 16.9262 5.10976C16.736 5.02891 16.5322 4.9873 16.3263 4.9873H13.2254C12.8096 4.9873 12.4109 5.15679 12.1169 5.45847C11.8229 5.76015 11.6577 6.16932 11.6577 6.59596V8.20461H8.55684C8.35173 8.20416 8.14858 8.24561 7.95923 8.32653C7.76989 8.40746 7.59813 8.52624 7.45397 8.67596C7.30981 8.82569 7.19613 9.00335 7.11956 9.19861C7.04299 9.39387 7.00506 9.60281 7.00797 9.81326V18.5965C7.00797 19.0231 7.17313 19.4323 7.46713 19.734C7.76113 20.0357 8.15988 20.2052 8.57566 20.2052H13.2254V14.7454C13.2254 14.3057 13.3954 13.8839 13.6982 13.5726C14.0009 13.2614 14.4116 13.0861 14.8401 13.0853ZM16.3388 8.20461H13.2254V6.59596H16.3388V8.20461Z" fill="#1FA3FF"/>
<path d="M20.3452 14.1279H15.4665C15.1439 14.1296 14.8349 14.2621 14.607 14.4966C14.3792 14.731 14.2508 15.0484 14.25 15.3795V25.3885C14.2516 25.719 14.3803 26.0356 14.6081 26.2693C14.8359 26.5031 15.1444 26.6351 15.4665 26.6368H22.7814C23.104 26.636 23.4133 26.5043 23.6418 26.2704C23.8702 26.0366 23.9994 25.7196 24.001 25.3885V17.8825L20.3452 14.1279ZM19.7338 24.7611H16.6862V23.5096H19.7338V24.7611ZM21.5742 22.8854H16.6862V21.6339H21.5742V22.8854ZM21.5742 21.0097H16.6862V19.7582H21.5742V21.0097ZM19.7338 18.5002V15.0674L23.0855 18.5002H19.7338Z" fill="#1FA3FF"/>
</g>
<defs>
<clipPath id="clip0_11554_1445">
<rect width="17" height="21.6364" fill="white" transform="translate(7 5)"/>
</clipPath>
</defs>
</svg>
