<svg width="48" height="48" viewBox="0 0 48 48" fill="none" xmlns="http://www.w3.org/2000/svg">
<rect width="48" height="48" rx="14.1799" fill="#0E212F"/>
<path d="M29.232 29.096V32H19.584V29.096H22.896V18.008C22.768 18.2 22.552 18.416 22.248 18.656C21.96 18.88 21.624 19.104 21.24 19.328C20.872 19.536 20.488 19.712 20.088 19.856C19.704 20 19.352 20.072 19.032 20.072V17.096C19.464 17.096 19.904 16.984 20.352 16.76C20.8 16.536 21.216 16.28 21.6 15.992C21.984 15.704 22.288 15.44 22.512 15.2C22.752 14.944 22.88 14.808 22.896 14.792H26.184V29.096H29.232Z" fill="#1FA3FF"/>
</svg>
