<svg width="384" height="136" viewBox="0 0 384 136" fill="none" xmlns="http://www.w3.org/2000/svg">
<path d="M18.0885 21.9632C20.0885 24.8132 22.7486 25.8232 24.4786 27.8032C25.7686 29.2832 27.9085 30.9832 26.6585 32.8432C25.4085 34.7032 23.2386 32.8232 21.8186 32.0732C16.2085 29.1032 10.4985 26.3332 4.80854 23.5132C-1.07146 20.6032 -1.51145 17.0532 3.22855 12.6432C7.21855 8.93325 11.3686 5.39325 15.9586 2.42325C17.3186 1.54325 18.7885 0.783226 20.3085 0.213226C21.8785 -0.376774 23.2486 0.293233 23.9186 1.78323C24.5186 3.10323 23.8686 4.24324 22.7686 5.10324C20.3486 7.01324 17.8786 8.87322 15.5086 10.8332C14.1586 11.9532 12.7486 13.0832 11.8186 14.7732C13.0786 16.0932 14.3386 15.4032 15.4586 15.2932C55.0586 11.4032 94.7285 8.57324 134.559 9.76324C200.559 11.7332 261.469 29.9932 316.119 67.5132C339.119 83.3032 359.549 102.123 377.719 123.333C379.839 125.813 381.919 128.343 383.159 131.433C383.729 132.863 384.109 134.343 382.739 135.423C381.139 136.683 380.029 135.213 379.039 134.283C377.709 133.053 376.559 131.633 375.359 130.273C351.839 103.743 325.689 80.2532 294.829 62.5232C257.629 41.1432 217.819 27.1832 175.189 21.3732C148.249 17.7032 121.229 17.8732 94.1686 18.8532C75.4786 19.5332 56.7785 20.1832 38.0885 20.9032C31.6585 21.1632 25.2185 21.5832 18.0885 21.9632Z" fill="#F6680C"/>
</svg>
