<svg width="55" height="53" viewBox="0 0 55 53" fill="none" xmlns="http://www.w3.org/2000/svg">
<path d="M39.8448 11.3222C39.0681 10.015 38.2439 8.72531 37.5164 7.38049C36.6284 5.73514 36.1804 3.98673 37.3948 2.34341C38.5845 0.731901 40.3436 0.78184 42.0802 1.14913C45.2086 1.8149 48.3323 2.48826 51.3628 3.53459C51.9528 3.74113 52.5532 3.9647 53.0868 4.28848C53.9575 4.81295 54.3872 5.62925 54.0297 6.6363C53.6848 7.6144 52.8394 7.83181 51.9218 7.63044C49.7477 7.15745 47.5865 6.62941 45.4189 6.12891C44.588 5.93976 43.7495 5.7459 42.9028 5.59946C42.0211 5.44169 41.8502 5.81332 42.2978 6.54088C42.9618 7.61445 43.6948 8.65234 44.3019 9.75872C45.9941 12.8285 44.8308 15.4612 41.3972 15.9984C39.1576 16.3471 36.8561 16.2941 34.5843 16.4227C34.139 16.4489 33.6621 16.3395 33.1873 16.7627C34.2468 18.2314 35.32 19.7034 36.3763 21.1858C36.7788 21.7484 37.1751 22.3123 37.5147 22.9091C39.3405 26.1362 38.0423 28.8265 34.3903 29.1742C32.0121 29.3993 29.6125 29.3953 27.2223 29.4866C26.7177 29.5071 26.1947 29.4214 25.6763 29.7964C26.1461 30.8114 27.0967 31.4016 27.7824 32.21C30.2384 35.127 29.3292 38.0189 25.6563 38.9112C23.0396 39.5497 20.3411 39.5637 17.6929 39.93C16.4627 40.1009 16.2169 40.4836 16.9679 41.5433C17.526 42.3295 18.0251 43.1945 18.3958 44.0896C19.8532 47.6435 18.6365 50.1587 14.9258 50.9168C11.1342 51.6873 7.29673 52.2345 3.43067 52.5217C2.80383 52.5709 2.18276 52.6448 1.55805 52.6479C1.16639 52.6551 0.65322 53.2174 0.402028 52.5024C0.227234 52.0036 0.570429 51.6241 0.932383 51.3248C2.32195 50.1542 3.99896 49.6055 5.69364 49.1048C8.2096 48.3663 10.7256 47.6278 13.2606 46.9434C14.4623 46.6231 14.5461 46.0442 13.8941 45.1044C13.1434 44.0186 12.3974 42.9253 11.7036 41.8067C9.92772 38.9581 10.7828 36.716 14.0684 36.0705C16.7446 35.5481 19.4865 35.3615 22.203 35.0117C22.6853 34.9508 23.3763 35.1207 23.5557 34.565C23.7337 34.0032 23.0591 33.7384 22.7179 33.3826C22.0492 32.6743 21.2773 32.0486 20.6855 31.2833C18.9071 28.9749 19.6739 26.4936 22.4267 25.5826C24.4068 24.924 26.4861 25.0745 28.5292 24.9604C29.7826 24.8881 31.0334 24.888 32.2875 24.874C33.2719 24.8647 33.364 24.4594 32.8204 23.7348C31.9532 22.5918 31.086 21.4488 30.2187 20.3057C29.8368 19.8034 29.4318 19.3129 29.0729 18.7987C26.5484 15.176 27.794 12.4264 32.1455 12.0646C34.1893 11.8983 36.2397 11.815 38.2889 11.6995C38.7981 11.6713 39.3269 11.7816 39.8448 11.3222Z" fill="#E66C0D"/>
</svg>
