<svg width="72" height="72" viewBox="0 0 72 72" fill="none" xmlns="http://www.w3.org/2000/svg">
<path d="M71.9998 17.3454C72.0248 22.9855 70.0037 26.3878 66.0866 28.7004C62.7375 30.6803 59.6557 32.9097 57.5677 36.3453C55.6217 39.548 55.2125 42.4845 57.384 45.8203C59.6223 49.2476 61.0922 53.0825 61.7687 57.1587C62.3784 60.8522 61.9608 64.4043 60.0315 67.6652C57.242 72.3736 53.016 73.2803 48.4725 70.219C46.2259 68.705 44.6223 66.6087 43.0689 64.4542C41.0811 61.6924 39.2938 58.7808 36.7465 56.4599C33.3306 53.3487 31.8022 53.2988 28.4782 56.5265C23.3752 61.4844 17.5038 64.5207 10.1959 64.3128C8.41696 64.2628 6.72989 63.9051 5.13468 63.1814C0.282239 60.9686 -1.33802 56.1937 1.16754 51.4853C2.51219 48.9481 4.62521 47.118 6.88022 45.421C7.82398 44.7139 8.95983 44.1316 8.65917 42.5843C8.55059 42.0103 9.12687 41.6942 9.56117 41.3864C14.2382 38.0506 15.2738 33.3007 14.8061 27.9684C14.447 23.8922 13.1859 19.9908 12.4927 15.9728C11.7494 11.6637 12.5344 7.70405 15.1235 4.16029C19.0405 -1.19695 25.7304 -1.41323 30.04 3.70276C32.0026 6.03199 33.2638 8.80212 34.6669 11.4807C35.8612 13.7517 37.0555 16.0227 38.9431 17.8529C40.5383 19.4001 42.1752 19.5998 44.0628 18.4352C46.5934 16.8796 48.7231 14.8082 51.07 13.0197C54.3356 10.5324 57.8851 8.80212 62.1028 8.76053C68.1496 8.7023 71.933 12.4041 71.9998 17.3454ZM32.5372 49.1561C35.5271 49.0064 37.732 50.5869 39.82 52.3921C42.9603 55.104 45.0817 58.6144 47.4369 61.9502C48.6646 63.6889 49.9759 65.3276 51.8968 66.4007C53.0911 67.0662 54.0599 66.8832 54.9035 65.8517C56.5321 63.8635 57.075 61.5842 56.7325 59.0637C56.173 54.9542 54.6279 51.1942 52.5399 47.6587C50.1596 43.6242 50.3434 39.6478 52.4313 35.58C54.5527 31.4373 57.4759 28.0682 61.5015 25.6724C62.9296 24.8239 64.4246 24.0503 65.6022 22.8441C67.5816 20.8143 68.066 17.3704 66.7297 15.0744C65.5271 13.0197 63.2721 12.4623 60.0482 13.3608C57.8935 13.9597 55.9809 15.0079 54.2353 16.3638C52.0806 18.0359 50.0427 19.8577 47.8378 21.4548C42.8267 25.0984 38.5004 24.4912 34.5166 19.7246C32.604 17.4369 31.3846 14.7417 30.0817 12.1046C29.0127 9.94178 28.0773 7.68742 26.457 5.84898C23.8596 2.88753 20.594 2.97904 18.1385 6.032C15.775 8.97681 15.3991 12.3209 16.1508 15.8896C16.7438 18.693 17.4453 21.4715 17.9548 24.2915C18.8234 29.0581 18.0801 33.5669 16.6519 38.2669C15.0233 43.5992 12.0834 47.5007 7.74046 50.6618C7.13913 51.1027 6.63801 51.7099 6.17866 52.3006C3.69816 55.4949 4.90918 58.5978 8.93478 59.1801C12.3173 59.6626 15.5745 59.0886 18.6564 57.5663C21.4125 56.202 23.7009 54.2471 25.9141 52.1591C27.7766 50.4039 29.8228 49.0147 32.5372 49.1561Z" fill="#E57128"/>
</svg>
