<svg width="22" height="30" viewBox="0 0 22 30" fill="none" xmlns="http://www.w3.org/2000/svg">
<g clip-path="url(#clip0_2010_1012)">
<path d="M10.8634 29.9999C10.7303 29.9999 10.5971 29.9999 10.467 29.9999C10.4489 29.9908 10.4307 29.9787 10.4095 29.9787C9.97075 29.9303 9.59249 29.7517 9.25661 29.4673C9.03571 29.2797 8.82086 29.083 8.58785 28.9105C8.26104 28.6745 7.9887 28.6745 7.66189 28.9105C7.45612 29.0588 7.26851 29.2313 7.07787 29.4007C6.79947 29.6458 6.49082 29.8395 6.1277 29.9273C6.01573 29.9545 5.90075 29.9757 5.78576 29.9999C5.65261 29.9999 5.51947 29.9999 5.38935 29.9999C4.8719 29.9061 4.44523 29.6428 4.06395 29.2948C3.92778 29.1707 3.79161 29.0467 3.64333 28.9408C3.27718 28.6745 3.01997 28.6715 2.6629 28.9135C2.58422 28.968 2.50252 29.0255 2.43292 29.089C1.98205 29.5036 1.49486 29.8486 0.889651 29.9969C0.777688 29.9969 0.665725 29.9969 0.553762 29.9969C0.102885 29.8244 0.0695985 29.7881 0.0635465 29.2978C0.0423643 28.1419 0.0332863 26.9799 0.0181561 25.8209C0.0181561 25.7362 0.00605205 25.6485 0 25.5637C0 17.1756 0 8.78745 0 0.402341C0.0574944 0.338794 0.118015 0.278274 0.172483 0.211701C0.299576 0.0573741 0.462982 -0.00314635 0.659673 0.0119838C1.09542 0.042244 1.49788 0.160259 1.84285 0.444705C2.09703 0.656527 2.34819 0.871374 2.61751 1.06504C2.98971 1.33436 3.25298 1.32528 3.62215 1.04991C3.82489 0.895583 4.01553 0.726125 4.20617 0.556668C4.99596 -0.139317 6.14888 -0.154448 6.95078 0.511278C7.1626 0.686787 7.36534 0.8744 7.58321 1.04386C7.96449 1.34041 8.24894 1.34343 8.63627 1.05294C8.84204 0.895583 9.03571 0.720073 9.2324 0.553642C10.1705 -0.245228 11.2508 -0.109057 12.0466 0.589954C12.2372 0.759412 12.4249 0.931895 12.6306 1.0832C12.9695 1.33133 13.2419 1.33436 13.5838 1.08925C13.7896 0.940973 13.9833 0.771516 14.1678 0.599032C14.9001 -0.093927 16.0258 -0.233124 16.9064 0.490095C17.1515 0.689813 17.3815 0.907687 17.6357 1.0953C17.9655 1.33738 18.2409 1.33436 18.5768 1.09227C18.7553 0.965181 18.9157 0.81388 19.0851 0.674683C19.4634 0.366029 19.8658 0.108817 20.3591 0.0210618C20.8675 -0.0666928 21.1731 0.166311 21.1791 0.671657C21.1973 2.03337 21.2245 3.39508 21.2245 4.75679C21.2336 10.8149 21.2366 16.876 21.2336 22.9341C21.2306 25.1129 21.2003 27.2886 21.1791 29.4673C21.1761 29.7306 21.0702 29.8637 20.816 29.9484C20.7555 29.9696 20.6919 29.9847 20.6284 30.0029C20.5679 30.0029 20.5074 30.0029 20.4438 30.0029C20.4317 29.9969 20.4166 29.9847 20.4045 29.9847C19.9354 29.9394 19.5481 29.7124 19.1941 29.4159C18.9822 29.2403 18.7795 29.0558 18.5586 28.8893C18.2863 28.6866 17.9988 28.6866 17.7234 28.8833C17.5509 29.0073 17.3906 29.1496 17.2241 29.2857C16.8882 29.5611 16.5493 29.8455 16.1166 29.9333C15.4509 30.0695 14.8305 29.9394 14.298 29.4976C14.0952 29.3281 13.8985 29.1496 13.6897 28.9862C13.2782 28.6593 12.9907 28.6533 12.5762 28.971C12.3674 29.1314 12.1737 29.316 11.9709 29.4855C11.6441 29.7548 11.2719 29.9182 10.8634 29.9999ZM19.9899 28.4929C19.9899 19.4905 19.9899 10.5153 19.9899 1.51894C19.8961 1.60367 19.8205 1.66722 19.7478 1.73682C19.2516 2.21493 18.6917 2.47517 17.9746 2.43583C17.5237 2.41162 17.1545 2.27848 16.8186 1.99706C16.5887 1.80339 16.3617 1.60367 16.1227 1.42514C15.7505 1.14372 15.4721 1.14372 15.0908 1.41908C14.9092 1.55223 14.7398 1.7005 14.5764 1.84878C14.2072 2.18467 13.8017 2.40557 13.2873 2.43885C12.6972 2.47517 12.1797 2.35413 11.7379 1.94259C11.514 1.73379 11.278 1.54013 11.0299 1.36159C10.7484 1.15885 10.4458 1.1649 10.1644 1.37369C9.96772 1.51894 9.77708 1.67327 9.59855 1.8397C9.15675 2.23914 8.66956 2.5024 8.05225 2.4207C8.01291 2.41465 7.97055 2.41767 7.93121 2.4207C7.55598 2.45096 7.22917 2.32689 6.9417 2.09691C6.64817 1.86088 6.36373 1.61275 6.06718 1.37672C5.80089 1.16187 5.40145 1.1649 5.13516 1.37975C5.02017 1.47355 4.90518 1.56736 4.8023 1.67327C4.2788 2.19677 3.6857 2.50543 2.90498 2.4328C2.48437 2.39346 2.13637 2.26032 1.81864 2.00916C1.628 1.85786 1.44644 1.69445 1.24672 1.525C1.24672 10.5153 1.24672 19.4875 1.24672 28.4899C1.36474 28.384 1.45854 28.2902 1.5584 28.2085C1.88824 27.9361 2.209 27.6335 2.6629 27.5972C2.94129 27.576 3.22271 27.5881 3.50111 27.5972C3.85213 27.6123 4.14565 27.7606 4.40892 27.9876C4.64495 28.1903 4.87492 28.3991 5.12306 28.5867C5.48921 28.8621 5.7555 28.8621 6.12467 28.5928C6.32439 28.4445 6.50898 28.275 6.69962 28.1147C6.95985 27.8968 7.22614 27.688 7.56506 27.6154C8.30643 27.458 8.97821 27.57 9.55013 28.1116C9.74985 28.2993 9.96469 28.4748 10.1856 28.6351C10.4821 28.853 10.7908 28.847 11.0873 28.623C11.2084 28.5323 11.3325 28.4384 11.4414 28.3325C11.9588 27.8332 12.5217 27.4943 13.2903 27.57C13.6685 27.6063 14.0105 27.6789 14.307 27.918C14.5915 28.148 14.8669 28.3931 15.1543 28.617C15.4569 28.853 15.811 28.847 16.1105 28.6109C16.2891 28.4687 16.4585 28.3144 16.628 28.157C17.0516 27.7667 17.5267 27.5095 18.1289 27.5791C18.1682 27.5851 18.2106 27.5821 18.2499 27.5791C18.6494 27.5518 19.0034 27.6759 19.3151 27.921C19.4513 28.0269 19.5844 28.1389 19.7176 28.2508C19.8084 28.3235 19.887 28.3991 19.9899 28.4929Z" fill="#6D6D6D"/>
<path d="M0 25.5637C0.00605205 25.6484 0.0151301 25.7362 0.0181561 25.8209C0.0332863 26.9799 0.0423643 28.1419 0.0605205 29.3039C0.0665725 29.7941 0.0998588 29.8304 0.550736 30.0029C0.366149 30.0029 0.184587 30.0029 0 30.0029C0 28.5201 0 27.0404 0 25.5637Z" fill="white"/>
<path d="M6.27942 6.30018C6.27942 6.05507 6.27639 5.82509 6.27942 5.59512C6.28244 5.35001 6.40954 5.18358 6.62741 5.08372C6.84831 4.98083 7.05105 5.0232 7.24472 5.16542C7.38694 5.26831 7.42325 5.41961 7.43536 5.57999C7.45049 5.77365 7.46259 5.96732 7.46864 6.16098C7.47167 6.24874 7.50193 6.2911 7.59271 6.32136C7.93768 6.43938 8.29475 6.53924 8.61853 6.70567C9.30847 7.05971 9.78053 7.61045 9.92578 8.39116C9.95301 8.54246 9.93788 8.70889 9.90459 8.8602C9.8471 9.12043 9.49003 9.28989 9.21163 9.20516C8.95442 9.12649 8.78497 8.9419 8.76076 8.68166C8.73655 8.4426 8.63366 8.26407 8.47026 8.11277C8.08595 7.7557 7.65928 7.50151 7.10552 7.5348C6.812 7.55295 6.50939 7.51664 6.22192 7.57111C5.83157 7.64373 5.48962 7.85253 5.22031 8.15211C4.85416 8.56062 4.92678 9.1628 5.37464 9.47448C5.75894 9.74077 6.20679 9.84971 6.65162 9.95562C7.26287 10.1039 7.88321 10.2249 8.46421 10.4791C8.93324 10.6849 9.34478 10.9633 9.64133 11.393C10.0801 12.0284 10.0619 13.0845 9.51726 13.7684C9.0331 14.3766 8.39763 14.7337 7.65323 14.9062C7.51101 14.9395 7.45654 15 7.45654 15.1422C7.45654 15.3298 7.43233 15.5205 7.44444 15.7081C7.46562 16.0288 7.045 16.3012 6.73635 16.2165C6.46703 16.1438 6.30363 15.9592 6.28547 15.6748C6.27337 15.5235 6.27942 15.3692 6.27639 15.2148C6.27337 14.9455 6.27337 14.9486 6.00708 14.882C5.45029 14.7428 4.94191 14.5128 4.51222 14.1225C4.06134 13.7139 3.79505 13.2177 3.76782 12.6034C3.75874 12.4188 4.0099 12.092 4.19146 12.0375C4.40328 11.977 4.72404 12.092 4.83903 12.2796C4.88745 12.3613 4.92981 12.4521 4.95402 12.5429C5.09927 13.1269 5.49265 13.4658 6.04641 13.6292C6.82108 13.8592 7.5685 13.8108 8.24633 13.3296C8.47026 13.1693 8.66695 12.9695 8.72444 12.679C8.80615 12.2524 8.61248 11.9528 8.26751 11.7289C7.87413 11.4777 7.42931 11.3688 6.98448 11.2659C6.40348 11.1327 5.81946 11.0208 5.27478 10.7757C4.80574 10.5669 4.38815 10.2855 4.10068 9.85273C3.97661 9.66209 3.88281 9.43514 3.83742 9.21424C3.63467 8.23078 4.02503 7.48638 4.80877 6.91749C5.20518 6.63002 5.64093 6.43333 6.12509 6.33952C6.16745 6.33044 6.21587 6.31531 6.27942 6.30018Z" fill="#6D6D6D"/>
<path d="M10.5726 18.7703C12.3367 18.7703 14.1009 18.7673 15.8651 18.7733C16.2464 18.7733 16.6307 18.7824 17.0089 18.8278C17.4295 18.8792 17.6111 19.3513 17.3569 19.6902C17.2873 19.784 17.2056 19.8718 17.1148 19.9444C17.0694 19.9807 16.9938 19.9898 16.9333 19.9898C15.859 19.9928 14.7818 19.9928 13.7075 19.9928C11.3412 19.9898 8.97784 19.9928 6.61149 19.9837C5.82775 19.9807 5.04099 19.9595 4.25724 19.9383C3.91833 19.9293 3.67625 19.554 3.78519 19.2272C3.87899 18.9458 4.06661 18.8066 4.36316 18.8066C6.43296 18.8066 8.50276 18.8066 10.5726 18.8066C10.5726 18.7884 10.5726 18.7794 10.5726 18.7703Z" fill="#6D6D6D"/>
<path d="M10.6184 24.9766C8.52744 24.9766 6.43646 24.9766 4.34548 24.9766C3.94907 24.9766 3.66765 24.5741 3.79777 24.1989C3.88855 23.9387 4.07919 23.8025 4.35153 23.8025C8.53652 23.8025 12.7245 23.8025 16.9095 23.8025C17.2787 23.8025 17.5783 24.2292 17.433 24.5711C17.3725 24.7103 17.2575 24.8283 17.1516 24.9433C17.1213 24.9766 17.0396 24.9766 16.9822 24.9766C14.8609 24.9766 12.7397 24.9766 10.6184 24.9766Z" fill="#6D6D6D"/>
<path d="M14.3796 13.7743C15.2268 13.7743 16.0711 13.7743 16.9184 13.7743C17.2936 13.7743 17.5992 14.2948 17.4116 14.6246C17.3481 14.7366 17.2543 14.8364 17.1635 14.9332C17.1393 14.9605 17.0818 14.9696 17.0394 14.9696C15.3267 14.9696 13.614 14.9726 11.9012 14.9665C11.5018 14.9665 11.2476 14.7002 11.2688 14.3038C11.2749 14.204 11.3566 14.1071 11.4171 14.0164C11.5442 13.8227 11.7227 13.7622 11.9618 13.7682C12.7697 13.7864 13.5746 13.7743 14.3796 13.7743Z" fill="#6D6D6D"/>
<path d="M14.3643 9.95549C13.517 9.95549 12.6727 9.94944 11.8254 9.96155C11.6378 9.96457 11.5228 9.89195 11.4139 9.7588C11.1688 9.45317 11.2505 8.99625 11.5954 8.80561C11.6287 8.78745 11.6741 8.78745 11.7135 8.78745C13.4807 8.78745 15.2509 8.78745 17.0181 8.78442C17.1573 8.78442 17.2178 8.87218 17.2904 8.95085C17.6082 9.3049 17.472 9.665 17.1542 9.92826C17.1179 9.95852 17.0483 9.95247 16.9939 9.95247C16.1163 9.95549 15.2418 9.95549 14.3643 9.95549Z" fill="#6D6D6D"/>
</g>
<defs>
<clipPath id="clip0_2010_1012">
<rect width="21.2306" height="30" fill="white"/>
</clipPath>
</defs>
</svg>
