<svg width="16" height="16" viewBox="0 0 16 16" fill="none" xmlns="http://www.w3.org/2000/svg">
<mask id="mask0_17384_10290" style="mask-type:alpha" maskUnits="userSpaceOnUse" x="0" y="0" width="16" height="16">
<rect width="16" height="16" fill="#D9D9D9"/>
</mask>
<g mask="url(#mask0_17384_10290)">
<path d="M6.26793 12.974V9.79638C5.59075 9.74385 4.92723 9.67032 4.27736 9.57576C3.62749 9.48122 2.97904 9.34633 2.33203 9.17107L2.57561 8.1757C3.45938 8.40881 4.35283 8.5713 5.25596 8.66317C6.15911 8.75506 7.07288 8.801 7.99726 8.801C8.91103 8.801 9.81983 8.75506 10.7237 8.66317C11.6275 8.5713 12.5269 8.40881 13.4217 8.1757L13.6653 9.17107C13.0115 9.34633 12.3583 9.48159 11.7057 9.57688C11.0531 9.67216 10.3944 9.74626 9.72943 9.79918V12.974H6.26793ZM7.99958 7.93322C7.65113 7.93322 7.35873 7.81598 7.1224 7.58151C6.88608 7.34705 6.76791 7.05653 6.76791 6.70993C6.76791 6.37352 6.88569 6.08494 7.12125 5.84417C7.35679 5.60341 7.64866 5.48303 7.99687 5.48303C8.33482 5.48303 8.62474 5.6029 8.86663 5.84263C9.10851 6.08238 9.22945 6.37058 9.22945 6.70723C9.22945 7.05408 9.10902 7.34512 8.86817 7.58035C8.62732 7.8156 8.33779 7.93322 7.99958 7.93322ZM3.16536 6.00624C2.92775 6.00624 2.72946 5.92712 2.5705 5.76889C2.41152 5.61064 2.33203 5.41268 2.33203 5.175C2.33203 4.94647 2.41152 4.75139 2.5705 4.58975C2.72946 4.4281 2.92834 4.34727 3.16711 4.34727C3.39671 4.34727 3.59271 4.42792 3.7551 4.58922C3.91749 4.7505 3.99868 4.94635 3.99868 5.17676C3.99868 5.41327 3.91766 5.61064 3.75563 5.76889C3.5936 5.92712 3.39684 6.00624 3.16536 6.00624ZM12.832 6.00624C12.5944 6.00624 12.3961 5.92712 12.2371 5.76889C12.0782 5.61064 11.9987 5.41268 11.9987 5.175C11.9987 4.94647 12.0782 4.75139 12.2371 4.58975C12.3961 4.4281 12.595 4.34727 12.8338 4.34727C13.0634 4.34727 13.2593 4.42792 13.4217 4.58922C13.5841 4.7505 13.6653 4.94635 13.6653 5.17676C13.6653 5.41327 13.5843 5.61064 13.4223 5.76889C13.2602 5.92712 13.0635 6.00624 12.832 6.00624ZM4.89611 3.54966C4.65851 3.54966 4.46023 3.47055 4.30126 3.31231C4.14229 3.15407 4.0628 2.9561 4.0628 2.71843C4.0628 2.4899 4.14229 2.29481 4.30126 2.13317C4.46023 1.97153 4.6591 1.89071 4.89788 1.89071C5.12747 1.89071 5.32346 1.97135 5.48586 2.13264C5.64825 2.29393 5.72945 2.48978 5.72945 2.72019C5.72945 2.95669 5.64843 3.15407 5.4864 3.31231C5.32435 3.47055 5.12759 3.54966 4.89611 3.54966ZM11.1012 3.54966C10.8636 3.54966 10.6653 3.47055 10.5064 3.31231C10.3474 3.15407 10.2679 2.9561 10.2679 2.71843C10.2679 2.4899 10.3474 2.29481 10.5064 2.13317C10.6653 1.97153 10.8642 1.89071 11.103 1.89071C11.3326 1.89071 11.5286 1.97135 11.691 2.13264C11.8534 2.29393 11.9346 2.48978 11.9346 2.72019C11.9346 2.95669 11.8535 3.15407 11.6915 3.31231C11.5295 3.47055 11.3327 3.54966 11.1012 3.54966ZM7.99868 2.68827C7.76108 2.68827 7.56279 2.60915 7.40382 2.45092C7.24485 2.29267 7.16537 2.09471 7.16537 1.85703C7.16537 1.6285 7.24485 1.43342 7.40382 1.27177C7.56279 1.11012 7.76167 1.0293 8.00045 1.0293C8.23004 1.0293 8.42603 1.10995 8.58841 1.27124C8.7508 1.43253 8.832 1.62838 8.832 1.85879C8.832 2.0953 8.75098 2.29267 8.58895 2.45092C8.42692 2.60915 8.23016 2.68827 7.99868 2.68827Z" fill="#181818"/>
</g>
</svg>
