<svg width="30" height="31" viewBox="0 0 30 31" fill="none" xmlns="http://www.w3.org/2000/svg">
<path d="M27.1296 0.941406C27.833 0.941406 28.5357 0.941406 29.239 0.941406C29.7815 1.12634 30.024 1.50442 29.9981 2.07624C29.9547 3.03142 29.957 3.98954 29.8837 4.94237C29.6723 7.6905 29.0958 10.3588 28.0725 12.9267C26.6477 16.502 24.388 19.3775 21.0481 21.3548C20.9764 21.3971 20.9119 21.4517 20.8121 21.5239C21.0974 21.8022 21.3639 22.0582 21.6258 22.3188C22.123 22.8137 22.1717 23.0967 21.8735 23.7278C20.8555 25.8777 19.8264 28.0229 18.8265 30.181C18.5694 30.7364 18.2048 30.9671 17.5931 30.9413C15.2424 30.8427 12.89 30.7728 10.5387 30.6918C9.50427 30.656 8.46983 30.6208 7.43598 30.5838C6.84596 30.5626 6.45966 30.2251 6.44323 29.7249C6.43266 29.392 6.60878 29.1577 6.82952 28.9376C8.68823 27.0818 10.5446 25.2237 12.4045 23.3685C12.4796 23.2934 12.5818 23.2458 12.6522 23.1977C12.0111 22.556 11.4264 21.9707 10.7671 21.3102C10.7236 21.3813 10.679 21.4998 10.5974 21.5815C8.75691 23.4284 6.91289 25.2713 5.06887 27.1141C4.98609 27.1969 4.90448 27.2826 4.81172 27.3531C4.3039 27.7376 3.60468 27.4981 3.43501 26.8816C3.32523 26.4824 3.50429 26.1871 3.77553 25.9165C5.63481 24.0613 7.49058 22.202 9.35045 20.3474C9.43206 20.2658 9.54419 20.2141 9.6258 20.1595C8.97766 19.5096 8.39351 18.9237 7.74185 18.2703C7.69254 18.349 7.64968 18.4564 7.57512 18.531C5.71348 20.3979 3.84715 22.2601 1.98668 24.1276C1.68727 24.4282 1.36144 24.602 0.939331 24.44C0.506652 24.2738 0.369862 23.9175 0.355772 23.4836C0.254793 20.4196 0.150878 17.3556 0.0457905 14.2917C0.041681 14.1766 0.0158512 14.0627 0 13.9482C0 13.5772 0 13.2061 0 12.8351C0.147358 12.467 0.438549 12.268 0.787276 12.1042C2.93189 11.0979 5.07121 10.0799 7.2123 9.06604C7.844 8.76721 8.12345 8.81594 8.6213 9.3132C8.88725 9.57856 9.1532 9.84451 9.43617 10.1275C9.60055 9.86329 9.73793 9.6402 9.87824 9.41828C11.2015 7.32769 12.9258 5.6363 15.0358 4.35588C18.3927 2.31929 22.0919 1.38641 25.969 1.05471C26.3571 1.02301 26.7428 0.980154 27.1296 0.941406ZM10.8463 18.8398C10.9409 18.7494 11.0189 18.6777 11.0935 18.6032C11.9706 17.7267 12.8471 16.8496 13.7248 15.9731C13.8076 15.8903 13.8904 15.8052 13.9849 15.7376C14.2825 15.5234 14.6054 15.5016 14.9225 15.6748C15.253 15.8551 15.4326 16.1574 15.3551 16.5267C15.3088 16.7498 15.1808 16.9858 15.0211 17.1502C14.1369 18.0613 13.2322 18.9513 12.3352 19.8496C12.2612 19.9235 12.1902 20.0016 12.0951 20.102C12.7638 20.7678 13.4172 21.4235 14.0818 22.0676C14.1375 22.1216 14.2808 22.1298 14.3665 22.1034C15.4925 21.7558 16.6344 21.4494 17.734 21.0319C19.3772 20.4085 20.8725 19.5073 22.2152 18.3672C24.4696 16.4515 25.8692 13.9787 26.8308 11.2283C27.5259 9.23864 27.9193 7.1815 28.113 5.08679C28.1852 4.30363 28.214 3.51576 28.2639 2.705C28.106 2.705 28.0003 2.69737 27.8964 2.70617C26.7392 2.80011 25.5756 2.84707 24.4267 3.00206C21.5917 3.38484 18.8782 4.17505 16.379 5.60577C14.4252 6.72416 12.8013 8.20244 11.5485 10.0817C10.3062 11.9457 9.49957 13.9917 8.92541 16.1462C8.80271 16.6065 8.84674 16.9048 9.21425 17.2271C9.78431 17.7284 10.298 18.292 10.8463 18.8398ZM2.06242 21.5421C2.12817 21.4881 2.16575 21.4623 2.19686 21.4312C3.7632 19.8654 5.33012 18.3002 6.89175 16.7304C6.96866 16.6529 7.0262 16.5384 7.05144 16.4316C7.4125 14.9022 7.88158 13.4087 8.50506 11.9645C8.54204 11.8787 8.51152 11.7161 8.44929 11.6439C8.23911 11.4009 8.00956 11.1725 7.7671 10.9623C7.69606 10.9007 7.53285 10.8701 7.45066 10.9089C5.61485 11.7666 3.78374 12.6331 1.95674 13.5097C1.87338 13.5496 1.78884 13.6975 1.79177 13.7926C1.85694 16.0059 1.93385 18.2192 2.01017 20.4325C2.0225 20.7883 2.04363 21.1447 2.06242 21.5421ZM9.37276 28.8777C9.49723 28.8859 9.55359 28.8912 9.60995 28.893C12.1156 28.981 14.6219 29.0662 17.1275 29.1624C17.3277 29.1701 17.3958 29.0826 17.4686 28.9288C18.1948 27.3859 18.9269 25.8466 19.6555 24.3049C19.8093 23.9797 20.1128 23.6198 20.0577 23.3315C19.999 23.0268 19.5886 22.7938 19.3426 22.519C19.2193 22.3816 19.1095 22.3634 18.9381 22.4392C17.5262 23.0638 16.0614 23.527 14.5579 23.8758C14.4082 23.9104 14.2544 24.0073 14.1428 24.1171C13.1289 25.118 12.1244 26.1278 11.117 27.1352C10.5516 27.7 9.98627 28.2648 9.37276 28.8777Z" fill="#C4C4C4"/>
<path d="M24.1646 10.2357C24.1616 12.1507 22.6006 13.7083 20.6984 13.6942C18.7963 13.6801 17.2616 12.1449 17.2481 10.2433C17.2346 8.34115 18.791 6.77951 20.7049 6.7754C22.6188 6.7707 24.1675 8.32001 24.1646 10.2357ZM22.4045 10.2298C22.4033 9.2934 21.6495 8.53841 20.7137 8.53547C19.782 8.53254 19.0205 9.28459 19.0088 10.2204C18.9971 11.1503 19.7879 11.9435 20.719 11.9341C21.6524 11.9241 22.4062 11.1627 22.4045 10.2298Z" fill="#C4C4C4"/>
</svg>
