<svg width="31" height="31" viewBox="0 0 31 31" fill="none" xmlns="http://www.w3.org/2000/svg">
<rect width="31" height="31" rx="15.5" fill="#5EDF8C" fill-opacity="0.2"/>
<g clip-path="url(#clip0_10482_747)">
<path d="M15.9987 10.3337L15.9987 7.66699L19.332 11.0003L15.9987 14.3337L15.9987 11.667C13.792 11.667 11.9987 13.4603 11.9987 15.667C11.9987 17.8737 13.792 19.667 15.9987 19.667C18.2054 19.667 19.9987 17.8737 19.9987 15.667L21.332 15.667C21.332 18.6137 18.9454 21.0003 15.9987 21.0003C13.052 21.0003 10.6654 18.6137 10.6654 15.667C10.6654 12.7203 13.052 10.3337 15.9987 10.3337Z" fill="#469763"/>
</g>
<defs>
<clipPath id="clip0_10482_747">
<rect width="16" height="16" fill="white" transform="matrix(-1 8.74228e-08 8.74228e-08 1 24 7)"/>
</clipPath>
</defs>
</svg>
