<svg width="13" height="13" viewBox="0 0 13 13" fill="none" xmlns="http://www.w3.org/2000/svg">
<mask id="mask0_17964_3725" style="mask-type:alpha" maskUnits="userSpaceOnUse" x="0" y="0" width="13" height="13">
<rect width="13" height="13" fill="#D9D9D9"/>
</mask>
<g mask="url(#mask0_17964_3725)">
<path d="M3.79688 1.07812H9.21354V5.33021C9.21354 5.53785 9.1684 5.72292 9.07812 5.88542C8.98785 6.04792 8.86146 6.17882 8.69896 6.27812L6.77604 7.41562L7.15521 8.66146H9.21354L7.53437 9.85312L8.18437 11.9115L6.50521 10.6385L4.82604 11.9115L5.47604 9.85312L3.79688 8.66146H5.85521L6.23437 7.41562L4.31146 6.27812C4.14896 6.17882 4.02257 6.04792 3.93229 5.88542C3.84201 5.72292 3.79688 5.53785 3.79688 5.33021V1.07812ZM4.88021 2.16146V5.33021L5.96354 5.98021V2.16146H4.88021ZM8.13021 2.16146H7.04687V5.98021L8.13021 5.33021V2.16146Z" fill="#181818"/>
</g>
</svg>
