<svg width="70" height="90" viewBox="0 0 70 90" fill="none" xmlns="http://www.w3.org/2000/svg">
<path d="M33.44 18.9021C37.43 15.6921 41.69 13.6221 47.1 13.8221C52.1 14.0121 55.79 18.122 55.07 23.552C54.33 29.092 51.59 33.7921 48.11 38.0621C42.25 45.2321 35.53 51.492 27.84 56.662C24.44 58.952 20.81 60.9421 16.46 60.8221C13.01 60.7321 10.79 58.242 10.6 54.842C10.17 47.402 12.83 40.772 15.56 34.112C19.43 24.682 25.78 17.012 32.88 9.97203C39.14 3.77203 46.83 0.112059 55.73 0.00205911C66.47 -0.127941 70.96 5.90208 69.21 16.8321C67.78 25.7321 63.46 33.5821 57.66 40.4921C51.96 47.292 45.48 53.3621 39.15 59.5621C28.9 69.6121 18.37 79.3621 6.45 87.4621C3.53 89.4421 2.53 89.7121 0 89.4321C6.33 84.2121 11.64 78.302 17.46 72.922C26.18 64.862 34.73 56.602 42.69 47.792C48.06 41.852 53.61 36.002 57.34 28.782C60.17 23.292 63.01 17.822 62.89 11.352C62.84 8.24203 60.71 6.02206 57.46 5.75206C48.51 5.00206 41.37 8.45204 35.44 14.922C34.59 15.842 33.67 16.7021 32.78 17.5821C24.06 26.5021 18.34 37.0521 15.75 49.2521C15.33 51.2221 14.3 53.802 16.18 55.102C18.01 56.372 20.2 54.7321 21.93 53.6421C31.41 47.6521 39.4 40.0621 45.87 30.9021C47.55 28.5221 48.78 25.852 49.18 22.922C49.61 19.822 48.17 18.2621 45.04 18.3921C44.06 18.4321 42.99 18.5521 42.12 18.9621C35.83 21.9621 31.06 26.5021 28.48 33.0821C27.93 34.4721 27.13 36.3721 28.6 37.3321C29.88 38.1721 30.9 36.3621 31.95 35.6221C32.76 35.0521 33.45 34.3121 34.19 33.6321C36.72 31.2921 39.24 28.932 41.78 26.592C42.55 25.892 43.46 25.2721 44.42 26.1221C45.25 26.8521 44.8 27.7921 44.4 28.6221C44.12 29.1921 43.86 29.792 43.48 30.282C40.49 34.092 37.06 37.4521 33.21 40.3721C31.22 41.8721 28.95 42.6221 26.61 41.2621C24.27 39.9121 23.88 37.5221 24.06 35.0721C24.32 31.5221 25.86 28.4321 27.95 25.6421C29.7 23.3121 31.61 21.1421 33.44 18.9021Z" fill="#E5722A"/>
</svg>
