<svg width="94" height="99" viewBox="0 0 94 99" fill="none" xmlns="http://www.w3.org/2000/svg">
<g clip-path="url(#clip0_1376_209)">
<path d="M77.5032 76.7317C74.0089 78.8545 70.249 79.2788 66.3721 79.3734C58.3989 79.5684 50.7023 78.1118 43.2984 75.3288C31.7004 70.974 21.5566 64.4158 13.7694 54.6187C10.8328 50.9183 8.61628 46.811 8.09403 41.9652C7.53586 36.7673 9.60605 32.7658 13.5716 29.6211C19.2609 25.1122 25.8596 24.334 32.7633 25.2715C41.0054 26.3909 48.5407 29.3852 55.5477 33.9115C60.606 37.182 65.1201 41.1099 68.522 45.9391C71.961 50.8173 74.3682 56.3772 71.7135 62.6179C70.8155 64.7253 69.3738 66.3792 67.3836 67.6436C62.8184 70.5295 58.0153 70.0367 53.1967 68.768C45.9983 66.8684 39.7951 63.1149 34.2742 58.1588C31.0922 55.3044 28.5538 52.0015 26.7177 48.1464C26.1114 46.8729 25.7709 45.5268 25.5929 44.148C25.0842 40.2087 27.7419 37.7246 31.3699 37.5892C35.8722 37.4132 40.1241 38.6473 44.3204 40.1501C49.3136 41.9354 53.484 44.9509 57.1524 48.6951C58.5451 50.1206 59.5793 51.8383 59.7896 53.8673C60.1204 57.0757 58.326 58.6177 55.3554 58.6864C52.0671 58.7614 49 57.4905 45.9849 56.3105C44.2603 55.6327 42.594 54.7773 41.0794 53.6601C40.1356 52.9644 39.6782 51.9612 39.3366 50.9427C38.99 49.9021 39.5956 49.2075 40.612 48.9718C41.1042 48.8589 41.9033 49.0847 41.8139 49.531C41.5242 50.9732 42.6072 51.358 43.4344 51.835C47.0023 53.8774 50.8358 55.2118 54.9389 55.6138C56.6024 55.7795 56.9693 55.1498 56.374 53.5437C55.7265 51.7973 54.379 50.5834 53.0464 49.4114C47.1033 44.1935 40.0987 41.4926 32.2511 41.0442C29.1071 40.8673 28.0508 42.8078 29.2058 45.7542C31.6776 52.0652 36.3657 56.3619 41.7902 60.0522C46.5108 63.2649 51.6243 65.5695 57.3032 66.3667C60.4655 66.812 63.64 66.6217 66.2275 64.4385C68.9795 62.1167 69.7433 57.8987 68.4863 54.1152C67.1895 50.216 64.7139 47.2207 61.911 44.2983C57.3369 39.5429 51.9694 35.9657 46.0685 33.2751C39.8049 30.416 33.2143 28.3514 26.1687 28.8678C20.2756 29.2958 15.1351 31.2628 12.1946 36.8888C10.8893 39.387 11.1857 41.9896 11.8074 44.6377C13.1984 50.4948 17.2889 54.4639 21.3967 58.4059C26.1672 62.988 31.6678 66.5967 37.6012 69.4128C47.5527 74.1365 57.9842 76.9269 69.1417 75.9257C72.6556 75.6133 75.9551 74.6441 78.6969 72.241C82.0401 69.3058 83.1034 65.4734 82.7783 61.2501C82.4764 57.2926 81.1658 53.6349 79.0604 50.1997C74.4901 42.7395 69.021 35.9924 63.1369 29.5598C58.834 24.8649 54.2638 20.4593 48.9897 16.835C46.1513 14.8807 43.1297 13.2844 39.9613 11.9474C39.5467 11.7742 38.9377 11.6313 39.1793 11.0835C39.377 10.6319 39.8837 11.0609 40.2486 11.1358C45.3174 12.1424 49.8222 14.378 54.0783 17.27C60.1254 21.374 65.1398 26.5611 69.9875 31.9559C73.3752 35.7308 76.5518 39.6864 79.6228 43.7138C81.2549 45.8577 82.8799 48.0854 84.0155 50.5047C86.4732 55.7614 87.6363 61.3017 86.0685 67.0798C84.7941 71.7285 81.9402 75.0336 77.5032 76.7317Z" fill="#D6492C"/>
</g>
<defs>
<clipPath id="clip0_1376_209">
<rect width="76.0411" height="65.2505" fill="white" transform="translate(35.041 98.272) rotate(-116.798)"/>
</clipPath>
</defs>
</svg>
