<svg width="21" height="22" viewBox="0 0 21 22" fill="none" xmlns="http://www.w3.org/2000/svg">
<path d="M20.9999 5.29999C21.0072 7.02334 20.4177 8.06295 19.2753 8.76958C18.2984 9.37453 17.3996 10.0557 16.7906 11.1055C16.223 12.0841 16.1036 12.9814 16.737 14.0006C17.3898 15.0479 17.8186 16.2197 18.0159 17.4651C18.1937 18.5937 18.0719 19.6791 17.5092 20.6755C16.6956 22.1141 15.463 22.3912 14.1378 21.4558C13.4825 20.9932 13.0148 20.3527 12.5618 19.6943C11.982 18.8504 11.4607 17.9608 10.7177 17.2516C9.72142 16.301 9.27564 16.2857 8.30613 17.272C6.81776 18.7869 5.10527 19.7147 2.97381 19.6511C2.45495 19.6359 1.96288 19.5266 1.49761 19.3054C0.0823198 18.6293 -0.390257 17.1703 0.340532 15.7316C0.732722 14.9564 1.34902 14.3972 2.00673 13.8786C2.28199 13.6626 2.61328 13.4847 2.52559 13.0119C2.49392 12.8365 2.662 12.7399 2.78867 12.6459C4.15281 11.6266 4.45487 10.1752 4.31846 8.54589C4.21371 7.3004 3.84588 6.10829 3.6437 4.88059C3.4269 3.56392 3.65588 2.35402 4.41102 1.2712C5.55349 -0.365734 7.5047 -0.431822 8.76165 1.1314C9.3341 1.84311 9.70194 2.68954 10.1112 3.508C10.4595 4.20192 10.8079 4.89584 11.3584 5.45504C11.8237 5.92782 12.3011 5.98882 12.8516 5.63297C13.5897 5.15765 14.2109 4.52473 14.8954 3.97824C15.8479 3.21823 16.8832 2.68954 18.1133 2.67683C19.877 2.65903 20.9804 3.79015 20.9999 5.29999ZM9.49001 15.0199C10.3621 14.9742 11.0052 15.4571 11.6142 16.0087C12.5301 16.8373 13.1488 17.91 13.8358 18.9292C14.1939 19.4605 14.5763 19.9612 15.1366 20.2891C15.4849 20.4925 15.7675 20.4365 16.0135 20.1214C16.4885 19.5139 16.6469 18.8174 16.547 18.0472C16.3838 16.7916 15.9331 15.6427 15.3241 14.5624C14.6299 13.3296 14.6835 12.1146 15.2925 10.8717C15.9112 9.60583 16.7638 8.5764 17.9379 7.84435C18.3545 7.58509 18.7905 7.3487 19.134 6.98013C19.7113 6.35993 19.8526 5.30761 19.4628 4.60607C19.1121 3.97824 18.4543 3.80794 17.5141 4.08246C16.8856 4.26547 16.3278 4.58574 15.8186 5.00005C15.1902 5.51096 14.5958 6.06762 13.9527 6.55565C12.4911 7.66897 11.2293 7.48341 10.0673 6.02695C9.50949 5.32795 9.15384 4.5044 8.77383 3.69864C8.46203 3.03777 8.1892 2.34893 7.71663 1.78719C6.95904 0.882301 6.00658 0.910261 5.29041 1.84311C4.60103 2.74292 4.49141 3.76473 4.71065 4.85517C4.8836 5.71176 5.08822 6.56073 5.23682 7.42241C5.49016 8.87887 5.27336 10.2565 4.85681 11.6927C4.38179 13.322 3.52433 14.5141 2.25763 15.48C2.08224 15.6147 1.93609 15.8003 1.80211 15.9807C1.07863 16.9568 1.43184 17.9049 2.60598 18.0828C3.59254 18.2302 4.54257 18.0549 5.44144 17.5897C6.24531 17.1728 6.91276 16.5755 7.55829 15.9375C8.10151 15.4012 8.69832 14.9767 9.49001 15.0199Z" fill="#E57128"/>
</svg>
