<svg width="43" height="63" viewBox="0 0 43 63" fill="none" xmlns="http://www.w3.org/2000/svg">
<path d="M32.8767 47.7955C34.3266 47.3372 35.7702 46.8287 37.2454 46.4269C39.0499 45.9371 40.8543 45.8995 42.1776 47.4565C43.4756 48.9821 43.026 50.6835 42.2726 52.2908C40.9113 55.1851 39.5437 58.0731 37.8342 60.7853C37.4986 61.3127 37.1441 61.8464 36.7072 62.2921C35.9981 63.0204 35.1054 63.2527 34.2063 62.6751C33.3326 62.1163 33.3136 61.2436 33.7188 60.3961C34.6748 58.387 35.6815 56.4031 36.6629 54.4066C37.0365 53.6406 37.4163 52.8684 37.7519 52.0773C38.1065 51.2549 37.7836 51.0037 36.9731 51.2737C35.7765 51.6755 34.5989 52.1527 33.3832 52.4917C30.0086 53.4397 27.7102 51.7069 27.9698 48.2413C28.1408 45.9811 28.7169 43.7523 29.1095 41.511C29.1855 41.0715 29.4007 40.632 29.0968 40.0732C27.4253 40.7701 25.7475 41.4796 24.0633 42.1702C23.4238 42.4339 22.7844 42.6913 22.1259 42.8859C18.5676 43.9281 16.244 42.0509 16.7378 38.4158C17.0607 36.0488 17.6115 33.7133 18.0674 31.3652C18.1624 30.8692 18.365 30.3795 18.1181 29.7894C17.0228 30.0154 16.2313 30.8065 15.288 31.2899C11.888 33.0164 9.27939 31.472 9.24773 27.6924C9.2224 24.999 9.82385 22.3684 10.0708 19.7064C10.1847 18.4696 9.86819 18.1431 8.66521 18.6328C7.77248 18.997 6.81647 19.2858 5.86042 19.4427C2.06788 20.0517 -0.103809 18.2938 0.00382657 14.508C0.117791 10.6406 0.459642 6.7794 1.06113 2.94964C1.1561 2.32809 1.22574 1.70653 1.36503 1.09753C1.44734 0.714554 1.01681 0.0867311 1.77025 0.00511572C2.29576 -0.0513913 2.587 0.369255 2.79594 0.789902C3.61903 2.4097 3.77103 4.16763 3.87233 5.93183C4.01796 8.54988 4.16357 11.1679 4.25221 13.7923C4.2902 15.0354 4.83468 15.2488 5.89837 14.8282C7.12667 14.3447 8.36129 13.8676 9.60859 13.447C12.787 12.3671 14.7751 13.7107 14.6548 17.057C14.5535 19.7818 14.1103 22.494 13.8317 25.2188C13.781 25.7022 13.4581 26.3363 13.9583 26.6376C14.4648 26.939 14.8764 26.3426 15.3006 26.0914C16.1426 25.6017 16.9278 24.9928 17.8079 24.591C20.4607 23.3855 22.7021 24.6977 22.9616 27.5857C23.1516 29.6638 22.5311 31.654 22.1765 33.6694C21.9613 34.9062 21.6763 36.1242 21.4041 37.3484C21.1888 38.309 21.5624 38.4911 22.3918 38.1269C23.7024 37.5431 25.013 36.9592 26.3236 36.3753C26.8998 36.1179 27.4697 35.8354 28.0522 35.6031C32.1549 33.9707 34.5482 35.8103 33.9087 40.1297C33.6048 42.1576 33.2186 44.1729 32.864 46.1946C32.7754 46.6968 32.5475 47.1865 32.8767 47.7955Z" fill="#E66C0D"/>
</svg>
