<svg width="68" height="68" viewBox="0 0 68 68" fill="none" xmlns="http://www.w3.org/2000/svg">
<path d="M33.9974 5.66797C18.3829 5.66797 5.66406 18.3868 5.66406 34.0013C5.66406 49.6158 18.3829 62.3346 33.9974 62.3346C49.6119 62.3346 62.3307 49.6158 62.3307 34.0013C62.3307 18.3868 49.6119 5.66797 33.9974 5.66797ZM33.9974 11.3346C46.5494 11.3346 56.6641 21.4493 56.6641 34.0013C56.6641 46.5533 46.5494 56.668 33.9974 56.668C21.4454 56.668 11.3307 46.5533 11.3307 34.0013C11.3307 21.4493 21.4454 11.3346 33.9974 11.3346ZM24.6673 20.6647L20.6608 24.6712L29.9909 34.0013L20.6608 43.3314L24.6673 47.3379L33.9974 38.0078L43.3275 47.3379L47.334 43.3314L38.0039 34.0013L47.334 24.6712L43.3275 20.6647L33.9974 29.9948L24.6673 20.6647Z" fill="#EF1E1E"/>
</svg>
