<svg width="10" height="10" viewBox="0 0 10 10" fill="none" xmlns="http://www.w3.org/2000/svg">
<path d="M9.48351 1.98058L9.59629 1.87235L9.48351 1.76412L8.63955 0.95427L8.5357 0.85461L8.43184 0.95427L5.18982 4.06528L1.94781 0.95427L1.84395 0.85461L1.74009 0.95427L0.896143 1.76412L0.783355 1.87235L0.896143 1.98058L4.12923 5.08301L0.896143 8.18545L0.783355 8.29368L0.896143 8.40191L1.74009 9.21176L1.84395 9.31142L1.94781 9.21176L5.18982 6.10075L8.43184 9.21176L8.5357 9.31142L8.63955 9.21176L9.48351 8.40191L9.59629 8.29368L9.48351 8.18545L6.25042 5.08301L9.48351 1.98058Z" fill="#EF1E1E" stroke="#EF1E1E" stroke-width="0.3"/>
</svg>
