<svg width="16" height="16" viewBox="0 0 16 16" fill="none" xmlns="http://www.w3.org/2000/svg">
<g clip-path="url(#clip0_10487_1303)">
<path d="M8.20302 7.13696C7.01376 6.85288 6.63131 6.55918 6.63131 6.10177C6.63131 5.57696 7.16045 5.21103 8.04585 5.21103C8.9784 5.21103 9.32417 5.62029 9.35561 6.22214H10.5134C10.4768 5.39399 9.92666 4.63325 8.8317 4.3877V3.33325H7.25999V4.37325C6.24362 4.57547 5.42633 5.18214 5.42633 6.1114C5.42633 7.22362 6.42699 7.77733 7.88868 8.09992C9.19844 8.38881 9.46039 8.81251 9.46039 9.26029C9.46039 9.59251 9.20367 10.1221 8.04585 10.1221C6.96661 10.1221 6.54225 9.67918 6.48462 9.11103H5.33203C5.3949 10.1655 6.2541 10.7577 7.25999 10.9551V11.9999H8.8317V10.9647C9.85331 10.7866 10.6654 10.2425 10.6654 9.25547C10.6654 7.88807 9.39228 7.42103 8.20302 7.13696Z" fill="#FFC900"/>
<circle cx="7.9987" cy="7.99992" r="5.66667" stroke="#FFC900" stroke-width="2"/>
</g>
<defs>
<clipPath id="clip0_10487_1303">
<rect width="16" height="16" fill="white"/>
</clipPath>
</defs>
</svg>
