<svg width="175" height="104" viewBox="0 0 175 104" fill="none" xmlns="http://www.w3.org/2000/svg">
<path d="M1.48 100V85.8H4.24V100H1.48ZM16.6827 100H14.0027V94.12C14.0027 93.28 13.856 92.6667 13.5627 92.28C13.2693 91.8933 12.8627 91.7 12.3427 91.7C11.9827 91.7 11.616 91.7933 11.2427 91.98C10.8827 92.1667 10.556 92.4267 10.2627 92.76C9.96932 93.08 9.75599 93.4533 9.62266 93.88V100H6.94266V89.52H9.36266V91.46C9.62932 91.0067 9.96932 90.6267 10.3827 90.32C10.796 90 11.2693 89.76 11.8027 89.6C12.3493 89.4267 12.9227 89.34 13.5227 89.34C14.176 89.34 14.7093 89.46 15.1227 89.7C15.5493 89.9267 15.8693 90.24 16.0827 90.64C16.3093 91.0267 16.4627 91.4667 16.5427 91.96C16.636 92.4533 16.6827 92.9533 16.6827 93.46V100ZM25.2344 99.46C25.0077 99.5533 24.7344 99.66 24.4144 99.78C24.0944 99.9 23.7477 99.9933 23.3744 100.06C23.0144 100.14 22.6477 100.18 22.2744 100.18C21.781 100.18 21.3277 100.093 20.9144 99.92C20.501 99.7467 20.1677 99.4733 19.9144 99.1C19.6744 98.7133 19.5544 98.2133 19.5544 97.6V91.58H18.1744V89.52H19.5544V86.12H22.2344V89.52H24.4344V91.58H22.2344V96.7C22.2477 97.06 22.3477 97.32 22.5344 97.48C22.721 97.64 22.9544 97.72 23.2344 97.72C23.5144 97.72 23.7877 97.6733 24.0544 97.58C24.321 97.4867 24.5344 97.4067 24.6944 97.34L25.2344 99.46ZM31.373 100.2C30.533 100.2 29.773 100.06 29.093 99.78C28.413 99.4867 27.833 99.0933 27.353 98.6C26.873 98.0933 26.4996 97.52 26.233 96.88C25.9796 96.2267 25.853 95.54 25.853 94.82C25.853 93.82 26.073 92.9067 26.513 92.08C26.9663 91.2533 27.6063 90.5933 28.433 90.1C29.273 89.5933 30.2596 89.34 31.393 89.34C32.5396 89.34 33.5196 89.5933 34.333 90.1C35.1463 90.5933 35.7663 91.2533 36.193 92.08C36.633 92.8933 36.853 93.7733 36.853 94.72C36.853 94.88 36.8463 95.0467 36.833 95.22C36.8196 95.38 36.8063 95.5133 36.793 95.62H28.693C28.7463 96.1533 28.8996 96.62 29.153 97.02C29.4196 97.42 29.753 97.7267 30.153 97.94C30.5663 98.14 31.0063 98.24 31.473 98.24C32.0063 98.24 32.5063 98.1133 32.973 97.86C33.453 97.5933 33.7796 97.2467 33.953 96.82L36.253 97.46C35.9996 97.9933 35.633 98.4667 35.153 98.88C34.6863 99.2933 34.133 99.62 33.493 99.86C32.853 100.087 32.1463 100.2 31.373 100.2ZM28.633 93.92H34.113C34.0596 93.3867 33.9063 92.9267 33.653 92.54C33.413 92.14 33.093 91.8333 32.693 91.62C32.293 91.3933 31.8463 91.28 31.353 91.28C30.873 91.28 30.433 91.3933 30.033 91.62C29.6463 91.8333 29.3263 92.14 29.073 92.54C28.833 92.9267 28.6863 93.3867 28.633 93.92ZM44.7256 91.84C43.9123 91.84 43.1856 92 42.5456 92.32C41.9056 92.6267 41.4456 93.0733 41.1656 93.66V100H38.4856V89.52H40.9456V91.76C41.319 91.04 41.7923 90.4733 42.3656 90.06C42.939 89.6467 43.5456 89.42 44.1856 89.38C44.3323 89.38 44.4456 89.38 44.5256 89.38C44.6056 89.38 44.6723 89.3867 44.7256 89.4V91.84ZM49.04 100L45.18 89.52H47.96L50.6 97.56L53.26 89.52H55.8L51.96 100H49.04ZM57.2161 100V89.52H59.8961V100H57.2161ZM57.2161 88.06V85.4H59.8961V88.06H57.2161ZM67.1738 100.2C66.3338 100.2 65.5738 100.06 64.8938 99.78C64.2138 99.4867 63.6338 99.0933 63.1538 98.6C62.6738 98.0933 62.3004 97.52 62.0338 96.88C61.7804 96.2267 61.6538 95.54 61.6538 94.82C61.6538 93.82 61.8738 92.9067 62.3138 92.08C62.7671 91.2533 63.4071 90.5933 64.2338 90.1C65.0738 89.5933 66.0604 89.34 67.1938 89.34C68.3404 89.34 69.3204 89.5933 70.1338 90.1C70.9471 90.5933 71.5671 91.2533 71.9938 92.08C72.4338 92.8933 72.6538 93.7733 72.6538 94.72C72.6538 94.88 72.6471 95.0467 72.6338 95.22C72.6204 95.38 72.6071 95.5133 72.5938 95.62H64.4938C64.5471 96.1533 64.7004 96.62 64.9538 97.02C65.2204 97.42 65.5538 97.7267 65.9538 97.94C66.3671 98.14 66.8071 98.24 67.2738 98.24C67.8071 98.24 68.3071 98.1133 68.7738 97.86C69.2538 97.5933 69.5804 97.2467 69.7538 96.82L72.0538 97.46C71.8004 97.9933 71.4338 98.4667 70.9538 98.88C70.4871 99.2933 69.9338 99.62 69.2938 99.86C68.6538 100.087 67.9471 100.2 67.1738 100.2ZM64.4338 93.92H69.9138C69.8604 93.3867 69.7071 92.9267 69.4538 92.54C69.2138 92.14 68.8938 91.8333 68.4938 91.62C68.0938 91.3933 67.6471 91.28 67.1538 91.28C66.6738 91.28 66.2338 91.3933 65.8338 91.62C65.4471 91.8333 65.1271 92.14 64.8738 92.54C64.6338 92.9267 64.4871 93.3867 64.4338 93.92ZM86.9934 89.52H89.5334L85.1534 100H82.9134L81.1534 95.5L79.4334 100H77.1734L72.8134 89.52H75.3334L78.4534 97.44L79.6734 94.02L77.8534 89.54H80.0734L81.1534 92.74L82.2534 89.54H84.4734L82.6534 94.02L83.8934 97.44L86.9934 89.52ZM101.249 91.84C100.436 91.84 99.7091 92 99.0691 92.32C98.4291 92.6267 97.9691 93.0733 97.6891 93.66V100H95.0091V89.52H97.4691V91.76C97.8424 91.04 98.3157 90.4733 98.8891 90.06C99.4624 89.6467 100.069 89.42 100.709 89.38C100.856 89.38 100.969 89.38 101.049 89.38C101.129 89.38 101.196 89.3867 101.249 89.4V91.84ZM107.467 100.2C106.627 100.2 105.867 100.06 105.187 99.78C104.507 99.4867 103.927 99.0933 103.447 98.6C102.967 98.0933 102.593 97.52 102.327 96.88C102.073 96.2267 101.947 95.54 101.947 94.82C101.947 93.82 102.167 92.9067 102.607 92.08C103.06 91.2533 103.7 90.5933 104.527 90.1C105.367 89.5933 106.353 89.34 107.487 89.34C108.633 89.34 109.613 89.5933 110.427 90.1C111.24 90.5933 111.86 91.2533 112.287 92.08C112.727 92.8933 112.947 93.7733 112.947 94.72C112.947 94.88 112.94 95.0467 112.927 95.22C112.913 95.38 112.9 95.5133 112.887 95.62H104.787C104.84 96.1533 104.993 96.62 105.247 97.02C105.513 97.42 105.847 97.7267 106.247 97.94C106.66 98.14 107.1 98.24 107.567 98.24C108.1 98.24 108.6 98.1133 109.067 97.86C109.547 97.5933 109.873 97.2467 110.047 96.82L112.347 97.46C112.093 97.9933 111.727 98.4667 111.247 98.88C110.78 99.2933 110.227 99.62 109.587 99.86C108.947 100.087 108.24 100.2 107.467 100.2ZM104.727 93.92H110.207C110.153 93.3867 110 92.9267 109.747 92.54C109.507 92.14 109.187 91.8333 108.787 91.62C108.387 91.3933 107.94 91.28 107.447 91.28C106.967 91.28 106.527 91.3933 106.127 91.62C105.74 91.8333 105.42 92.14 105.167 92.54C104.927 92.9267 104.78 93.3867 104.727 93.92ZM113.719 103.92C113.226 103.92 112.753 103.84 112.299 103.68C111.846 103.533 111.433 103.3 111.059 102.98L112.219 101.16C112.366 101.32 112.546 101.433 112.759 101.5C112.973 101.567 113.186 101.6 113.399 101.6C113.639 101.6 113.853 101.54 114.039 101.42C114.239 101.313 114.393 101.16 114.499 100.96C114.619 100.76 114.679 100.533 114.679 100.28V89.52H117.359V100.08C117.359 100.827 117.193 101.493 116.859 102.08C116.539 102.667 116.106 103.12 115.559 103.44C115.026 103.76 114.413 103.92 113.719 103.92ZM114.679 88.06V85.4H117.359V88.06H114.679ZM124.654 100.2C123.814 100.2 123.054 100.06 122.374 99.78C121.694 99.4867 121.114 99.0933 120.634 98.6C120.154 98.0933 119.781 97.52 119.514 96.88C119.261 96.2267 119.134 95.54 119.134 94.82C119.134 93.82 119.354 92.9067 119.794 92.08C120.248 91.2533 120.888 90.5933 121.714 90.1C122.554 89.5933 123.541 89.34 124.674 89.34C125.821 89.34 126.801 89.5933 127.614 90.1C128.428 90.5933 129.048 91.2533 129.474 92.08C129.914 92.8933 130.134 93.7733 130.134 94.72C130.134 94.88 130.128 95.0467 130.114 95.22C130.101 95.38 130.088 95.5133 130.074 95.62H121.974C122.028 96.1533 122.181 96.62 122.434 97.02C122.701 97.42 123.034 97.7267 123.434 97.94C123.848 98.14 124.288 98.24 124.754 98.24C125.288 98.24 125.788 98.1133 126.254 97.86C126.734 97.5933 127.061 97.2467 127.234 96.82L129.534 97.46C129.281 97.9933 128.914 98.4667 128.434 98.88C127.968 99.2933 127.414 99.62 126.774 99.86C126.134 100.087 125.428 100.2 124.654 100.2ZM121.914 93.92H127.394C127.341 93.3867 127.188 92.9267 126.934 92.54C126.694 92.14 126.374 91.8333 125.974 91.62C125.574 91.3933 125.128 91.28 124.634 91.28C124.154 91.28 123.714 91.3933 123.314 91.62C122.928 91.8333 122.608 92.14 122.354 92.54C122.114 92.9267 121.968 93.3867 121.914 93.92ZM136.647 100.2C135.794 100.2 135.027 100.06 134.347 99.78C133.667 99.4867 133.087 99.0867 132.607 98.58C132.127 98.06 131.754 97.4733 131.487 96.82C131.234 96.1667 131.107 95.48 131.107 94.76C131.107 93.7733 131.327 92.8733 131.767 92.06C132.22 91.2333 132.86 90.5733 133.687 90.08C134.514 89.5867 135.494 89.34 136.627 89.34C137.76 89.34 138.734 89.5867 139.547 90.08C140.36 90.5733 140.967 91.22 141.367 92.02L138.747 92.82C138.52 92.4333 138.22 92.14 137.847 91.94C137.474 91.7267 137.06 91.62 136.607 91.62C136.1 91.62 135.634 91.7533 135.207 92.02C134.794 92.2733 134.467 92.64 134.227 93.12C133.987 93.5867 133.867 94.1333 133.867 94.76C133.867 95.3733 133.987 95.92 134.227 96.4C134.48 96.8667 134.814 97.24 135.227 97.52C135.64 97.7867 136.1 97.92 136.607 97.92C136.927 97.92 137.227 97.8667 137.507 97.76C137.8 97.6533 138.06 97.5067 138.287 97.32C138.514 97.1333 138.68 96.92 138.787 96.68L141.407 97.48C141.167 98 140.814 98.4667 140.347 98.88C139.894 99.2933 139.354 99.62 138.727 99.86C138.114 100.087 137.42 100.2 136.647 100.2ZM149.336 99.46C149.109 99.5533 148.836 99.66 148.516 99.78C148.196 99.9 147.849 99.9933 147.476 100.06C147.116 100.14 146.749 100.18 146.376 100.18C145.883 100.18 145.429 100.093 145.016 99.92C144.603 99.7467 144.269 99.4733 144.016 99.1C143.776 98.7133 143.656 98.2133 143.656 97.6V91.58H142.276V89.52H143.656V86.12H146.336V89.52H148.536V91.58H146.336V96.7C146.349 97.06 146.449 97.32 146.636 97.48C146.823 97.64 147.056 97.72 147.336 97.72C147.616 97.72 147.889 97.6733 148.156 97.58C148.423 97.4867 148.636 97.4067 148.796 97.34L149.336 99.46ZM155.475 100.2C154.635 100.2 153.875 100.06 153.195 99.78C152.515 99.4867 151.935 99.0933 151.455 98.6C150.975 98.0933 150.601 97.52 150.335 96.88C150.081 96.2267 149.955 95.54 149.955 94.82C149.955 93.82 150.175 92.9067 150.615 92.08C151.068 91.2533 151.708 90.5933 152.535 90.1C153.375 89.5933 154.361 89.34 155.495 89.34C156.641 89.34 157.621 89.5933 158.435 90.1C159.248 90.5933 159.868 91.2533 160.295 92.08C160.735 92.8933 160.955 93.7733 160.955 94.72C160.955 94.88 160.948 95.0467 160.935 95.22C160.921 95.38 160.908 95.5133 160.895 95.62H152.795C152.848 96.1533 153.001 96.62 153.255 97.02C153.521 97.42 153.855 97.7267 154.255 97.94C154.668 98.14 155.108 98.24 155.575 98.24C156.108 98.24 156.608 98.1133 157.075 97.86C157.555 97.5933 157.881 97.2467 158.055 96.82L160.355 97.46C160.101 97.9933 159.735 98.4667 159.255 98.88C158.788 99.2933 158.235 99.62 157.595 99.86C156.955 100.087 156.248 100.2 155.475 100.2ZM152.735 93.92H158.215C158.161 93.3867 158.008 92.9267 157.755 92.54C157.515 92.14 157.195 91.8333 156.795 91.62C156.395 91.3933 155.948 91.28 155.455 91.28C154.975 91.28 154.535 91.3933 154.135 91.62C153.748 91.8333 153.428 92.14 153.175 92.54C152.935 92.9267 152.788 93.3867 152.735 93.92ZM161.947 94.76C161.947 93.7467 162.147 92.8333 162.547 92.02C162.947 91.1933 163.501 90.54 164.207 90.06C164.914 89.58 165.721 89.34 166.627 89.34C167.401 89.34 168.094 89.5333 168.707 89.92C169.334 90.2933 169.821 90.7733 170.167 91.36V85.4H172.847V97C172.847 97.28 172.894 97.48 172.987 97.6C173.081 97.72 173.241 97.7933 173.467 97.82V100C173.001 100.093 172.621 100.14 172.327 100.14C171.847 100.14 171.447 100.02 171.127 99.78C170.821 99.54 170.647 99.2267 170.607 98.84L170.567 98.18C170.181 98.8333 169.654 99.3333 168.987 99.68C168.334 100.027 167.647 100.2 166.927 100.2C166.207 100.2 165.541 100.06 164.927 99.78C164.327 99.5 163.801 99.1133 163.347 98.62C162.907 98.1267 162.561 97.5533 162.307 96.9C162.067 96.2333 161.947 95.52 161.947 94.76ZM170.167 96.16V93.66C170.034 93.2733 169.821 92.9267 169.527 92.62C169.234 92.3133 168.907 92.0733 168.547 91.9C168.187 91.7133 167.827 91.62 167.467 91.62C167.054 91.62 166.681 91.7067 166.347 91.88C166.014 92.0533 165.721 92.2867 165.467 92.58C165.227 92.8733 165.041 93.2133 164.907 93.6C164.787 93.9867 164.727 94.3933 164.727 94.82C164.727 95.2467 164.794 95.6533 164.927 96.04C165.074 96.4133 165.281 96.74 165.547 97.02C165.814 97.3 166.121 97.52 166.467 97.68C166.827 97.84 167.214 97.92 167.627 97.92C167.881 97.92 168.134 97.88 168.387 97.8C168.654 97.7067 168.901 97.5867 169.127 97.44C169.367 97.28 169.574 97.0933 169.747 96.88C169.934 96.6533 170.074 96.4133 170.167 96.16Z" fill="#EF1E1E"/>
<path d="M86.9974 5.66699C71.3829 5.66699 58.6641 18.3858 58.6641 34.0003C58.6641 49.6148 71.3829 62.3337 86.9974 62.3337C102.612 62.3337 115.331 49.6148 115.331 34.0003C115.331 18.3858 102.612 5.66699 86.9974 5.66699ZM86.9974 11.3337C99.5494 11.3337 109.664 21.4483 109.664 34.0003C109.664 46.5523 99.5494 56.667 86.9974 56.667C74.4454 56.667 64.3307 46.5523 64.3307 34.0003C64.3307 21.4483 74.4454 11.3337 86.9974 11.3337ZM77.6673 20.6637L73.6608 24.6702L82.9909 34.0003L73.6608 43.3304L77.6673 47.3369L86.9974 38.0068L96.3275 47.3369L100.334 43.3304L91.0039 34.0003L100.334 24.6702L96.3275 20.6637L86.9974 29.9938L77.6673 20.6637Z" fill="#EF1E1E"/>
</svg>
