<svg width="15" height="14" viewBox="0 0 15 14" fill="none" xmlns="http://www.w3.org/2000/svg">
<path d="M10.0767 8.31833H9.4401L9.21447 8.11947C10.0042 7.27986 10.4796 6.18983 10.4796 5.00406C10.4796 2.36002 8.13466 0.216797 5.24176 0.216797C2.34885 0.216797 0.00390625 2.36002 0.00390625 5.00406C0.00390625 7.64811 2.34885 9.79133 5.24176 9.79133C6.53913 9.79133 7.73175 9.3568 8.65039 8.63502L8.86796 8.84124V9.42308L12.8971 13.0982L14.0978 12.0008L10.0767 8.31833ZM5.24176 8.31833C3.23526 8.31833 1.61555 6.83796 1.61555 5.00406C1.61555 3.17017 3.23526 1.6898 5.24176 1.6898C7.24826 1.6898 8.86796 3.17017 8.86796 5.00406C8.86796 6.83796 7.24826 8.31833 5.24176 8.31833Z" fill="#929292"/>
</svg>
