<svg width="21" height="30" viewBox="0 0 21 30" fill="none" xmlns="http://www.w3.org/2000/svg">
<path d="M20.0124 15.8684C20.0062 14.8609 20 13.8504 19.9969 12.843C19.9969 12.6854 19.9938 12.2651 19.3325 12.2157C19.2491 12.2095 19.1533 12.2064 19.039 12.2064C18.9494 12.2064 18.8566 12.2064 18.7639 12.2095C18.6558 12.2095 18.5507 12.2126 18.4395 12.2126H17.8214V10.3554C17.8214 9.49938 17.8214 8.67738 17.8183 7.85229C17.806 3.52287 14.3325 0 10.0742 0H10.0402C5.65516 0.0185414 2.21264 3.47033 2.20337 7.85847C2.20028 8.68356 2.20028 9.51174 2.20337 10.3523V12.0952L1.65331 12.157C1.58841 12.1632 1.53588 12.1724 1.48953 12.1786C1.39373 12.1879 1.31029 12.2002 1.21758 12.2033C0.995088 12.2126 0.321416 12.2435 0.163814 12.4104C0.00621181 12.5773 0.00620879 13.2602 0.00620879 13.4858C0.00311855 14.7682 0.00620879 16.0476 0.00620879 17.33C0.00620879 19.7373 0.00930242 22.2281 3.17117e-05 24.6755C-0.00923899 27.8646 2.01486 29.9444 5.15454 29.9753C6.75219 29.9907 8.34985 30 9.90115 30C11.6409 30 13.3807 29.9907 15.0711 29.9691C17.8307 29.9351 19.8888 27.9852 19.9629 25.3307C20.0526 22.1817 20.0309 18.971 20.0124 15.8684ZM3.40856 11.5266C3.43328 10.9951 3.43946 10.4481 3.44564 9.91965C3.458 8.72373 3.47345 7.48764 3.7114 6.29172C4.29545 3.35909 6.90052 1.31026 10.0495 1.31026C10.3307 1.31026 10.6181 1.3288 10.9024 1.36279C14.0328 1.7398 16.5081 4.55501 16.5359 7.77503C16.5421 8.62175 16.5421 9.45612 16.539 10.3368V12.1755H3.37766L3.40856 11.5266ZM18.7021 24.9351C18.6898 27.1508 17.1941 28.6496 14.9815 28.665C12.6144 28.6805 10.6675 28.6866 8.84737 28.6866C7.53094 28.6866 6.3072 28.6836 5.11128 28.6774C2.77507 28.6588 1.31956 27.1817 1.31647 24.8146C1.31337 22.5 1.31338 20.1854 1.31338 17.8708V13.5538H18.6589L18.6898 14.1378C18.6929 14.1934 18.6959 14.246 18.699 14.2954C18.7052 14.4067 18.7145 14.5148 18.7145 14.6292V17.4258C18.7176 19.8857 18.7176 22.432 18.7021 24.9351Z" fill="#6D6D6D"/>
</svg>
