<svg width="15" height="13" viewBox="0 0 15 13" fill="none" xmlns="http://www.w3.org/2000/svg">
<path fill-rule="evenodd" clip-rule="evenodd" d="M12.5 2H1.5C1.22386 2 1 1.77614 1 1.5V1.5C1 1.22386 1.22386 1 1.5 1H12.5C13.3284 1 14 1.67157 14 2.5V7C14 7.27614 13.7761 7.5 13.5 7.5V7.5C13.2239 7.5 13 7.27614 13 7V2.5C13 2.22386 12.7761 2 12.5 2Z" fill="#FFC900" stroke="#FFC900" stroke-width="0.2"/>
<path fill-rule="evenodd" clip-rule="evenodd" d="M1 9.5V2C1 1.72386 1.22386 1.5 1.5 1.5V1.5C1.77614 1.5 2 1.72386 2 2V9.5C2 9.77614 2.22386 10 2.5 10H8C8.27614 10 8.5 10.2239 8.5 10.5V10.5C8.5 10.7761 8.27614 11 8 11H2.5C1.67157 11 1 10.3284 1 9.5Z" fill="#FFC900" stroke="#FFC900" stroke-width="0.5"/>
<path d="M1.5 2.5L7.5 6.5L13 3" stroke="#FFC900"/>
<path d="M10.5 11.5838V8.56056C10.5 8.32095 10.767 8.17803 10.9664 8.31094L13.9896 10.3264C14.1973 10.4649 14.1549 10.7817 13.9181 10.8606L10.8949 11.8684C10.7006 11.9331 10.5 11.7885 10.5 11.5838Z" stroke="#FFC900"/>
</svg>
