<svg width="21" height="20" viewBox="0 0 21 20" fill="none" xmlns="http://www.w3.org/2000/svg">
<path d="M7.38727 11.7105C6.64415 10.3884 6.73617 9.14867 7.64253 7.95561C6.74912 6.92532 5.86172 5.89595 4.96137 4.87861C4.90496 4.8148 4.73478 4.80832 4.63259 4.83422C3.80484 5.04509 2.95768 4.57295 2.72785 3.75954C2.49201 2.92624 2.97109 2.06937 3.80253 1.8363C4.62288 1.60648 5.47051 2.07353 5.71051 2.89295C5.8164 3.25503 5.80207 3.6185 5.63374 3.95792C5.55559 4.11515 5.57039 4.21596 5.68507 4.34728C6.51652 5.2948 7.33779 6.25156 8.17108 7.19769C8.22981 7.26474 8.38658 7.33087 8.44577 7.29942C9.62265 6.67561 10.7537 6.7704 11.8349 7.47653C13.1824 6.12809 14.5248 4.7852 15.8946 3.41457C15.5417 2.80278 15.434 2.11792 15.7202 1.39977C15.9177 0.904512 16.2534 0.528558 16.7167 0.272373C17.6268 -0.23121 18.7852 -0.0198808 19.4585 0.763934C20.1517 1.57133 20.1859 2.73757 19.5413 3.57087C18.837 4.48093 17.7387 4.67653 16.6002 4.11376C15.2444 5.4696 13.895 6.81803 12.5304 8.18266C13.1981 9.15977 13.2994 10.2363 12.7991 11.3794C13.157 11.6273 13.5029 11.8677 13.8502 12.1068C14.5392 12.5817 15.231 13.0525 15.9163 13.5325C16.0578 13.6314 16.1572 13.6638 16.3278 13.5598C16.9688 13.1686 17.76 13.2976 18.265 13.8474C18.7533 14.3792 18.8041 15.1912 18.3861 15.7831C17.9644 16.3806 17.1977 16.6049 16.5244 16.3274C15.8423 16.0462 15.4645 15.3433 15.582 14.6012C15.5954 14.5156 15.5653 14.3755 15.5047 14.3329C14.4407 13.5889 13.3688 12.856 12.2876 12.1128C11.8109 12.5993 11.2546 12.9133 10.6011 13.0566C10.5387 13.0705 10.4555 13.1857 10.4541 13.2546C10.4435 13.9736 10.4546 14.6927 10.4425 15.4118C10.4393 15.6083 10.5614 15.6273 10.6918 15.6721C11.8816 16.08 12.5031 17.3244 12.1036 18.4962C11.7678 19.4816 10.8055 20.0916 9.74843 19.9889C8.75791 19.8927 7.92184 19.0645 7.80253 18.0615C7.67767 17.0095 8.26681 16.0268 9.25964 15.6948C9.5075 15.612 9.56577 15.4983 9.56068 15.261C9.54634 14.6113 9.55051 13.9607 9.55929 13.3105C9.5616 13.1431 9.50149 13.0872 9.34565 13.0266C8.9364 12.8689 8.54519 12.6654 8.1401 12.4971C8.05686 12.4624 7.9075 12.4597 7.84924 12.5105C6.61872 13.5866 5.39698 14.6728 4.17016 15.76C4.24507 15.9861 4.33756 16.2025 4.38704 16.4282C4.61363 17.4617 4.07629 18.5017 3.10889 18.9258C2.15351 19.3452 1.04276 19.0409 0.422184 18.1901C-0.191458 17.3484 -0.130417 16.1896 0.567849 15.4095C1.26704 14.6284 2.40507 14.4365 3.31143 14.9679C3.50704 15.0825 3.6171 15.0714 3.78542 14.9198C4.92022 13.8983 6.06658 12.8902 7.20923 11.877C7.26796 11.8266 7.32299 11.7711 7.38727 11.7105ZM12.2247 9.99815C12.2224 8.78058 11.2245 7.78173 10.0065 7.77665C8.78195 7.77202 7.76276 8.7963 7.77802 10.0176C7.79282 11.2375 8.80091 12.2335 10.0111 12.2247C11.2305 12.215 12.227 11.2129 12.2247 9.99815ZM19.1103 2.22243C19.1112 1.48162 18.5239 0.892951 17.7836 0.892026C17.0469 0.891101 16.4485 1.48486 16.4476 2.21781C16.4467 2.94844 17.0478 3.55237 17.7785 3.55376C18.5119 3.55515 19.1094 2.95723 19.1103 2.22243ZM2.20808 18.2215C2.94334 18.227 3.5482 17.6356 3.55421 16.9036C3.56068 16.1725 2.96322 15.5644 2.23259 15.5588C1.49687 15.5528 0.89571 16.1447 0.891548 16.8791C0.887386 17.6208 1.47143 18.216 2.20808 18.2215ZM9.98889 19.1094C10.7292 19.1135 11.3248 18.5304 11.3336 17.7924C11.3424 17.0613 10.7454 16.4532 10.0129 16.4472C9.27952 16.4412 8.67652 17.0335 8.66819 17.7683C8.65987 18.5031 9.25317 19.1052 9.98889 19.1094ZM17.0955 14.2298C16.7339 14.2409 16.4421 14.5452 16.4495 14.9031C16.4569 15.2726 16.781 15.575 17.1482 15.5551C17.507 15.5362 17.7933 15.2222 17.778 14.8647C17.7623 14.5008 17.4594 14.2187 17.0955 14.2298ZM4.23074 2.66914C3.86912 2.66451 3.56762 2.95307 3.55837 3.31376C3.54866 3.6874 3.85016 3.99306 4.22565 3.99122C4.59282 3.98937 4.88045 3.70127 4.88137 3.33411C4.8823 2.96971 4.59236 2.67376 4.23074 2.66914Z" fill="#49505B"/>
</svg>
