<svg width="30" height="31" viewBox="0 0 30 31" fill="none" xmlns="http://www.w3.org/2000/svg">
<path d="M27.1296 0C27.833 0 28.5357 0 29.239 0C29.7815 0.184931 30.024 0.563012 29.9981 1.13483C29.9547 2.09001 29.957 3.04813 29.8837 4.00096C29.6723 6.7491 29.0958 9.41738 28.0725 11.9853C26.6477 15.5606 24.388 18.4361 21.0481 20.4134C20.9764 20.4557 20.9119 20.5103 20.8121 20.5825C21.0974 20.8608 21.3639 21.1168 21.6258 21.3774C22.123 21.8723 22.1717 22.1553 21.8735 22.7864C20.8555 24.9363 19.8264 27.0815 18.8265 29.2396C18.5694 29.795 18.2048 30.0257 17.5931 29.9999C15.2424 29.9013 12.89 29.8314 10.5387 29.7504C9.50427 29.7146 8.46983 29.6793 7.43598 29.6424C6.84596 29.6212 6.45966 29.2837 6.44323 28.7835C6.43266 28.4506 6.60878 28.2163 6.82952 27.9962C8.68823 26.1404 10.5446 24.2823 12.4045 22.4271C12.4796 22.352 12.5818 22.3044 12.6522 22.2563C12.0111 21.6146 11.4264 21.0293 10.7671 20.3688C10.7236 20.4399 10.679 20.5584 10.5974 20.64C8.75691 22.487 6.91289 24.3299 5.06887 26.1727C4.98609 26.2555 4.90448 26.3412 4.81172 26.4116C4.3039 26.7962 3.60468 26.5567 3.43501 25.9402C3.32523 25.541 3.50429 25.2457 3.77553 24.9751C5.63481 23.1199 7.49058 21.2606 9.35045 19.406C9.43206 19.3244 9.54419 19.2727 9.6258 19.2181C8.97766 18.5682 8.39351 17.9823 7.74185 17.3289C7.69254 17.4076 7.64968 17.515 7.57512 17.5896C5.71348 19.4565 3.84715 21.3187 1.98668 23.1862C1.68727 23.4868 1.36144 23.6606 0.939331 23.4985C0.506652 23.3324 0.369862 22.976 0.355772 22.5422C0.254793 19.4782 0.150878 16.4142 0.0457905 13.3502C0.041681 13.2352 0.0158512 13.1213 0 13.0068C0 12.6358 0 12.2647 0 11.8937C0.147358 11.5256 0.438549 11.3266 0.787276 11.1628C2.93189 10.1565 5.07121 9.13852 7.2123 8.12463C7.844 7.8258 8.12345 7.87453 8.6213 8.37179C8.88725 8.63715 9.1532 8.9031 9.43617 9.18607C9.60055 8.92189 9.73793 8.6988 9.87824 8.47688C11.2015 6.38628 12.9258 4.6949 15.0358 3.41447C18.3927 1.37788 22.0919 0.445008 25.969 0.113307C26.3571 0.0816044 26.7428 0.0387474 27.1296 0ZM10.8463 17.8984C10.9409 17.808 11.0189 17.7363 11.0935 17.6618C11.9706 16.7853 12.8471 15.9082 13.7248 15.0317C13.8076 14.9489 13.8904 14.8637 13.9849 14.7962C14.2825 14.5819 14.6054 14.5602 14.9225 14.7334C15.253 14.9136 15.4326 15.216 15.3551 15.5853C15.3088 15.8084 15.1808 16.0444 15.0211 16.2087C14.1369 17.1199 13.2322 18.0099 12.3352 18.9082C12.2612 18.9821 12.1902 19.0602 12.0951 19.1606C12.7638 19.8263 13.4172 20.4821 14.0818 21.1262C14.1375 21.1802 14.2808 21.1884 14.3665 21.162C15.4925 20.8144 16.6344 20.508 17.734 20.0905C19.3772 19.4671 20.8725 18.5659 22.2152 17.4258C24.4696 15.5101 25.8692 13.0373 26.8308 10.2869C27.5259 8.29723 27.9193 6.2401 28.113 4.14539C28.1852 3.36222 28.214 2.57436 28.2639 1.76359C28.106 1.76359 28.0003 1.75596 27.8964 1.76477C26.7392 1.8587 25.5756 1.90567 24.4267 2.06066C21.5917 2.44344 18.8782 3.23365 16.379 4.66437C14.4252 5.78276 12.8013 7.26103 11.5485 9.14028C10.3062 11.0043 9.49957 13.0502 8.92541 15.2048C8.80271 15.6651 8.84674 15.9633 9.21425 16.2857C9.78431 16.787 10.298 17.3506 10.8463 17.8984ZM2.06242 20.6007C2.12817 20.5467 2.16575 20.5209 2.19686 20.4898C3.7632 18.924 5.33012 17.3588 6.89175 15.789C6.96866 15.7115 7.0262 15.597 7.05144 15.4902C7.4125 13.9608 7.88158 12.4673 8.50506 11.0231C8.54204 10.9373 8.51152 10.7747 8.44929 10.7025C8.23911 10.4595 8.00956 10.2311 7.7671 10.0209C7.69606 9.95926 7.53285 9.92873 7.45066 9.96748C5.61485 10.8252 3.78374 11.6917 1.95674 12.5683C1.87338 12.6082 1.78884 12.7561 1.79177 12.8512C1.85694 15.0645 1.93385 17.2778 2.01017 19.4911C2.0225 19.8469 2.04363 20.2033 2.06242 20.6007ZM9.37276 27.9363C9.49723 27.9445 9.55359 27.9498 9.60995 27.9516C12.1156 28.0396 14.6219 28.1248 17.1275 28.221C17.3277 28.2287 17.3958 28.1412 17.4686 27.9874C18.1948 26.4445 18.9269 24.9052 19.6555 23.3635C19.8093 23.0383 20.1128 22.6784 20.0577 22.3901C19.999 22.0854 19.5886 21.8524 19.3426 21.5776C19.2193 21.4402 19.1095 21.422 18.9381 21.4978C17.5262 22.1224 16.0614 22.5856 14.5579 22.9344C14.4082 22.969 14.2544 23.0659 14.1428 23.1757C13.1289 24.1766 12.1244 25.1864 11.117 26.1938C10.5516 26.7586 9.98627 27.3234 9.37276 27.9363Z" fill="#FFC900"/>
<path d="M24.1646 9.29426C24.1616 11.2093 22.6006 12.7668 20.6984 12.7528C18.7963 12.7387 17.2616 11.2034 17.2481 9.30189C17.2346 7.39974 18.791 5.8381 20.7049 5.834C22.6188 5.8293 24.1675 7.37861 24.1646 9.29426ZM22.4045 9.28839C22.4033 8.35199 21.6495 7.597 20.7137 7.59407C19.782 7.59113 19.0205 8.34318 19.0088 9.27899C18.9971 10.2089 19.7879 11.0021 20.719 10.9927C21.6524 10.9827 22.4062 10.2213 22.4045 9.28839Z" fill="#FFC900"/>
</svg>
