<svg width="330" height="208" viewBox="0 0 330 208" fill="none" xmlns="http://www.w3.org/2000/svg">
<g opacity="0.4" filter="url(#filter0_f_14580_2625)">
<circle cx="98.5" cy="98.5" r="38.5" fill="#FFC900"/>
</g>
<g opacity="0.4" filter="url(#filter1_f_14580_2625)">
<ellipse cx="257" cy="135.5" rx="23" ry="22.5" fill="#1FA3FF"/>
</g>
<path d="M241.316 93.2261L111.76 93.2078C108.696 93.2074 106.211 95.6916 106.21 98.7565L106.206 131.605C106.205 134.67 108.689 137.155 111.754 137.156L241.309 137.174C244.374 137.174 246.859 134.69 246.86 131.625L246.864 98.7764C246.865 95.7115 244.38 93.2265 241.316 93.2261Z" fill="#181818"/>
<path d="M241.288 89.8394L111.733 89.8211C108.668 89.8207 106.183 92.3049 106.183 95.3698L106.178 128.219C106.178 131.284 108.662 133.769 111.727 133.769L241.282 133.787C244.347 133.788 246.832 131.303 246.832 128.239L246.837 95.3896C246.837 92.3247 244.353 89.8398 241.288 89.8394Z" fill="white" stroke="black" stroke-width="2" stroke-miterlimit="10"/>
<path opacity="0.89" d="M153.116 103.556L177.416 103.524" stroke="#181818" stroke-width="3" stroke-miterlimit="10"/>
<path opacity="0.89" d="M153.333 113.007L227.371 112.643" stroke="#181818" stroke-width="3" stroke-miterlimit="10"/>
<path d="M148 110C148 118.255 141.09 125 132.5 125C123.91 125 117 118.255 117 110C117 101.745 123.91 95 132.5 95C141.09 95 148 101.745 148 110Z" stroke="#181818" stroke-width="2"/>
<path d="M132.494 116H125.76C124.713 116 124.011 115.392 124.007 114.453C123.998 111.678 123.998 108.903 124.007 106.127C124.006 105.931 124.048 105.737 124.131 105.556C124.214 105.375 124.336 105.21 124.49 105.072C124.644 104.935 124.826 104.826 125.027 104.753C125.228 104.68 125.443 104.644 125.659 104.647C126.793 104.647 127.928 104.638 129.06 104.647C129.322 104.647 129.397 104.585 129.377 104.354C129.352 104.09 129.377 103.82 129.377 103.548C129.377 103.131 129.523 103.002 129.994 103C130.958 103 131.921 103 132.885 103C133.596 103 134.308 103 135.028 103C135.474 103 135.616 103.137 135.622 103.538C135.622 103.785 135.622 104.032 135.622 104.278C135.622 104.633 135.622 104.634 136 104.634C137.101 104.634 138.2 104.634 139.301 104.634C139.525 104.628 139.749 104.663 139.958 104.738C140.167 104.813 140.357 104.927 140.515 105.071C140.673 105.216 140.797 105.389 140.878 105.579C140.96 105.769 140.997 105.972 140.988 106.175C140.988 108.9 140.976 111.624 140.999 114.348C141.008 114.568 140.967 114.787 140.878 114.992C140.79 115.197 140.655 115.383 140.482 115.538C140.31 115.693 140.104 115.814 139.877 115.893C139.65 115.972 139.408 116.007 139.165 115.997C136.945 115.96 134.72 115.985 132.499 115.985L132.494 116ZM132.46 115.205C134.683 115.205 136.905 115.189 139.126 115.215C139.823 115.223 140.126 114.835 140.115 114.311C140.09 113.2 140.115 112.09 140.106 110.981C140.106 110.507 140.106 110.034 140.106 109.562C140.106 109.391 140.085 109.314 139.861 109.377C139.589 109.447 139.312 109.501 139.032 109.538C137.704 109.744 136.376 109.952 135.046 110.142C134.795 110.179 134.701 110.254 134.72 110.489C134.745 110.785 134.729 111.085 134.72 111.384C134.72 111.812 134.587 111.938 134.117 111.94C133.019 111.94 131.918 111.94 130.817 111.94C130.399 111.94 130.257 111.804 130.252 111.413C130.252 111.09 130.236 110.768 130.252 110.457C130.266 110.249 130.179 110.184 129.96 110.15C128.36 109.902 126.747 109.649 125.145 109.375C124.887 109.332 124.868 109.394 124.869 109.588C124.869 111.2 124.882 112.796 124.869 114.399C124.863 114.509 124.883 114.618 124.927 114.719C124.971 114.821 125.038 114.913 125.125 114.989C125.211 115.066 125.314 115.124 125.427 115.162C125.541 115.199 125.661 115.214 125.782 115.205C128.015 115.196 130.238 115.205 132.46 115.205ZM140.106 107.265C140.106 106.925 140.106 106.586 140.106 106.248C140.106 105.71 139.811 105.442 139.228 105.442H125.76C125.182 105.442 124.884 105.714 124.871 106.248C124.871 106.709 124.871 107.172 124.871 107.634C124.871 107.911 124.763 108.279 124.916 108.44C125.069 108.601 125.485 108.637 125.792 108.687C127.195 108.916 128.602 109.13 130.006 109.351C130.161 109.375 130.246 109.37 130.254 109.182C130.264 108.816 130.39 108.714 130.801 108.713C131.933 108.706 133.067 108.706 134.201 108.713C134.537 108.713 134.702 108.838 134.704 109.132C134.704 109.349 134.777 109.388 134.996 109.353C136.632 109.078 138.268 108.81 139.905 108.547C140.069 108.519 140.099 108.443 140.097 108.313C140.102 107.963 140.106 107.613 140.106 107.265ZM132.478 111.134C132.864 111.134 133.248 111.134 133.632 111.134C133.788 111.134 133.856 111.095 133.852 110.942C133.852 110.523 133.852 110.102 133.852 109.681C133.852 109.548 133.796 109.502 133.653 109.502C132.883 109.502 132.115 109.502 131.342 109.502C131.164 109.502 131.136 109.573 131.137 109.71C131.137 110.12 131.146 110.531 131.137 110.94C131.137 111.087 131.192 111.14 131.354 111.137C131.733 111.135 132.106 111.14 132.478 111.14V111.134ZM132.458 104.641C133.026 104.641 133.591 104.641 134.156 104.641C134.722 104.641 134.725 104.641 134.75 104.104C134.763 103.833 134.638 103.808 134.395 103.809C133.218 103.817 132.041 103.809 130.863 103.809C130.239 103.809 130.254 103.809 130.238 104.377C130.238 104.614 130.335 104.644 130.554 104.641C131.192 104.641 131.825 104.647 132.458 104.647V104.641Z" fill="#181818"/>
<path d="M255.875 120.65L248.238 113.012L250.512 110.738L255.875 116.1L269.525 102.45C266.437 99.3625 262.213 97.25 257.5 97.25C248.562 97.25 241.25 104.562 241.25 113.5C241.25 122.438 248.562 129.75 257.5 129.75C266.438 129.75 273.75 122.438 273.75 113.5C273.75 110.413 272.938 107.65 271.475 105.213L255.875 120.65Z" fill="#1FA3FF"/>
<defs>
<filter id="filter0_f_14580_2625" x="0" y="0" width="197" height="197" filterUnits="userSpaceOnUse" color-interpolation-filters="sRGB">
<feFlood flood-opacity="0" result="BackgroundImageFix"/>
<feBlend mode="normal" in="SourceGraphic" in2="BackgroundImageFix" result="shape"/>
<feGaussianBlur stdDeviation="30" result="effect1_foregroundBlur_14580_2625"/>
</filter>
<filter id="filter1_f_14580_2625" x="184" y="63" width="146" height="145" filterUnits="userSpaceOnUse" color-interpolation-filters="sRGB">
<feFlood flood-opacity="0" result="BackgroundImageFix"/>
<feBlend mode="normal" in="SourceGraphic" in2="BackgroundImageFix" result="shape"/>
<feGaussianBlur stdDeviation="25" result="effect1_foregroundBlur_14580_2625"/>
</filter>
</defs>
</svg>
