<svg width="16" height="16" viewBox="0 0 16 16" fill="none" xmlns="http://www.w3.org/2000/svg">
<g clip-path="url(#clip0_11387_527)">
<path d="M9.33203 3.99992V2.66659H6.66536V3.99992H9.33203ZM2.66536 5.33325V12.6666H13.332V5.33325H2.66536ZM13.332 3.99992C14.072 3.99992 14.6654 4.59325 14.6654 5.33325V12.6666C14.6654 13.4066 14.072 13.9999 13.332 13.9999H2.66536C1.92536 13.9999 1.33203 13.4066 1.33203 12.6666L1.3387 5.33325C1.3387 4.59325 1.92536 3.99992 2.66536 3.99992H5.33203V2.66659C5.33203 1.92659 5.92536 1.33325 6.66536 1.33325H9.33203C10.072 1.33325 10.6654 1.92659 10.6654 2.66659V3.99992H13.332Z" fill="#E57128"/>
</g>
<defs>
<clipPath id="clip0_11387_527">
<rect width="16" height="16" fill="white"/>
</clipPath>
</defs>
</svg>
