<svg width="24" height="24" viewBox="0 0 24 24" fill="none" xmlns="http://www.w3.org/2000/svg">
<g clip-path="url(#clip0_9132_372)">
<path d="M12 2C7.04148 2 3 6.04148 3 11C3 15.9585 7.04148 20 12 20V23.0918L13.5391 22.1055C15.7749 20.6714 19.8521 17.5753 20.7988 12.8828C20.9284 12.2776 21 11.6478 21 11C21 6.04148 16.9585 2 12 2ZM12 4C15.8775 4 19 7.12252 19 11C19 11.5042 18.9446 11.9954 18.8418 12.4727L18.8398 12.4805L18.8379 12.4863C18.2437 15.4344 15.9716 17.6052 14 19.1387V17.7988L12.875 17.9395C12.5741 17.9771 12.2839 18 12 18C8.12252 18 5 14.8775 5 11C5 7.12252 8.12252 4 12 4Z" fill="#E57128"/>
<circle cx="19.7692" cy="18.7692" r="3.26923" fill="#F66B0E" stroke="#F77A27"/>
<g filter="url(#filter0_f_9132_372)">
<circle cx="19.7692" cy="18.7692" r="2.76923" fill="#F66B0E"/>
</g>
</g>
<defs>
<filter id="filter0_f_9132_372" x="12" y="11" width="15.5391" height="15.5386" filterUnits="userSpaceOnUse" color-interpolation-filters="sRGB">
<feFlood flood-opacity="0" result="BackgroundImageFix"/>
<feBlend mode="normal" in="SourceGraphic" in2="BackgroundImageFix" result="shape"/>
<feGaussianBlur stdDeviation="2.5" result="effect1_foregroundBlur_9132_372"/>
</filter>
<clipPath id="clip0_9132_372">
<rect width="24" height="24" fill="white"/>
</clipPath>
</defs>
</svg>
