<svg width="64" height="64" viewBox="0 0 64 64" fill="none" xmlns="http://www.w3.org/2000/svg">
<rect width="64" height="64" rx="8" fill="#FFC900"/>
<path d="M37.611 31.2992C40.6244 31.2992 43.647 31.2992 46.7424 31.2992C46.7424 32.7152 46.7424 34.0651 46.7424 35.4958C43.7089 35.4958 40.6899 35.4958 37.5727 35.4958C37.5727 40.472 37.5727 45.3712 37.5727 50.3401C36.1352 50.3401 34.7958 50.3401 33.3637 50.3401C33.3637 50.0558 33.3637 49.7898 33.3637 49.5238C33.3637 43.4453 33.3564 37.3649 33.3673 31.2863C33.3728 28.6047 34.0843 26.1615 35.8877 24.1182C37.6765 22.0933 39.973 21.0955 42.6079 20.9084C44.0474 20.8057 45.5013 20.89 47.0008 20.89C47.0008 22.2767 47.0008 23.6047 47.0008 25.0518C46.009 25.0518 45.0446 25.0097 44.0874 25.0647C43.1866 25.116 42.2567 25.1491 41.3996 25.3967C38.8848 26.1267 37.3507 28.5552 37.611 31.2992Z" fill="white"/>
<path d="M28.7675 50.3492C23.1919 50.8444 18.295 46.7505 18.1148 41.1745C17.9201 35.1033 18.0366 29.021 18.0165 22.9425C18.0147 22.2803 18.0165 21.6163 18.0165 20.9102C19.4141 20.9102 20.7061 20.9102 22.1109 20.9102C22.1109 23.6743 22.1109 26.433 22.1109 29.2815C24.3256 29.2815 26.431 29.2815 28.5983 29.2815C28.5983 30.7213 28.5983 32.0713 28.5983 33.5203C26.451 33.5203 24.3456 33.5203 22.322 33.5203C22.322 36.2973 22.1073 38.9954 22.3821 41.6422C22.6605 44.3128 24.8314 45.9911 27.5501 46.1855C27.9377 46.2131 28.3253 46.2296 28.7657 46.2534C28.7675 47.6291 28.7675 48.957 28.7675 50.3492Z" fill="white"/>
<path d="M28.5333 25.271C30.4758 18.5319 39.6645 13.8077 45.7602 15.8037C45.436 16.6189 45.1132 17.4291 44.8013 18.2101C38.4079 17.7002 34.0767 20.1787 30.9624 26.1098C30.1757 25.8391 29.3757 25.5632 28.5333 25.271Z" fill="white"/>
</svg>
