<svg width="78" height="21" viewBox="0 0 78 21" fill="none" xmlns="http://www.w3.org/2000/svg">
<path d="M75.3832 4.59956C76.1564 4.59956 76.8958 4.59956 77.666 4.59956C77.1817 6.92306 76.7043 9.21778 76.2239 11.5125C76.0512 12.3373 75.8934 13.1651 75.6949 13.9829C75.4001 15.2027 74.5237 15.9193 73.2999 15.9808C72.0255 16.0454 70.9953 15.4181 70.5973 14.234C70.1973 13.046 69.8777 11.8301 69.5263 10.6262C69.3139 9.89667 69.1273 9.15922 68.8842 8.44063C68.8177 8.24312 68.5894 8.0992 68.4355 7.93047C68.2837 8.10218 68.0534 8.25007 67.9929 8.44857C67.4351 10.2976 66.9219 12.1606 66.3661 14.0107C65.8986 15.566 64.5548 16.3074 63.0005 15.8895C62.0824 15.6434 61.4243 15.0558 61.2209 14.1308C60.5261 10.9706 59.8819 7.79847 59.207 4.57673C59.9336 4.57673 60.6244 4.56184 61.3122 4.5936C61.4134 4.59856 61.5613 4.81295 61.5911 4.9519C62.1598 7.61683 62.7146 10.2847 63.2724 12.9527C63.2893 13.033 63.2843 13.1313 63.329 13.1919C63.463 13.3715 63.6178 13.5373 63.7637 13.709C63.9255 13.5482 64.1756 13.4142 64.2352 13.2206C64.6322 11.9433 64.9875 10.654 65.3567 9.36864C65.5215 8.79695 65.6763 8.22327 65.857 7.65654C66.254 6.40794 67.2415 5.64766 68.4445 5.64766C69.7189 5.64667 70.6082 6.31166 71.0121 7.64165C71.555 9.42621 72.0602 11.2227 72.5813 13.0142C72.6141 13.1254 72.619 13.2633 72.6895 13.3387C72.8235 13.4807 72.9892 13.6663 73.155 13.6802C73.2681 13.6901 73.4756 13.4588 73.5163 13.302C73.6939 12.6152 73.8309 11.9174 73.9758 11.2227C74.4175 9.10463 74.8562 6.98559 75.2979 4.86754C75.3157 4.78714 75.3475 4.71072 75.3832 4.59956Z" fill="#F9C802"/>
<path d="M23.9518 13.4686C24.9304 14.1207 25.921 14.2488 26.9681 14.1187C28.4082 13.9411 29.3591 13.0855 29.63 11.6563C29.8335 10.5854 29.8018 9.51839 29.4335 8.47921C29.1636 7.71894 28.6445 7.18099 27.8911 6.9011C26.8291 6.50607 25.7413 6.48622 24.6932 6.91102C23.4248 7.42515 22.8968 8.48715 22.8799 9.78836C22.8461 12.3669 22.866 14.9475 22.865 17.5261C22.864 18.6139 22.865 19.7027 22.865 20.8243C22.1067 20.8243 21.3871 20.8243 20.6209 20.8243C20.612 20.6972 20.5941 20.5553 20.5941 20.4133C20.5931 16.9415 20.5673 13.4686 20.613 9.99679C20.6239 9.20376 20.7589 8.36408 21.0497 7.6306C21.8596 5.586 23.4873 4.56271 25.6381 4.39497C26.3706 4.3374 27.1358 4.37909 27.8534 4.52797C30.0955 4.99346 31.5645 6.65694 31.9009 8.98639C32.0727 10.1764 32.0687 11.3615 31.7759 12.5317C31.2181 14.7649 29.2995 16.338 26.9889 16.4829C26.0718 16.5405 25.1686 16.4661 24.3111 16.1207C24.1583 16.0591 23.9756 15.8428 23.9677 15.6899C23.931 14.9842 23.9518 14.2726 23.9518 13.4686Z" fill="#F9C802"/>
<path d="M18.2954 15.9771C17.6106 15.9771 16.9019 15.9771 16.1238 15.9771C16.1238 15.7896 16.1238 15.6149 16.1238 15.4402C16.1238 13.6705 16.1377 11.9018 16.1148 10.1322C16.1089 9.65872 16.0463 9.17139 15.9153 8.7178C15.6335 7.74612 14.9794 7.09502 14.0047 6.80521C13.1293 6.54516 12.238 6.54417 11.3636 6.80024C10.3066 7.1109 9.65447 7.83644 9.39344 8.89745C9.16814 9.81057 9.16317 10.7356 9.39146 11.6477C9.68227 12.808 10.4167 13.5415 11.5919 13.8204C12.7164 14.0874 13.7308 13.9385 15.034 13.2814C15.034 14.0774 15.0439 14.8447 15.0211 15.6119C15.0181 15.7072 14.8553 15.8402 14.7392 15.8838C11.6276 17.063 7.27738 15.7022 7.01237 11.0165C6.96374 10.153 7.01535 9.25476 7.19996 8.41111C7.71309 6.06677 9.58698 4.5353 11.9909 4.38046C13.176 4.30404 14.3392 4.39039 15.426 4.92735C17.0607 5.73427 18.1326 7.06624 18.2557 8.84981C18.4175 11.1991 18.2954 13.5673 18.2954 15.9771Z" fill="#F9C802"/>
<path d="M46.9521 10.2976C46.968 8.36115 47.4643 6.6282 49.1 5.40938C51.9297 3.30125 56.4923 4.32157 57.8263 7.39641C58.653 9.30107 58.6659 11.2822 57.8144 13.1769C56.8149 15.4001 54.9172 16.2398 52.5798 16.212C49.0841 16.1703 46.9631 13.9282 46.9521 10.2976ZM52.688 6.63912C50.9123 6.63515 49.7223 7.39939 49.4206 8.90902C49.2627 9.70007 49.2479 10.5586 49.365 11.3576C49.5823 12.8404 50.4329 13.6344 51.8969 13.8687C52.3793 13.9461 52.8904 13.9451 53.3768 13.8836C54.8259 13.7009 55.7628 12.8176 55.999 11.3874C56.0943 10.8087 56.1151 10.1983 56.0526 9.6157C55.8363 7.60584 54.7226 6.64408 52.688 6.63912Z" fill="#F9C802"/>
<path d="M36.1098 5.65023C37.7535 5.65023 39.4021 5.65023 41.0903 5.65023C41.0903 6.41646 41.0903 7.14696 41.0903 7.92113C39.4358 7.92113 37.7892 7.92113 36.089 7.92113C36.089 10.6139 36.089 13.2649 36.089 15.9536C35.3049 15.9536 34.5744 15.9536 33.7933 15.9536C33.7933 15.7998 33.7933 15.6559 33.7933 15.512C33.7933 12.2227 33.7893 8.93251 33.7953 5.64328C33.7983 4.19221 34.1863 2.87016 35.1699 1.76449C36.1456 0.668739 37.3981 0.128805 38.8353 0.0275674C39.6204 -0.028014 40.4134 0.0176422 41.2313 0.0176422C41.2313 0.767992 41.2313 1.48658 41.2313 2.26968C40.6904 2.26968 40.1643 2.24686 39.6422 2.27663C39.1509 2.30442 38.6438 2.32229 38.1763 2.45628C36.8046 2.8513 35.9679 4.16541 36.1098 5.65023Z" fill="#F9C802"/>
<path d="M45.3723 20.9298C44.6964 20.9298 44.0393 20.9487 43.3862 20.908C43.2939 20.902 43.151 20.6003 43.15 20.4345C43.1332 18.3195 43.1371 16.2044 43.1371 14.0883C43.1371 9.56041 43.1391 5.03251 43.1401 0.504605C43.1401 0.359696 43.1401 0.213795 43.1401 0.0361328C43.9014 0.0361328 44.62 0.0361328 45.3723 0.0361328C45.3723 6.97786 45.3723 13.9226 45.3723 20.9298Z" fill="#F9C802"/>
<path d="M5.87287 15.9564C2.83177 16.2244 0.160882 14.0091 0.0626221 10.9918C-0.0435782 7.70653 0.0199435 4.41532 0.00902573 1.12609C0.00803321 0.767784 0.00902573 0.40849 0.00902573 0.0263672C0.771286 0.0263672 1.47598 0.0263672 2.24221 0.0263672C2.24221 1.5221 2.24221 3.01486 2.24221 4.55626C3.45011 4.55626 4.59847 4.55626 5.78056 4.55626C5.78056 5.33539 5.78056 6.06589 5.78056 6.84998C4.60938 6.84998 3.46103 6.84998 2.35734 6.84998C2.35734 8.35267 2.24022 9.81267 2.3901 11.2449C2.54195 12.69 3.72604 13.5982 5.20887 13.7034C5.42028 13.7183 5.63169 13.7272 5.87188 13.7401C5.87287 14.4845 5.87287 15.2031 5.87287 15.9564Z" fill="#F9C802"/>
<path d="M7.39355 2.92178C10.1022 0.241962 15.7347 0.416646 18.1148 2.96049C17.7446 3.26123 17.3764 3.55998 17.0211 3.84781C14.106 1.92926 11.3845 1.96598 8.3305 3.95599C8.02679 3.62151 7.71811 3.28108 7.39355 2.92178Z" fill="#F9C802"/>
<path d="M49.251 18.7439C49.2639 18.6992 49.2649 18.6813 49.2738 18.6684C49.5021 18.3449 49.6688 17.8824 49.9805 17.7414C50.2574 17.6164 50.7011 17.8288 51.0623 17.927C53.2052 18.5126 56.8666 17.5667 58.2353 15.3921C58.2701 15.3365 58.3078 15.2819 58.3673 15.1936C58.7902 15.4705 59.1733 15.7206 59.5534 15.9688C57.9942 18.994 52.4519 20.6723 49.251 18.7439Z" fill="#F9C802"/>
</svg>
