<svg width="47" height="60" viewBox="0 0 47 60" fill="none" xmlns="http://www.w3.org/2000/svg">
<path d="M31.1365 29.6851C35.9216 29.6851 40.7212 29.6851 45.6364 29.6851C45.6364 31.9336 45.6364 34.0772 45.6364 36.349C40.8195 36.349 36.0256 36.349 31.0758 36.349C31.0758 44.2508 31.0758 52.0303 31.0758 59.9204C28.793 59.9204 26.6663 59.9204 24.3922 59.9204C24.3922 59.469 24.3922 59.0466 24.3922 58.6243C24.3922 48.9721 24.3806 39.3169 24.398 29.6647C24.4066 25.4065 25.5365 21.527 28.4 18.2824C31.2405 15.0669 34.8871 13.4825 39.0713 13.1854C41.3569 13.0223 43.6657 13.1563 46.0467 13.1563C46.0467 15.3582 46.0467 17.4669 46.0467 19.7649C44.4719 19.7649 42.9404 19.6979 41.4205 19.7853C39.9901 19.8668 38.5136 19.9192 37.1526 20.3124C33.1592 21.4716 30.7233 25.3279 31.1365 29.6851Z" fill="#F9C802"/>
<path d="M17.0979 59.9351C8.24423 60.7215 0.468382 54.2207 0.182314 45.3665C-0.126871 35.7259 0.0580623 26.0678 0.0262769 16.4156C0.0233874 15.3642 0.0262769 14.3098 0.0262769 13.1885C2.24547 13.1885 4.29707 13.1885 6.52783 13.1885C6.52783 17.5777 6.52783 21.9582 6.52783 26.4814C10.0444 26.4814 13.3877 26.4814 16.8292 26.4814C16.8292 28.7678 16.8292 30.9114 16.8292 33.2124C13.4195 33.2124 10.0762 33.2124 6.86302 33.2124C6.86302 37.622 6.52205 41.9064 6.95837 46.1092C7.40048 50.3499 10.8477 53.0149 15.1648 53.3236C15.7803 53.3673 16.3957 53.3935 17.095 53.4314C17.0979 55.6158 17.0979 57.7245 17.0979 59.9351Z" fill="#F9C802"/>
<path d="M16.7234 20.1118C19.8078 9.41086 34.3986 1.90912 44.0781 5.07872C43.5633 6.37311 43.0507 7.65961 42.5554 8.89987C32.4033 8.0902 25.5258 12.0257 20.5805 21.4438C19.3312 21.014 18.0609 20.5759 16.7234 20.1118Z" fill="#F9C802"/>
</svg>
