<svg width="43" height="57" viewBox="0 0 43 57" fill="none" xmlns="http://www.w3.org/2000/svg">
<path d="M29.0748 27.7203C33.5432 27.7203 38.025 27.7203 42.6148 27.7203C42.6148 29.8199 42.6148 31.8217 42.6148 33.9431C38.1168 33.9431 33.6403 33.9431 29.0181 33.9431C29.0181 41.3218 29.0181 48.5863 29.0181 55.9541C26.8865 55.9541 24.9005 55.9541 22.777 55.9541C22.777 55.5325 22.777 55.1382 22.777 54.7438C22.777 45.7305 22.7662 36.7145 22.7824 27.7012C22.7905 23.725 23.8455 20.1022 26.5195 17.0724C29.1719 14.0698 32.5772 12.5903 36.4843 12.3128C38.6186 12.1605 40.7746 12.2856 42.998 12.2856C42.998 14.3418 42.998 16.3109 42.998 18.4568C41.5274 18.4568 40.0973 18.3942 38.678 18.4758C37.3424 18.552 35.9635 18.6009 34.6926 18.9681C30.9636 20.0506 28.6889 23.6515 29.0748 27.7203Z" fill="#FFC900"/>
<path d="M15.9661 55.9676C7.69848 56.7019 0.437376 50.6314 0.170245 42.3633C-0.118472 33.3609 0.0542187 24.3422 0.0245375 15.3289C0.0218392 14.3471 0.0245375 13.3625 0.0245375 12.3154C2.09683 12.3154 4.01261 12.3154 6.0957 12.3154C6.0957 16.4141 6.0957 20.5046 6.0957 24.7284C9.37952 24.7284 12.5014 24.7284 15.7151 24.7284C15.7151 26.8634 15.7151 28.8652 15.7151 31.0138C12.5311 31.0138 9.4092 31.0138 6.4087 31.0138C6.4087 35.1315 6.0903 39.1322 6.49774 43.0569C6.91058 47.0168 10.1296 49.5054 14.1609 49.7937C14.7356 49.8345 15.3104 49.859 15.9634 49.8943C15.9661 51.9342 15.9661 53.9033 15.9661 55.9676Z" fill="#FFC900"/>
<path d="M15.6168 18.7812C18.4971 8.7886 32.122 1.78346 41.1607 4.74324C40.68 5.95194 40.2013 7.15327 39.7388 8.31143C30.2588 7.55537 23.8365 11.2304 19.2186 20.025C18.052 19.6236 16.8658 19.2145 15.6168 18.7812Z" fill="#FFC900"/>
</svg>
