<svg width="48" height="48" viewBox="0 0 48 48" fill="none" xmlns="http://www.w3.org/2000/svg">
<rect width="48" height="48" rx="14.1799" fill="#0E212F"/>
<path d="M22.528 32.168C21.616 32.168 20.784 32.056 20.032 31.832C19.296 31.592 18.648 31.256 18.088 30.824C17.544 30.376 17.112 29.848 16.792 29.24L18.52 27.056C18.68 27.408 18.936 27.752 19.288 28.088C19.64 28.424 20.08 28.696 20.608 28.904C21.136 29.112 21.736 29.216 22.408 29.216C23.064 29.216 23.632 29.12 24.112 28.928C24.592 28.736 24.96 28.472 25.216 28.136C25.488 27.784 25.624 27.36 25.624 26.864C25.624 26.336 25.456 25.888 25.12 25.52C24.8 25.152 24.32 24.872 23.68 24.68C23.04 24.488 22.256 24.392 21.328 24.392H20.536V21.992H21.376C22.528 21.992 23.448 21.792 24.136 21.392C24.84 20.992 25.192 20.424 25.192 19.688C25.192 19.24 25.072 18.856 24.832 18.536C24.592 18.2 24.272 17.952 23.872 17.792C23.472 17.616 23.032 17.528 22.552 17.528C21.752 17.528 21.04 17.72 20.416 18.104C19.808 18.472 19.344 18.952 19.024 19.544L16.936 17.216C17.288 16.704 17.768 16.272 18.376 15.92C18.984 15.552 19.664 15.264 20.416 15.056C21.184 14.848 21.976 14.744 22.792 14.744C23.928 14.744 24.936 14.944 25.816 15.344C26.696 15.728 27.384 16.256 27.88 16.928C28.376 17.6 28.624 18.368 28.624 19.232C28.624 19.872 28.488 20.456 28.216 20.984C27.96 21.512 27.592 21.952 27.112 22.304C26.632 22.656 26.064 22.912 25.408 23.072C26.112 23.184 26.728 23.448 27.256 23.864C27.8 24.264 28.216 24.776 28.504 25.4C28.808 26.008 28.96 26.672 28.96 27.392C28.96 28.4 28.672 29.256 28.096 29.96C27.536 30.664 26.768 31.208 25.792 31.592C24.832 31.976 23.744 32.168 22.528 32.168Z" fill="#1FA3FF"/>
</svg>
