<svg width="32" height="32" viewBox="0 0 32 32" fill="none" xmlns="http://www.w3.org/2000/svg">
<rect width="32" height="32" rx="16" fill="white"/>
<path d="M26 7.99902C25.22 8.46202 23.655 9.09302 22.735 9.27502C22.708 9.28202 22.686 9.29102 22.66 9.29802C21.847 8.49602 20.733 7.99902 19.5 7.99902C17.015 7.99902 15 10.014 15 12.499C15 12.63 14.989 12.871 15 12.999C11.647 12.999 9.095 11.243 7.265 8.99902C7.066 9.49902 6.979 10.289 6.979 11.031C6.979 12.432 8.074 13.808 9.779 14.661C9.465 14.742 9.119 14.8 8.759 14.8C8.178 14.8 7.563 14.647 7 14.183C7 14.2 7 14.216 7 14.234C7 16.192 9.078 17.525 10.926 17.896C10.551 18.117 9.795 18.139 9.426 18.139C9.166 18.139 8.246 18.02 8 17.974C8.514 19.579 10.368 20.481 12.135 20.513C10.753 21.597 9.794 21.999 6.964 21.999H6C7.788 23.145 10.065 24 12.347 24C19.777 24 24 18.337 24 12.999C24 12.913 23.998 12.733 23.995 12.552C23.995 12.534 24 12.517 24 12.499C24 12.472 23.992 12.446 23.992 12.419C23.989 12.283 23.986 12.156 23.983 12.09C24.773 11.52 25.458 10.809 26 9.99902C25.275 10.321 24.497 10.537 23.68 10.635C24.514 10.135 25.699 8.94302 26 7.99902Z" fill="#181818"/>
</svg>
