<svg width="48" height="48" viewBox="0 0 48 48" fill="none" xmlns="http://www.w3.org/2000/svg">
<rect width="48" height="48" rx="14.1799" fill="#0E212F"/>
<path d="M16.984 32C16.984 31.024 17.048 30.168 17.176 29.432C17.304 28.68 17.504 28.016 17.776 27.44C18.064 26.848 18.432 26.328 18.88 25.88C19.328 25.432 19.88 25.008 20.536 24.608C21.096 24.288 21.672 23.976 22.264 23.672C22.872 23.368 23.432 23.048 23.944 22.712C24.472 22.376 24.896 21.992 25.216 21.56C25.552 21.128 25.72 20.6 25.72 19.976C25.72 19.496 25.616 19.088 25.408 18.752C25.216 18.4 24.928 18.128 24.544 17.936C24.176 17.744 23.728 17.648 23.2 17.648C22.592 17.648 22.024 17.76 21.496 17.984C20.984 18.192 20.52 18.456 20.104 18.776C19.704 19.08 19.36 19.384 19.072 19.688L17.056 17.576C17.28 17.32 17.584 17.032 17.968 16.712C18.368 16.392 18.84 16.08 19.384 15.776C19.944 15.472 20.576 15.224 21.28 15.032C21.984 14.84 22.76 14.744 23.608 14.744C24.856 14.744 25.904 14.968 26.752 15.416C27.6 15.848 28.24 16.448 28.672 17.216C29.12 17.968 29.344 18.84 29.344 19.832C29.344 20.552 29.224 21.192 28.984 21.752C28.76 22.296 28.448 22.776 28.048 23.192C27.648 23.608 27.2 23.984 26.704 24.32C26.208 24.64 25.696 24.952 25.168 25.256C24.336 25.704 23.664 26.096 23.152 26.432C22.64 26.768 22.232 27.08 21.928 27.368C21.64 27.656 21.416 27.944 21.256 28.232C21.112 28.504 20.984 28.792 20.872 29.096H29.368V32H16.984Z" fill="#1FA3FF"/>
</svg>
