<svg width="16" height="16" viewBox="0 0 16 16" fill="none" xmlns="http://www.w3.org/2000/svg">
<g clip-path="url(#clip0_8707_381)">
<path d="M7.99203 1.33301C4.31203 1.33301 1.33203 4.31967 1.33203 7.99967C1.33203 11.6797 4.31203 14.6663 7.99203 14.6663C11.6787 14.6663 14.6654 11.6797 14.6654 7.99967C14.6654 4.31967 11.6787 1.33301 7.99203 1.33301ZM12.612 5.33301H10.6454C10.432 4.49967 10.1254 3.69967 9.72536 2.95967C10.952 3.37967 11.972 4.23301 12.612 5.33301ZM7.9987 2.69301C8.55203 3.49301 8.98536 4.37967 9.27203 5.33301H6.72536C7.01203 4.37967 7.44536 3.49301 7.9987 2.69301ZM2.8387 9.33301C2.73203 8.90634 2.66536 8.45967 2.66536 7.99967C2.66536 7.53967 2.73203 7.09301 2.8387 6.66634H5.09203C5.0387 7.10634 4.9987 7.54634 4.9987 7.99967C4.9987 8.45301 5.0387 8.89301 5.09203 9.33301H2.8387ZM3.38536 10.6663H5.35203C5.56536 11.4997 5.87203 12.2997 6.27203 13.0397C5.04536 12.6197 4.02536 11.773 3.38536 10.6663ZM5.35203 5.33301H3.38536C4.02536 4.22634 5.04536 3.37967 6.27203 2.95967C5.87203 3.69967 5.56536 4.49967 5.35203 5.33301ZM7.9987 13.3063C7.44536 12.5063 7.01203 11.6197 6.72536 10.6663H9.27203C8.98536 11.6197 8.55203 12.5063 7.9987 13.3063ZM9.5587 9.33301H6.4387C6.3787 8.89301 6.33203 8.45301 6.33203 7.99967C6.33203 7.54634 6.3787 7.09967 6.4387 6.66634H9.5587C9.6187 7.09967 9.66537 7.54634 9.66537 7.99967C9.66537 8.45301 9.6187 8.89301 9.5587 9.33301ZM9.72536 13.0397C10.1254 12.2997 10.432 11.4997 10.6454 10.6663H12.612C11.972 11.7663 10.952 12.6197 9.72536 13.0397ZM10.9054 9.33301C10.9587 8.89301 10.9987 8.45301 10.9987 7.99967C10.9987 7.54634 10.9587 7.10634 10.9054 6.66634H13.1587C13.2654 7.09301 13.332 7.53967 13.332 7.99967C13.332 8.45967 13.2654 8.90634 13.1587 9.33301H10.9054Z" fill="#181818"/>
</g>
<defs>
<clipPath id="clip0_8707_381">
<rect width="16" height="16" fill="white"/>
</clipPath>
</defs>
</svg>
