<svg width="24" height="24" viewBox="0 0 24 24" fill="none" xmlns="http://www.w3.org/2000/svg">
<g clip-path="url(#clip0_8701_2654)">
<path fill-rule="evenodd" clip-rule="evenodd" d="M3 9C3 8.44772 3.44772 8 4 8H20C20.5523 8 21 8.44772 21 9C21 9.55228 20.5523 10 20 10H4C3.44772 10 3 9.55228 3 9Z" fill="#1FA3FF"/>
<path fill-rule="evenodd" clip-rule="evenodd" d="M3 15C3 14.4477 3.44772 14 4 14H20C20.5523 14 21 14.4477 21 15C21 15.5523 20.5523 16 20 16H4C3.44772 16 3 15.5523 3 15Z" fill="#1FA3FF"/>
<path fill-rule="evenodd" clip-rule="evenodd" d="M12.7071 2.29289L12 3L11.2929 2.29289C11.6834 1.90237 12.3166 1.90237 12.7071 2.29289ZM12 21L11.2929 21.7071C11.6834 22.0976 12.3166 22.0976 12.7071 21.7071L12 21ZM12 4.63703C12.1873 4.92441 12.3959 5.27783 12.6056 5.69721C13.2944 7.07493 14 9.17276 14 12C14 14.8272 13.2944 16.9251 12.6056 18.3028C12.3959 18.7222 12.1873 19.0756 12 19.363C11.8127 19.0756 11.6041 18.7222 11.3944 18.3028C10.7056 16.9251 10 14.8272 10 12C10 9.17276 10.7056 7.07493 11.3944 5.69721C11.6041 5.27783 11.8127 4.92441 12 4.63703ZM11.2922 2.29362C11.2925 2.29325 11.2929 2.29289 12 3C12.7071 2.29289 12.7075 2.29325 12.7078 2.29362L12.7086 2.29442L12.7104 2.29622L12.7148 2.30068L12.7268 2.31299C12.7363 2.32271 12.7485 2.33545 12.7632 2.35122C12.7928 2.38274 12.8327 2.42637 12.8815 2.48212C12.979 2.5936 13.1122 2.7537 13.2688 2.9625C13.5818 3.37996 13.9897 3.99328 14.3944 4.80279C15.2056 6.42507 16 8.82724 16 12C16 15.1728 15.2056 17.5749 14.3944 19.1972C13.9897 20.0067 13.5818 20.62 13.2688 21.0375C13.1122 21.2463 12.979 21.4064 12.8815 21.5179C12.8327 21.5736 12.7928 21.6173 12.7632 21.6488C12.7485 21.6645 12.7363 21.6773 12.7268 21.687L12.7148 21.6993L12.7104 21.7038L12.7078 21.7064C12.7075 21.7067 12.7071 21.7071 12 21C11.2929 21.7071 11.2925 21.7067 11.2922 21.7064L11.2896 21.7038L11.2852 21.6993L11.2732 21.687C11.2637 21.6773 11.2515 21.6645 11.2368 21.6488C11.2072 21.6173 11.1673 21.5736 11.1185 21.5179C11.021 21.4064 10.8878 21.2463 10.7313 21.0375C10.4182 20.62 10.0103 20.0067 9.60557 19.1972C8.79443 17.5749 8 15.1728 8 12C8 8.82724 8.79443 6.42507 9.60557 4.80279C10.0103 3.99328 10.4182 3.37996 10.7313 2.9625C10.8878 2.7537 11.021 2.5936 11.1185 2.48212C11.1673 2.42637 11.2072 2.38274 11.2368 2.35122C11.2515 2.33545 11.2637 2.32271 11.2732 2.31299L11.2852 2.30068L11.2896 2.29622L11.2914 2.29442L11.2922 2.29362ZM12.7105 20.2963C12.7109 20.2967 12.7106 20.2964 12.7096 20.2954L12.7105 20.2963Z" fill="#1FA3FF"/>
<path fill-rule="evenodd" clip-rule="evenodd" d="M12 4C7.58172 4 4 7.58172 4 12C4 16.4183 7.58172 20 12 20C16.4183 20 20 16.4183 20 12C20 7.58172 16.4183 4 12 4ZM2 12C2 6.47715 6.47715 2 12 2C17.5228 2 22 6.47715 22 12C22 17.5228 17.5228 22 12 22C6.47715 22 2 17.5228 2 12Z" fill="#1FA3FF"/>
</g>
<defs>
<clipPath id="clip0_8701_2654">
<rect width="24" height="24" fill="white"/>
</clipPath>
</defs>
</svg>
