<svg width="45" height="42" viewBox="0 0 45 42" fill="none" xmlns="http://www.w3.org/2000/svg">
<path d="M2.43358 18.5166C3.69942 17.034 5.37728 16.3438 7.38598 16.5007C8.5038 16.5878 9.6104 16.808 10.7258 16.9459C12.2936 17.1382 13.8311 17.1232 15.2698 16.3571C16.6101 15.6409 16.7219 15.2266 15.9663 13.8725C14.2765 10.8459 13.9963 7.70045 15.1622 4.47958C15.5172 3.49784 16.0259 2.5792 16.8187 1.86683C19.4594 -0.497257 22.859 0.0437945 24.9092 3.1433C25.5186 4.0644 25.8722 5.09093 26.2566 6.11314C27.108 8.3905 27.8929 10.688 29.0362 12.8497C30.151 14.9649 31.7388 16.0446 34.2134 15.8491C36.8425 15.6432 39.4207 15.9645 41.7601 17.4085C43.888 18.7217 44.8862 20.5576 44.5116 22.6459C44.0997 24.9447 42.5978 26.1793 40.3919 26.6467C39.4755 26.8404 38.5436 26.9672 37.6117 27.094C36.0251 27.3144 34.5186 27.7707 33.0775 28.4551C31.1431 29.3721 29.7642 30.7642 29.0176 32.8169C27.8067 36.1302 25.7869 38.8 22.5622 40.4194C21.9494 40.7254 21.3102 40.9706 20.6319 41.0908C19.0688 41.3693 17.76 40.7668 16.9376 39.385C16.0898 37.9592 15.9122 36.3742 15.8412 34.7784C15.7875 33.5851 15.8129 32.3936 15.7933 31.2043C15.7781 30.4379 15.6203 29.6925 15.3375 28.9784C14.8196 27.6778 13.9689 27.1773 12.5958 27.4241C11.6386 27.5972 10.7055 27.882 9.74936 28.072C7.37161 28.5449 5.0793 28.3678 2.92177 27.0758C0.441359 25.5906 -0.22175 23.7414 0.809036 21.0996C1.17446 20.1484 1.70468 19.302 2.43358 18.5166ZM4.59929 20.378C4.12365 20.886 3.78011 21.3849 3.5313 21.9526C2.91322 23.3673 3.09901 23.8886 4.46587 24.6913C6.04961 25.619 7.71891 25.5892 9.42207 25.2503C10.4841 25.0383 11.535 24.7422 12.6058 24.6228C14.8373 24.3798 16.5537 25.3518 17.6273 27.3505C18.3518 28.7032 18.58 30.1532 18.6168 31.6547C18.6509 33.0267 18.6265 34.4099 18.7672 35.7711C19.0571 38.5381 19.7983 38.8718 22.0881 37.3764C24.161 36.0213 25.4289 34.0421 26.2666 31.7792C27.2849 29.0308 29.1769 27.1429 31.7718 25.8725C33.7946 24.8808 35.9326 24.2784 38.1654 23.9676C38.9153 23.8637 39.6749 23.7791 40.3711 23.4521C41.7937 22.7884 42.0459 21.2588 40.8771 20.1983C39.7503 19.1752 38.364 18.7316 36.8895 18.6279C35.6276 18.5393 34.356 18.564 33.0916 18.5686C30.7605 18.5795 28.9964 17.4801 27.5925 15.7004C26.8458 14.7521 26.2841 13.6933 25.8095 12.5852C24.907 10.4795 24.1205 8.33443 23.4084 6.16035C23.1699 5.43289 22.8874 4.72444 22.4269 4.10077C21.4031 2.70326 20.0241 2.5047 18.6586 3.53239C18.0552 3.98458 17.7581 4.63635 17.4756 5.29587C16.208 8.25088 17.1074 10.9264 18.6434 13.5346C19.7552 15.4243 19.3789 17.0445 17.5645 18.249C16.0265 19.2709 14.3203 19.7396 12.4549 19.7478C10.846 19.7521 9.28594 19.3705 7.70345 19.2128C6.43677 19.0934 5.32997 19.3555 4.59929 20.378Z" fill="#FFFCF3"/>
</svg>
