<svg width="12" height="13" viewBox="0 0 12 13" fill="none" xmlns="http://www.w3.org/2000/svg">
<mask id="mask0_17700_3951" style="mask-type:alpha" maskUnits="userSpaceOnUse" x="0" y="0" width="13" height="13">
<rect x="0.00195312" y="0.390625" width="12" height="12" fill="#D9D9D9"/>
</mask>
<g mask="url(#mask0_17700_3951)">
<path d="M2.00195 10.8906C1.72695 10.8906 1.49154 10.7927 1.2957 10.5969C1.09987 10.401 1.00195 10.1656 1.00195 9.89062V4.39062C1.00195 4.11562 1.09987 3.88021 1.2957 3.68438C1.49154 3.48854 1.72695 3.39062 2.00195 3.39062H4.00195V2.39062C4.00195 2.11563 4.09987 1.88021 4.2957 1.68438C4.49154 1.48854 4.72695 1.39062 5.00195 1.39062H7.00195C7.27695 1.39062 7.51237 1.48854 7.7082 1.68438C7.90404 1.88021 8.00195 2.11563 8.00195 2.39062V3.39062H10.002C10.277 3.39062 10.5124 3.48854 10.7082 3.68438C10.904 3.88021 11.002 4.11562 11.002 4.39062V9.89062C11.002 10.1656 10.904 10.401 10.7082 10.5969C10.5124 10.7927 10.277 10.8906 10.002 10.8906H2.00195ZM5.00195 3.39062H7.00195V2.39062H5.00195V3.39062Z" fill="#1C1B1F"/>
</g>
</svg>
