<svg width="16" height="16" viewBox="0 0 16 16" fill="none" xmlns="http://www.w3.org/2000/svg">
<mask id="mask0_17384_10287" style="mask-type:alpha" maskUnits="userSpaceOnUse" x="0" y="0" width="16" height="16">
<rect width="16" height="16" fill="#D9D9D9"/>
</mask>
<g mask="url(#mask0_17384_10287)">
<path d="M2.87115 13.064C2.53439 13.064 2.24935 12.9479 2.01602 12.7156C1.78268 12.4834 1.66602 12.1996 1.66602 11.8644V4.9733C1.66602 4.6381 1.78268 4.35436 2.01602 4.12211C2.24935 3.88985 2.53439 3.77372 2.87115 3.77372H5.66602V2.65074C5.66602 2.31554 5.78268 2.03182 6.01602 1.79956C6.24935 1.5673 6.53439 1.45117 6.87115 1.45117H9.12752C9.46427 1.45117 9.74932 1.5673 9.98265 1.79956C10.216 2.03182 10.3327 2.31554 10.3327 2.65074V3.77372H13.1275C13.4643 3.77372 13.7493 3.88985 13.9827 4.12211C14.216 4.35436 14.3327 4.6381 14.3327 4.9733V11.8644C14.3327 12.1996 14.216 12.4834 13.9827 12.7156C13.7493 12.9479 13.4643 13.064 13.1275 13.064H2.87115ZM2.87115 12.0686H13.1275C13.1788 12.0686 13.2258 12.0474 13.2686 12.0048C13.3113 11.9623 13.3327 11.9155 13.3327 11.8644V4.9733C13.3327 4.92225 13.3113 4.87545 13.2686 4.8329C13.2258 4.79036 13.1788 4.76909 13.1275 4.76909H2.87115C2.81986 4.76909 2.77284 4.79036 2.7301 4.8329C2.68737 4.87545 2.666 4.92225 2.666 4.9733V11.8644C2.666 11.9155 2.68737 11.9623 2.7301 12.0048C2.77284 12.0474 2.81986 12.0686 2.87115 12.0686ZM6.666 3.77372H9.33267V2.65074C9.33267 2.59968 9.3113 2.55289 9.26857 2.51035C9.22582 2.4678 9.17881 2.44653 9.12752 2.44653H6.87115C6.81986 2.44653 6.77284 2.4678 6.7301 2.51035C6.68737 2.55289 6.666 2.59968 6.666 2.65074V3.77372Z" fill="#181818"/>
</g>
</svg>
