<svg width="100" height="94" viewBox="0 0 100 94" fill="none" xmlns="http://www.w3.org/2000/svg">
<g clip-path="url(#clip0_17012_1554)">
<path d="M51.8786 93.0988C27.5081 93.0988 6.22412 75.1096 1.62001 51.1779C-2.9842 27.2463 16.0574 5.14453 40.4279 5.14453C64.7985 5.14453 88.3643 27.2463 92.9681 51.1779C97.5729 75.1096 76.2492 93.0988 51.8786 93.0988Z" fill="#FFC900" stroke="black" stroke-width="1.36585" stroke-linecap="round" stroke-linejoin="round"/>
<path d="M18.428 64.6289L60.5756 75.0729L80.0766 83.8342L72.8253 88.6682L63.5599 92.2935L55.1004 93.0993H47.8493L41.8067 91.891L35.3689 90.6364L27.4978 87.0752L18.428 79.8669L9.98242 70.5405L18.428 64.6289Z" fill="#FFE37A"/>
<path d="M51.8751 93.0988C27.5046 93.0988 6.2203 75.1096 1.6161 51.1779C-2.9881 27.2463 16.0535 5.14453 40.4241 5.14453C64.7946 5.14453 93.195 26.4665 97.7989 50.3981C102.403 74.3298 76.2457 93.0988 51.8751 93.0988Z" stroke="black" stroke-width="1.36585" stroke-linecap="round" stroke-linejoin="round"/>
<path d="M19.0797 63.8906L9.98438 70.5422" stroke="black" stroke-width="1.36585" stroke-linecap="round" stroke-linejoin="round"/>
<path d="M62.6231 87.5743C38.2526 87.5743 14.764 68.1738 10.1598 44.2422C5.55563 20.3106 21.5794 0.910156 45.9499 0.910156C70.3204 0.910156 93.8093 20.3106 98.4131 44.2422C103.017 68.1738 86.9936 87.5743 62.6231 87.5743Z" fill="#FFF6D7" stroke="black" stroke-width="1.36585" stroke-linecap="round" stroke-linejoin="round"/>
<path d="M59.7515 66.8039C46.7437 66.8039 34.2066 56.4489 31.7491 43.6753C29.2917 30.9019 37.8444 20.5469 50.8521 20.5469C63.8599 20.5469 76.3973 30.9019 78.854 43.6753C81.3116 56.4489 72.7592 66.8039 59.7515 66.8039Z" fill="white" stroke="black" stroke-width="1.36585" stroke-linecap="round" stroke-linejoin="round"/>
<mask id="mask0_17012_1554" style="mask-type:alpha" maskUnits="userSpaceOnUse" x="32" y="21" width="47" height="46">
<path d="M59.6226 66.1345C46.992 66.1345 34.8185 56.0797 32.4322 43.6766C30.046 31.2734 38.3507 21.2188 50.9813 21.2188C63.6119 21.2188 75.7856 31.2734 78.1713 43.6766C80.5579 56.0797 72.2532 66.1345 59.6226 66.1345Z" fill="#ECF5FF"/>
</mask>
<g mask="url(#mask0_17012_1554)">
<path fill-rule="evenodd" clip-rule="evenodd" d="M64.298 35.1442C65.8729 40.9698 62.6473 46.0885 57.093 46.5764L57.0927 46.5723C51.5344 47.06 45.7529 42.7223 44.1816 36.8888C42.6106 31.0593 45.8491 25.9491 51.4039 25.4694C56.9548 24.9934 62.7276 29.3227 64.298 35.1442ZM57.7396 48.9941C49.7986 49.6924 43.349 58.2185 48.0411 68.3299L76.8025 65.7728C76.0832 54.6217 65.6726 48.2994 57.7396 48.9941Z" fill="#FFE37A"/>
<path d="M57.0915 46.5774L56.406 46.548C56.4191 46.7417 56.5167 46.9295 56.6739 47.0636C56.831 47.1975 57.0324 47.2645 57.2266 47.2475L57.0915 46.5774ZM57.0913 46.5734L57.7768 46.6027C57.7638 46.4091 57.6662 46.2212 57.509 46.0872C57.3519 45.9533 57.1505 45.8862 56.9564 45.9032L57.0913 46.5734ZM48.0397 68.331L47.4191 68.5515C47.5544 68.8432 47.8663 69.0285 48.1753 69.0011L48.0397 68.331ZM76.8011 65.7738L76.9368 66.4438C77.2737 66.414 77.5086 66.1411 77.4867 65.8051L76.8011 65.7738ZM57.2266 47.2475C63.2129 46.7217 66.6268 41.2085 64.9598 35.0414L63.6334 35.2486C65.1158 40.7327 62.0787 45.4574 56.9566 45.9072L57.2266 47.2475ZM56.4057 46.544L56.406 46.548L57.7771 46.6067L57.7768 46.6027L56.4057 46.544ZM43.5169 36.993C45.1728 43.1408 51.2779 47.7653 57.2262 47.2435L56.9564 45.9032C51.788 46.3567 46.3302 42.3057 44.8436 36.7866L43.5169 36.993ZM51.2689 24.8001C45.2824 25.3172 41.8535 30.8211 43.5169 36.993L44.8436 36.7866C43.3649 31.2996 46.4134 26.5831 51.5364 26.1407L51.2689 24.8001ZM64.9598 35.0414C63.3044 28.9053 57.2085 24.2909 51.2689 24.8001L51.5364 26.1407C56.6987 25.698 62.1478 29.7419 63.6334 35.2486L64.9598 35.0414ZM48.6602 68.1104C44.175 58.4448 50.3359 50.3281 57.8732 49.6652L57.6034 48.325C49.2587 49.0589 42.5202 57.9942 47.4191 68.5515L48.6602 68.1104ZM76.6654 65.1037L47.904 67.6609L48.1753 69.0011L76.9368 66.4438L76.6654 65.1037ZM57.8732 49.6652C65.4646 49.0005 75.4261 55.0617 76.1154 65.7425L77.4867 65.8051C76.7364 54.1837 65.8781 47.6003 57.6034 48.325L57.8732 49.6652Z" fill="black"/>
</g>
</g>
<defs>
<clipPath id="clip0_17012_1554">
<rect width="100" height="94" fill="white"/>
</clipPath>
</defs>
</svg>
