<svg width="134" height="101" viewBox="0 0 134 101" fill="none" xmlns="http://www.w3.org/2000/svg">
<g clip-path="url(#clip0_12113_2292)">
<path d="M67.0052 5.66602C51.3652 5.66602 38.6719 18.3593 38.6719 33.9993C38.6719 49.6393 51.3652 62.3327 67.0052 62.3327C82.6452 62.3327 95.3385 49.6393 95.3385 33.9993C95.3385 18.3593 82.6452 5.66602 67.0052 5.66602ZM67.0052 56.666C54.5102 56.666 44.3385 46.4943 44.3385 33.9993C44.3385 21.5043 54.5102 11.3327 67.0052 11.3327C79.5002 11.3327 89.6719 21.5043 89.6719 33.9993C89.6719 46.4943 79.5002 56.666 67.0052 56.666ZM80.0102 21.476L61.3385 40.1477L54.0002 32.8377L50.0052 36.8327L61.3385 48.166L84.0052 25.4993L80.0102 21.476Z" fill="#469763"/>
</g>
<path d="M3.08 85.8L6.58 92.48L10.14 85.8H13.12L7.96 95.04V100H5.22V95L0.08 85.8H3.08ZM17.4272 100.2C16.5739 100.2 15.8072 100.06 15.1272 99.78C14.4472 99.4867 13.8672 99.0867 13.3872 98.58C12.9205 98.0733 12.5605 97.4933 12.3072 96.84C12.0539 96.1867 11.9272 95.5 11.9272 94.78C11.9272 94.0467 12.0539 93.3533 12.3072 92.7C12.5605 92.0467 12.9205 91.4667 13.3872 90.96C13.8672 90.4533 14.4472 90.06 15.1272 89.78C15.8072 89.4867 16.5739 89.34 17.4272 89.34C18.2805 89.34 19.0405 89.4867 19.7072 89.78C20.3872 90.06 20.9672 90.4533 21.4472 90.96C21.9272 91.4667 22.2872 92.0467 22.5272 92.7C22.7805 93.3533 22.9072 94.0467 22.9072 94.78C22.9072 95.5 22.7805 96.1867 22.5272 96.84C22.2872 97.4933 21.9272 98.0733 21.4472 98.58C20.9805 99.0867 20.4072 99.4867 19.7272 99.78C19.0472 100.06 18.2805 100.2 17.4272 100.2ZM14.6872 94.78C14.6872 95.3933 14.8072 95.94 15.0472 96.42C15.2872 96.8867 15.6139 97.2533 16.0272 97.52C16.4405 97.7867 16.9072 97.92 17.4272 97.92C17.9339 97.92 18.3939 97.7867 18.8072 97.52C19.2205 97.24 19.5472 96.8667 19.7872 96.4C20.0405 95.92 20.1672 95.3733 20.1672 94.76C20.1672 94.16 20.0405 93.62 19.7872 93.14C19.5472 92.66 19.2205 92.2867 18.8072 92.02C18.3939 91.7533 17.9339 91.62 17.4272 91.62C16.9072 91.62 16.4405 91.76 16.0272 92.04C15.6139 92.3067 15.2872 92.68 15.0472 93.16C14.8072 93.6267 14.6872 94.1667 14.6872 94.78ZM24.6161 96.08V89.52H27.2961V95.5C27.2961 96.3 27.4428 96.9067 27.7361 97.32C28.0294 97.72 28.4628 97.92 29.0361 97.92C29.3828 97.92 29.7228 97.8533 30.0561 97.72C30.4028 97.5733 30.7161 97.36 30.9961 97.08C31.2894 96.8 31.5361 96.4467 31.7361 96.02V89.52H34.4161V97C34.4161 97.28 34.4628 97.48 34.5561 97.6C34.6628 97.72 34.8294 97.7933 35.0561 97.82V100C34.7894 100.04 34.5628 100.067 34.3761 100.08C34.2028 100.107 34.0428 100.12 33.8961 100.12C33.4161 100.12 33.0228 100.013 32.7161 99.8C32.4228 99.5733 32.2494 99.2667 32.1961 98.88L32.1361 98.04C31.6694 98.7467 31.0694 99.2867 30.3361 99.66C29.6028 100.02 28.7961 100.2 27.9161 100.2C26.8361 100.2 26.0161 99.8533 25.4561 99.16C24.8961 98.4533 24.6161 97.4267 24.6161 96.08ZM41.1641 96.9C41.1641 96.22 41.3507 95.6267 41.7241 95.12C42.1107 94.6 42.6441 94.2 43.3241 93.92C44.0041 93.64 44.7841 93.5 45.6641 93.5C46.1041 93.5 46.5507 93.5333 47.0041 93.6C47.4574 93.6667 47.8507 93.7733 48.1841 93.92V93.36C48.1841 92.6933 47.9841 92.18 47.5841 91.82C47.1974 91.46 46.6174 91.28 45.8441 91.28C45.2707 91.28 44.7241 91.38 44.2041 91.58C43.6841 91.78 43.1374 92.0733 42.5641 92.46L41.7041 90.7C42.3974 90.2467 43.1041 89.9067 43.8241 89.68C44.5574 89.4533 45.3241 89.34 46.1241 89.34C47.6174 89.34 48.7774 89.7133 49.6041 90.46C50.4441 91.2067 50.8641 92.2733 50.8641 93.66V97C50.8641 97.28 50.9107 97.48 51.0041 97.6C51.1107 97.72 51.2774 97.7933 51.5041 97.82V100C51.2641 100.04 51.0441 100.073 50.8441 100.1C50.6574 100.127 50.4974 100.14 50.3641 100.14C49.8307 100.14 49.4241 100.02 49.1441 99.78C48.8774 99.54 48.7107 99.2467 48.6441 98.9L48.5841 98.36C48.1307 98.9467 47.5641 99.4 46.8841 99.72C46.2041 100.04 45.5107 100.2 44.8041 100.2C44.1107 100.2 43.4841 100.06 42.9241 99.78C42.3774 99.4867 41.9441 99.0933 41.6241 98.6C41.3174 98.0933 41.1641 97.5267 41.1641 96.9ZM47.6841 97.44C47.8307 97.28 47.9507 97.12 48.0441 96.96C48.1374 96.8 48.1841 96.6533 48.1841 96.52V95.46C47.8641 95.3267 47.5174 95.2267 47.1441 95.16C46.7707 95.08 46.4174 95.04 46.0841 95.04C45.3907 95.04 44.8174 95.1933 44.3641 95.5C43.9241 95.7933 43.7041 96.1867 43.7041 96.68C43.7041 96.9467 43.7774 97.2 43.9241 97.44C44.0707 97.68 44.2841 97.8733 44.5641 98.02C44.8441 98.1667 45.1774 98.24 45.5641 98.24C45.9641 98.24 46.3574 98.1667 46.7441 98.02C47.1307 97.86 47.4441 97.6667 47.6841 97.44ZM59.6084 91.84C58.7951 91.84 58.0684 92 57.4284 92.32C56.7884 92.6267 56.3284 93.0733 56.0484 93.66V100H53.3684V89.52H55.8284V91.76C56.2018 91.04 56.6751 90.4733 57.2484 90.06C57.8218 89.6467 58.4284 89.42 59.0684 89.38C59.2151 89.38 59.3284 89.38 59.4084 89.38C59.4884 89.38 59.5551 89.3867 59.6084 89.4V91.84ZM65.8261 100.2C64.9861 100.2 64.2261 100.06 63.5461 99.78C62.8661 99.4867 62.2861 99.0933 61.8061 98.6C61.3261 98.0933 60.9528 97.52 60.6861 96.88C60.4328 96.2267 60.3061 95.54 60.3061 94.82C60.3061 93.82 60.5261 92.9067 60.9661 92.08C61.4194 91.2533 62.0594 90.5933 62.8861 90.1C63.7261 89.5933 64.7128 89.34 65.8461 89.34C66.9928 89.34 67.9728 89.5933 68.7861 90.1C69.5994 90.5933 70.2194 91.2533 70.6461 92.08C71.0861 92.8933 71.3061 93.7733 71.3061 94.72C71.3061 94.88 71.2994 95.0467 71.2861 95.22C71.2728 95.38 71.2594 95.5133 71.2461 95.62H63.1461C63.1994 96.1533 63.3528 96.62 63.6061 97.02C63.8728 97.42 64.2061 97.7267 64.6061 97.94C65.0194 98.14 65.4594 98.24 65.9261 98.24C66.4594 98.24 66.9594 98.1133 67.4261 97.86C67.9061 97.5933 68.2328 97.2467 68.4061 96.82L70.7061 97.46C70.4528 97.9933 70.0861 98.4667 69.6061 98.88C69.1394 99.2933 68.5861 99.62 67.9461 99.86C67.3061 100.087 66.5994 100.2 65.8261 100.2ZM63.0861 93.92H68.5661C68.5128 93.3867 68.3594 92.9267 68.1061 92.54C67.8661 92.14 67.5461 91.8333 67.1461 91.62C66.7461 91.3933 66.2994 91.28 65.8061 91.28C65.3261 91.28 64.8861 91.3933 64.4861 91.62C64.0994 91.8333 63.7794 92.14 63.5261 92.54C63.2861 92.9267 63.1394 93.3867 63.0861 93.92ZM87.4834 100H84.8034V94.12C84.8034 93.3067 84.6434 92.7 84.3234 92.3C84.0168 91.9 83.5901 91.7 83.0434 91.7C82.7234 91.7 82.3834 91.7933 82.0234 91.98C81.6634 92.1667 81.3368 92.4267 81.0434 92.76C80.7634 93.08 80.5568 93.4533 80.4234 93.88V100H77.7434V85.4H80.4234V91.46C80.8101 90.7933 81.3368 90.2733 82.0034 89.9C82.6701 89.5267 83.3968 89.34 84.1834 89.34C84.8634 89.34 85.4168 89.46 85.8434 89.7C86.2701 89.9267 86.6034 90.24 86.8434 90.64C87.0834 91.0267 87.2501 91.4667 87.3434 91.96C87.4368 92.44 87.4834 92.94 87.4834 93.46V100ZM89.8138 100V89.52H92.4938V100H89.8138ZM89.8138 88.06V85.4H92.4938V88.06H89.8138ZM101.151 91.84C100.338 91.84 99.6114 92 98.9714 92.32C98.3314 92.6267 97.8714 93.0733 97.5914 93.66V100H94.9114V89.52H97.3714V91.76C97.7447 91.04 98.2181 90.4733 98.7914 90.06C99.3647 89.6467 99.9714 89.42 100.611 89.38C100.758 89.38 100.871 89.38 100.951 89.38C101.031 89.38 101.098 89.3867 101.151 89.4V91.84ZM107.369 100.2C106.529 100.2 105.769 100.06 105.089 99.78C104.409 99.4867 103.829 99.0933 103.349 98.6C102.869 98.0933 102.496 97.52 102.229 96.88C101.976 96.2267 101.849 95.54 101.849 94.82C101.849 93.82 102.069 92.9067 102.509 92.08C102.962 91.2533 103.602 90.5933 104.429 90.1C105.269 89.5933 106.256 89.34 107.389 89.34C108.536 89.34 109.516 89.5933 110.329 90.1C111.142 90.5933 111.762 91.2533 112.189 92.08C112.629 92.8933 112.849 93.7733 112.849 94.72C112.849 94.88 112.842 95.0467 112.829 95.22C112.816 95.38 112.802 95.5133 112.789 95.62H104.689C104.742 96.1533 104.896 96.62 105.149 97.02C105.416 97.42 105.749 97.7267 106.149 97.94C106.562 98.14 107.002 98.24 107.469 98.24C108.002 98.24 108.502 98.1133 108.969 97.86C109.449 97.5933 109.776 97.2467 109.949 96.82L112.249 97.46C111.996 97.9933 111.629 98.4667 111.149 98.88C110.682 99.2933 110.129 99.62 109.489 99.86C108.849 100.087 108.142 100.2 107.369 100.2ZM104.629 93.92H110.109C110.056 93.3867 109.902 92.9267 109.649 92.54C109.409 92.14 109.089 91.8333 108.689 91.62C108.289 91.3933 107.842 91.28 107.349 91.28C106.869 91.28 106.429 91.3933 106.029 91.62C105.642 91.8333 105.322 92.14 105.069 92.54C104.829 92.9267 104.682 93.3867 104.629 93.92ZM113.842 94.76C113.842 93.7467 114.042 92.8333 114.442 92.02C114.842 91.1933 115.395 90.54 116.102 90.06C116.808 89.58 117.615 89.34 118.522 89.34C119.295 89.34 119.988 89.5333 120.602 89.92C121.228 90.2933 121.715 90.7733 122.062 91.36V85.4H124.742V97C124.742 97.28 124.788 97.48 124.882 97.6C124.975 97.72 125.135 97.7933 125.362 97.82V100C124.895 100.093 124.515 100.14 124.222 100.14C123.742 100.14 123.342 100.02 123.022 99.78C122.715 99.54 122.542 99.2267 122.502 98.84L122.462 98.18C122.075 98.8333 121.548 99.3333 120.882 99.68C120.228 100.027 119.542 100.2 118.822 100.2C118.102 100.2 117.435 100.06 116.822 99.78C116.222 99.5 115.695 99.1133 115.242 98.62C114.802 98.1267 114.455 97.5533 114.202 96.9C113.962 96.2333 113.842 95.52 113.842 94.76ZM122.062 96.16V93.66C121.928 93.2733 121.715 92.9267 121.422 92.62C121.128 92.3133 120.802 92.0733 120.442 91.9C120.082 91.7133 119.722 91.62 119.362 91.62C118.948 91.62 118.575 91.7067 118.242 91.88C117.908 92.0533 117.615 92.2867 117.362 92.58C117.122 92.8733 116.935 93.2133 116.802 93.6C116.682 93.9867 116.622 94.3933 116.622 94.82C116.622 95.2467 116.688 95.6533 116.822 96.04C116.968 96.4133 117.175 96.74 117.442 97.02C117.708 97.3 118.015 97.52 118.362 97.68C118.722 97.84 119.108 97.92 119.522 97.92C119.775 97.92 120.028 97.88 120.282 97.8C120.548 97.7067 120.795 97.5867 121.022 97.44C121.262 97.28 121.468 97.0933 121.642 96.88C121.828 96.6533 121.968 96.4133 122.062 96.16ZM127.892 94.66V85.66H130.572V94.66H127.892ZM127.892 100V96.98H130.572V100H127.892Z" fill="#469763"/>
<defs>
<clipPath id="clip0_12113_2292">
<rect width="68" height="68" fill="white" transform="translate(33)"/>
</clipPath>
</defs>
</svg>
