<svg width="32" height="32" viewBox="0 0 32 32" fill="none" xmlns="http://www.w3.org/2000/svg">
<rect width="32" height="32" rx="16" fill="white"/>
<path d="M9.67969 6L11.1582 11.3438V13.9062H12.4395V11.3438L13.9375 6H12.6465L12.1094 8.43164C11.9584 9.14164 11.8624 9.64627 11.8184 9.94727H11.7793C11.7163 9.52627 11.6203 9.01787 11.4883 8.42188L10.9707 6H9.67969ZM15.4316 8.01758C14.9976 8.01758 14.6479 8.10239 14.3809 8.27539C14.1139 8.44739 13.917 8.72261 13.791 9.09961C13.666 9.47661 13.6035 9.97566 13.6035 10.5977V11.4375C13.6035 12.0525 13.6576 12.545 13.7676 12.916C13.8776 13.287 14.0632 13.5603 14.3242 13.7363C14.5852 13.9123 14.9443 14 15.4023 14C15.8483 14 16.2029 13.9132 16.4629 13.7402C16.7229 13.5672 16.9113 13.2959 17.0273 12.9219C17.1433 12.5479 17.2012 12.0535 17.2012 11.4375V10.5977C17.2012 9.97666 17.1424 9.47947 17.0234 9.10547C16.9044 8.73247 16.715 8.45725 16.457 8.28125C16.199 8.10525 15.8586 8.01758 15.4316 8.01758ZM17.8789 8.13086V12.4453C17.8789 12.9793 17.9684 13.372 18.1504 13.623C18.3324 13.874 18.615 14 18.998 14C19.55 14 19.9662 13.7332 20.2422 13.1992H20.2695L20.3828 13.9062H21.4004V8.13086H20.1016V12.7188C20.0516 12.8257 19.9751 12.9134 19.8711 12.9824C19.7671 13.0524 19.6599 13.0859 19.5469 13.0859C19.4149 13.0859 19.3207 13.0319 19.2637 12.9219C19.2067 12.8119 19.1777 12.6271 19.1777 12.3691V8.13086H17.8789ZM15.4023 8.91211C15.5843 8.91211 15.7132 9.00722 15.7852 9.19922C15.8572 9.39022 15.8926 9.69438 15.8926 10.1094V11.9082C15.8926 12.3352 15.8572 12.644 15.7852 12.832C15.7132 13.02 15.5853 13.1142 15.4043 13.1152C15.2223 13.1152 15.0963 13.02 15.0273 12.832C14.9573 12.644 14.9238 12.3352 14.9238 11.9082V10.1094C14.9238 9.69537 14.9592 9.39122 15.0312 9.19922C15.1032 9.00822 15.2263 8.91211 15.4023 8.91211ZM9 15C7.9 15 7 15.9 7 17V24C7 25.1 7.9 26 9 26H23C24.1 26 25 25.1 25 24V17C25 15.9 24.1 15 23 15H9ZM16.0488 17H17.1055V19.5684H17.1133C17.2083 19.3824 17.3445 19.2331 17.5195 19.1191C17.6945 19.0051 17.8839 18.9492 18.0859 18.9492C18.3459 18.9492 18.5493 19.0183 18.6973 19.1562C18.8453 19.2942 18.9535 19.5172 19.0195 19.8242C19.0855 20.1322 19.1172 20.5595 19.1172 21.1055V21.877H19.1191C19.1191 22.604 19.0305 23.1365 18.8555 23.4785C18.6805 23.8205 18.4081 23.9922 18.0371 23.9922C17.8301 23.9922 17.6427 23.9446 17.4727 23.8496C17.3027 23.7546 17.1748 23.624 17.0898 23.459H17.0664L16.9551 23.9199H16.0488V17ZM9.48633 17.2461H12.7383V18.1309H11.6484V23.9199H10.5762V18.1309H9.48633V17.2461ZM21.0977 18.9512C21.4737 18.9512 21.7628 19.0202 21.9648 19.1582C22.1658 19.2962 22.3076 19.5117 22.3906 19.8027C22.4726 20.0947 22.5137 20.4977 22.5137 21.0117V21.8477H20.6777V22.0957C20.6777 22.4087 20.6861 22.6428 20.7051 22.7988C20.7241 22.9548 20.7623 23.0696 20.8203 23.1406C20.8783 23.2126 20.9678 23.248 21.0898 23.248C21.2538 23.248 21.3667 23.1836 21.4277 23.0566C21.4887 22.9296 21.5223 22.7189 21.5273 22.4219L22.4746 22.4766C22.4796 22.5186 22.4824 22.5783 22.4824 22.6523C22.4824 23.1033 22.3583 23.4401 22.1113 23.6621C21.8643 23.8851 21.5174 23.9961 21.0664 23.9961C20.5254 23.9961 20.1457 23.8253 19.9277 23.4863C19.7097 23.1473 19.6016 22.6231 19.6016 21.9121V21.0605C19.6016 20.3285 19.7145 19.794 19.9395 19.457C20.1645 19.12 20.5517 18.9512 21.0977 18.9512ZM12.4102 19.0449H13.5098V22.625C13.5098 22.842 13.534 22.9978 13.582 23.0898C13.63 23.1828 13.7083 23.2285 13.8203 23.2285C13.9153 23.2285 14.0087 23.1996 14.0957 23.1406C14.1837 23.0826 14.2461 23.008 14.2891 22.918V19.0449H15.3887V23.9199H15.3867H14.5273L14.4336 23.3223H14.4082C14.1742 23.7743 13.8244 24 13.3574 24C13.0334 24 12.7966 23.8936 12.6426 23.6816C12.4886 23.4696 12.4102 23.1375 12.4102 22.6875V19.0449ZM21.0742 19.6934C20.9572 19.6934 20.8705 19.7289 20.8145 19.7969C20.7585 19.8659 20.7211 19.9788 20.7031 20.1348C20.6841 20.2908 20.6758 20.5277 20.6758 20.8457V21.1953H21.4785V20.8457C21.4785 20.5327 21.4683 20.2968 21.4473 20.1348C21.4273 19.9728 21.388 19.859 21.332 19.793C21.276 19.727 21.1912 19.6934 21.0742 19.6934ZM17.5918 19.7285C17.4858 19.7285 17.3888 19.7705 17.2988 19.8555C17.2088 19.9405 17.1444 20.0496 17.1074 20.1816V22.9492C17.1554 23.0342 17.2179 23.0976 17.2949 23.1406C17.3719 23.1826 17.4539 23.2051 17.5449 23.2051C17.6619 23.2051 17.7533 23.1631 17.8223 23.0781C17.8913 22.9931 17.9417 22.8504 17.9707 22.6484C17.9997 22.4474 18.0137 22.1675 18.0137 21.8125V21.1855C18.0137 20.8035 18.0025 20.5097 17.9785 20.3027C17.9545 20.0957 17.9116 19.9464 17.8516 19.8594C17.7906 19.7724 17.7038 19.7285 17.5918 19.7285Z" fill="#00111D"/>
</svg>
