<svg width="25" height="33" viewBox="0 0 25 33" fill="none" xmlns="http://www.w3.org/2000/svg">
<path d="M16.9058 16.116C19.5036 16.116 22.1094 16.116 24.7779 16.116C24.7779 17.3367 24.7779 18.5005 24.7779 19.7339C22.1627 19.7339 19.5601 19.7339 16.8728 19.7339C16.8728 24.0238 16.8728 28.2474 16.8728 32.531C15.6335 32.531 14.4789 32.531 13.2442 32.531C13.2442 32.2859 13.2442 32.0566 13.2442 31.8273C13.2442 26.587 13.238 21.3452 13.2474 16.1049C13.2521 13.7931 13.8655 11.6869 15.4201 9.92537C16.9622 8.17967 18.942 7.31947 21.2136 7.15818C22.4545 7.06963 23.708 7.14236 25.0006 7.14236C25.0006 8.33779 25.0006 9.48262 25.0006 10.7302C24.1457 10.7302 23.3142 10.6939 22.489 10.7413C21.7125 10.7856 20.9108 10.814 20.1719 11.0275C18.0039 11.6568 16.6814 13.7504 16.9058 16.116Z" fill="#FFC900"/>
<path d="M9.28258 32.5393C4.47586 32.9662 0.254288 29.4369 0.0989797 24.6298C-0.0688791 19.3959 0.0315225 14.1525 0.014266 8.91219C0.0126972 8.34135 0.014266 7.76894 0.014266 7.16016C1.21908 7.16016 2.33291 7.16016 3.54401 7.16016C3.54401 9.54311 3.54401 11.9213 3.54401 14.377C5.4532 14.377 7.26828 14.377 9.13669 14.377C9.13669 15.6183 9.13669 16.7821 9.13669 18.0313C7.28553 18.0313 5.47046 18.0313 3.72598 18.0313C3.72598 20.4253 3.54087 22.7513 3.77775 25.0331C4.01778 27.3354 5.88932 28.7822 8.23307 28.9498C8.56722 28.9736 8.90137 28.9878 9.28101 29.0083C9.28258 30.1943 9.28258 31.3391 9.28258 32.5393Z" fill="#FFC900"/>
<path d="M9.0768 10.9195C10.7514 5.10986 18.6729 1.0371 23.9279 2.75791C23.6484 3.46064 23.3701 4.15909 23.1012 4.83244C17.5896 4.39286 13.8557 6.52948 11.1709 11.6426C10.4926 11.4093 9.80298 11.1714 9.0768 10.9195Z" fill="#FFC900"/>
</svg>