<svg width="490" height="439" viewBox="0 0 490 439" fill="none" xmlns="http://www.w3.org/2000/svg">
<g clip-path="url(#clip0_1308_254)">
<path d="M23.9498 352.65C23.9598 343.76 24.3598 334.85 23.8698 325.98C23.2298 314.46 22.0498 302.97 20.2198 291.53C18.3698 279.94 15.5898 268.57 13.2998 257.08C22.6598 254.85 25.8898 256.32 29.7198 264.69C30.8998 267.27 32.1998 269.83 35.5598 269.29C38.9498 268.75 39.7198 265.97 39.4398 263.1C38.9998 258.6 41.2498 256.55 45.2198 255.29C48.0998 254.37 52.5898 254.35 52.0198 249.88C51.5198 245.98 47.7598 244.41 44.2098 244.43C38.5098 244.46 35.5398 241.55 33.9898 236.55C33.2298 234.1 30.8298 232.57 30.3498 229.98C36.9398 228.98 43.5098 227.9 50.1098 227C55.1098 226.32 60.1498 225.98 65.1398 225.3C71.7498 224.4 78.4498 224.57 85.0498 223.45C87.5198 223.03 90.1098 223.17 92.6398 223.17C101.51 223.18 110.39 223.23 119.26 223.27C119.36 228.54 114.21 230.3 112.89 233.45C117.42 230.16 120.19 223.01 127.62 221.67C141.84 221.15 156.04 221.49 170.25 221.48C172.22 221.48 174.23 221.6 175.85 223.01C177.5 225.44 177.23 228.22 177.23 230.92C177.26 255.25 178.07 279.61 177.01 303.9C175.97 327.87 176.6 351.81 176.12 375.75C176.07 378.4 176.58 381.29 174.1 383.33C168.48 383.36 162.97 384.37 157.44 385.18C153.51 385.75 149.54 386.08 145.61 386.43C133.21 387.52 120.9 389.41 108.44 390.13C96.5398 390.81 84.6698 392.01 72.7298 392.19C68.5898 392.25 64.5098 393.5 60.3098 393.1C58.4398 393.17 57.2398 391.93 56.2598 390.69C51.9998 385.27 46.9698 380.54 42.6898 375.14C40.1498 371.94 40.6098 369.72 43.6998 367.45C45.5398 366.1 47.2498 364.54 48.9098 361.96C45.8998 363.35 44.2698 365.31 42.2098 366.7C38.1198 369.46 36.2298 369.15 33.0798 365.26C30.4098 361.97 31.0598 359.38 34.3598 357.05C36.7398 355.37 38.6898 353.2 40.7098 351.12C41.0598 350.76 41.5098 350.39 41.1698 349.51C37.3698 350.98 35.0698 354.49 31.6998 356.48C27.4798 358.98 25.2098 357.86 23.9498 352.65Z" fill="#FFECB1"/>
<path d="M408.76 371.1C407.14 368.64 404.6 369.32 402.33 369.31C375.01 369.25 347.69 369.23 320.37 369.18C317.86 369.18 315.28 369.53 312.92 368.25C310.64 368.79 309.35 367.25 308.93 365.58C308.14 362.4 305.84 359.95 305.1 356.8C304.26 355.85 303.34 354.94 303.16 353.6C301.37 340.19 297.91 327.06 297.29 313.41C296.85 303.68 296.44 293.9 295.37 284.21C294.53 276.57 297.94 270.42 301.76 264.49C304.97 259.5 308.93 254.98 312.52 250.22C314.27 247.89 316.74 246.61 319.43 246.29C331.8 244.83 343.92 241.9 356.31 240.45C370.65 238.77 384.98 237.09 399.4 236.08C411.13 235.25 422.82 234.07 434.59 233.98C437.67 233.96 440.62 232.95 443.75 232.99C452.19 233.11 458.31 236.61 461.87 244.39C464.15 249.37 465.7 254.62 466.3 259.99C467.75 273.09 469.76 286.11 471.02 299.24C472.01 309.51 473.21 319.73 473.04 330.07C473.01 331.76 472.4 333.89 475.07 334.39C475.55 335.85 474.35 336.29 473.49 336.79C469.11 339.35 464.77 341.98 460.26 344.31C455.34 346.85 453.84 346.53 450.76 341.92C445.42 333.92 439.8 326.15 433.75 318.67C432.38 316.98 431.03 315.29 428.83 313.53C435.24 323.24 442.4 331.72 448 341.24C449.73 344.18 453.03 347.24 448.49 350.59C444.78 353.34 442.81 352.9 438.46 348.39C437.97 347.88 437.54 347.23 436.62 347.38C436.19 348.84 437.47 349.62 438.05 350.64C439.62 353.38 439.05 355.72 436.42 357.12C427.47 361.88 418.41 366.42 409.63 371.5C409.36 371.69 409 371.44 408.76 371.1Z" fill="#FFECB1"/>
<path d="M143.88 195.97C130.64 195.99 117.38 195.61 104.16 196.18C97.2998 196.48 90.4098 197.31 83.5698 196.84C70.3598 195.92 57.1298 196.39 43.9398 195.79C34.9598 195.38 27.8498 191.36 23.4298 182.94C12.8298 162.78 5.66982 141.45 1.40982 119.16C0.63982 115.15 -0.20018 111.01 0.0498199 106.79C0.37982 101.24 2.92982 97.31 7.68982 94.54C13.2998 91.27 19.5698 90.12 25.7898 89.26C38.1198 87.55 50.5298 86.51 62.9598 85.53C74.5698 84.62 86.1298 85.26 97.6998 84.83C99.1298 84.78 100.65 84.67 101.64 86.09C102.46 91.91 101.18 96.91 97.1298 101.53C93.4998 105.66 89.2098 109.41 86.5898 115.04C94.3798 111.13 102.69 100.8 104.5 93.03C104.94 91.12 105.59 89.33 107.7 89.19C112.23 88.89 115.69 85.97 119.77 84.58C125.48 83.77 131.07 84.76 136.65 85.73C141.84 88.11 143.29 93.17 144.95 97.89C145.97 100.79 143.45 101.15 141.36 101.09C138.26 101 135.37 99.6 132.27 99.43C127.5 99.17 125.79 101.08 126.72 105.54C129.12 117.1 129.12 117.1 119.01 123.5C118.11 124.07 117.05 124.51 116.65 125.64C126.85 125.49 132.21 119.62 131.03 109.88C130.32 103.97 131.63 102.77 137.67 103.77C140 104.16 142.28 104.87 144.64 104.94C149.02 105.07 150.55 102.91 149.19 98.71C148.09 95.31 145.18 92.56 145.51 88.64C147.75 86.45 149.43 88.56 151.12 89.52C155.19 91.85 158.7 95.03 162.7 97.48C164.1 98.34 166.05 100.44 167.28 98.42C168.39 96.59 165.62 95.72 164.39 94.54C162.94 93.15 160.16 93.05 160.22 90.21C166.41 91.28 172.71 91.84 178.53 94.51C179.52 96.17 178.56 97.69 178.1 99.19C176.52 104.37 176.89 109.25 180.22 113.67C182.01 116.04 182.67 118.28 180.89 121.1C179.07 123.96 179.2 127.38 179.32 130.64C180.02 150.43 177.66 170.16 178.18 189.95C178.23 191.94 178.23 193.97 177.03 195.73C172.91 197.46 168.62 196.15 164.42 196.35C160.69 196.53 156.95 196.58 153.23 196.74C149.55 195.64 151.79 193.79 152.86 192.43C155.06 189.63 158.12 187.48 159.56 183.05C155.03 185.13 152.78 188.54 150.14 191.53C148.39 193.47 147.27 196.35 143.88 195.97Z" fill="#FFECB1"/>
<path d="M224.61 120.88C224.6 118.89 224.69 116.94 225.1 114.95C225.85 111.39 225.83 107.76 225 104.18C224.5 102.03 224.33 99.9 225.19 97.78C226.42 94.78 227.42 94.38 230.51 95.69C234.01 97.17 237.16 96.52 240.04 93.74C242.87 94.19 242.19 96.75 242.6 98.42C243.97 103.92 245.86 109.18 248.78 114.05C249.43 115.14 250.07 116.24 250.92 117.2C256.67 123.73 261.51 123.24 265.76 115.7C266.56 114.28 267.32 112.83 267.7 110.33C266.1 112.09 265.22 113.54 264.15 114.82C260.39 119.3 257.63 119.55 253.88 115.3C248.97 109.73 245.97 103.28 245.96 95.67C247.26 94.38 249.02 93.96 250.61 93.2C253.88 94.04 254.09 97.51 256.01 99.54C259.34 103.06 261.11 103.37 265.17 100.55C268.09 98.24 270.42 95 274.5 94.49C289.67 95.32 304.77 93.5 319.92 93.2C325.45 93.09 331.05 92.54 336.63 92.41C337.25 94.89 334.99 95.33 333.71 96.31C325.41 102.72 316.72 108.59 308.11 114.57C306.53 115.67 304.56 116.36 303.32 118.9C309.43 116.47 313.75 112.33 318.53 108.99C324.75 104.65 330.54 99.72 336.39 94.88C338.02 93.53 339.47 91.68 342.02 92.28C351.25 92.19 360.43 91.04 369.68 91.26C380.74 91.52 391.86 90.77 402.87 91.53C414.16 92.31 425.63 91.96 436.64 95.62C442.56 97.59 446.64 101.48 449.49 106.61C455.6 117.6 459.42 129.45 462.1 141.72C464.36 152.08 464.8 162.54 464.22 173.04C463.83 180.12 461.77 186.94 458.46 193.23C454.85 200.09 448.39 203.46 441.42 205.88C435.94 207.79 430.13 208.19 424.44 209.13C415.9 210.54 407.06 209.11 398.71 211.97C392.57 212.22 387.82 208.67 382.81 205.99C380.39 204.7 381.52 203 383.28 201.83C386 200.02 389.06 198.77 391.66 196.76C396.1 193.33 395.87 191.49 390.82 189.2C384.3 186.25 377.36 184.92 370.41 183.54C362.4 181.95 354.35 180.52 346.41 178.6C339.26 176.87 334.27 172.91 331.01 166.07C324.57 152.58 316.99 148.69 302.21 150.33C291.92 151.47 281.59 151.91 271.24 151.62C263.88 151.41 261.74 149.8 259.52 142.75C255.41 129.72 248.41 124.29 234.53 123.28C231.1 123 227.62 122.9 224.61 120.88Z" fill="#FFECB1"/>
<path d="M224.61 120.88C230.15 121.72 235.78 121.55 241.31 122.8C251.32 125.07 257.54 131.13 260.45 140.79C263.26 150.15 263.24 149.95 273.24 150.29C283.25 150.63 293.17 149.78 303.08 148.67C307.12 148.22 311.1 148.49 314.97 149.36C322.28 151 328.29 154.97 330.7 162.22C334.08 172.35 341.29 176.68 351.18 178.29C359.04 179.57 366.79 181.46 374.63 182.87C380.55 183.94 386.23 185.7 391.79 187.91C392.8 188.31 393.81 188.74 394.72 189.31C398.05 191.43 398.16 192.63 395.47 195.58C393.6 197.63 391.16 198.87 388.83 200.25C386.66 201.54 384.41 202.69 381.73 204.15C387.43 207.4 393.17 209.49 398.72 211.96C400.75 213.13 402.94 214.11 404.8 215.52C408.79 218.54 408.25 222.44 403.49 224.09C400.27 225.21 396.84 225.98 393.45 226.26C375.96 227.71 358.53 229.86 341 230.83C337.57 231.02 334.16 231.51 330.74 231.87C324.69 232.51 320.19 230.05 317.04 224.97C314.56 220.98 312.14 216.93 309.64 212.95C309.18 212.21 308.41 211.66 307.79 211.02C302.06 209.18 296.16 208.48 290.18 208.38C283.31 208.27 276.44 208.44 269.57 208.32C261.9 208.18 254.98 205.55 250.73 199.22C245.02 190.71 237.7 187.28 227.73 188.69C225.62 188.99 223.39 188.94 221.3 188.13C214.34 188.34 207.45 187.21 200.51 187.04C199.69 187.67 200.18 188.92 199.34 189.54C199.09 189.77 199.07 190.01 199.28 190.27C199.04 202.92 197.9 215.59 199.97 228.2C200.2 229.64 200.15 231.1 200.15 232.55C200.16 278.85 200.16 325.16 200.16 371.46C200.16 374.38 200.15 377.28 198.66 379.93C198.66 388.97 198.66 398.01 198.66 407.61C205.41 407.14 211.79 406.1 218.44 402.92C214.39 399.7 209.72 399.03 206.28 396.41C206.78 394.94 207.65 394.45 208.79 394.36C213.85 393.92 218.54 395.32 222.83 397.76C226.11 399.62 226.6 403.37 224.54 406.81C222.96 409.46 220.42 410.79 217.64 411.79C213.36 413.33 208.8 413.73 204.45 414.9C192.8 418.05 181.18 416.12 169.56 414.91C165.74 414.51 162.15 413.16 159.12 410.69C156.02 408.17 154.97 404.72 156.21 401.52C157.5 398.19 162.39 395.09 165.78 395.43C167.17 395.57 168.3 396.17 168.55 397.57C168.77 398.78 167.87 399.43 166.8 399.95C165.03 400.82 162.52 401.77 162.81 403.86C163.18 406.54 166.23 406.75 168.41 407.29C170.11 407.72 171.92 408.24 174.15 407.64C174.15 399.6 174.15 391.47 174.15 383.35C174.32 371.93 174.53 360.51 174.65 349.09C175.06 308.28 175.45 267.46 175.83 226.65C175.84 225.39 175.72 224.13 175.66 222.86C173.46 217.25 175.41 211.47 175.03 205.78C174.81 202.46 174.14 198.87 176.4 195.8C176.78 179.48 177.16 163.17 177.55 146.85C177.73 139.23 177.87 131.62 178.19 124.01C178.28 121.95 177.98 119.61 180.48 118.32C182.15 117.46 180.75 116.58 180.11 115.93C176.47 112.18 175.01 107.73 175.46 102.53C175.72 99.51 177.22 97.06 178.56 94.51C181.56 91.39 185.8 90.56 189.45 88.63C190.61 88.02 191.96 88.16 193.19 88.43C199.3 89.76 203.7 93.2 205.94 99.12C208.23 105.17 206.74 110.52 202.6 115.26C201.77 116.2 200.74 116.97 199.77 117.79C198.87 118.55 197.42 118.83 198.25 120.67C198.87 122.04 199.82 121.89 200.88 121.86C204.14 121.75 207.42 122.12 210.66 121.51C215.31 120.78 220.06 122 224.69 120.82L224.61 120.88Z" fill="#13264A"/>
<path d="M198.64 379.93C198.06 364.17 198.48 348.41 198.5 332.65C198.56 287.16 198.7 241.66 198.84 196.17C198.85 194.2 198.44 192.18 199.26 190.27C199.33 200.22 199.38 210.17 199.46 220.11C199.5 225.18 199.52 225.19 204.52 225.33C207.76 225.42 210.99 225.35 214.2 226.26C215.87 226.74 217.8 226.79 219.45 225.68C221.3 225.15 222.05 226.62 222.92 227.68C231.21 237.76 239.32 247.99 247.99 257.76C249.02 258.92 250.19 260.26 249.7 262.13C250.75 266.7 251.7 271.3 252.88 275.84C256.48 289.66 255.52 303.41 252.89 317.26C251.41 325.05 250.87 333.01 249.54 340.83C247.79 351.1 245.02 360.97 236.93 368.42C233.66 371.44 230.06 373.63 225.72 374.69C217.64 376.65 209.63 378.91 201.24 379.17C200.36 379.19 199.51 379.66 198.64 379.93Z" fill="#FFECB1"/>
<path d="M408.76 371.1C412.7 368.17 417 365.82 421.34 363.55C425.84 361.2 430.39 358.93 434.89 356.56C439.01 354.39 438.99 354.35 436.44 350.69C435.82 349.8 435.14 348.94 434.53 348.04C433.9 347.1 433.43 346.06 434.55 345.17C435.63 344.32 436.69 344.9 437.48 345.64C438.8 346.88 439.97 348.27 441.18 349.61C442.01 350.52 442.7 352.09 444.14 351.49C446.27 350.59 448.84 349.97 450.03 347.84C450.77 346.51 449.15 345.22 448.4 344.04C442.27 334.38 435.45 325.2 428.81 315.9C427.75 314.42 424.91 312.5 426.73 311.06C428.82 309.41 430.29 312.61 431.58 314.05C437.01 320.15 441.92 326.68 446.53 333.43C448.47 336.28 450.35 339.17 452.28 342.03C454.81 345.78 454.85 345.84 458.57 343.78C464.11 340.7 469.58 337.52 475.09 334.39C476.44 334.31 478.16 333.34 478.86 335.25C479.49 336.99 477.88 337.73 476.73 338.57C475.42 339.53 474.13 340.51 472.83 341.47C470.79 344.63 467.28 345.85 464.4 347.91C462.73 349.1 459.2 349.59 460.9 352.79C462.43 355.67 463.11 360.13 468.23 358.98C469.08 358.79 470.03 359.04 470.78 358.4C474.5 356.53 478.21 354.64 481.94 352.79C482.94 352.29 484.09 351.89 484.85 353.05C485.52 354.07 485.16 355.15 484.36 356.02C483 357.52 481.28 358.53 479.54 359.53C475.63 361.77 471.71 364 467.55 366.38C471.13 372.44 474.57 378.18 477.93 383.97C481.39 389.93 484.83 395.9 487.55 402.24C488.12 403.57 488.65 404.92 489.04 406.31C489.3 407.21 489.15 408.36 488.01 408.39C486.8 408.42 485.15 407.91 486.01 406.26C486.91 404.53 485.86 403.48 485.25 402.33C479.41 391.46 472.79 381.06 466.25 370.61C464.85 368.37 463.45 368.1 461.43 369.58C460.7 370.11 459.89 370.54 459.07 370.92C457.16 371.82 456.9 372.94 458.1 374.75C461.39 379.74 464.58 384.81 467.74 389.89C470.01 393.54 472.32 397.17 473.81 401.32C471.78 402.32 471.29 400.82 470.66 399.91C465.56 392.64 460.51 385.33 455.43 378.04C452.92 374.44 452.92 374.46 449.06 376.19C443.6 378.63 438.17 381.14 432.29 382.49C431.23 382.73 430.18 383.04 429.11 383.15C427.81 383.29 426.32 383.18 426.19 381.54C426.07 380.08 427.46 380.35 428.5 380.04C435.49 377.98 441.88 374.58 448.1 370.86C449.63 369.95 449.37 368.87 447.97 367.96C447.18 367.54 446.39 367.13 445.78 366.44C440.35 360.32 440.38 360.38 433.13 363.86C428.16 366.24 423.55 369.58 417.79 369.97C415.68 370.74 413.59 371.56 411.46 372.25C410.28 372.63 408.96 373.05 408.76 371.1Z" fill="#129B5E"/>
<path d="M221.28 188.13C227.53 186.72 233.84 187.23 240.14 187.62C242.37 187.76 244.16 188.82 245.57 190.74C247.61 193.5 249.89 196.09 252.11 198.71C256.72 204.14 262.67 206.8 269.73 206.92C277.15 207.06 284.57 207.17 291.99 207.14C295.27 207.13 298.5 207.41 301.71 207.93C304.02 208.3 306.37 208.75 307.76 211.01C295.66 211.05 283.55 211.07 271.45 211.13C261.87 211.17 252.3 211.25 242.72 211.31C241.77 212.1 240.84 212 239.93 211.24C239.09 210.91 238.25 210.32 237.4 210.3C232.05 210.17 228.74 207.04 226.28 202.77C223.67 198.24 221.23 193.6 221.28 188.13Z" fill="#FEEBB1"/>
<path d="M23.9497 352.65C24.4897 353.37 24.9597 354.15 25.5797 354.79C28.2497 357.55 28.2897 357.57 31.2397 355.28C33.8097 353.28 36.2997 351.17 38.8597 349.16C39.8497 348.39 40.7897 347.47 42.1197 347.3C42.8597 347.21 43.6597 347.32 44.0797 347.95C44.4997 348.58 44.3897 349.39 43.8697 349.96C42.6397 351.29 41.3797 352.58 40.0597 353.82C38.7397 355.06 37.3697 356.24 35.9697 357.4C31.1097 361.43 31.2397 361.3 35.6197 365.92C37.6597 368.07 39.0397 367.86 40.9997 366.05C42.8497 364.33 44.9097 362.81 46.9597 361.32C48.0597 360.52 49.3997 359 50.7097 360.35C52.1197 361.79 50.4997 362.98 49.5097 363.93C47.5497 365.8 45.5597 367.68 43.4097 369.32C41.5697 370.73 41.2597 371.8 42.9497 373.65C48.8197 380.06 54.5397 386.61 60.3197 393.11C61.1497 395.62 64.2497 396.88 64.1997 400.49C59.9897 398.52 58.0797 394.35 54.5197 392.25C49.0797 389.14 45.5997 383.91 41.0397 379.85C40.2297 379.13 39.6097 378.2 38.7297 377.56C36.7197 376.09 35.3397 377.54 33.9997 378.72C32.5597 379.99 33.2697 381.19 34.1897 382.5C36.4097 385.66 40.0297 387.91 40.5997 392.16C40.6997 393.29 42.0797 394.27 40.8697 395.67C38.1697 395.12 37.2897 392.1 34.9297 391.09C33.3497 390.26 31.7397 389.39 30.6697 387.96C28.3697 384.86 25.6997 385.18 22.7697 386.79C18.2897 390.56 13.8197 394.34 8.67972 398.66C9.26972 395.74 10.6197 394.34 11.9597 392.94C15.3597 389.41 18.6597 385.79 22.1797 382.39C24.1097 380.54 23.8897 379.32 22.1197 377.5C16.0097 371.23 17.7097 371.82 11.4897 376.35C8.26972 378.7 4.85972 380.78 1.50972 382.94C1.28972 383.08 0.849722 382.87 0.479722 382.81C-0.380278 381.46 0.839722 380.8 1.54972 380.19C5.09972 377.1 8.69972 374.05 12.3597 371.09C13.9997 369.76 14.1097 368.69 12.6597 367.09C9.48972 363.6 6.47972 359.98 3.41972 356.39C2.71972 355.56 2.04972 354.69 1.45972 353.79C0.929722 352.99 0.729722 352.03 1.59972 351.36C2.44972 350.7 3.37972 351.14 4.03972 351.76C5.88972 353.5 7.68972 355.29 9.44972 357.13C11.7097 359.49 13.9697 361.85 16.0997 364.32C17.6597 366.12 19.0697 366.08 20.6197 364.42C20.9897 364.03 21.4297 363.7 21.8397 363.34C25.2297 360.36 25.2397 360.35 22.3897 357.13C19.8697 354.28 17.2997 351.46 14.7797 348.62C14.0797 347.83 13.0797 346.94 14.2997 345.89C15.3297 345 16.3297 345.64 17.1997 346.37C19.5597 348.35 21.3197 350.97 23.9497 352.65Z" fill="#539ED5"/>
<path d="M30.3497 230.01C33.0697 231.43 34.6497 233.68 35.5097 236.61C36.7497 240.81 39.0997 243.37 44.0897 242.99C47.6197 242.72 50.8097 244.36 53.0097 247.31C55.2497 250.31 54.6097 253.3 51.2397 254.91C49.3097 255.83 47.1397 256.27 45.0597 256.83C41.0997 257.91 40.7097 258.38 40.8497 262.38C40.8697 262.92 41.0297 263.46 41.0097 263.99C40.9197 267.96 38.9097 270.81 35.8797 271.32C32.7597 271.84 30.0697 270.71 29.0897 266.53C27.3397 259.12 22.9797 256.7 15.9597 257.5C15.0997 257.6 14.1897 257.23 13.3097 257.08C10.0297 254.78 8.91972 251.91 11.0197 248.22C11.6897 247.17 12.0397 245.62 13.2797 245.31C19.7697 243.69 21.4397 238.52 22.6897 232.97C24.3097 229.61 27.1197 229.29 30.3497 230.01Z" fill="#179C5E"/>
<path d="M454.63 63.87C451.71 63.53 448.87 64.97 445.92 65.48C439.82 66.54 437.85 64.55 439.22 58.43C439.53 57.03 439.78 55.61 440.03 54.19C440.05 54.07 439.84 53.92 439.52 53.5C436.54 54.1 433.43 54.9 430.27 55.32C424.38 56.11 422.27 54.28 421.81 48.4C421.53 44.79 421.12 41.19 420.87 37.58C420.8 36.59 420.38 35.21 421.77 34.8C423.42 34.32 423.93 35.73 424.42 36.88C425.84 40.25 426.73 43.76 426.83 47.42C426.89 49.62 428 50.29 429.97 49.93C432.46 49.47 434.95 48.99 437.44 48.48C444.43 47.03 446.39 49 445.03 56.17C444.83 57.21 444.71 58.27 444.56 59.28C446.29 60.48 447.85 59.54 449.38 59.33C451.17 59.09 452.93 58.52 454.72 58.41C459 58.16 460.26 59.44 460.28 63.74C460.31 70.17 460.31 70.17 466.56 68.55C469.54 67.78 472.48 66.78 475.5 66.31C479.12 65.75 480.73 67.25 480.34 70.88C479.9 75.02 479.02 79.11 478.33 83.22C478.2 84 477.75 84.66 477 84.74C475.97 84.85 475.4 84.11 475.08 83.19C474.47 81.44 474.45 79.67 474.68 77.83C474.93 75.91 475.66 73.95 474.58 71.8C471.1 72.77 467.64 73.81 464.14 74.7C457.01 76.51 454.7 74.58 455.09 67.3C455.15 66.26 455.62 65.15 454.63 63.87Z" fill="#E63C26"/>
<path d="M118.63 85.77C116.44 88.85 113.26 90.01 109.69 90.06C106.97 90.1 105.65 91.05 105.87 93.92C106.13 97.19 104.81 100.1 102.7 102.36C97.87 107.52 92.76 112.42 87.77 117.42C87.11 118.08 86.28 118.72 85.46 117.97C85.02 117.57 84.8501 116.64 84.9001 115.97C85.0801 113.49 86.5501 111.57 88.0501 109.77C90.6001 106.71 93.2001 103.67 96.0001 100.84C98.6801 98.14 100.59 95.26 100.24 91.28C100.07 89.39 100.86 87.74 101.63 86.09C104.23 84.73 107.07 84.23 109.93 83.94C112.15 83.72 112.77 82.67 111.97 80.7C111.16 78.7 110.26 76.74 109.42 74.75C107.02 69.13 107.72 67.38 113.44 64.79C118.28 64.93 121.48 67.37 123.28 71.79C121.64 73.83 118.05 71.63 117.23 73.88C116.48 75.92 118.79 78.08 119.28 80.35C119.68 82.23 120.61 84.18 118.63 85.77Z" fill="#529DD5"/>
<path d="M246.67 95.61C247.32 100.5 249.06 105.04 251.24 109.42C252.21 111.36 253.4 113.16 254.96 114.72C258.78 118.51 259.77 118.49 262.96 114.27C264.76 111.89 266.46 109.44 268.53 106.58C269.91 109.44 269.31 111.5 268.39 113.39C267.21 115.82 265.92 118.24 264.39 120.45C262.03 123.85 259.13 124.47 255.44 122.42C252.24 120.64 249.67 118.12 247.74 114.95C244.2 109.16 242.12 102.85 240.85 96.24C240.68 95.36 240.75 94.43 240.06 93.72C239.25 87.13 238.45 80.54 237.64 73.95C238.86 68.91 240.6 67.77 244.96 69.15C245.77 77.95 246.69 86.75 246.67 95.61Z" fill="#1A9C5F"/>
<path d="M123.43 71.86C120.38 69.11 117.16 66.6 113.44 64.8C109.39 61.02 104.18 58.76 100.4 54.58C108.62 57.38 115.56 62.59 123.2 66.46C126.28 67.13 128.98 68.39 130.68 71.23C134.27 73.66 137.8 76.18 141.7 78.11C146.39 80.28 151.2 82.26 154.35 86.69C156.25 87.95 158 89.45 160.2 90.21C161.65 91.9 163.83 92.53 165.53 93.86C166.53 94.64 167.63 95.3 168.51 96.2C169.58 97.3 170.16 98.62 169 100.07C167.89 101.45 166.5 101.39 165.1 100.68C163.97 100.11 162.91 99.41 161.87 98.69C156.68 95.1 151.51 91.48 146.33 87.88C141.88 87.18 139.09 83.7 135.53 81.49C131.66 78.08 126.11 76.77 123.43 71.86Z" fill="#182A4D"/>
<path d="M411.3 65.6C412.07 66.31 412.78 65.99 413.47 65.94C418.3 65.56 419.07 66.12 420.14 70.79C421.18 75.34 421.18 75.34 425.67 74.55C432.49 73.35 433.11 73.6 435.18 79.87C435.96 82.24 436.99 82.55 439.14 81.61C440.59 80.98 442.11 80.22 443.81 80.37C444.8 80.45 445.58 80.87 445.74 81.91C445.85 82.64 445.57 83.34 444.8 83.67C442.31 84.74 439.88 86.02 437.29 86.78C434.53 87.59 432.93 86.55 431.78 83.75C431.37 82.75 431.14 81.68 430.88 80.62C430.45 78.81 429.37 78.31 427.66 78.9C427.15 79.08 426.6 79.15 426.07 79.25C418.12 80.72 418.02 80.71 415.79 72.7C415.26 70.8 414.39 70.4 412.7 70.91C411.84 71.17 410.97 71.52 410.09 71.58C406.93 71.8 405.3 70.05 405.73 66.98C405.8 66.45 406.03 65.94 406.17 65.42C407.44 60.71 407.44 60.67 402.8 60.16C399.95 59.85 397.58 58.72 395.89 56.38C395.49 55.82 395.36 54.96 396.03 54.44C396.4 54.15 397.14 53.9 397.48 54.07C400.96 55.87 404.74 56.03 408.53 56.36C411.13 56.59 412.02 58.57 412.03 61.05C412.04 62.64 410.83 64.07 411.3 65.6Z" fill="#E53E27"/>
<path d="M274.51 94.47C271.67 96.7 268.83 98.94 265.99 101.17C262.86 102.68 261.82 101.1 261.64 98.23C261.68 97.69 261.82 97.16 262.04 96.66C263.7 94.31 265.52 92.13 268.59 91.57C274.37 86.91 280.14 82.26 285.93 77.61C295.68 69.77 305.85 62.55 316.64 56.21C318.1 55.36 319.42 54.06 321.62 54.1C320.7 56.27 318.97 57 317.6 58.06C303.72 68.84 290.32 80.19 277.08 91.74C276.15 92.57 275.02 93.23 274.51 94.47Z" fill="#192B4D"/>
<path d="M143.88 195.97C148.37 192.54 151.4 187.66 155.65 184C157.19 182.67 158.81 179.98 160.93 181.99C162.7 183.66 160.47 185.64 159.28 187.11C156.89 190.05 154.32 192.84 151.82 195.69C143.76 205.55 135.96 215.68 125.3 223.02C119.47 227.56 115.04 233.58 109.17 238.16C111.3 232.36 116.3 228.52 119.26 223.31C124.49 217.58 129.8 211.91 134.92 206.09C137.89 202.7 141.45 199.83 143.88 195.97Z" fill="#1B2B4D"/>
<path d="M181.33 0C183.42 0.65 182.98 2.17 183.16 3.32C185.79 19.76 187.54 36.31 189.61 52.82C190.36 58.75 191.18 64.67 191.92 70.59C192.1 72.02 192.19 73.48 192.14 74.92C192.09 76.28 191.49 77.39 189.93 77.52C188.45 77.64 187.63 76.77 187.02 75.54C186.43 74.35 186.51 73.08 186.41 71.82C185.06 55.95 183.57 40.08 182.37 24.2C181.76 16.2 181.66 8.17 181.33 0Z" fill="#172A4D"/>
<path d="M243.65 68.36C241.29 69.84 239.3 71.72 237.63 73.95C234.12 77.3 230.62 80.65 227.09 83.99C226.05 84.98 225 85.98 223.87 86.86C223.05 87.49 222.1 88.3 221.01 87.32C219.76 86.2 220.37 85.08 221.09 83.96C222.47 81.82 224.34 80.11 226.15 78.36C230.42 74.24 234.7 70.13 238.98 66.02C240.32 62.69 243.17 60.8 245.89 58.78C248.16 56.56 250.93 54.94 253.18 52.7C254.55 51.29 256.15 50.29 258.11 49.93C265.73 44.76 272.83 38.91 280.63 32.02C279.47 35.39 277.9 37.15 276.19 38.75C270.91 43.7 265.57 48.59 260.25 53.5C259.37 55.35 258.1 56.91 256.6 58.3C251.79 61.01 249.15 66.52 243.65 68.36Z" fill="#1B2C4E"/>
<path d="M154.36 86.69C150.01 84.02 145.62 81.41 141.71 78.11C145.6 77.57 149.23 78.96 152.97 79.57C155.69 80.01 156.32 79.51 155.95 76.85C155.65 74.71 154.99 72.61 154.47 70.5C153.77 67.7 152.57 64.78 155.23 62.39C157.87 60.03 160.72 61.44 163.45 62.36C166.71 63.46 170.01 64.51 173.02 66.23C173.85 66.7 174.43 67.4 174.2 68.44C173.94 69.6 172.93 69.57 172.05 69.62C170.39 69.72 168.84 69.21 167.28 68.68C164.89 67.87 162.47 67.17 160.2 66.46C158.49 67.99 159.68 69.31 159.97 70.63C160.59 73.45 161.63 76.19 161.62 79.15C161.61 83.65 160.81 84.72 156.34 85.89C155.65 86.07 155.02 86.42 154.36 86.69Z" fill="#539DD5"/>
<path d="M249.7 262.12C246.5 257.31 242.22 253.42 238.61 248.96C232.28 241.15 225.84 233.42 219.45 225.66C217.05 222.54 214.62 219.43 212.26 216.27C211.51 215.27 210.88 214.18 210.33 213.06C209.89 212.16 210.18 211.22 210.95 210.66C211.56 210.21 212.37 210.46 212.92 210.97C214.23 212.19 215.64 213.34 216.76 214.72C220.49 219.3 224.11 223.97 227.77 228.6C235.37 235.61 241.25 243.93 246.2 252.95C248.81 256.83 251.43 260.72 254.42 265.16C251.87 264.63 251.29 262.65 249.7 262.12Z" fill="#1E2D4E"/>
<path d="M239.94 211.25C240.87 211.27 241.8 211.29 242.73 211.32C249.45 218.94 257.17 225.52 264.58 232.42C273.43 240.65 282.53 248.62 291.85 256.98C289.59 257.49 288.43 255.93 287.17 255.04C276.07 247.21 265.68 238.48 255.52 229.49C251.05 225.53 246.66 221.48 242.34 217.36C240.67 215.75 238.8 214.04 239.94 211.25Z" fill="#1F2D4F"/>
<path d="M40.6098 392.18C37.7998 388.9 35.0698 385.56 32.1598 382.38C30.5498 380.63 30.6698 379.44 32.5298 378C38.6298 373.29 37.1098 373.47 41.6798 378.48C45.9198 383.12 50.7498 387.19 54.5198 392.27C51.8798 393.82 49.0498 393.26 46.3498 392.74C44.4298 392.37 42.5498 392.13 40.6098 392.18Z" fill="#FAEBB2"/>
<path d="M342.03 92.26C337.15 95.4 333.16 99.66 328.51 103.08C321.52 108.23 314.55 113.42 307.48 118.46C305.72 119.71 303.14 122.57 301.5 120.09C299.63 117.27 303.43 116.02 305.34 114.74C315.12 108.2 324.73 101.44 334.23 94.51C335.09 93.88 335.85 93.1 336.65 92.39C341.66 89.7 345.58 85.44 351.35 81.98C348.72 86.81 344.47 88.72 342.03 92.26Z" fill="#212E4D"/>
<path d="M130.68 71.22C128.12 69.73 125.45 68.42 123.2 66.45C125.58 66.5 127.08 65.76 126.4 62.97C125.88 60.87 125.32 58.78 124.93 56.65C124.1 52.08 126.19 49.34 130.83 48.97C135.02 48.63 139.08 49.53 143.1 50.57C144.48 50.93 146.1 51.56 145.72 53.42C145.36 55.22 143.66 55.15 142.22 55.18C140.98 55.21 139.73 55.48 138.51 54.84C136.85 53.96 134.99 54.12 133.2 54.16C129.95 54.23 129.74 54.5 130.38 57.63C130.71 59.22 131.21 60.77 131.57 62.35C132.29 65.4 132.48 68.41 130.68 71.22Z" fill="#569FD6"/>
<path d="M417.75 369.98C424.55 366.71 431.39 363.51 438.13 360.12C440.66 358.85 442.49 358.95 443.95 361.59C445.16 363.79 447.08 365.55 447.93 367.97C446.71 368.34 445.48 369.07 444.29 369.01C435.41 368.61 426.64 371.09 417.75 369.98Z" fill="#F8EAB1"/>
<path d="M246.2 252.97C239.67 245.15 233.6 236.97 227.77 228.62C235.78 229.53 242.53 232.41 245.61 240.58C247.12 244.58 246.26 248.82 246.2 252.97Z" fill="#FBEAB2"/>
<path d="M470.75 358.41C464.82 362.1 464.82 362.1 461.45 356.63C457.58 350.34 457.58 350.34 463.97 346.6C466.91 344.88 469.86 343.19 472.81 341.49C473.42 346.73 471.55 351.46 469.71 356.17C469.2 357.45 469.24 358.19 470.75 358.41Z" fill="#F8E9B1"/>
<path d="M22.6696 232.99C22.6396 234.25 22.5696 235.52 22.5996 236.78C22.7096 241.06 21.2296 244.14 16.6696 245.16C14.5296 245.64 12.7996 247.04 11.0096 248.24C10.8196 240.03 15.3696 235.46 22.6696 232.99Z" fill="#F5E8B0"/>
<path d="M22.77 386.8C23.34 386.14 23.9 385.47 24.5 384.82C26.11 383.06 27.7 382.85 29.35 384.81C31.16 386.95 33.55 388.58 34.93 391.1C30.26 391.44 26.08 390.36 22.77 386.8Z" fill="#F3E8B7"/>
<path d="M224.65 120.8C220.02 122.06 215.3 121.33 210.62 121.49C215.23 119.87 219.97 120.96 224.65 120.8Z" fill="#FFECB1"/>
<path d="M199.33 189.53C199.17 188.44 197.91 186.83 200.5 187.03C200.56 188.08 200.37 189.01 199.33 189.53Z" fill="#FFECB1"/>
<path d="M84.7199 311.14C92.7199 321.55 101.03 331.61 109.52 341.51C114.37 347.17 119.47 352.59 125.1 357.49C127.72 359.77 130.5 361.78 133.87 362.85C137.97 364.15 139.87 363.4 141.82 359.53C143.39 356.39 144.02 353.02 144.06 349.52C144.15 340.65 141.9 332.26 138.69 324.1C132.17 307.54 121.89 293.65 108.41 282.11C105.92 279.98 103.33 277.92 100.22 276.81C96.3799 275.44 94.1399 277.02 94.2099 281.1C94.2499 283.25 94.5799 285.47 95.1999 287.54C100.76 306.31 109.5 323.23 124.09 336.69C125.84 338.3 127.67 339.8 129.93 340.61C131.83 341.28 133.16 340.7 133.35 338.51C133.44 337.43 133.55 336.31 133.39 335.25C132 326.02 127.39 318.64 120.21 312.82C119.39 312.16 118.31 311.71 117.28 311.45C115.62 311.03 114.27 311.26 114.94 313.57C115.27 314.69 115.39 315.88 113.91 316.11C112.97 316.25 112.36 315.36 111.88 314.57C110.87 312.9 110.66 311.07 111.52 309.37C112.46 307.53 114.32 307.26 116.22 307.3C118.5 307.36 120.59 308.19 122.26 309.54C131.11 316.67 136.91 325.67 137.6 337.24C138.06 344.92 133.24 347.78 126.28 344.39C124.14 343.35 122.28 341.9 120.52 340.3C104.7 325.88 95.3299 307.72 89.8599 287.32C89.1899 284.83 89.1899 282.27 89.3399 279.74C89.7099 273.59 94.2999 270.26 100.26 271.8C103.66 272.68 106.61 274.55 109.26 276.76C129.47 293.61 143.11 314.5 147.87 340.64C148.98 346.72 149.02 352.96 147.07 358.98C144.21 367.8 138.69 370.31 130.21 366.68C127.18 365.38 124.48 363.52 122.12 361.23C108.61 348.18 96.8299 333.71 86.9399 317.73C85.7199 315.74 84.4099 313.75 84.7199 311.14Z" fill="#E53C26"/>
<path d="M136.09 80.63C139.67 82.8 143.13 85.14 146.33 87.87C146.14 91.21 148.66 93.44 149.77 96.25C150.84 98.94 152.66 101.6 150.62 104.43C148.41 107.5 145.12 106.58 142.1 106.09C139.42 105.65 136.78 104.96 134.1 104.49C132.54 104.22 131.62 104.94 131.9 106.62C132.2 108.41 132.7 110.16 132.96 111.95C133.83 118.13 132.04 121.49 126.36 124.16C122.92 125.78 119.54 127.61 115.67 128.07C114.76 128.18 113.78 128.16 113.48 127.03C113.28 126.28 113.69 125.62 114.23 125.11C116.24 123.22 118.7 122.03 121.09 120.73C127.82 117.08 128.28 116.02 126.28 108.62C125.9 107.22 125.35 105.87 125.01 104.46C124.03 100.38 125.63 98.31 129.86 97.97C133.01 97.71 135.96 98.74 138.98 99.27C140.73 99.58 142.42 100.5 144.48 99.59C142.95 94.88 140.4 90.77 137.43 86.88C135.44 85.13 134.34 83.18 136.09 80.63Z" fill="#529DD4"/>
<path d="M75.1299 154.13C81.5099 153.2 87.8899 152.21 94.2799 151.34C110.57 149.11 126.92 147.29 143.04 143.91C144.8 143.54 146.61 143.15 148.41 143.68C149.35 143.95 149.93 144.67 150.06 145.61C150.2 146.63 149.54 147.45 148.69 147.7C147.14 148.15 145.52 148.43 143.91 148.6C124.5 150.65 105.22 153.79 85.6799 154.68C82.1399 154.84 78.6399 155.88 75.1299 154.13Z" fill="#262F4E"/>
<path d="M262.7 96.79C262.7 96.77 262.71 96.75 262.71 96.73C262.7 96.75 262.7 96.76 262.69 96.78C262.69 96.78 262.69 96.79 262.7 96.79Z" fill="#179B60"/>
<path d="M260.25 53.5C258.47 54.35 257.2 55.77 256.01 57.29C262.27 69.75 264.67 82.87 262.7 96.73V96.72C262.7 96.72 262.69 96.79 262.69 96.8C264.66 95.06 266.62 93.33 268.59 91.59C268.75 78.25 266.19 65.5 260.25 53.5Z" fill="#179B60"/>
<path d="M418.77 115.15C421.07 115.07 422.74 116.11 423.8 117.93C424.7 119.48 425.84 121.19 425.92 122.87C426.16 127.71 429.38 128.84 433.19 129.3C435.89 129.63 438.61 129.84 441.17 130.77C444.54 132 446.28 134.88 445.69 137.9C445.1 140.91 443.15 142.36 439.32 142.59C438.6 142.63 437.87 142.66 437.15 142.6C432.63 142.18 429.11 142.65 428.05 148.37C427.41 151.85 423.56 152.92 420.08 151.47C416 149.77 413.74 146.48 413.48 142.26C413.28 139.08 411.9 137.79 409.05 137.16C406.22 136.53 402.91 135.8 402.61 132.33C402.3 128.73 405.5 127.66 408.31 126.82C410.37 126.2 411.11 124.87 411.43 122.91C411.74 120.95 412.17 119.01 413.61 117.45C415.04 115.89 416.68 114.95 418.77 115.15Z" fill="#549FD5"/>
<path d="M251 93.75C248.51 86.36 248.68 78.89 250.34 71.38C250.64 70.04 250.57 67.92 252.36 68.13C254.25 68.34 253.71 70.35 253.48 71.72C252.84 75.48 252.86 79.27 253.04 83.03C253.3 88.41 255.17 93.16 258.93 97.17C260.63 98.99 261.59 97.99 262.71 96.72C262.4 99.24 262.54 101.43 266 101.18C262.48 104.94 260.24 105.11 256.63 102.04C253.97 99.78 252.7 96.63 251 93.75Z" fill="#1F9C62"/>
<path d="M260.21 157.86C274.5 160.78 288.54 158.33 302.59 157.41C303.13 157.37 303.67 157.28 304.21 157.24C315.44 156.27 319.13 158.26 323.59 168.75C327.53 178.03 334.18 183.64 343.99 185.74C355.34 188.18 366.65 190.77 377.99 193.24C380.58 193.8 383.21 194.16 386.42 194.72C383.57 197.34 380.57 198.27 378.04 199.96C373.52 202.98 373.49 206.4 378.26 209.12C382.03 211.27 386.1 212.9 390.02 214.79C391.93 215.72 393.81 216.73 396.3 218.01C390.12 220.17 384.34 219.84 378.75 220.67C364.93 222.73 350.99 223.61 337.05 224.45C335.42 224.55 333.78 224.55 332.15 224.54C326.51 224.5 325.89 224.11 323.82 218.68C322.46 215.11 320.95 211.63 318.87 208.4C316.56 204.81 316.08 200.58 315.04 196.55C314 192.51 313.11 188.44 312.1 184.39C311.88 183.51 311.4 182.59 310.26 182.88C309.19 183.14 308.98 184.11 309.16 185.05C309.82 188.61 310.52 192.16 311.25 195.71C311.61 197.46 312.18 199.18 311.51 201.48C300.32 196.88 288.63 198.9 277.15 198.29C274.44 198.15 271.74 198.19 269.03 197.68C265.04 196.93 261.98 194.96 259.54 191.84C257.53 189.27 255.58 186.64 253.55 184.08C250.97 180.84 247.75 179.01 243.5 178.27C235.99 176.97 228.62 178.23 221.27 178.96C214.55 179.63 207.84 178.86 201.15 179.58C199.51 179.76 198.81 178.99 198.81 177.42C198.81 175.6 198.79 173.79 198.79 171.97C198.77 159.26 198.72 146.55 198.74 133.84C198.75 130 198.84 129.97 202.65 130.23C211.52 130.82 220.46 129.96 229.26 131.65C233 132.37 236.78 132.97 240.44 133.99C246.02 135.54 249.53 139.21 251.96 144.61C255.82 153.17 256.98 162.24 258.36 171.32C258.54 172.51 258.29 173.95 260.06 174.44C261.16 168.96 258.71 163.42 260.21 157.86Z" fill="#F26422"/>
<path d="M184.46 119.67C187.82 119.72 190.53 121 193.68 120.36C192.7 141.95 193.05 162.97 192.93 183.98C192.51 256.78 192.16 329.58 191.79 402.38C191.76 409.09 191.49 409.25 184.72 408.79C182.26 408.62 181.65 407.55 181.75 405.38C181.9 402.12 181.95 398.85 181.99 395.58C182.51 351.65 183.1 307.72 183.51 263.79C183.92 220.4 184.16 177.01 184.47 133.63C184.48 129.11 184.46 124.59 184.46 119.67Z" fill="#F06422"/>
<path d="M190.28 113.24C184.84 113.2 180.92 109.33 180.98 104.06C181.03 99.64 184.9 94.68 188.38 94.59C194.62 94.42 199.5 98.56 199.53 104.03C199.56 109.33 195.6 113.27 190.28 113.24Z" fill="#EF6322"/>
<path d="M460.72 363.14C454.33 368.46 454.33 368.46 449.84 361.96C449.63 361.66 449.43 361.36 449.23 361.06C446.26 356.74 447.38 354.21 452.66 353.08C454.04 352.79 454.72 353.53 455.3 354.44C457.12 357.33 459.47 359.9 460.72 363.14Z" fill="#F5E8AE"/>
<path d="M34.28 370.81C28.37 377.79 28.17 377.8 22.48 371.43C22.02 370.92 21.67 370.31 21.29 369.77C28.79 361.98 28.2 363.28 34.28 370.81Z" fill="#F6E9B4"/>
<path d="M337.39 381.06C335.36 378.53 332.66 377.25 329.46 376.8C325.89 376.3 322.29 375.82 318.78 375C315.34 374.2 312.9 372.21 312.92 368.25C311.1 367.26 309.66 366.08 309.69 363.68C309.72 360.42 307.75 358.36 305.1 356.81C300 357.92 298.63 359.41 298.47 364.37C298.4 366.35 298.66 368.35 298.76 370.33C299.03 375.6 298.53 376.29 293.28 376.91C290.36 377.25 287.51 377.78 285.04 379.38C280.24 382.48 280.33 387.82 285.21 390.77C287.55 392.18 290.19 392.87 292.95 393.07C301.33 393.69 301.33 393.7 301.83 402.41C302.16 408.16 305.36 411.66 310.33 411.74C315.77 411.83 319.13 408.41 319.42 402.51C319.76 395.57 320.38 394.86 327.28 393.13C329.91 392.47 332.63 392 335.1 390.95C339.24 389.2 340.2 384.57 337.39 381.06ZM332.16 387.76C329.37 388.54 326.51 389.1 323.76 390C317.31 392.1 316.2 393.68 315.84 400.52C315.82 400.88 315.83 401.25 315.8 401.61C315.44 405.73 313.92 407.5 310.83 407.39C307.99 407.29 306.6 405.58 306.34 401.75C306.23 400.12 306.28 398.49 306.2 396.86C305.94 391.21 303.94 389.21 298.21 388.75C295.87 388.56 293.52 388.36 291.2 388.05C290.14 387.91 289.04 387.63 288.1 387.13C286.1 386.07 286.02 384.03 288 382.9C289.9 381.82 292.05 381.47 294.25 381.24C301.9 380.46 303.51 378.51 303.25 370.77C303.16 367.97 302.34 365.08 303.91 361.97C305.76 363.03 305.78 364.36 306.06 365.58C307.08 369.95 309.57 373.47 312.48 376.76C313.72 378.17 315.17 378.92 317.14 379.14C320.91 379.57 324.62 380.43 328.37 381.04C329.82 381.27 331.22 381.57 332.5 382.3C333.64 382.95 334.66 383.77 334.59 385.22C334.54 386.71 333.44 387.41 332.16 387.76Z" fill="#539ED6"/>
<path d="M383.97 50.76C383.71 47.38 381.39 45.73 378.54 44.75C375.44 43.69 372.19 43.31 368.91 43.18C360.92 42.86 354.17 40.72 352.3 31.6C352.26 31.43 352.18 31.26 352.1 31.09C351.17 29.15 349.84 27.71 347.49 28.04C345.2 28.36 344.15 30.11 343.65 32.13C343.07 34.45 343.31 36.83 343.7 39.16C344.14 41.78 343.6 43.46 340.49 43.36C339.6 43.33 338.68 43.55 337.82 43.8C332.5 45.3 331.43 48.99 335.08 53.12C337.17 55.49 339.78 57.2 342.76 58.08C346.64 59.22 349.1 61.07 348.94 65.61C348.86 67.92 349.87 70.22 351.26 72.2C353.1 74.82 355.41 75.73 358.32 75.05C361.07 74.41 362.92 72.37 363.17 69.24C363.33 67.27 363.12 65.26 362.98 63.27C362.64 58.47 362.84 58.13 367.68 57.27C369.46 56.95 371.28 56.9 373.08 56.74C375.42 56.54 377.82 56.75 380.08 55.95C382.47 55.11 384.28 53.73 383.97 50.76ZM379.22 50.88C379.11 51.77 378.37 51.96 377.64 52.03C374.76 52.31 371.87 52.55 368.99 52.83C367.37 52.99 365.71 53.03 364.16 53.44C359.63 54.65 357.96 57.13 358.28 61.81C358.43 63.97 358.65 66.13 358.72 68.3C358.75 69.23 358.32 70.11 357.3 70.36C356.31 70.59 355.52 70.05 355.01 69.26C354.01 67.71 353.37 65.91 353.42 64.13C353.59 58.44 350.61 55.61 345.44 54.12C342.72 53.34 339.97 52.14 338.42 49.39C339 47.44 340.69 47.9 342 47.71C347.54 46.91 348.75 45.45 348.46 39.91C348.37 38.13 347.47 36.41 348.18 34.19C349.62 36.54 351.14 38.54 352.14 40.78C353.41 43.62 355.76 44.69 358.41 45.46C362.6 46.66 366.9 47.29 371.23 47.65C373.61 47.85 375.87 48.39 378.07 49.25C378.74 49.51 379.32 50.05 379.22 50.88Z" fill="#F8CA18"/>
<path d="M15.1597 252.05C16.2997 249.79 18.0197 249.47 19.5297 249.03C24.6597 247.55 26.6897 243.86 27.0697 238.9C27.1297 238.18 27.0697 237.44 27.1597 236.73C27.2597 235.89 27.0197 234.77 28.1797 234.51C29.4397 234.22 30.2497 235.05 30.7597 236.04C31.7397 237.97 32.5797 240.02 33.3097 242.01C34.6497 245.69 36.6697 246.99 40.6297 246.53C43.7697 246.16 47.1597 246.54 49.1497 249.81C47.7097 251.85 45.4897 251.5 43.6397 252.04C37.7797 253.73 36.3197 255.55 36.1497 261.64C36.1097 263.07 36.3897 264.54 35.6597 265.83C34.0497 266.46 33.6597 265.24 33.2397 264.3C32.6497 262.98 32.2197 261.59 31.7197 260.22C29.5297 254.22 28.1197 253.21 21.7997 252.97C19.7097 252.9 17.5197 253.31 15.1597 252.05Z" fill="#F8EAAF"/>
<path d="M371.16 413.78C369.93 413.04 368.62 412.33 367.26 411.91C365.02 411.21 362.71 410.75 360.43 410.2C356.4 409.24 355.75 408.47 355.62 404.28C355.6 403.56 355.62 402.83 355.62 402.11C355.64 402.11 355.67 402.11 355.69 402.11C355.69 401.02 355.76 399.93 355.68 398.85C355.4 395.39 353.61 393.25 351.01 393.2C348.57 393.15 347.23 394.74 346.61 398.38C345.66 404.04 345.66 404.03 339.92 404.9C338.67 405.09 337.36 405.12 336.19 405.54C331.48 407.23 330.32 412.43 333.87 415.98C334.75 416.86 335.86 417.56 336.97 418.12C342.17 420.77 342.18 420.74 341.46 426.51C341.39 427.05 341.32 427.59 341.3 428.13C341.11 432.41 343.85 436.39 347.88 437.71C351.02 438.74 353.77 437.69 355.11 434.68C355.76 433.22 356.1 431.57 356.34 429.97C357.25 423.84 357.21 423.8 363.67 423.54C365.86 423.45 368.01 423.16 370.07 422.45C372.06 421.76 373.51 420.44 373.75 418.2C373.94 416.14 372.79 414.76 371.16 413.78ZM361.47 419.28C354.92 419.7 352.95 421.53 352.22 428.17C352.14 428.89 352.13 429.62 352.06 430.34C351.95 431.63 351.78 433.05 350.38 433.48C348.75 433.98 347.66 432.83 346.74 431.67C345.92 430.63 345.59 429.42 345.82 428.09C346.07 426.66 346.38 425.24 346.54 423.8C347.08 418.92 346.15 417.36 341.81 415.18C339.85 414.2 336.41 414.05 337.06 411.01C337.61 408.43 340.77 409.38 342.78 409.19C348.53 408.65 350.66 404.86 352 399.9C352 401.65 351.92 403.41 352.01 405.16C352.34 411.52 356.31 415.15 362.75 415.07C365.01 415.04 366.89 416.03 369.15 417.61C366.61 419.77 363.94 419.12 361.47 419.28Z" fill="#F8CA19"/>
<path d="M244.45 50.89C241.35 55.43 239.41 60.48 238.97 66.02C241.36 64.02 243.74 62.02 246.13 60.02C246.12 57.01 247.74 54.74 249.55 52.57C251.29 50.48 252.8 51.05 254.15 53.04C255.69 52.28 257.01 51.25 258.1 49.92C252.94 44.59 248.61 44.82 244.45 50.89Z" fill="#1F9C61"/>
<path d="M408.12 132.28C408.81 130.55 410.03 130.63 411.03 130.36C413.62 129.65 414.96 127.9 415.27 125.33C415.44 123.89 415.47 122.44 416.25 121.15C416.91 120.05 417.56 118.84 419.09 119.06C420.48 119.26 421.21 120.33 421.67 121.58C421.73 121.75 421.79 121.93 421.8 122.1C422.27 130.42 427.9 132.86 434.97 133.72C436.4 133.89 437.82 134.14 439.21 134.5C440.28 134.78 441.36 135.35 441.27 136.66C441.17 138.08 439.93 138.17 438.85 138.2C437.22 138.24 435.59 138.17 433.97 138.2C427.94 138.32 426.6 139.34 424.76 145.14C423.94 147.71 422.54 148.19 420.42 146.66C418.65 145.38 417.81 143.41 417.83 141.49C417.88 136.56 415.23 134.29 410.84 133.31C409.95 133.12 409.15 132.69 408.12 132.28Z" fill="#FAEAB2"/>
</g>
<defs>
<clipPath id="clip0_1308_254">
<rect width="489.13" height="438.1" fill="white"/>
</clipPath>
</defs>
</svg>
