<svg width="570" height="366" viewBox="0 0 570 366" fill="none" xmlns="http://www.w3.org/2000/svg">
<g clip-path="url(#clip0_1308_210)">
<path d="M290.141 313.821C285.278 312.972 280.355 313.538 275.456 313.007C246.546 309.845 223.503 296.429 206.067 273.361C204.024 270.659 202.419 270.411 199.539 271.65C182.067 279.19 164.785 287.225 146.936 293.762C135.58 297.916 124.766 303.509 112.678 305.927C63.3217 315.78 14.6855 285.007 2.7035 235.909C-10.1166 183.365 23.9996 130.916 77.3223 121.772C101.133 117.689 123.574 122.126 144.15 135.046C147.066 136.875 150.123 138.338 153.37 139.447C154.774 139.07 155.86 139.908 156.982 140.462C170.168 146.952 183.165 153.772 195.749 161.371C199.456 163.613 199.468 163.589 201.9 160.002C218.544 135.518 241.576 121.028 270.769 116.509C288.217 113.819 305.157 116.497 321.649 122.444C323.136 122.987 324.694 123.53 325.792 124.816C331.813 127.978 338.518 129.064 344.916 131.058C355.517 134.362 366.2 137.418 376.848 140.568C377.45 140.745 378.1 140.769 378.737 140.875C384.038 141.17 388.901 143.2 393.8 144.934C395.535 145.548 396.397 147.483 397.224 149.076C399.443 153.371 402.819 155.33 407.6 156.545C425.756 161.147 443.829 166.126 461.808 171.401C467.864 173.182 473.979 174.799 480.106 176.356C482.703 177.017 484.627 178.233 485.583 180.758C486.469 183.118 488.18 183.885 490.624 183.79C493.504 183.684 496.408 183.625 499.289 183.849C501.78 184.038 503.633 185.065 503.739 187.908C503.798 189.36 504.636 190.516 505.215 191.767C506.691 194.976 508.084 198.221 507.552 201.903C508.827 209.041 508.933 216.145 506.903 223.177C506.242 225.454 504.825 227.437 504.105 229.608C501.921 236.18 496.172 235.059 491.344 235.921C490.777 236.027 490.069 235.508 489.963 236.511C489.621 239.508 487.224 239.626 485.064 239.992C472.197 242.139 459.365 244.44 446.462 246.34C434.94 248.039 423.537 250.387 412.039 252.251C410.646 252.475 410.103 253.301 409.607 254.458C408.332 257.502 407.116 260.594 405.581 263.508C403.598 267.272 401.296 270.364 396.893 272.287C384.451 277.703 372.327 283.851 360.109 289.774C353.309 293.078 346.309 295.992 339.722 299.745C337.007 302.27 333.631 303.485 330.113 304.228C328.059 304.665 326.099 305.326 324.139 306.01C315.203 308.653 306.408 311.839 297.035 312.712C296.174 312.795 295.701 313.302 295.229 313.88C293.541 313.007 291.794 315.627 290.141 313.821Z" fill="#14274B"/>
<path d="M507.541 201.902C506.171 197.773 505.758 193.277 502.866 189.725C502.736 189.56 502.606 189.359 502.559 189.159C501.697 184.699 501.508 184.474 497.022 184.415C494.236 184.38 491.439 184.415 488.665 184.616C486.858 184.746 485.808 184.109 485.383 182.386C484.533 178.94 482.113 177.725 478.831 176.84C455.186 170.492 431.659 163.672 407.943 157.63C402.111 156.144 398.204 153.56 395.76 148.356C394.709 146.126 392.915 145.206 390.589 144.592C386.576 143.554 382.656 142.126 378.702 140.863C378.289 137.111 377.521 133.43 376.471 129.807C375.833 127.589 375.408 125.241 375.09 123.046C373.944 115.246 371.465 107.801 369.494 100.237C368.195 95.2579 366.555 90.3139 364.914 85.3935C363.946 82.479 363.816 79.3403 362.045 76.5556C361.301 75.3993 361.951 73.7591 363.19 72.5438C368.384 67.4346 374.511 64.0835 381.334 61.5112C386.729 59.4817 392.313 58.2545 397.802 56.9094C401.049 56.1188 404.708 55.7766 407.978 55.0214C412.629 53.9477 417.54 55.0214 421.955 52.8857C422.227 52.7559 422.592 52.7323 422.899 52.7677C429.971 53.5111 436.817 51.2692 443.877 51.34C463.284 51.5642 482.715 50.9978 502.099 51.6586C509.217 51.9063 516.583 52.4727 523.418 56.0952C531.989 60.6262 537.643 66.998 541.161 76.0247C543.546 82.1604 545.092 88.5204 546.945 94.7506C548.173 98.8686 549.035 103.317 550.133 107.541C551.75 113.795 552.718 120.19 554.63 126.385C555.469 129.087 556.224 131.978 556.496 134.963C556.873 139.2 558.443 143.259 559.329 147.436C560.108 151.093 560.911 154.751 561.643 158.421C562.917 162.539 561.347 166.162 559.352 169.548C558.443 171.094 556.507 170.657 554.902 170.291C549.531 169.064 547.087 171.058 546.969 176.651C546.922 179.141 547.441 181.548 547.701 183.991C548.02 186.917 547.512 187.472 544.691 187.531C539.036 187.649 538.304 188.486 539.013 193.961C539.072 194.386 539.142 194.811 539.166 195.236C539.532 201.761 538.835 203.224 532.732 200.687C531.469 200.168 529.911 200.557 528.801 199.495C522.025 199.543 515.355 200.416 508.757 201.902C508.402 201.997 507.954 201.902 507.541 201.902Z" fill="#FEEBB0"/>
<path d="M325.78 124.828C318.249 122.043 310.658 119.412 302.69 118.161C263.049 111.943 230.727 124.474 205.854 156.014C204.591 157.607 203.41 159.282 202.277 160.97C199.739 164.734 199.763 164.734 195.725 162.315C182.764 154.563 169.412 147.53 155.884 140.84C155.022 140.415 154.196 139.919 153.358 139.459C151.54 135.813 150.583 131.837 149.651 127.955C148.695 124.013 146.936 120.32 146.334 116.273C145.885 113.299 145.023 110.397 144.327 107.47C143.217 102.833 142.497 98.0898 140.856 93.5942C140.278 92.013 140.939 90.3021 140.408 88.8626C138.944 84.9569 139.876 81.8536 142.851 79.1161C143.205 78.7975 143.005 77.889 143.064 77.2518C147.054 75.2813 148.895 76.3078 149.072 80.6383C149.131 82.1368 149.084 83.6472 149.698 85.0631C150.336 86.5144 151.268 87.6118 152.992 87.7416C154.574 87.8596 155.612 87.0218 156.462 85.8183C157.088 84.9333 157.501 83.9421 157.773 82.9038C158.646 79.5881 160.913 78.243 164.195 78.2312C165.587 78.2312 166.98 78.2548 168.373 78.1958C172.883 77.9834 174.713 75.7414 174.04 71.293C173.945 70.6676 173.65 70.0541 174.075 69.4405C178.715 68.6499 183.484 68.6027 188.005 67.0806C188.3 66.9744 188.631 66.9272 188.949 66.939C197.579 67.1632 205.984 64.992 214.448 63.9183C219.158 63.3165 224.222 64.2369 228.732 61.9832C228.838 61.9242 229.192 62.3489 229.428 62.5613C229.617 64.7561 231.01 64.0363 232.203 63.6705C237.007 62.1955 241.717 60.3902 246.557 59.0215C247.49 58.7619 248.411 58.4905 249.367 58.3371C250.961 58.0775 251.811 58.7147 251.988 60.3194C252.153 61.8298 252.106 63.3283 251.669 64.7797C250.441 68.8741 250.878 73.0394 251.067 77.2164C252.295 71.9302 253.569 66.6676 254.29 61.287C254.821 57.3105 256.108 55.8828 259.342 55.222C261.573 54.7736 262.6 55.7766 262.093 57.7589C261.254 61.0038 261.408 64.3667 260.593 67.5643C259.826 70.6204 259.767 73.6765 259.98 76.7916C261.231 72.4494 262.293 68.0717 263.214 63.6587C263.568 61.9596 263.899 60.2958 265.41 59.1867C273.803 59.4227 282.067 56.9565 290.483 57.9005C299.609 58.9271 304.673 62.113 307.919 71.8122C310.221 78.7031 312.677 85.5351 315.038 92.4024C316.974 98.0072 318.839 103.636 320.787 109.24C322.357 113.724 324.045 118.161 325.615 122.645C325.863 123.305 325.745 124.096 325.78 124.828Z" fill="#FEEBB0"/>
<path d="M75.4804 67.9891C69.3182 66.88 63.7935 68.9095 58.1862 70.3254C52.5552 71.7414 46.8889 73.0157 41.3288 74.6323C28.2489 78.4317 17.0107 84.7209 12.2297 98.5028C10.8485 102.491 10.4589 107.152 13.8942 110.491C17.0697 113.583 20.9535 114.68 25.7463 113.795C35.261 112.06 43.737 108.178 51.5872 102.821C57.2064 98.9984 62.8137 95.0573 66.1545 88.8036C66.5086 88.1546 66.9572 87.5882 67.0989 86.8212C67.7954 83.246 67.1697 82.1014 63.5574 81.8418C57.0765 81.3698 50.9734 83.187 44.9647 85.3817C40.9746 86.8448 37.2915 88.8862 34.1278 91.6709C32.5577 93.0514 30.0197 95.1635 31.271 97.1105C32.5931 99.1518 34.8361 96.5559 36.477 95.8715C42.7099 93.2756 48.518 89.8301 53.842 85.6767C55.0933 84.6973 56.0731 84.5321 57.171 85.5233C58.4459 86.656 57.4543 87.6944 56.805 88.6148C54.3732 92.0484 50.7255 94.0544 47.3021 96.1783C43.6779 98.432 39.924 100.544 35.8985 102.137C33.7736 102.975 31.696 103.093 29.6183 102.833C26.0532 102.385 24.3887 97.0632 26.49 93.0986C29.3822 87.6 34.3403 84.4849 39.6997 81.8772C46.7826 78.4199 54.1725 76.1898 62.129 75.8476C72.659 75.3993 76.2123 83.01 71.632 91.6709C68.1849 98.1842 62.5658 102.55 56.7932 106.786C50.0762 111.718 42.7099 115.506 34.7652 117.854C27.5052 120.002 20.0209 121.547 12.9262 117.04C9.20762 114.68 6.764 111.541 6.48068 106.892C5.65434 93.2284 12.6428 84.0483 23.4797 77.0866C31.0585 72.2252 39.558 69.8771 48.2701 67.9655C55.4238 66.408 62.4596 64.3195 69.8612 64.3077C72.4111 64.3195 74.6894 64.8032 75.4804 67.9891Z" fill="#F8C914"/>
<path d="M165.363 325.833C162.813 329.279 159.118 331.061 155.624 332.913C145.507 338.282 135.662 344.276 124.778 347.993C116.007 350.99 107.153 353.928 97.5437 351.462C91.7121 349.963 89.1268 345.645 91.2163 339.969C94.0259 332.37 100.105 328.04 106.787 324.323C114.071 320.276 121.968 318.223 130.161 317.125C133.065 316.736 135.933 317.054 138.719 317.892C144.657 319.674 146.333 325.491 142.143 330.128C137.728 335.025 132.132 338.353 126.135 340.901C122.629 342.388 118.946 343.486 115.263 344.5C112.371 345.303 109.195 345.385 107.46 342.459C105.713 339.509 107.495 336.972 109.573 334.813C110.376 333.975 111.249 333.185 112.182 332.488C117.01 328.948 122.074 325.904 128.201 325.161C129.547 324.996 130.963 325.019 131.329 326.412C131.802 328.193 130.161 327.887 129.063 328.193C122.818 329.928 117.317 333.066 112.56 337.456C111.969 337.999 110.753 338.789 111.355 339.792C111.91 340.736 113.067 340.252 114.012 340.052C122.912 338.129 130.834 334.258 137.551 328.087C138.648 327.084 140.337 325.987 139.616 324.134C138.944 322.435 137.314 321.68 135.473 321.633C121.272 321.279 108.947 325.881 98.7478 335.816C96.9299 337.586 95.5251 339.792 95.1709 342.447C94.923 344.371 95.5369 345.645 97.5555 346.388C101.333 347.769 105.122 347.651 108.947 346.978C123.81 344.394 137.185 337.81 150.642 331.438C154.762 329.491 158.929 327.639 163.085 325.763C163.781 325.503 164.489 325.291 165.363 325.833Z" fill="#F06523"/>
<path d="M528.836 199.495C531.516 198.882 533.865 200.156 536.297 200.864C537.891 201.324 538.505 201.006 538.351 199.33C538.162 197.312 538.339 195.295 537.914 193.277C536.84 188.239 538.894 185.891 544.053 186.587C546.803 186.964 547.465 186.469 546.804 183.731C546.119 180.935 546.379 177.997 546.201 175.118C545.918 170.457 550.534 167.755 554.394 169.053C558.691 170.492 559.565 169.855 560.273 165.277C560.627 162.964 561.961 160.864 561.654 158.421C563.378 154.504 563.248 150.055 565.196 146.197C565.656 145.276 565.762 143.849 567.191 144.155C568.501 144.439 568.005 145.772 567.946 146.61C567.391 154.067 566.541 161.477 565.042 168.805C564.676 170.61 563.637 172.144 562.669 173.678C560.84 176.498 558.077 175.908 555.445 175.589C552.328 175.212 551.809 175.601 552.269 178.693C552.706 181.643 553.615 184.51 553.402 187.542C553.119 191.578 550.912 193.879 546.839 193.725C545.139 193.666 544.254 194.221 543.652 195.625C543.663 197.442 543.687 199.259 543.687 201.065C543.675 206.103 541.114 208.074 536.297 206.752C532.508 205.714 532.39 205.749 533.37 209.608C533.901 211.708 534.196 213.82 534.219 215.932C534.279 220.05 531.398 221.773 527.857 219.743C526.121 218.752 524.61 217.336 523.052 216.05C522.261 215.401 521.789 214.469 522.391 213.502C523.017 212.487 524.055 212.888 525 213.03C526.428 213.254 527.668 215.602 528.99 214.056C529.568 213.372 528.518 211.283 528.187 209.844C527.857 208.392 527.561 206.929 527.148 205.501C526.487 203.141 526.782 201.088 528.836 199.495Z" fill="#4F9BD4"/>
<path d="M290.141 313.821C291.817 314.612 293.565 311.308 295.206 313.915C295.229 316.311 293.494 318.305 293.635 320.936C297.649 320.96 301.285 319.261 305.098 318.458C308.427 317.75 311.591 316.299 315.12 316.464C318.508 316.629 319.972 318.14 319.772 321.514C319.571 324.842 317.694 327.52 316.265 330.364C315.38 332.134 314.318 333.821 313.019 336.099C318.473 334.47 323.396 333.09 328.543 332.913C330.585 332.842 332.603 332.618 334.622 333.031C338.305 333.786 339.71 336.323 338.364 339.91C337.302 342.73 335.661 345.208 333.878 347.615C332.178 349.916 332.485 350.6 335.378 351.296C336.582 351.591 337.762 352.193 339.533 350.99C337.986 353.798 334.044 354.73 331.399 353.644C328.672 352.524 327.468 350.14 328.354 347.438C329.204 344.877 331.045 342.86 332.32 340.523C333.324 338.683 333.076 337.939 330.75 337.963C324.977 338.034 319.547 339.52 314.2 341.467C313.893 341.574 313.598 341.692 313.291 341.786C311.201 342.447 308.982 343.072 307.317 341.161C305.641 339.214 306.279 336.913 307.294 334.86C309.407 330.565 312.216 326.635 314.259 321.514C309.737 322.706 305.688 323.815 301.627 324.83C298.936 325.503 296.221 326.222 293.47 326.553C288.854 327.107 286.777 324.582 288.028 320.157C288.63 318.033 289.433 315.933 290.141 313.821Z" fill="#E63A25"/>
<path d="M324.116 306.045C327.763 303.461 332.403 303.378 336.251 301.207C337.278 300.629 338.27 299.544 339.698 299.78C342.827 301.479 343.558 303.614 342.189 307.237C341.74 308.429 341.15 309.573 340.619 310.741C340.135 311.791 339.651 312.842 339.061 314.116C342.012 314.352 344.302 312.759 346.84 312.299C347.466 312.193 348.044 311.791 348.67 311.709C351.043 311.414 353.604 310.305 355.635 312.358C357.984 314.753 356.331 317.266 355.139 319.426C353.864 321.739 354.277 322.187 356.804 322.269C363.037 322.482 365.48 324.924 365.799 331.143C366.011 335.273 367.204 339.367 365.952 343.568C365.504 345.078 364.76 346.187 363.485 347.237C364.123 344.099 363.957 341.054 363.273 338.022C362.978 336.677 362.836 335.284 362.541 333.939C361.62 329.762 359.944 327.084 354.726 327.107C348.776 327.143 347.501 324.205 349.992 318.564C350.24 318.01 350.334 317.408 350.571 316.57C347.808 316.618 345.66 317.951 343.334 318.505C340.383 319.202 337.172 320.842 334.622 318.14C332.06 315.402 334.209 312.582 335.342 309.892C336.074 308.157 338.081 306.08 337.137 304.747C336.11 303.272 333.583 304.653 331.718 304.889C329.18 305.207 326.654 305.644 324.116 306.045Z" fill="#E53A26"/>
<path d="M540.57 233.678C540.736 236.31 541.031 238.74 541.007 241.159C540.96 244.156 538.457 245.608 535.896 244.05C534.184 243.012 532.649 241.596 531.245 240.156C530.383 239.271 529.568 237.997 530.607 236.711C531.622 235.46 532.862 235.838 534.042 236.581C534.491 236.864 534.88 237.266 535.754 236.994C535.754 235.614 535.671 234.15 535.778 232.687C536.014 229.478 538.186 227.672 541.184 228.581C543.262 229.218 543.652 228.64 543.463 226.799C543.392 226.056 543.439 225.301 543.451 224.557C543.498 220.652 544.348 219.625 548.208 220.003C550.829 220.251 551.443 219.33 551.183 217.029C551.065 215.967 551.136 214.894 551.148 213.82C551.171 209.596 551.844 208.758 556.07 208.522C557.758 208.427 558.49 207.495 559.234 206.256C561.772 202.056 564.298 197.843 566.978 193.725C567.474 192.97 568.005 191.412 569.304 192.014C570.791 192.71 569.54 193.937 569.256 194.799C567.58 199.743 565.55 204.569 563.224 209.242C562.244 211.212 560.84 213.218 558.573 213.253C555.551 213.301 555.693 214.929 555.822 216.982C555.905 218.363 555.999 219.79 555.799 221.147C555.421 223.743 554.146 225.714 551.148 225.265C548.574 224.876 547.913 225.926 548.208 228.227C548.314 229.065 548.255 229.938 548.208 230.799C548.019 234.339 546.013 235.59 542.613 234.327C542.011 234.044 541.397 233.914 540.57 233.678Z" fill="#4F9BD4"/>
<path d="M543.676 195.637C543.31 193.489 542.566 191.495 546.379 192.852C549.755 194.055 552.128 191.684 552.447 187.991C552.789 184.097 551.349 180.427 551.313 176.592C551.302 174.397 551.963 173.737 554.147 174.409C557.051 175.294 559.978 175.483 562.693 173.678C563.402 177.855 561.749 181.819 561.182 185.819C560.462 190.87 555.41 192.722 551.03 194.126C548.693 194.87 546.332 196.238 543.676 195.637Z" fill="#FBEBB2"/>
<path d="M201.038 209.926C201.369 174.669 235.449 135.365 282.197 137.005C323.927 138.468 358.126 175.165 357.406 217.501C356.674 260.334 321.649 294.435 278.041 293.137C233.62 291.815 201.144 257.679 201.038 209.926Z" fill="#4F9AD4"/>
<path d="M89.5049 285.726C58.151 286.069 28.4381 264.853 19.1948 233.938C7.95656 196.333 28.2728 157.052 64.1243 143.872C68.5984 142.22 73.0842 142.527 77.5229 141.783C95.4427 138.81 112.3 142.173 127.623 151.919C145.885 163.542 157.407 180.144 160.807 201.525C166.213 235.602 145.956 268.346 115.629 280.57C107.082 284.015 98.2759 285.951 89.5049 285.726Z" fill="#4F9AD4"/>
<path d="M415.969 165.89C429.675 169.005 442.837 173.961 456.342 177.725C461.938 179.282 467.439 181.206 472.999 182.893C476.104 183.825 477.697 186.103 479.114 188.805C485.04 200.156 485.052 212.38 484.686 224.675C484.674 224.994 484.603 225.313 484.568 225.631C483.966 233.206 483.954 233.124 476.234 234.139C467.262 235.319 458.408 237.195 449.543 239C444.219 240.086 438.859 241.077 433.476 241.761C429.758 242.245 426.193 243.378 422.509 243.932C421.199 244.428 420.585 243.59 420.573 242.563C420.538 240.463 420.349 238.257 422.132 236.605C425.709 237.678 429.167 236.499 432.591 235.838C444.903 233.501 457.381 232.215 469.658 229.69C455.115 230.764 440.772 233.313 426.393 235.566C425.047 235.779 423.678 236.381 422.332 235.531C422.214 230.953 422.734 226.41 423.182 221.879C424.977 203.932 423.631 186.457 416.123 169.772C415.615 168.616 414.175 167.247 415.969 165.89Z" fill="#F26422"/>
<path d="M26.3371 262.635C28.4266 264.959 30.4216 267.366 32.6055 269.585C44.1862 281.384 58.1868 288.995 74.3831 291.85C112.029 298.493 149.321 279.048 163.262 243.46C168.421 230.304 170.121 216.664 167.819 202.504C163.404 175.341 149.356 155.082 124.932 142.409C108.724 133.996 91.0162 130.633 73.5332 135.518C52.2607 141.453 33.4437 152.356 21.686 172.392C21.3201 173.017 20.8479 173.572 20.1514 174.539C30.7286 150.055 62.8969 127.022 99.0908 129.453C139.782 132.179 170.168 162.433 176.437 198.563C184.346 244.121 155.518 281.573 119.926 293.184C80.1203 306.187 41.4828 286.788 26.3371 262.635Z" fill="#4F9AD4"/>
<path d="M231.801 143.895C254.408 127.199 279.67 121.665 306.762 128.473C331.364 134.645 350.181 149.359 362.505 171.872C370.733 186.893 374.747 203.058 373.212 220.003C370.108 254.304 352.813 279.343 321.755 294.54C308.108 301.219 292.195 303.662 276.412 302.021C284.9 301.88 293.246 300.9 301.474 298.718C320.444 293.691 335.684 283.142 347.678 267.791C356.319 256.723 361.868 244.133 364.264 230.374C368.337 206.952 363.509 185.3 349.721 165.843C338.282 149.689 322.546 139.317 303.717 134.055C280.886 127.659 258.811 130.397 237.928 141.807C235.898 142.916 233.962 144.202 231.978 145.406C230.255 145.087 231.801 144.403 231.801 143.895Z" fill="#4E99D3"/>
<path d="M365.055 145.878C365.279 145.441 365.669 145.241 366.106 145.37C373.295 147.482 380.484 149.606 387.673 151.754C389.444 152.285 390.341 153.866 391.167 155.247C396.078 163.494 400.304 172.108 402.937 181.347C404.306 186.138 405.062 191.153 405.558 196.108C406.892 209.536 407.317 223 405.64 236.451C404.448 245.997 401.627 255.036 396.81 263.413C396.303 264.31 395.63 264.735 394.697 265.171C387.614 268.487 380.578 271.921 373.531 275.319C372.74 274.151 373.543 273.23 374.157 272.44C375.538 270.67 375.975 268.334 377.674 266.776C382.078 265.785 385.855 263.543 389.468 260.912C387.26 261.159 385.324 262.186 383.305 262.953C382.337 263.319 381.169 264.275 380.401 262.587C381.971 257.572 384.262 252.841 386.162 247.956C390.672 236.369 394.272 224.581 393.151 212.002C392.608 205.985 392.407 199.873 390.778 193.985C390.636 192.675 390.92 191.318 390.365 190.043C389.904 188.84 389.562 187.613 389.373 186.338C388.476 183.4 387.52 180.498 386.044 177.784C385.926 177.501 385.832 177.206 385.761 176.911C385.1 173.937 383.506 171.388 381.971 168.816C379.551 164.427 376.86 160.179 373.956 156.096C371.725 152.946 369.08 150.137 366.2 147.565C365.657 147.117 364.795 146.881 365.055 145.878Z" fill="#F26422"/>
<path d="M365.055 145.878C369.269 148.922 372.409 152.828 375.431 157.064C378.076 160.769 380.224 164.698 382.562 168.533C382.125 172.108 385.548 173.913 386.422 176.899C386.434 177.111 386.434 177.312 386.434 177.524C387.248 180.533 387.661 183.719 390.258 185.914C390.483 187.2 390.707 188.486 390.931 189.772C391.014 191.082 390.624 192.462 391.569 193.631C393.363 197.336 392.017 201.524 393.08 205.147C394.201 208.982 393.93 212.699 394.142 216.475C394.567 223.849 392.678 230.858 390.66 237.808C388.11 246.599 384.474 254.988 380.673 263.295C380.449 265.053 379.504 266.269 377.946 267.059C376.47 269.809 374.983 272.57 373.507 275.319C368.219 278.009 362.93 280.7 357.641 283.378C357.464 283.118 357.287 282.859 357.122 282.599C360.38 278.764 363.579 274.906 366.436 270.741C370.45 264.876 373.873 258.764 376.47 252.168C376.659 251.696 377.096 251.319 377.427 250.906C379.445 247.566 382.231 244.522 382.196 240.333C382.172 237.065 383.258 233.95 383.235 230.693C383.223 228.687 383.057 226.634 384.486 224.899C384.993 224.274 384.71 223.483 384.687 222.728C384.462 217.383 384.273 212.038 384.805 206.693C384.993 204.781 385.135 202.822 383.848 201.135C383.223 200.321 383.046 199.306 383.27 198.374C383.872 195.813 383.022 193.406 382.184 191.188C380.26 186.079 378.607 180.922 377.308 175.613C376.329 171.613 373.271 168.592 371.796 164.792C371.465 163.943 370.285 164.049 369.718 163.388L369.706 163.376C368.821 162.256 368.762 160.816 368.278 159.542C367.345 157.076 366.117 155.022 363.343 154.362L363.296 154.303C362.363 153.064 362.812 150.775 360.475 150.609C359.672 149.772 358.869 148.922 358.066 148.084C357.181 146.173 356.65 144.391 359.66 143.99C361.49 144.497 363.532 144.474 365.055 145.878Z" fill="#E63925"/>
<path d="M415.97 165.89C415.781 168.722 417.729 170.787 418.649 173.218C421.365 180.321 423.194 187.566 423.855 195.177C424.269 199.955 425.543 204.699 425 209.501C424.021 218.174 424.564 226.988 422.569 235.566C422.876 236.038 422.817 236.463 422.356 236.805C421.978 238.587 421.553 240.369 421.235 242.174C421.069 243.118 421.506 243.779 422.521 243.944C419.228 244.888 415.934 245.82 412.794 246.717C416.643 218.056 417.386 189.678 404.531 162.161C408.438 163.896 412.523 163.825 415.97 165.89Z" fill="#E63925"/>
<path d="M185.585 270.245C183.165 272.853 179.636 273.42 176.649 274.954C172.104 277.278 167.335 279.142 162.707 281.325C161.763 281.774 160.925 281.809 159.048 281.833C173.898 266.859 182.906 249.49 187.037 229.466C188.182 233.797 189.245 237.868 190.319 241.95C192.22 249.16 195.313 255.85 198.76 262.375C199.739 264.228 199.444 264.535 197.721 265.266C193.672 266.989 189.965 269.514 185.526 270.293C185.455 268.417 187.167 268.358 188.253 267.732C189.446 267.036 190.779 266.611 191.936 265.821C187.852 267.437 183.39 268.098 179.364 270.965C181.796 271.248 183.472 268.688 185.585 270.245Z" fill="#EB5524"/>
<path d="M170.062 159.483C178.478 163.719 186.045 167.53 193.624 171.342C195.1 172.085 195.536 172.793 194.769 174.693C191.582 182.563 188.548 190.528 187.344 199.2C183.826 185.206 179.246 171.778 170.062 159.483Z" fill="#E64325"/>
<path d="M501 211.566C501.248 218.327 498.38 224.251 496.019 230.339C495.37 232.027 494.154 231.472 493.115 231.46C491.356 231.448 491.864 230.032 491.934 229.077C492.418 222.493 493.835 215.944 493.15 209.301C492.619 204.062 492.088 198.799 489.857 193.914C489.207 192.498 489.113 191.354 491.25 191.519C491.356 191.531 491.474 191.483 491.568 191.531C493.681 192.392 496.149 189.536 497.731 191.566C498.923 193.1 499.336 195.542 499.395 197.595C499.513 202.315 501.331 206.811 501 211.566Z" fill="#E53A25"/>
<path d="M369.706 163.388C371.312 163.282 372.539 163.506 373.094 165.453C374.05 168.828 377.143 171.141 377.911 174.645C378.831 178.834 380.083 182.952 381.122 187.106C381.547 188.793 383.176 189.442 383.258 191.2C383.364 193.678 384.946 196.026 383.908 198.669C383.719 199.141 383.943 200.132 384.333 200.439C386.835 202.374 385.844 205.005 385.572 207.283C384.958 212.51 384.887 217.69 385.572 222.905C385.655 223.519 385.82 224.463 385.513 224.734C382.94 226.964 384.415 229.891 383.919 232.463C382.916 237.69 384.191 243.46 380.508 248.05C379.658 249.112 378.831 250.363 377.427 250.918C377.816 247.342 379.363 244.074 380.354 240.676C383.789 228.923 384.746 216.947 383.518 204.911C382.09 190.858 377.556 177.619 370.627 165.265C370.296 164.663 369.494 164.285 369.706 163.388Z" fill="#E53925"/>
<path d="M231.801 143.895C231.931 144.391 231.246 144.969 231.978 145.394C226.807 149.618 221.389 153.547 216.726 158.373C220.964 152.733 225.615 147.518 231.801 143.895Z" fill="#2D68A0"/>
<path d="M359.648 143.967C357.594 144.745 358.232 146.563 358.055 148.061C355.942 146.126 353.84 144.191 351.09 141.678C354.785 141.512 357.323 142.303 359.648 143.967Z" fill="#E53925"/>
<path d="M363.332 154.35C367.216 152.97 367.629 156.415 368.703 158.492C369.435 159.896 369.86 161.642 369.695 163.377C367.157 160.663 365.327 157.453 363.332 154.35Z" fill="#E53925"/>
<path d="M360.475 150.598C364.914 149.158 362.706 152.792 363.297 154.291C361.715 153.536 361.231 151.967 360.475 150.598Z" fill="#E53925"/>
<path d="M506.596 84.8035C502.311 83.5527 498.273 81.771 493.929 80.7444C482.254 77.9833 470.402 76.5084 458.514 75.1869C449.649 74.1957 440.996 74.8683 432.437 77.1456C429.356 77.9715 425.697 78.6559 425.201 82.42C424.693 86.2194 428.069 87.9658 430.855 89.4171C439.662 94.0072 449.165 96.4851 458.987 97.6296C465.798 98.4202 472.657 98.7624 479.515 97.8066C481.782 97.488 483.93 96.8745 486.008 96.0957C489.254 94.8685 489.691 92.5676 487.46 89.8065C484.107 85.6531 479.208 84.5793 474.404 83.7061C467.946 82.538 461.395 82.4318 454.89 83.6235C452.848 84.0011 449.731 84.1663 449.625 86.2902C449.531 88.1192 452.635 87.3286 454.276 87.6354C460.191 88.7445 466.199 88.8625 472.22 88.7446C473.518 88.721 475.702 87.8596 475.761 90.2077C475.809 92.072 473.873 91.7888 472.539 92.0012C464.924 93.193 457.369 92.662 449.838 91.3169C447.453 90.8921 444.998 90.1369 444.514 87.4348C444.042 84.7563 446.06 83.2224 448.102 81.889C450.794 80.1309 453.875 79.6117 456.944 79.3167C466.306 78.3963 475.561 78.8919 484.426 82.42C486.197 83.128 487.873 84.1191 489.302 85.4289C492.123 88.013 494.153 91.0337 493.221 95.0101C492.3 98.9276 488.959 100.45 485.512 101.535C477.237 104.155 468.737 103.636 460.32 102.751C449.531 101.618 439.107 98.8332 429.356 93.901C427.054 92.7328 424.941 91.2815 423.229 89.3109C419.062 84.5203 419.96 78.5497 425.543 75.5526C433.039 71.529 441.326 70.6086 449.554 71.0688C464.806 71.9184 479.952 73.9715 494.649 78.4435C499.029 79.7651 503.231 81.4878 506.596 84.8035Z" fill="#F06523"/>
<path d="M198.346 89.0397C198.216 95.907 198.759 96.5442 205.464 97.9483C207.755 98.4321 210.104 98.8569 212.276 99.7183C216.927 101.547 219.489 106.137 218.344 110.09C217.128 114.279 212.606 116.851 207.554 116.143C205.016 115.789 202.466 115.412 199.963 114.845C197.697 114.326 196.717 115.152 196.622 117.37C196.516 119.837 196.174 122.279 195.052 124.521C193.718 127.188 191.759 128.934 188.489 128.745C185.313 128.568 182.929 127.306 181.666 124.297C181.205 123.223 180.745 122.114 180.485 120.981C179.435 116.438 179.47 116.45 174.748 117.5C171.655 118.185 168.539 118.362 165.658 116.816C160.417 113.996 160.181 107.884 165.233 104.662C167.028 103.518 168.987 102.491 171.018 101.937C174.736 100.934 176.755 98.3967 178.077 95.0928C179.376 91.8244 180.485 88.4615 181.784 85.193C182.775 82.6679 184.286 80.4732 186.506 78.8449C191.003 75.5528 195.973 77.0985 197.779 82.3729C198.535 84.5204 198.405 86.786 198.346 89.0397Z" fill="#089A5C"/>
<path d="M270.026 38.0536C270.368 36.1656 271.442 35.3397 273.131 34.8913C278.183 33.5579 283.2 32.0122 288.3 30.8912C293.187 29.8057 297.85 27.7761 302.938 27.5284C303.847 27.4812 305.311 27.1626 305.181 25.7466C305.063 24.4959 303.788 24.5195 302.891 24.5903C301.191 24.7201 299.503 25.015 297.826 25.3218C289.858 26.785 281.972 28.6611 274.122 30.6788C272.54 31.0918 271.667 30.8204 272.222 28.7555C273.378 24.4251 274.405 20.0592 275.326 15.6698C276.212 11.4927 276.944 7.2921 277.64 3.07965C277.853 1.7935 277.734 0.306755 276.07 0.0353647C274.606 -0.200627 274.051 1.07373 273.721 2.20648C273.178 4.04722 272.776 5.92335 272.316 7.78768C270.415 15.4338 268.444 23.0681 266.673 30.7378C266.095 33.2511 264.064 33.4989 262.542 33.2275C260.476 32.85 261.833 31.0446 262.093 29.8529C263.096 25.1566 264.277 20.484 265.115 15.7642C265.528 13.4869 266.177 11.1742 265.658 8.80244C265.41 7.69328 264.997 6.64312 263.722 6.57232C262.353 6.48973 261.892 7.66968 261.703 8.69625C260.334 16.3778 257.997 23.8469 256.45 31.4812C255.884 34.2659 254.609 35.4341 252.023 36.024C245.979 37.4046 240.018 39.1391 234.34 41.6524C232.781 42.3368 230.102 42.9386 230.928 45.1333C231.79 47.4342 234.198 46.1599 235.957 45.6643C241.293 44.1421 246.629 42.5964 251.929 40.9799C253.782 40.4135 254.538 40.5315 254.03 42.797C253.369 45.7115 252.85 48.6732 252.637 51.6467C252.496 53.511 251.728 54.219 250.052 54.6674C242.91 56.5671 236.04 59.2102 229.452 62.5613C228.803 63.163 227.575 63.5288 228.248 64.7678C228.957 66.0893 230.043 65.4876 231.058 65.1454C236.807 63.2338 242.579 61.3577 248.305 59.399C250.654 58.5966 251.693 59.1158 251.209 61.7235C251.067 62.4551 251.15 63.2456 250.937 63.9418C249.556 68.4492 249.981 73.0747 249.922 77.6765C249.91 78.3609 249.662 79.3638 250.654 79.5644C251.799 79.8004 252.106 78.7739 252.259 77.9715C253.227 72.8505 254.325 67.7295 255.01 62.5731C255.73 57.1217 255.801 56.8267 261.444 55.8355C260.594 63.753 258.138 71.5407 259.638 79.6234C262.494 73.0393 263.297 65.9241 265.434 59.1866C265.339 55.5995 266.685 53.4992 270.498 52.3782C279.918 49.5935 289.162 46.2543 298.216 42.4076C299.987 41.6524 301.805 40.9327 303.233 39.5993C302.478 38.6435 301.84 39.0565 301.262 39.2217C291.062 42.3014 280.839 45.3339 270.675 48.5316C268.031 49.3576 267.582 48.4018 268.102 46.1717C268.716 43.446 269.53 40.7793 270.026 38.0536ZM264.466 41.0035C264.348 42.7852 263.746 44.5433 263.391 46.3133C262.4 51.3045 262.412 51.3045 256.863 52.2366C257.867 48.0124 258.788 44.1775 259.697 40.3427C259.862 39.6229 259.874 38.7969 260.759 38.5256C262.069 38.1362 263.71 37.1332 264.643 37.5816C265.871 38.1834 264.537 39.8117 264.466 41.0035Z" fill="#4F9BD4"/>
<path d="M496.444 294.187C495.204 291.107 492.808 289.703 489.502 289.337C486.469 289.007 483.482 289.243 480.519 289.538C477.119 289.868 475.266 288.476 474.298 285.396C473.566 283.048 472.739 280.7 471.37 278.635C469.021 275.071 466.199 272.074 462.741 271.543C458.987 271.284 457.157 272.7 455.717 274.706C453.19 278.222 451.467 282.116 450.735 286.399C450.393 288.44 449.732 290.08 447.902 291.449C445.435 293.302 443.18 295.52 441.149 297.856C437.384 302.21 438.729 306.848 444.053 309.066C446.898 310.246 449.873 310.588 452.836 310.753C455.126 310.883 456 311.674 456.224 313.939C456.519 317.007 456.756 320.169 458.491 322.883C460.521 326.046 463.307 328.287 467.179 327.933C470.756 327.603 472.244 324.641 473.153 321.55C473.719 319.615 473.991 317.585 474.416 315.603C476.08 307.957 476.08 308.004 483.801 307.473C487.932 307.19 491.934 306.352 494.708 302.871C496.751 300.322 497.742 297.408 496.444 294.187ZM486.893 299.402C483.435 300.086 479.94 300.547 476.446 301.03C472.421 301.585 469.894 303.732 468.702 307.662C467.64 311.166 467.498 314.824 466.707 318.364C466.542 319.107 466.66 320.146 465.491 320.335C464.629 319.65 463.862 318.942 463.673 317.798C463.319 315.685 462.918 313.585 462.54 311.485C461.666 306.694 459.553 304.747 454.642 304.193C452.411 303.945 450.157 303.803 447.949 303.39C446.332 303.084 445.659 302.199 447.288 300.865C448.622 299.768 449.779 298.517 450.605 296.995C450.948 296.358 451.29 296.051 452.093 296.181C455.044 296.7 455.658 294.753 456.106 292.44C456.862 288.464 457.594 284.511 459.459 280.794C460.793 278.139 461.784 278.67 463.248 280.499C464.535 282.116 465.42 283.933 466.164 285.821C470.213 295.98 473.082 297.75 483.871 296.688C484.721 296.606 485.571 296.417 486.421 296.381C487.531 296.346 489.207 295.532 489.573 296.889C490.034 298.588 488.157 299.154 486.893 299.402Z" fill="#069A5D"/>
<path d="M174.075 69.4287C172.552 68.1425 170.793 67.6116 168.798 67.5054C163.982 67.2458 163.616 66.7974 163.581 61.9242C163.569 59.2457 163.722 56.5672 163.038 53.9359C162.388 51.4933 161.102 49.629 158.434 49.2396C155.99 48.8738 154.385 50.2308 153.263 52.1895C152.366 53.7471 151.292 55.3164 150.878 57.0273C150.017 60.5082 148.045 62.7855 144.846 64.2605C142.639 65.2752 140.49 66.4434 138.401 67.6706C136.311 68.8977 134.93 70.7738 135.603 73.2399C136.276 75.7179 138.235 77.004 140.844 77.1456C141.588 77.181 142.344 77.2046 143.087 77.24C148.163 77.0158 148.163 77.0158 148.222 82.0896C148.222 82.6206 148.14 83.187 148.258 83.6826C148.86 86.1251 149.651 88.4496 152.637 88.898C155.577 89.3346 157.324 87.5292 157.796 85.1575C158.882 79.6471 162.365 78.597 167.146 79.2577C167.559 79.3167 167.996 79.2695 168.432 79.2459C174.559 78.9863 176.873 74.9745 174.075 69.4287ZM159.095 72.0128C155.801 73.181 152.33 73.3343 148.86 73.3933C146.286 73.3579 143.725 73.3343 141.151 73.2871C140.419 73.2753 139.558 73.3697 139.286 72.4376C138.991 71.4228 139.628 70.88 140.443 70.4435C141.741 69.7355 143.005 68.9449 144.303 68.2369C144.634 68.0599 145.141 67.8711 145.425 68.0009C148.293 69.3107 148.258 69.3225 149.887 66.7738C151.965 63.5289 152.909 59.7766 154.573 56.3312C154.845 55.7648 155.034 55.1512 155.353 54.6084C155.99 53.5347 156.557 52.0597 158.139 52.5435C159.555 52.9683 159.744 54.4314 159.768 55.7294C159.815 58.3017 159.838 60.874 159.756 63.4345C159.673 66.0776 160.606 68.2015 162.565 69.9361C162.258 72.0128 160.346 71.5644 159.095 72.0128Z" fill="#E53B26"/>
<path d="M148.86 73.3932C152.519 71.3755 156.852 72.3548 160.629 70.7737C161.279 70.5023 162.105 70.6439 162.565 69.9241C164.572 70.8327 166.709 70.7501 168.834 70.8681C170.121 70.9507 171.384 71.3165 171.454 73.0628C171.525 74.6321 170.463 74.9979 169.294 75.3755C167.193 76.0717 165.044 75.7059 162.92 75.7531C158.209 75.8475 156.769 76.8151 155.057 81.2635C154.786 81.9597 154.656 82.7148 154.314 83.3638C154.042 83.883 153.877 84.7562 153.074 84.6146C152.39 84.4966 152.142 83.7886 152.118 83.1396C152.071 81.7473 151.941 80.3431 152.094 78.9626C152.425 76.2487 151.303 74.4669 148.86 73.3932Z" fill="#FCEAB0"/>
<path d="M450.098 342.27C443.534 341.739 441.858 340.016 441.823 333.503C441.811 331.013 441.622 328.571 440.548 326.305C439.355 323.792 437.266 322.388 434.492 322.305C432.048 322.234 430.62 323.804 429.687 325.869C428.778 327.91 428.046 329.998 427.562 332.193C426.866 335.332 426.606 338.506 426.157 341.668C425.579 345.786 420.739 344.252 418.402 346.412C416.666 348.028 415.037 349.562 415.557 352.064C416.135 354.825 418.496 355.946 420.881 355.592C425.815 354.86 427.94 356.748 429.203 361.515C430.372 365.94 435.117 366.235 437.809 362.424C439.155 360.512 439.981 358.306 440.666 356.052C441.398 353.645 442.791 352.264 445.588 352.559C448.15 352.831 450.712 352.583 453.12 351.45C454.938 350.601 456.036 349.362 455.988 347.285C455.953 344.429 453.769 342.565 450.098 342.27ZM451.042 348.689C449.13 348.901 447.265 349.421 445.305 349.267C441.398 348.984 438.812 350.707 437.49 354.459C436.782 356.453 435.92 358.4 434.905 360.264C434.22 361.527 433.193 361.822 432.449 360.158C432.19 359.58 431.812 359.037 431.623 358.424C429.782 352.547 429.782 352.606 423.726 352.5C422.038 352.477 419.429 353.515 418.886 351.356C418.307 349.008 421.046 348.394 422.734 347.474C424.044 346.766 425.437 346.199 426.783 345.574C428.778 344.654 431.363 344.394 429.345 340.854C428.613 339.568 429.9 337.184 430.171 335.285C430.584 332.406 431.564 329.727 432.78 327.108C433.17 326.27 433.583 325.597 434.728 325.597C436.746 326.223 437.679 327.768 437.868 329.845C438.104 332.394 437.762 334.978 438.316 337.527C439.414 342.624 441.268 344.382 446.403 344.984C447.997 345.173 449.59 345.362 451.148 345.715C451.833 345.869 452.624 346.388 452.541 347.249C452.482 348.052 451.88 348.595 451.042 348.689Z" fill="#E43B26"/>
<path d="M218.379 210.551C219.831 187.023 230.868 163.152 256.296 147.211C258.94 145.559 261.785 144.332 264.772 143.435C266.401 142.94 268.561 141.866 269.399 143.719C270.332 145.784 272.091 148.143 269.777 150.763C266.436 154.527 263.58 158.68 261.053 163.046C249.284 183.448 245.376 205.454 248.08 228.652C249.39 239.897 252.589 250.693 259.141 260.145C263.721 266.764 269.234 272.357 277.58 274.222C279.681 274.694 281.759 275.673 281.96 278.304C282.125 280.499 280.201 281.986 277.309 281.974C254.147 281.939 237.621 270.859 226.595 251.059C220.574 240.263 218.237 228.463 218.379 210.551Z" fill="white"/>
<path d="M26.3015 223.236C24.8731 193.17 43.1235 162.539 69.354 151.128C71.2428 150.302 73.167 149.653 75.2446 149.866C77.4167 150.078 77.523 151.211 77.0626 153.241C75.3391 160.78 69.6255 166.138 66.6152 172.981C57.915 192.757 52.6382 213.088 54.7867 234.953C55.9554 246.906 60.8072 256.711 70.2866 264.074C73.7572 266.764 76.13 270.257 78.4555 273.832C79.3291 275.177 79.2937 276.747 78.4555 278.115C77.4994 279.661 75.8939 280.015 74.2176 279.826C70.1449 279.366 66.2257 278.127 62.5189 276.511C44.5046 268.723 33.1601 255.189 28.3319 236.215C27.7771 234.044 27.3639 231.837 27.0216 229.619C26.691 227.507 26.5376 225.36 26.3015 223.236Z" fill="#FEFFFE"/>
<path d="M422.356 236.794C422.427 236.381 422.498 235.968 422.569 235.555C430.266 233.809 438.081 232.723 445.884 231.614C453.486 230.528 461.053 229.183 468.738 228.735C469.375 228.699 470.001 228.499 470.639 228.475C471.394 228.452 472.386 228.499 472.527 229.325C472.716 230.434 471.63 230.174 470.957 230.339C462.151 232.534 453.096 233.219 444.196 234.812C438.423 235.85 432.674 237.018 426.878 237.844C425.449 238.045 423.277 239.484 422.356 236.794Z" fill="#FEFAF5"/>
<path d="M377.97 267.071C378.879 265.82 379.788 264.558 380.697 263.307C383.648 262.198 386.316 260.357 389.491 259.826C390.188 259.708 391.038 259.283 391.463 260.204C391.959 261.278 390.802 261.419 390.294 261.75C386.764 264.074 382.881 265.738 379.056 267.496C378.808 267.614 378.336 267.225 377.97 267.071Z" fill="#FBF3EA"/>
<path d="M386.422 176.899C384.12 175.825 384.179 172.757 381.747 171.577C380.72 171.082 382.279 169.595 382.562 168.533C384.25 171.141 385.985 173.725 386.422 176.899Z" fill="#E53925"/>
<path d="M390.27 185.914C387.236 184.309 385.926 181.465 386.445 177.524C388.7 179.872 388.759 183.223 390.27 185.914Z" fill="#E53925"/>
<path d="M391.581 193.643C389.928 192.592 389.881 191.283 390.943 189.784C392.088 190.905 391.392 192.345 391.581 193.643Z" fill="#E53925"/>
<path d="M185.585 270.246C182.87 270.281 180.745 272.145 178.171 272.712C179.375 268.912 185.136 266.021 194.462 264.57C193.659 266.706 191.641 266.871 190.142 267.791C188.642 268.712 186.695 268.759 185.538 270.281L185.585 270.246Z" fill="#FDF4E9"/>
<path d="M191.747 87.7886C191.664 89.3226 191.452 90.6087 191.535 91.8831C191.959 98.833 195.052 102.267 202.23 103.86C204.52 104.367 206.845 104.792 209.088 105.453C210.174 105.771 211.532 106.479 211.201 107.86C210.906 109.11 209.443 108.933 208.439 108.839C205.783 108.591 203.127 108.249 200.483 107.848C193.943 106.857 190.236 109.653 189.516 116.226C189.362 117.606 189.398 119.01 189.256 120.391C189.197 121.004 188.985 121.771 188.3 121.878C187.509 121.996 187.261 121.158 187.096 120.603C186.683 119.164 186.494 117.665 186.069 116.237C184.723 111.754 182.02 110.149 177.286 110.892C175.078 111.234 172.859 111.6 170.64 111.848C169.518 111.978 168.279 111.565 167.948 110.515C167.618 109.464 168.904 108.981 169.613 108.45C170.864 107.494 172.186 106.833 173.922 106.656C177.262 106.314 179.8 104.332 181.725 101.582C184.027 98.2902 185.207 94.4908 186.553 90.7739C187.167 89.063 187.792 87.352 188.973 85.9361C189.492 85.3107 189.905 84.2016 190.885 84.5201C191.794 84.8151 191.558 85.9715 191.723 86.7621C191.818 87.1632 191.747 87.5998 191.747 87.7886Z" fill="#FCEBB0"/>
</g>
<defs>
<clipPath id="clip0_1308_210">
<rect width="570" height="365.079" fill="white"/>
</clipPath>
</defs>
</svg>
