<svg width="1440" height="980" viewBox="0 0 1440 980" fill="none" xmlns="http://www.w3.org/2000/svg">
<g clip-path="url(#clip0_1676_3)">
<rect width="1440" height="980" fill="#FFFCF3"/>
<path d="M1081 98.4979C1080.97 103.87 1077.43 108.425 1071.66 110.534C1067.74 111.963 1063.62 112.19 1059.55 112.684C1054.48 113.296 1052.72 115.652 1053.58 120.694C1054.24 124.596 1055.99 128.162 1056.92 131.982C1058.8 139.744 1055.41 148.009 1048.55 152.172C1043.33 155.339 1038.5 154.364 1034.76 149.458C1031.82 145.604 1030.82 141.043 1029.87 136.454C1029.47 134.551 1029.02 132.669 1027.98 131.006C1026.63 128.828 1024.95 128.677 1023.36 130.69C1021.93 132.497 1020.77 134.523 1019.29 136.282C1015.79 140.438 1011.39 142.753 1005.83 141.977C1001.48 141.373 998.514 138.906 997.354 134.592C996.222 130.388 997.862 125.84 1001.43 123.339C1003.26 122.055 1005.3 121.072 1007.19 119.884C1016.1 114.271 1018.26 108.981 1016.62 99.3498C1015.67 93.7577 1013.98 88.31 1013.29 82.6629C1012.89 79.3929 1013.06 76.1915 1014.11 73.0589C1016.06 67.2264 1022.62 63.2213 1028.5 64.1281C1032.17 64.6983 1034.38 66.876 1035.7 70.1736C1037.06 73.6016 1037.69 77.2495 1038.75 80.7669C1039.35 82.7385 1039.93 84.717 1041.02 86.4826C1042.31 88.5573 1044.16 89.361 1046.59 89.0176C1050.68 88.4405 1054.52 86.8879 1058.52 85.9536C1062.91 84.93 1067.25 84.875 1071.62 86.1185C1077.6 87.8222 1081.03 92.2876 1081 98.4979ZM1075.51 98.1888C1075.5 94.4447 1074 92.3013 1070.6 91.0922C1067.35 89.9381 1063.97 89.8351 1060.64 90.5564C1056.76 91.4014 1052.96 92.6311 1049.08 93.5036C1043.06 94.8569 1038.83 92.8715 1036.21 87.6024C1035.37 85.9261 1034.82 84.1399 1034.26 82.3469C1033.11 78.596 1032.6 74.6733 1031.11 71.0186C1030.23 68.8683 1028.65 67.831 1026.35 67.7416C1022.07 67.5836 1018.2 70.4758 1017.1 74.7077C1016.05 78.7746 1016.93 82.7591 1017.69 86.7368C1018.81 92.5967 1020.52 98.3193 1020.47 104.413C1020.41 113.612 1016.61 120.323 1008.36 124.445C1006.86 125.201 1005.35 125.95 1004.01 126.987C1001.88 128.643 1001.05 131.844 1002.12 134.242C1003.15 136.529 1005.74 137.697 1008.54 137.251C1011.89 136.715 1014.36 134.874 1016.37 132.256C1017.88 130.285 1019.08 128.059 1020.94 126.362C1023.86 123.697 1027.84 123.772 1030.69 126.52C1032.08 127.853 1032.94 129.474 1033.56 131.267C1034.62 134.345 1034.94 137.587 1035.8 140.713C1036.63 143.736 1038.01 146.388 1040.62 148.284C1041.8 149.142 1043.03 149.349 1044.3 148.682C1048.95 146.216 1051.92 142.554 1052.3 137.12C1052.56 133.328 1051.03 129.914 1049.85 126.444C1048.84 123.449 1048.21 120.433 1048.49 117.266C1048.84 113.11 1050.91 110.142 1054.76 108.494C1057.32 107.401 1060.06 107.168 1062.77 106.81C1065.86 106.405 1068.97 106.069 1071.7 104.372C1074.08 102.895 1075.74 101.005 1075.51 98.1888Z" fill="#669CD3"/>
<path d="M351.826 101.167C351.735 97.136 353.371 93.7595 356.684 91.2333C358.528 89.8271 360.538 88.6416 362.448 87.3172C365.13 85.4531 367.48 83.3111 368.643 80.1472C369.723 77.1958 369.324 76.4028 366.293 75.3563C359.516 73.0181 354.749 68.5542 352.109 61.9811C351.303 59.978 350.821 57.8606 351.062 55.6695C351.876 48.3851 357.864 44.5344 365.296 46.4883C367.505 47.0688 369.465 48.1643 371.467 49.2108C375.918 51.549 380.294 54.0099 385.036 55.7676C389.67 57.4927 393.607 56.9694 397.153 53.2577C400.923 49.3171 405.341 46.2594 410.938 45.262C416.029 44.3545 420.098 45.8098 422.399 49.546C424.931 53.6583 424.317 57.6316 421.56 61.3924C420.414 62.9539 419.151 64.4337 417.889 65.9135C415.747 68.4398 414.052 71.2195 412.774 74.2608C411.054 78.3404 410.847 82.3873 412.524 86.5814C415.223 93.3589 415.788 100.259 413.048 107.2C412.524 108.516 411.877 109.775 410.996 110.896C408.97 113.479 406.122 114.354 402.949 113.356C399.677 112.326 397.219 110.127 394.91 107.764C393.183 105.998 391.58 104.126 389.911 102.319C388.831 101.158 387.561 100.226 386.141 99.5151C383.55 98.2234 381.548 98.624 379.771 100.897C378.534 102.483 377.487 104.208 376.275 105.819C373.26 109.825 369.482 112.711 364.374 113.692C358.503 114.82 354.932 112.882 352.881 107.388C352.133 105.418 351.785 103.382 351.826 101.167ZM357.731 101.052C357.698 102.491 357.855 103.734 358.254 104.952C359.25 107.985 360.255 108.533 363.469 107.887C367.19 107.135 369.723 104.788 371.882 101.919C373.227 100.128 374.44 98.2234 375.926 96.5638C379.032 93.1137 383.018 92.247 387.428 93.8495C390.409 94.9368 392.759 96.8581 394.885 99.1227C396.829 101.191 398.697 103.358 400.79 105.263C405.05 109.13 406.653 108.623 408.123 103.161C409.452 98.2152 408.679 93.4162 406.852 88.7724C404.635 83.1313 404.951 77.6128 407.201 72.0779C408.953 67.7612 411.42 63.886 414.434 60.3296C415.448 59.1359 416.502 57.9587 417.125 56.4952C418.404 53.5111 416.685 50.805 413.421 50.7805C410.274 50.756 407.525 51.9823 405.108 53.8545C403.041 55.4569 401.114 57.2474 399.171 58.997C395.591 62.2263 391.356 62.9621 386.739 62.1527C384.281 61.7194 381.955 60.861 379.696 59.8063C375.403 57.8033 371.234 55.5796 367.14 53.2087C365.77 52.4156 364.358 51.7125 362.788 51.3855C359.284 50.6415 356.884 52.2358 356.194 55.7022C355.887 57.231 356.327 58.6454 356.801 60.0516C358.918 66.355 363.992 69.241 369.955 71.1459C374.273 72.5275 375.926 75.5443 374.788 79.9019C373.825 83.5973 371.84 86.6713 368.975 89.2548C366.5 91.4785 363.569 93.0401 360.911 94.9777C358.794 96.5392 357.448 98.4687 357.731 101.052Z" fill="#E57128"/>
<g clip-path="url(#clip1_1676_3)">
<path d="M1369.97 84.4663C1370.33 85.2724 1370.7 86.0866 1371.06 86.8927C1371.11 87.3537 1371.16 87.8066 1371.2 88.2676C1370.96 88.4968 1371.11 88.7551 1371.15 89.011C1370.93 89.2657 1370.7 89.5203 1370.48 89.7724C1368.76 90.1253 1368.55 88.4661 1367.69 87.6729C1367.23 86.57 1366.28 85.8821 1365.44 85.1416C1360.78 81.0691 1355.72 77.5684 1350.38 74.4506C1346.49 72.1861 1342.57 70.0295 1338.46 68.2408C1338.06 67.944 1337.64 67.6955 1337.12 67.7617C1336.21 67.3049 1335.46 66.5304 1334.38 66.41C1331.99 65.2083 1329.41 64.5085 1326.94 63.5242C1322.97 61.8762 1318.82 60.867 1314.63 60.012C1307.45 58.542 1300.26 56.9239 1292.93 59.1155C1291.82 59.611 1290.71 60.1065 1289.61 60.5996C1288.93 61.0549 1288.21 61.4674 1287.58 61.971C1281.85 66.5247 1279.88 75.7759 1283.13 82.7422C1283.43 83.8265 1283.88 84.8359 1284.49 85.7814C1284.69 86.1811 1284.88 86.5776 1285.08 86.9773C1285.24 87.419 1285.31 87.9141 1285.78 88.1731C1286.01 88.5387 1286.24 88.9043 1286.47 89.2699C1286.53 89.5295 1286.61 89.7786 1286.91 89.8499C1289.55 93.9283 1293 97.2819 1296.67 100.375C1306.16 108.391 1316.75 114.638 1328.04 119.73C1328.09 119.77 1328.14 119.794 1328.2 119.794C1330.99 120.96 1333.72 122.297 1336.66 123.098L1336.65 123.092C1340.14 124.555 1343.73 125.661 1347.51 126.055L1347.66 126.1C1350.07 126.571 1352.49 127.012 1354.95 126.521C1355.64 126.566 1356.33 126.568 1356.99 126.333C1357.46 126.289 1358.01 126.661 1358.38 126.063C1358.68 125.959 1358.99 125.848 1359.3 125.745C1359.91 126.106 1360.36 125.67 1360.76 125.361C1363.71 123.054 1364.22 121.11 1362.95 117.13C1362.66 116.029 1362.24 114.986 1361.51 114.087C1361.31 113.66 1361.27 113.106 1360.64 113.031C1360.42 112.655 1360.2 112.271 1359.98 111.895C1359.45 110.969 1359.03 109.953 1358.36 109.139C1354.9 104.892 1350.94 101.159 1346.65 97.7702C1343.03 94.9091 1339.01 92.693 1334.87 90.7259C1332.58 89.632 1330.39 88.1776 1327.81 87.7261L1327.71 87.6859C1326.13 86.5977 1324.22 86.445 1322.46 85.933C1320.17 85.2765 1317.83 84.6039 1315.38 84.9809C1315.12 84.8433 1314.9 84.9592 1314.69 85.0886C1313.53 84.9893 1312.46 85.3312 1311.83 86.2499C1311.33 86.9754 1311.97 87.6632 1312.49 88.2333C1312.68 88.9055 1313.29 89.1411 1313.8 89.4757C1313.81 89.8506 1314.08 90.0482 1314.33 90.2701C1318.58 94.0179 1323 97.5358 1327.75 100.632C1330.47 102.4 1333.03 104.411 1335.93 105.906C1336.11 106.447 1336.58 106.632 1337.05 106.826C1337.25 107.286 1337.62 107.469 1338.09 107.477C1338.5 108.184 1338.54 108.768 1337.59 109.019C1337.1 108.97 1336.6 108.917 1336.11 108.867L1335.97 108.825C1331.15 107.149 1326.94 104.354 1322.68 101.64C1319.61 99.6865 1316.85 97.315 1313.87 95.234C1313.74 95.0122 1313.65 94.7433 1313.32 94.7525C1311.97 93.4153 1310.62 92.0837 1309.27 90.7464C1308.74 89.5394 1308.21 88.33 1307.68 87.1229C1307.56 85.1589 1308.62 83.7545 1309.87 82.443C1310.88 82.0441 1311.9 81.6397 1312.92 81.2384C1314.31 81.1053 1315.71 80.9754 1317.1 80.8424C1317.58 81.0637 1318.07 81.078 1318.57 80.9287C1318.95 81.4077 1319.5 81.1544 1319.96 81.2301C1325.84 82.2172 1331.37 84.1988 1336.71 86.8575C1341.49 89.2336 1346.18 91.7206 1350.32 95.1165C1355.61 99.4555 1360.48 104.218 1364.3 109.962C1364.39 110.16 1364.49 110.364 1364.59 110.562C1364.9 111.03 1365.21 111.5 1365.53 111.968C1366.16 113.384 1366.79 114.806 1367.42 116.223C1367.61 118.004 1368.26 119.714 1368.2 121.554C1368.11 124.175 1366.62 126.084 1365.18 128.043C1365.06 128.141 1364.94 128.237 1364.82 128.335C1364.12 128.497 1363.74 129.14 1363.16 129.485C1362.05 129.975 1360.93 130.471 1359.82 130.961C1353.57 132.385 1347.41 131.909 1341.25 130.267C1339.27 129.74 1337.37 128.785 1335.27 128.735C1334.86 128.544 1334.45 128.351 1334.04 128.154C1332.57 127.593 1331.1 127.023 1329.63 126.462C1329.32 126.373 1329.01 126.285 1328.7 126.197C1326.42 124.76 1323.79 124.045 1321.45 122.755C1317.43 120.534 1313.3 118.501 1309.38 116.088C1303.64 112.556 1298.22 108.599 1293.09 104.229C1291.23 102.642 1289.72 100.658 1287.66 99.2966C1287.55 99.1138 1287.44 98.923 1287.32 98.7402C1285.51 96.5076 1283.7 94.2726 1281.88 92.0344C1281.76 91.8541 1281.64 91.6657 1281.52 91.4854C1281.36 90.7927 1281.29 90.0573 1280.49 89.7368C1280.24 89.2498 1279.98 88.7628 1279.72 88.2758C1279.49 87.29 1279.15 86.3513 1278.6 85.4956C1278.3 84.9001 1278 84.3022 1277.7 83.7067C1277.94 83.0754 1277.79 82.5252 1277.32 82.0611C1277.27 81.9551 1277.23 81.8523 1277.18 81.7463C1277.27 81.2724 1277.52 80.773 1276.97 80.3956C1276.91 80.1881 1276.85 79.9805 1276.79 79.781C1276.61 76.2575 1276.53 72.7383 1277.32 69.27C1277.32 69.27 1277.36 69.1108 1277.35 69.1133C1278.9 64.4667 1281.43 60.4962 1285.29 57.436C1285.78 57.2044 1286.27 56.9703 1286.76 56.7386C1287.31 56.668 1287.6 56.2932 1287.82 55.8416C1288.83 55.3907 1289.84 54.9398 1290.84 54.4914C1291.33 54.6228 1291.8 54.6743 1292.21 54.3082C1292.72 54.0963 1293.22 53.887 1293.72 53.6807C1294.55 53.7459 1295.35 53.6376 1296.09 53.2344C1296.92 53.3869 1297.72 53.3746 1298.5 53.0141C1299.1 53.2137 1299.7 53.3067 1300.29 52.9648C1301.52 53.1713 1302.75 53.252 1303.99 53.1314C1304.24 53.2436 1304.48 53.4431 1304.73 53.4518C1309.42 53.6799 1313.98 54.6997 1318.52 55.7976C1321.6 56.5421 1324.65 57.4651 1327.7 58.3069C1327.9 58.5535 1328.16 58.6391 1328.47 58.5821C1329.97 59.1505 1331.46 59.7213 1332.96 60.2897C1333.44 60.5438 1333.82 60.9819 1334.4 61.0222C1335.57 61.4908 1336.75 61.9624 1337.91 62.431C1338.03 62.4855 1338.15 62.5345 1338.27 62.589C1339.75 63.5366 1341.29 64.3769 1342.99 64.8753L1342.96 64.866C1343.05 65.0091 1343.1 65.2217 1343.21 65.2762C1346.92 66.8988 1350.42 68.9296 1353.8 71.1327C1359.68 74.9389 1365.62 78.7445 1369.97 84.4663Z" fill="#4B9A67"/>
</g>
<g clip-path="url(#clip2_1676_3)">
<path d="M1130.87 251.96C1134.25 248.173 1138.55 246.306 1143.12 244.788C1152.51 241.665 1162.17 240.603 1171.97 241.22C1187.31 242.182 1201.72 246.285 1214.52 255.087C1219.34 258.413 1223.46 262.483 1225.84 268.044C1228.39 274.009 1227.38 279.509 1223.82 284.678C1218.7 292.092 1211.15 295.408 1202.62 296.799C1192.43 298.46 1182.41 297.64 1172.45 294.81C1165.26 292.763 1158.48 289.739 1152.69 285.242C1146.84 280.701 1141.97 274.976 1142.86 266.608C1143.16 263.782 1144.27 261.296 1146.17 259.074C1150.54 253.994 1156.42 252.837 1162.6 252.595C1171.83 252.239 1180.55 254.443 1188.9 258.322C1193.71 260.555 1197.92 263.554 1201.5 267.463C1202.68 268.754 1203.57 270.228 1204.28 271.8C1206.32 276.29 1204.06 280.201 1199.81 281.678C1194.53 283.519 1189.04 283.597 1183.51 283.335C1176.94 283.027 1170.9 280.961 1165.19 277.849C1163.02 276.662 1161.17 274.999 1160.18 272.668C1158.62 268.98 1160.19 266.5 1163.69 265.341C1167.57 264.06 1171.67 264.455 1175.68 264.762C1177.97 264.941 1180.26 265.352 1182.46 266.128C1183.83 266.612 1184.74 267.636 1185.51 268.721C1186.3 269.83 1185.83 270.874 1184.71 271.522C1184.17 271.835 1183.14 271.856 1183.08 271.294C1182.9 269.478 1181.48 269.414 1180.33 269.148C1175.35 268.018 1170.32 267.825 1165.3 268.836C1163.27 269.243 1163.06 270.123 1164.35 271.813C1165.75 273.65 1167.79 274.602 1169.8 275.51C1178.74 279.546 1188.03 280.211 1197.51 277.897C1201.3 276.967 1201.85 274.281 1199.41 271.204C1194.19 264.611 1187.07 261.213 1179.3 258.801C1172.53 256.701 1165.63 255.82 1158.6 256.934C1154.68 257.552 1150.99 258.929 1148.71 262.458C1146.28 266.211 1146.91 271.493 1149.77 275.527C1152.72 279.684 1156.75 282.34 1161.13 284.792C1168.29 288.776 1175.95 291.074 1183.93 292.127C1192.4 293.248 1200.97 293.308 1209.14 290.14C1215.98 287.495 1221.37 283.297 1222.82 275.555C1223.46 272.117 1222.16 269.136 1220.47 266.219C1216.69 259.773 1210.4 256.547 1204.09 253.359C1196.77 249.652 1188.93 247.364 1180.87 246.174C1167.35 244.178 1153.96 244.65 1141.08 249.884C1137.03 251.529 1133.46 253.875 1131.08 257.721C1128.18 262.417 1128.31 267.35 1130.22 272.244C1132.02 276.83 1134.9 280.695 1138.64 284.008C1146.77 291.203 1155.71 297.226 1165.02 302.726C1171.83 306.736 1178.85 310.307 1186.43 312.695C1190.5 313.985 1194.67 314.783 1198.91 315.221C1199.47 315.276 1200.24 315.224 1200.15 315.962C1200.08 316.57 1199.33 316.244 1198.87 316.288C1192.49 316.932 1186.33 315.912 1180.23 314.024C1171.57 311.347 1163.73 307.01 1156.03 302.367C1150.64 299.116 1145.43 295.574 1140.33 291.908C1137.61 289.956 1134.88 287.902 1132.65 285.443C1127.83 280.097 1124.44 273.944 1124.21 266.519C1124.03 260.541 1126.22 255.584 1130.87 251.96Z" fill="#F3CC4B"/>
</g>
<g clip-path="url(#clip3_1676_3)">
<path d="M78.8685 367.96C82.2451 364.173 86.5529 362.306 91.1191 360.788C100.51 357.665 110.171 356.603 119.966 357.22C135.308 358.182 149.723 362.285 162.516 371.087C167.343 374.413 171.463 378.483 173.84 384.044C176.387 390.009 175.382 395.509 171.816 400.678C166.7 408.092 159.152 411.408 150.62 412.799C140.434 414.46 130.406 413.64 120.45 410.81C113.262 408.763 106.481 405.739 100.693 401.242C94.8427 396.701 89.97 390.976 90.8571 382.608C91.1584 379.782 92.2694 377.296 94.1725 375.074C98.5432 369.994 104.421 368.837 110.599 368.595C119.83 368.239 128.552 370.443 136.901 374.322C141.712 376.555 145.922 379.554 149.499 383.463C150.68 384.754 151.572 386.228 152.283 387.8C154.316 392.29 152.063 396.201 147.807 397.678C142.528 399.519 137.035 399.597 131.51 399.335C124.938 399.027 118.896 396.961 113.185 393.849C111.015 392.662 109.165 390.999 108.18 388.668C106.624 384.98 108.194 382.5 111.694 381.341C115.569 380.06 119.669 380.455 123.675 380.762C125.967 380.941 128.255 381.352 130.457 382.128C131.829 382.612 132.736 383.636 133.511 384.721C134.299 385.83 133.833 386.874 132.712 387.522C132.169 387.835 131.139 387.856 131.083 387.294C130.904 385.478 129.479 385.414 128.324 385.148C123.35 384.018 118.317 383.825 113.302 384.836C111.268 385.243 111.061 386.123 112.35 387.813C113.752 389.65 115.791 390.602 117.797 391.51C126.742 395.546 136.033 396.211 145.508 393.897C149.303 392.967 149.853 390.281 147.414 387.204C142.192 380.611 135.071 377.213 127.295 374.801C120.529 372.701 113.625 371.82 106.597 372.934C102.683 373.552 98.9853 374.929 96.7066 378.458C94.283 382.211 94.9064 387.493 97.77 391.527C100.723 395.684 104.747 398.34 109.133 400.792C116.285 404.776 123.951 407.074 131.929 408.127C140.399 409.248 148.968 409.308 157.141 406.14C163.979 403.495 169.366 399.297 170.815 391.555C171.458 388.117 170.162 385.136 168.464 382.219C164.69 375.773 158.396 372.547 152.092 369.359C144.77 365.652 136.934 363.364 128.872 362.174C115.35 360.178 101.96 360.65 89.0829 365.884C85.0264 367.529 81.4626 369.875 79.0806 373.721C76.1779 378.417 76.3058 383.35 78.2232 388.244C80.0165 392.83 82.8982 396.695 86.6423 400.008C94.7711 407.203 103.708 413.226 113.023 418.726C119.831 422.736 126.852 426.307 134.425 428.695C138.502 429.985 142.666 430.783 146.911 431.221C147.465 431.276 148.24 431.224 148.152 431.962C148.081 432.57 147.324 432.244 146.864 432.288C140.484 432.932 134.328 431.912 128.229 430.024C119.565 427.347 111.733 423.01 104.025 418.367C98.6357 415.116 93.4317 411.574 88.3271 407.908C85.6129 405.956 82.8767 403.902 80.6518 401.443C75.8291 396.097 72.4398 389.944 72.2049 382.519C72.0312 376.541 74.2192 371.584 78.8685 367.96Z" fill="#F3CC4B"/>
</g>
<path d="M1344.52 679.521C1344.84 676.98 1346.83 677.038 1348.47 677.005C1353.09 676.93 1357.63 677.719 1362.1 678.782C1368.73 680.352 1375.12 682.569 1381.09 685.899C1386.99 689.196 1389.52 694.487 1389.93 700.931C1390.39 708.364 1388.61 715.373 1385.46 722.067C1377.92 738.029 1367.96 752.28 1354.74 764.115C1347.47 770.634 1339.7 776.564 1331.11 781.347C1326.02 784.171 1320.84 786.737 1315.22 788.307C1307.94 790.333 1300.75 791.089 1293.64 787.426C1288.58 784.827 1286.17 780.533 1284.8 775.368C1283 768.616 1284.41 762.321 1287.34 756.175C1290.86 748.751 1295.98 742.48 1301.56 736.551C1311.2 726.344 1321.94 717.425 1333.65 709.684C1338.84 706.246 1344.31 703.124 1350.72 702.476C1359.28 701.612 1364.89 706.479 1364.18 715.564C1363.45 724.899 1358.45 732.041 1352.53 738.668C1345.78 746.209 1337.93 752.488 1328.94 757.271C1325.66 759.015 1322.13 760.186 1318.47 760.759C1315.39 761.249 1312.14 758.982 1312.52 754.564C1312.86 750.569 1315.18 747.513 1317.37 744.399C1322.13 737.639 1328.12 732.016 1334.01 726.261C1336.65 723.678 1339.11 720.996 1342.79 719.891C1345.76 719.003 1348.64 720.29 1349.59 723.13C1350.09 724.633 1348.46 725.04 1347.71 724.841C1343.38 723.728 1341.3 726.892 1338.9 729.267C1332.8 735.322 1327.08 741.733 1321.8 748.518C1320.82 749.772 1319.99 751.109 1319.33 752.546C1319.11 753.011 1318.74 753.459 1319.23 753.983C1319.71 754.498 1320.18 754.165 1320.68 754.024C1325.44 752.654 1329.56 750.104 1333.58 747.314C1341.59 741.758 1348.35 734.998 1353.67 726.842C1356.01 723.271 1357.13 719.252 1357.65 715.108C1358.24 710.39 1355.49 708.273 1351.01 708.871C1343.3 709.9 1337.46 714.377 1331.46 718.579C1322.13 725.132 1313.59 732.614 1305.8 740.919C1300.55 746.525 1295.47 752.288 1292.22 759.364C1289.87 764.48 1289.34 769.754 1291.07 775.143C1292.65 780.076 1296.43 782.867 1301.61 783.34C1307.82 783.905 1313.63 782.493 1319.21 779.993C1329.14 775.55 1337.86 769.338 1346.21 762.437C1357.68 752.953 1366.68 741.55 1374.15 728.835C1378.18 721.984 1381.54 714.809 1382.8 706.927C1384.21 698.108 1381.93 692.294 1373.1 688.54C1367.66 686.232 1362.13 684.164 1356.62 682.063C1353.49 680.867 1350.16 680.211 1346.92 679.264C1346.13 679.065 1345.51 679.804 1344.52 679.521Z" fill="#F7F7F7"/>
<path d="M1337.52 665.521C1337.84 662.98 1339.83 663.038 1341.47 663.005C1346.09 662.93 1350.63 663.719 1355.1 664.782C1361.73 666.352 1368.12 668.569 1374.09 671.899C1379.99 675.196 1382.52 680.487 1382.93 686.931C1383.39 694.364 1381.61 701.373 1378.46 708.067C1370.92 724.029 1360.96 738.28 1347.74 750.115C1340.47 756.634 1332.7 762.564 1324.11 767.347C1319.02 770.171 1313.84 772.737 1308.22 774.307C1300.94 776.333 1293.75 777.089 1286.64 773.426C1281.58 770.827 1279.17 766.533 1277.8 761.368C1276 754.616 1277.41 748.321 1280.34 742.175C1283.86 734.751 1288.98 728.48 1294.56 722.551C1304.2 712.344 1314.94 703.425 1326.65 695.684C1331.84 692.246 1337.31 689.124 1343.72 688.476C1352.28 687.612 1357.89 692.479 1357.18 701.564C1356.45 710.899 1351.45 718.041 1345.53 724.668C1338.78 732.209 1330.93 738.488 1321.94 743.271C1318.66 745.015 1315.13 746.186 1311.47 746.759C1308.39 747.249 1305.14 744.982 1305.52 740.564C1305.86 736.569 1308.18 733.513 1310.37 730.399C1315.13 723.639 1321.12 718.016 1327.01 712.261C1329.65 709.678 1332.11 706.996 1335.79 705.891C1338.76 705.003 1341.64 706.29 1342.59 709.13C1343.09 710.633 1341.46 711.04 1340.71 710.841C1336.38 709.728 1334.3 712.892 1331.9 715.267C1325.8 721.322 1320.08 727.733 1314.8 734.518C1313.82 735.772 1312.99 737.109 1312.33 738.546C1312.11 739.011 1311.74 739.459 1312.23 739.983C1312.71 740.498 1313.18 740.165 1313.68 740.024C1318.44 738.654 1322.56 736.104 1326.58 733.314C1334.59 727.758 1341.35 720.998 1346.67 712.842C1349.01 709.271 1350.13 705.252 1350.65 701.108C1351.24 696.39 1348.49 694.273 1344.01 694.871C1336.3 695.9 1330.46 700.377 1324.46 704.579C1315.13 711.132 1306.59 718.614 1298.8 726.919C1293.55 732.525 1288.47 738.288 1285.22 745.364C1282.87 750.48 1282.34 755.754 1284.07 761.143C1285.65 766.076 1289.43 768.867 1294.61 769.34C1300.82 769.905 1306.63 768.493 1312.21 765.993C1322.14 761.55 1330.86 755.338 1339.21 748.437C1350.68 738.953 1359.68 727.55 1367.15 714.835C1371.18 707.984 1374.54 700.809 1375.8 692.927C1377.21 684.108 1374.93 678.294 1366.1 674.54C1360.66 672.232 1355.13 670.164 1349.62 668.063C1346.49 666.867 1343.16 666.211 1339.92 665.264C1339.13 665.065 1338.51 665.804 1337.52 665.521Z" fill="#4EA0F7"/>
<path d="M1210.44 832.902C1214.43 829.692 1218.69 827.622 1224.1 827.822C1229.1 828.012 1232.79 832.122 1232.07 837.552C1231.33 843.092 1228.59 847.792 1225.11 852.062C1219.25 859.232 1212.53 865.492 1204.84 870.662C1201.44 872.952 1197.81 874.942 1193.46 874.822C1190.01 874.732 1187.79 872.242 1187.6 868.842C1187.17 861.402 1189.83 854.772 1192.56 848.112C1196.43 838.682 1202.78 831.012 1209.88 823.972C1216.14 817.772 1223.83 814.112 1232.73 814.002C1243.47 813.872 1247.96 819.902 1246.21 830.832C1244.78 839.732 1240.46 847.582 1234.66 854.492C1228.96 861.292 1222.48 867.362 1216.15 873.562C1205.9 883.612 1195.37 893.362 1183.45 901.462C1180.53 903.442 1179.53 903.712 1177 903.432C1183.33 898.212 1188.64 892.302 1194.46 886.922C1203.18 878.862 1211.73 870.602 1219.69 861.792C1225.06 855.852 1230.61 850.002 1234.34 842.782C1237.17 837.292 1240.01 831.822 1239.89 825.352C1239.84 822.242 1237.71 820.022 1234.46 819.752C1225.51 819.002 1218.37 822.452 1212.44 828.922C1211.59 829.842 1210.67 830.702 1209.78 831.582C1201.06 840.502 1195.34 851.052 1192.75 863.252C1192.33 865.222 1191.3 867.802 1193.18 869.102C1195.01 870.372 1197.2 868.732 1198.93 867.642C1208.41 861.652 1216.4 854.062 1222.87 844.902C1224.55 842.522 1225.78 839.852 1226.18 836.922C1226.61 833.822 1225.17 832.262 1222.04 832.392C1221.06 832.432 1219.99 832.552 1219.12 832.962C1212.83 835.962 1208.06 840.502 1205.48 847.082C1204.93 848.472 1204.13 850.372 1205.6 851.332C1206.88 852.172 1207.9 850.362 1208.95 849.622C1209.76 849.052 1210.45 848.312 1211.19 847.632C1213.72 845.292 1216.24 842.932 1218.78 840.592C1219.55 839.892 1220.46 839.272 1221.42 840.122C1222.25 840.852 1221.8 841.792 1221.4 842.622C1221.12 843.192 1220.86 843.792 1220.48 844.282C1217.49 848.092 1214.06 851.452 1210.21 854.372C1208.22 855.872 1205.95 856.622 1203.61 855.262C1201.27 853.912 1200.88 851.522 1201.06 849.072C1201.32 845.522 1202.86 842.432 1204.95 839.642C1206.7 837.312 1208.61 835.142 1210.44 832.902Z" fill="#E5722A"/>
<path d="M278.675 238.832C278.9 239.184 279.128 239.526 279.353 239.878C279.499 240.581 279.626 241.297 280.185 241.825C280.02 242.614 280.648 243.159 280.818 243.845C282.535 249.31 282.524 254.523 278.548 259.136C274.275 262.44 269.329 263.132 264.077 263.277C259.095 263.412 254.226 262.802 249.476 261.63C242.839 259.99 236.639 257.179 230.843 253.431C224.396 249.265 219.914 243.451 215.925 237.082C215.133 235.819 214.398 234.545 213.857 233.191C211.448 227.114 215.07 222.256 221.694 222.611C225.349 222.804 228.742 223.938 231.976 225.523C237.749 228.344 243.454 231.268 247.435 236.597C248.016 237.369 248.563 238.172 249.034 239.011C250.257 241.177 250.074 243.393 248.607 244.918C247.443 246.132 244.661 246.414 242.822 245.387C238.892 243.184 235.284 240.526 231.894 237.569C231.541 237.26 231.096 236.884 231.505 236.166C231.923 235.423 232.382 235.752 232.869 235.868C235.5 236.503 237.679 238.099 240.036 239.313C241.499 240.064 242.875 240.969 244.913 241.535C243.465 238.646 241.843 236.359 239.448 234.756C234.712 231.577 229.696 228.916 224.178 227.369C222.827 226.993 221.352 226.933 219.928 226.932C218.372 226.928 217.417 228.764 218.04 230.717C219.282 234.59 221.676 237.83 224.299 240.828C230.821 248.278 239.075 252.957 248.55 255.653C254.681 257.403 260.881 258.172 267.237 257.713C269.19 257.571 271.095 257.184 272.874 256.404C275.632 255.195 276.74 252.846 276.678 249.968C276.606 246.57 275.678 243.377 274.102 240.356C273.445 239.101 273.152 237.705 272.356 236.463C269.725 232.361 266.245 229.06 262.94 225.546C259.466 221.853 255.574 218.718 251.54 215.726C243.062 209.428 233.969 204.138 224.241 200.065C219.213 197.958 213.999 196.21 208.483 195.734C207.201 195.245 205.882 195.383 204.551 195.436C203.347 195.486 203.211 196.051 203.663 196.995C202.992 197.682 202.467 197.297 201.951 196.767C201.245 195.907 201.104 194.997 201.655 194.005C202.503 193.241 203.441 192.674 204.605 192.552C206.583 192.512 208.567 192.468 210.546 192.428C210.546 192.428 210.524 192.424 210.52 192.418C212.461 192.764 214.4 193.121 216.341 193.468C216.498 193.507 216.654 193.546 216.811 193.586C217.744 194.372 218.916 194.235 220.004 194.432L219.973 194.427C220.108 194.582 220.212 194.825 220.377 194.877C229.677 197.518 238.046 202.098 246.23 207.103C249.119 208.872 251.704 211.12 254.78 212.584C255.434 213.582 256.621 213.934 257.42 214.766C260.416 217.395 263.412 220.024 266.41 222.642C267 223.241 267.584 223.843 268.175 224.442C268.675 224.936 269.175 225.431 269.681 225.921C269.991 226.409 270.189 227.002 270.809 227.229C271.187 227.614 271.558 228.004 271.936 228.389C274.049 231.463 276.157 234.532 278.275 237.602C278.229 238.069 278.239 238.524 278.675 238.832Z" fill="#F7F7F7"/>
<path d="M280.383 165.458C280.85 165.475 281.309 165.483 281.777 165.5C282.516 165.814 283.256 166.153 284.097 165.975C284.718 166.627 285.619 166.398 286.359 166.678C292.479 168.577 297.265 171.899 298.973 178.476C299.288 184.494 296.772 189.469 293.559 194.376C290.507 199.029 286.843 203.106 282.737 206.716C277 211.759 270.463 215.658 263.322 218.59C255.383 221.853 247.18 222.269 238.781 221.879C237.115 221.803 235.474 221.667 233.885 221.303C226.761 219.65 224.602 213.242 229.15 207.394C231.658 204.165 234.862 201.775 238.381 199.817C244.655 196.317 250.979 192.944 258.417 192.681C259.497 192.639 260.585 192.647 261.656 192.749C264.427 193.003 266.348 194.579 266.816 196.893C267.19 198.732 265.677 201.461 263.56 202.496C259.029 204.699 254.286 206.318 249.407 207.547C248.897 207.674 248.268 207.844 247.868 207.013C247.452 206.157 248.047 205.945 248.463 205.572C250.724 203.563 253.58 202.58 256.199 201.19C257.822 200.326 259.531 199.639 261.35 198.131C257.771 197.622 254.635 197.656 251.634 198.834C245.692 201.156 240.048 204.063 235.109 208.14C233.902 209.14 232.907 210.454 231.998 211.759C231.003 213.183 232.083 215.226 234.276 215.895C238.628 217.217 243.133 217.082 247.562 216.582C258.57 215.336 268.133 210.742 276.651 203.767C282.168 199.258 286.826 194.062 290.456 187.943C291.569 186.062 292.428 184.07 292.844 181.942C293.491 178.646 292.037 176.137 289.351 174.365C286.18 172.272 282.652 171.094 278.87 170.619C277.297 170.424 275.826 169.806 274.177 169.746C268.728 169.551 263.475 170.645 258.137 171.441C252.526 172.28 247.163 173.857 241.841 175.654C230.646 179.425 219.986 184.4 210.041 190.732C204.898 194.003 199.967 197.673 196.015 202.428C194.748 203.292 194.034 204.589 193.235 205.843C192.512 206.979 192.946 207.462 194.102 207.649C194.306 208.7 193.618 208.937 192.801 209.072C191.56 209.174 190.634 208.725 190.073 207.589C189.911 206.326 189.988 205.106 190.617 203.962C191.841 202.123 193.065 200.275 194.289 198.436C194.289 198.436 194.272 198.453 194.264 198.453C195.819 196.893 197.383 195.342 198.939 193.783C199.075 193.664 199.211 193.545 199.347 193.427C200.664 193.071 201.285 191.91 202.161 191.037L202.135 191.062C202.365 191.037 202.654 191.096 202.807 190.977C211.163 184.129 220.709 179.366 230.527 175.043C233.995 173.518 237.71 172.577 241.017 170.687C242.351 170.721 243.431 169.856 244.706 169.653C249.033 168.577 253.359 167.5 257.678 166.415C258.604 166.254 259.531 166.102 260.457 165.941C261.231 165.797 262.004 165.653 262.778 165.5C263.424 165.525 264.096 165.72 264.699 165.297C265.294 165.195 265.889 165.102 266.484 165C270.658 165.017 274.823 165.034 278.997 165.042C279.397 165.381 279.822 165.661 280.383 165.458Z" fill="#4B9A67"/>
<path d="M1220.45 588.501C1225.42 592.243 1230.16 595.782 1234.86 599.364C1236.82 600.857 1238.73 602.414 1240.39 604.241C1240.68 604.557 1241.26 604.973 1240.67 605.462C1240.16 605.889 1239.68 605.411 1239.41 605.068C1238.48 603.875 1237.22 603.109 1236.02 602.268C1230.51 598.383 1224.96 594.553 1219.46 590.654C1218.63 590.062 1218.05 589.992 1217.16 590.583C1213.73 592.85 1210.24 595.023 1206.77 597.229C1207.01 597.95 1207.64 598.126 1208.1 598.447C1216.24 604.026 1224.48 609.472 1232.3 615.478C1233 616.009 1233.67 616.582 1234.31 617.171C1234.52 617.366 1234.86 617.599 1234.58 617.996C1234.16 618.59 1233.93 617.959 1233.69 617.817C1224.27 612.195 1215.09 606.208 1206.02 600.055C1204.56 599.071 1203.61 599.184 1202.27 600.092C1197 603.647 1191.6 606.988 1186.07 610.126C1185.74 610.313 1185.41 610.559 1185.05 610.641C1184.58 610.749 1183.95 611.3 1183.62 610.563C1183.34 609.923 1183.99 609.735 1184.43 609.394C1189.95 605.177 1195.69 601.265 1201.01 597.675C1198.05 595.4 1195.02 593.061 1191.98 590.751C1191.24 590.185 1190.74 590.908 1190.23 591.229C1186.5 593.628 1182.8 596.071 1179.08 598.498C1178.8 598.675 1178.52 598.829 1178.24 599.012C1177.72 599.348 1177.11 599.755 1176.65 599.103C1176.23 598.499 1176.9 598.125 1177.29 597.787C1180.72 594.8 1184.39 592.107 1188.12 589.495C1188.34 589.339 1188.55 589.162 1188.82 588.949C1188.55 588.271 1187.87 588.084 1187.36 587.766C1183.72 585.517 1180.05 583.31 1176.42 581.055C1175.63 580.571 1174.91 579.965 1174.22 579.348C1173.79 578.965 1173.58 578.312 1173.9 577.851C1174.3 577.28 1174.85 577.649 1175.35 577.932C1179.04 579.983 1182.75 582.011 1186.44 584.047C1187.12 584.417 1187.86 584.719 1188.41 585.227C1190.59 587.221 1192.47 586.883 1194.63 585.023C1196.74 583.21 1199.13 581.701 1201.48 580.193C1202.73 579.393 1202.46 579.049 1201.43 578.352C1196.61 575.089 1192.2 571.303 1187.77 567.551C1187.03 566.919 1185.69 566.08 1186.5 565.069C1187.46 563.873 1188.44 565.222 1189.26 565.816C1194.2 569.369 1198.8 573.366 1203.81 576.819C1204.69 577.422 1205.3 577.584 1206.26 576.902C1212.22 572.675 1218.68 569.239 1224.99 565.585C1225.81 565.111 1226.77 564.545 1227.48 565.555C1228.23 566.62 1227.46 567.374 1226.59 567.98C1221.63 571.432 1216.2 574.129 1211.15 577.438C1210.46 577.889 1209.79 578.369 1209.06 578.748C1208.08 579.256 1207.85 579.652 1208.92 580.385C1211.55 582.17 1214.14 584.016 1216.7 585.912C1217.46 586.474 1217.98 586.382 1218.72 585.897C1223.36 582.862 1228.05 579.903 1232.48 576.569C1233.7 575.644 1234.97 574.762 1236.38 574.14C1237.1 573.824 1237.85 573.656 1238.61 573.997C1239.12 574.225 1239.34 574.638 1239.36 575.174C1239.37 575.745 1239 575.926 1238.52 575.963C1238.06 575.995 1237.68 576.215 1237.34 576.494C1232.04 580.873 1226.56 584.974 1220.45 588.501ZM1215.26 588.181C1212.17 585.922 1209.13 583.703 1206.09 581.476C1205.63 581.137 1205.25 581.179 1204.76 581.51C1201.44 583.75 1198.1 585.964 1194.75 588.166C1194.08 588.608 1194.13 588.888 1194.76 589.32C1197.62 591.26 1200.45 593.234 1203.29 595.208C1203.73 595.51 1204.09 595.661 1204.61 595.305C1208.19 592.884 1211.8 590.495 1215.26 588.181Z" fill="#F7F7F7"/>
<path d="M156.448 629.501C161.417 633.243 166.159 636.782 170.86 640.364C172.82 641.857 174.73 643.414 176.392 645.241C176.681 645.557 177.265 645.973 176.675 646.462C176.16 646.889 175.682 646.411 175.412 646.068C174.483 644.875 173.217 644.109 172.024 643.268C166.513 639.383 160.963 635.553 155.462 631.654C154.627 631.062 154.049 630.992 153.157 631.583C149.727 633.85 146.237 636.023 142.765 638.229C143.009 638.95 143.636 639.126 144.105 639.447C152.243 645.026 160.476 650.472 168.303 656.478C168.999 657.009 169.665 657.582 170.31 658.171C170.523 658.366 170.865 658.599 170.585 658.996C170.161 659.59 169.926 658.959 169.692 658.817C160.273 653.195 151.091 647.208 142.015 641.055C140.563 640.071 139.612 640.184 138.272 641.092C133.003 644.647 127.598 647.988 122.065 651.126C121.735 651.313 121.41 651.559 121.049 651.641C120.577 651.749 119.948 652.3 119.622 651.563C119.337 650.923 119.986 650.735 120.43 650.394C125.951 646.177 131.686 642.265 137.01 638.675C134.045 636.4 131.021 634.061 127.976 631.751C127.237 631.185 126.737 631.908 126.235 632.229C122.502 634.628 118.795 637.071 115.079 639.498C114.803 639.675 114.517 639.829 114.242 640.012C113.723 640.348 113.112 640.755 112.653 640.103C112.233 639.499 112.899 639.125 113.288 638.787C116.721 635.8 120.389 633.107 124.115 630.495C124.34 630.339 124.549 630.162 124.824 629.949C124.545 629.271 123.873 629.084 123.356 628.766C119.72 626.517 116.054 624.31 112.417 622.055C111.631 621.571 110.909 620.965 110.217 620.348C109.787 619.965 109.579 619.312 109.904 618.851C110.301 618.28 110.845 618.649 111.35 618.932C115.037 620.983 118.745 623.011 122.442 625.047C123.116 625.417 123.864 625.719 124.414 626.227C126.585 628.221 128.469 627.883 130.631 626.023C132.739 624.21 135.129 622.701 137.482 621.193C138.73 620.393 138.461 620.049 137.428 619.352C132.611 616.089 128.2 612.303 123.77 608.551C123.026 607.919 121.685 607.08 122.497 606.069C123.46 604.873 124.436 606.222 125.26 606.816C130.195 610.369 134.797 614.366 139.813 617.819C140.694 618.422 141.301 618.584 142.256 617.902C148.218 613.675 154.676 610.239 160.991 606.585C161.811 606.111 162.768 605.545 163.481 606.555C164.235 607.62 163.458 608.374 162.587 608.98C157.626 612.432 152.2 615.129 147.152 618.438C146.463 618.889 145.785 619.369 145.059 619.748C144.085 620.256 143.847 620.652 144.923 621.385C147.549 623.17 150.143 625.016 152.696 626.912C153.459 627.474 153.978 627.382 154.722 626.897C159.358 623.862 164.049 620.903 168.478 617.569C169.704 616.644 170.969 615.762 172.384 615.14C173.102 614.824 173.847 614.656 174.615 614.997C175.122 615.225 175.342 615.638 175.357 616.174C175.371 616.745 175.004 616.926 174.518 616.963C174.057 616.995 173.678 617.215 173.34 617.494C168.044 621.873 162.558 625.974 156.448 629.501ZM151.258 629.181C148.168 626.922 145.127 624.703 142.091 622.476C141.626 622.137 141.246 622.179 140.757 622.51C137.439 624.75 134.097 626.964 130.754 629.166C130.082 629.608 130.125 629.888 130.761 630.32C133.617 632.26 136.455 634.234 139.292 636.208C139.727 636.51 140.085 636.661 140.613 636.305C144.194 633.884 147.799 631.495 151.258 629.181Z" fill="#F7F7F7"/>
<path d="M1174.31 566.955C1178.86 562.711 1183.16 558.655 1187.51 554.647C1189.32 552.976 1191.18 551.366 1193.27 550.046C1193.63 549.816 1194.14 549.314 1194.52 549.98C1194.85 550.561 1194.3 550.948 1193.92 551.154C1192.58 551.862 1191.61 552.976 1190.57 554.006C1185.79 558.758 1181.05 563.559 1176.26 568.299C1175.53 569.02 1175.36 569.577 1175.79 570.558C1177.42 574.329 1178.96 578.143 1180.53 581.945C1181.28 581.83 1181.56 581.243 1181.96 580.837C1188.87 573.79 1195.66 566.628 1202.93 559.963C1203.58 559.37 1204.26 558.813 1204.95 558.28C1205.18 558.104 1205.47 557.808 1205.81 558.153C1206.32 558.673 1205.66 558.794 1205.48 559C1198.31 567.3 1190.82 575.304 1183.18 583.174C1181.96 584.434 1181.91 585.39 1182.57 586.867C1185.16 592.673 1187.51 598.576 1189.64 604.57C1189.76 604.927 1189.95 605.29 1189.97 605.659C1189.99 606.144 1190.43 606.858 1189.64 607.052C1188.96 607.221 1188.89 606.549 1188.63 606.053C1185.44 599.884 1182.58 593.557 1179.97 587.691C1177.21 590.215 1174.39 592.788 1171.58 595.386C1170.9 596.015 1171.52 596.633 1171.75 597.184C1173.47 601.276 1175.23 605.351 1176.97 609.431C1177.1 609.734 1177.2 610.043 1177.33 610.345C1177.58 610.914 1177.87 611.586 1177.15 611.925C1176.48 612.234 1176.23 611.514 1175.96 611.072C1173.62 607.173 1171.6 603.092 1169.68 598.97C1169.56 598.721 1169.42 598.485 1169.26 598.176C1168.54 598.334 1168.24 598.963 1167.84 599.418C1164.99 602.608 1162.19 605.835 1159.33 609.025C1158.72 609.716 1158 610.321 1157.27 610.896C1156.82 611.253 1156.14 611.344 1155.74 610.945C1155.25 610.454 1155.71 609.982 1156.07 609.534C1158.73 606.259 1161.37 602.959 1164.02 599.672C1164.5 599.072 1164.93 598.388 1165.52 597.934C1167.86 596.142 1167.86 594.229 1166.4 591.777C1164.98 589.386 1163.91 586.77 1162.84 584.191C1162.26 582.823 1161.88 583.029 1161.01 583.925C1156.96 588.102 1152.47 591.789 1148 595.501C1147.25 596.124 1146.19 597.299 1145.34 596.324C1144.33 595.168 1145.83 594.441 1146.55 593.733C1150.91 589.489 1155.65 585.65 1159.92 581.31C1160.66 580.547 1160.93 579.978 1160.42 578.918C1157.29 572.313 1155.03 565.357 1152.53 558.504C1152.2 557.614 1151.81 556.573 1152.93 556.046C1154.11 555.489 1154.72 556.385 1155.16 557.348C1157.7 562.833 1159.42 568.644 1161.8 574.19C1162.13 574.947 1162.48 575.698 1162.73 576.479C1163.06 577.526 1163.41 577.829 1164.32 576.896C1166.53 574.62 1168.8 572.386 1171.11 570.2C1171.79 569.547 1171.79 569.02 1171.44 568.203C1169.26 563.111 1167.16 557.977 1164.65 553.037C1163.95 551.669 1163.3 550.27 1162.93 548.769C1162.74 548.006 1162.71 547.243 1163.18 546.547C1163.49 546.087 1163.94 545.942 1164.47 546.02C1165.03 546.105 1165.15 546.499 1165.1 546.983C1165.05 547.443 1165.2 547.855 1165.42 548.236C1168.81 554.211 1171.9 560.326 1174.31 566.955ZM1173.09 572.011C1170.33 574.662 1167.62 577.272 1164.9 579.875C1164.48 580.274 1164.46 580.656 1164.7 581.195C1166.33 584.851 1167.93 588.526 1169.52 592.201C1169.84 592.94 1170.12 592.946 1170.66 592.395C1173.06 589.919 1175.5 587.467 1177.94 585.015C1178.31 584.639 1178.52 584.313 1178.26 583.731C1176.5 579.784 1174.77 575.819 1173.09 572.011Z" fill="#4C9A67"/>
<path d="M110.308 607.955C114.857 603.711 119.164 599.655 123.508 595.647C125.319 593.976 127.184 592.366 129.272 591.046C129.633 590.816 130.144 590.314 130.523 590.98C130.854 591.561 130.301 591.948 129.915 592.154C128.58 592.862 127.605 593.976 126.57 595.006C121.787 599.758 117.053 604.559 112.258 609.299C111.53 610.02 111.361 610.577 111.788 611.558C113.425 615.329 114.959 619.143 116.529 622.945C117.281 622.83 117.564 622.243 117.961 621.837C124.868 614.79 131.66 607.628 138.934 600.963C139.578 600.37 140.258 599.813 140.949 599.28C141.178 599.104 141.467 598.808 141.81 599.153C142.321 599.673 141.659 599.794 141.479 600C134.307 608.3 126.817 616.304 119.182 624.174C117.961 625.434 117.907 626.39 118.569 627.867C121.156 633.673 123.508 639.576 125.638 645.57C125.764 645.927 125.951 646.29 125.969 646.659C125.993 647.144 126.426 647.858 125.644 648.052C124.964 648.221 124.892 647.549 124.633 647.053C121.438 640.884 118.581 634.557 115.97 628.691C113.214 631.215 110.386 633.788 107.583 636.386C106.897 637.015 107.523 637.633 107.751 638.184C109.466 642.276 111.229 646.351 112.973 650.431C113.1 650.734 113.202 651.043 113.334 651.345C113.575 651.914 113.87 652.586 113.148 652.925C112.48 653.234 112.227 652.514 111.963 652.072C109.616 648.173 107.601 644.092 105.676 639.97C105.561 639.721 105.423 639.485 105.261 639.176C104.545 639.334 104.244 639.963 103.841 640.418C100.995 643.608 98.1853 646.835 95.3336 650.025C94.7199 650.716 93.9979 651.321 93.27 651.896C92.8187 652.253 92.1389 652.344 91.7418 651.945C91.2485 651.454 91.7057 650.982 92.0727 650.534C94.7319 647.259 97.3731 643.959 100.02 640.672C100.502 640.072 100.929 639.388 101.524 638.934C103.865 637.142 103.859 635.229 102.403 632.777C100.983 630.386 99.912 627.77 98.8351 625.191C98.2635 623.823 97.8785 624.029 97.0121 624.925C92.9631 629.102 88.4689 632.789 84.0048 636.501C83.2527 637.124 82.1939 638.299 81.3396 637.324C80.3288 636.168 81.8269 635.441 82.5548 634.733C86.9107 630.489 91.6455 626.65 95.9171 622.31C96.6632 621.547 96.9279 620.978 96.4225 619.918C93.294 613.313 91.0319 606.357 88.5291 599.504C88.2042 598.614 87.8131 597.573 88.9322 597.046C90.1114 596.489 90.719 597.385 91.1642 598.348C93.7031 603.833 95.4178 609.644 97.8003 615.19C98.1251 615.947 98.4801 616.698 98.7268 617.479C99.0577 618.526 99.4066 618.829 100.315 617.896C102.529 615.62 104.797 613.386 107.108 611.2C107.793 610.547 107.793 610.02 107.444 609.203C105.261 604.111 103.161 598.977 100.646 594.037C99.9481 592.669 99.2983 591.27 98.9313 589.769C98.7448 589.006 98.7087 588.243 99.178 587.547C99.4908 587.087 99.936 586.942 100.465 587.02C101.031 587.105 101.145 587.499 101.097 587.983C101.049 588.443 101.199 588.855 101.416 589.236C104.809 595.211 107.896 601.326 110.308 607.955ZM109.093 613.011C106.331 615.662 103.618 618.272 100.899 620.875C100.484 621.274 100.459 621.656 100.7 622.195C102.331 625.851 103.931 629.526 105.519 633.201C105.838 633.94 106.121 633.946 106.656 633.395C109.063 630.919 111.499 628.467 113.936 626.015C114.309 625.639 114.52 625.313 114.261 624.731C112.498 620.784 110.771 616.819 109.093 613.011Z" fill="#4C9A67"/>
<path d="M110.17 886.854C110.32 884.314 110.42 881.774 110.64 879.244C110.83 877.094 110.36 876.264 108.2 877.634C106.82 878.504 105.35 879.234 103.86 879.914C97.9197 882.664 94.0897 880.074 94.5297 873.594C94.6897 871.244 95.0597 868.904 95.2697 866.554C95.5397 863.604 95.2397 863.334 92.3797 863.764C91.2097 863.934 90.0597 864.244 88.8897 864.294C85.5897 864.454 83.6598 862.544 84.0498 859.264C84.6498 854.264 86.2897 849.554 88.5197 845.044C89.2197 843.634 90.2597 842.514 91.9697 843.214C93.6997 843.924 93.1497 845.374 92.7697 846.714C91.8597 849.854 91.0497 853.024 90.0997 856.154C89.5697 857.914 89.6497 858.854 91.8397 858.064C92.4297 857.854 93.0797 857.784 93.7097 857.714C98.7497 857.094 101.77 859.694 101.75 864.814C101.74 866.984 101.37 869.144 101.19 871.314C101.13 871.994 100.74 872.824 101.55 873.284C102.18 873.634 102.76 873.114 103.31 872.834C105.26 871.864 107.12 870.674 109.15 869.924C113.26 868.414 116.34 870.274 117.23 874.554C117.81 877.364 117.49 880.164 117.17 882.964C116.52 888.564 116.72 894.214 116.26 899.824C116.12 901.604 116.36 904.404 114.23 904.594C111.93 904.794 111.56 901.994 111.06 900.144C109.91 895.774 110.1 891.304 110.17 886.854Z" fill="#1FA3FF"/>
<path d="M76.1697 135.854C76.3197 133.314 76.4197 130.774 76.6397 128.244C76.8297 126.094 76.3597 125.264 74.1997 126.634C72.8197 127.504 71.3497 128.234 69.8597 128.914C63.9197 131.664 60.0897 129.074 60.5297 122.594C60.6897 120.244 61.0597 117.904 61.2697 115.554C61.5397 112.604 61.2397 112.334 58.3797 112.764C57.2097 112.934 56.0597 113.244 54.8897 113.294C51.5897 113.454 49.6598 111.544 50.0498 108.264C50.6498 103.264 52.2897 98.5544 54.5197 94.0444C55.2197 92.6344 56.2597 91.5144 57.9697 92.2144C59.6997 92.9244 59.1497 94.3744 58.7697 95.7144C57.8597 98.8544 57.0497 102.024 56.0997 105.154C55.5697 106.914 55.6497 107.854 57.8397 107.064C58.4297 106.854 59.0797 106.784 59.7097 106.714C64.7497 106.094 67.7697 108.694 67.7497 113.814C67.7397 115.984 67.3698 118.144 67.1898 120.314C67.1298 120.994 66.7397 121.824 67.5497 122.284C68.1797 122.634 68.7598 122.114 69.3098 121.834C71.2598 120.864 73.1197 119.674 75.1497 118.924C79.2597 117.414 82.3397 119.274 83.2297 123.554C83.8097 126.364 83.4897 129.164 83.1697 131.964C82.5197 137.564 82.7197 143.214 82.2597 148.824C82.1197 150.604 82.3597 153.404 80.2297 153.594C77.9297 153.794 77.5598 150.994 77.0598 149.144C75.9098 144.774 76.0997 140.304 76.1697 135.854Z" fill="#1FA3FF"/>
<path d="M722.394 33.0273C723.316 36.9406 723.586 40.1943 723.439 43.4716C723.363 45.0799 723.998 45.9505 725.404 46.6143C729.343 48.471 733.136 48.2497 736.857 46.0859C739.986 44.2689 742.374 41.6497 744.434 38.7528C749.128 32.1734 753.695 25.5024 758.376 18.9158C759.895 16.7754 761.575 14.7386 763.674 13.0907C764.421 12.4983 765.103 11.9741 766.09 12.6105C767.175 13.3047 766.409 14.0256 766.13 14.7156C761.396 26.4127 755.032 37.214 746.967 46.8483C740.944 54.0442 733.152 57.0367 723.833 53.2152C722.3 52.5835 722.148 53.5712 721.876 54.5278C720.639 58.7529 718.687 62.6438 716.138 66.212C709.973 74.837 700.669 77.8525 690.728 74.2615C688.797 73.5658 688.415 74.4162 687.784 75.7527C683.681 84.287 677.387 90.3344 668.047 92.7607C653.645 96.5048 640.056 83.2753 643.643 69.0531C644.115 67.1789 644.86 65.4417 646.064 63.9284C646.868 62.9089 647.833 62.1168 649.139 61.8157C650.706 61.448 652.153 61.6581 652.809 63.2659C653.468 64.8835 652.21 66.1836 651.061 66.455C648.951 66.9607 648.712 68.4556 648.407 70.0188C647.302 75.7374 648.68 80.6287 653.357 84.3718C658.644 88.6096 664.303 88.6671 670.204 85.8252C676.426 82.8196 680.298 77.7181 683.002 71.5517C683.603 70.1813 682.849 69.6096 682.033 68.8367C677.965 65.0112 675.47 60.4347 675.46 54.7109C675.455 51.7301 676.038 48.9095 677.755 46.4506C679.706 43.6536 682.324 42.0181 685.869 42.5715C688.748 43.016 690.695 45.4409 691.385 49.2484C692.362 54.6749 692.219 60.118 691.137 65.48C690.716 67.5578 691.448 68.2485 693.165 68.751C699.08 70.5076 704.354 69.4145 708.67 64.9637C712.682 60.8172 714.939 55.6931 716.207 50.0878C716.548 48.5876 715.868 47.739 714.976 46.7481C711.297 42.6688 708.655 38.1197 708.627 32.4104C708.625 31.8744 708.659 31.3189 708.74 30.7825C709.155 27.9529 710.113 25.4291 713.128 24.4663C715.582 23.6877 718.185 25.0792 720.176 27.9986C721.326 29.7597 722.112 31.675 722.394 33.0273ZM685.264 63.568C685.428 62.02 685.649 60.8597 685.654 59.7028C685.674 56.9014 685.663 54.0977 685.55 51.2993C685.504 50.1862 685.706 48.5459 684.241 48.382C682.829 48.2251 682.214 49.7022 681.719 50.8805C680.052 54.9157 681.283 59.679 685.264 63.568ZM714.822 32.4245C714.907 34.3426 714.958 36.29 716.567 37.7485C716.237 35.8411 715.898 34.0185 714.822 32.4245Z" fill="#E57128"/>
<path d="M507.705 859.001C511.383 858.951 513.581 860.651 514.864 863.663C515.374 864.864 515.719 866.136 516.201 867.353C516.569 868.287 516.936 869.242 517.468 870.081C518.608 871.876 519.781 872.193 521.661 871.209C524.226 869.87 526.715 868.381 529.297 867.081C532.158 865.647 535.167 864.902 538.396 865.603C540.945 866.158 542.967 867.553 544.568 869.576C546.223 871.66 546.404 873.955 545.313 876.388C544.223 878.822 542.441 880.734 540.786 882.74C538.188 885.896 537.157 889.341 538.451 893.42C539.311 896.149 539.958 898.96 539.426 901.894C538.889 904.867 537.628 907.479 535.447 909.507C531.462 913.208 527.016 912.752 523.755 908.379C522.829 907.14 522.121 905.734 521.305 904.412C520.965 903.861 520.647 903.272 520.219 902.794C519.002 901.422 517.698 901.444 516.585 902.9C515.275 904.617 514.003 906.351 512.315 907.723C510.183 909.463 507.782 910.235 505.074 909.763C502.098 909.24 500.163 906.106 500.431 902.611C500.661 899.616 501.873 897.093 503.715 894.815C507.152 890.558 507.513 886.013 504.614 881.467C501.774 877.005 499.85 872.287 500.009 866.875C500.179 861.724 502.947 859.007 507.705 859.001ZM504.181 902.789C504.153 905.651 505.704 906.701 508.346 905.612C509.328 905.206 510.166 904.595 510.939 903.861C512.112 902.75 513.006 901.411 514.031 900.177C515.253 898.71 516.766 897.904 518.717 897.966C521.442 898.043 523.07 899.677 524.309 901.894C525.268 903.6 526.095 905.384 527.543 906.768C529.291 908.435 530.864 908.507 532.662 906.918C533.38 906.284 533.939 905.528 534.422 904.684C536.165 901.616 535.677 898.466 534.838 895.293C534.334 893.392 533.759 891.481 533.912 889.508C534.208 885.663 535.765 882.334 538.22 879.411C539.41 877.994 540.643 876.6 541.482 874.916C541.97 873.938 542.063 872.965 541.383 872.065C540.123 870.387 538.533 869.32 536.351 869.242C533.698 869.148 531.402 870.181 529.143 871.382C527.027 872.504 524.972 873.749 522.807 874.771C519.688 876.249 517.002 875.494 514.869 872.782C513.762 871.376 513.082 869.77 512.518 868.086C512.036 866.658 511.657 865.191 510.835 863.897C509.761 862.202 508.138 862.402 506.554 862.63C505.112 862.835 504.104 863.597 503.808 865.191C503.528 866.703 503.473 868.198 503.748 869.698C504.318 872.843 505.381 875.805 506.932 878.606C508.292 881.056 509.887 883.534 510.106 886.363C510.402 890.225 509.448 893.842 506.751 896.849C505.266 898.499 504.126 900.399 504.181 902.789Z" fill="#FAFAFA"/>
<path d="M487.705 848.001C491.383 847.951 493.581 849.651 494.864 852.663C495.374 853.864 495.719 855.136 496.201 856.353C496.569 857.287 496.936 858.242 497.468 859.081C498.608 860.876 499.781 861.193 501.661 860.209C504.226 858.87 506.715 857.381 509.297 856.081C512.158 854.647 515.167 853.902 518.396 854.603C520.945 855.158 522.967 856.553 524.568 858.576C526.223 860.66 526.404 862.955 525.313 865.388C524.223 867.822 522.441 869.734 520.786 871.74C518.188 874.896 517.157 878.341 518.451 882.42C519.311 885.149 519.958 887.96 519.426 890.894C518.889 893.867 517.628 896.479 515.447 898.507C511.462 902.208 507.016 901.752 503.755 897.379C502.829 896.14 502.121 894.734 501.305 893.412C500.965 892.861 500.647 892.272 500.219 891.794C499.002 890.422 497.698 890.444 496.585 891.9C495.275 893.617 494.003 895.351 492.315 896.723C490.183 898.463 487.782 899.235 485.074 898.763C482.098 898.24 480.163 895.106 480.431 891.611C480.661 888.616 481.873 886.093 483.715 883.815C487.152 879.558 487.513 875.013 484.614 870.467C481.774 866.005 479.85 861.287 480.009 855.875C480.179 850.724 482.947 848.007 487.705 848.001ZM484.181 891.789C484.153 894.651 485.704 895.701 488.346 894.612C489.328 894.206 490.166 893.595 490.939 892.861C492.112 891.75 493.006 890.411 494.031 889.177C495.253 887.71 496.766 886.904 498.717 886.966C501.442 887.043 503.07 888.677 504.309 890.894C505.268 892.6 506.095 894.384 507.543 895.768C509.291 897.435 510.864 897.507 512.662 895.918C513.38 895.284 513.939 894.528 514.422 893.684C516.165 890.616 515.677 887.466 514.838 884.293C514.334 882.392 513.759 880.481 513.912 878.508C514.208 874.663 515.765 871.334 518.22 868.411C519.41 866.994 520.643 865.6 521.482 863.916C521.97 862.938 522.063 861.965 521.383 861.065C520.123 859.387 518.533 858.32 516.351 858.242C513.698 858.148 511.402 859.181 509.143 860.382C507.027 861.504 504.972 862.749 502.807 863.771C499.688 865.249 497.002 864.494 494.869 861.782C493.762 860.376 493.082 858.77 492.518 857.086C492.036 855.658 491.657 854.191 490.835 852.897C489.761 851.202 488.138 851.402 486.554 851.63C485.112 851.835 484.104 852.597 483.808 854.191C483.528 855.703 483.473 857.198 483.748 858.698C484.318 861.843 485.381 864.805 486.932 867.606C488.292 870.056 489.887 872.534 490.106 875.363C490.402 879.225 489.448 882.842 486.751 885.849C485.266 887.499 484.126 889.399 484.181 891.789Z" fill="#4EA0F7"/>
<path d="M297.821 793.367C297.831 795.645 297.611 798.328 298.081 800.991C298.536 803.569 299.391 804.505 301.955 805.071C302.93 805.286 303.915 805.446 304.9 805.601C311.443 806.622 317.447 812.374 318.717 818.857C320.217 826.511 315.628 831.131 307.989 829.679C305.59 829.224 303.2 828.658 300.735 828.618C296.741 828.558 294.677 830.005 293.477 833.839C292.502 836.968 292.212 840.242 291.527 843.435C290.203 849.613 286.238 852.921 279.939 852.997C278.535 853.012 277.14 852.987 275.735 852.736C269.991 851.7 267.202 847.65 268.282 841.849C268.817 838.97 270.011 836.307 270.911 833.544C271.306 832.337 271.656 831.116 271.981 829.885C272.256 828.853 271.901 828.238 270.756 828.118C268.502 827.882 266.242 827.672 264.013 827.307C259.778 826.616 256.329 824.643 254.129 820.814C253.535 819.778 253.205 818.651 253.065 817.46C252.55 813.045 255.144 809.936 259.578 809.666C261.503 809.551 263.393 809.846 265.242 810.312C267.057 810.772 268.887 810.998 270.746 811.018C272.786 811.033 274.286 810.046 275.4 808.399C277.055 805.952 277.53 803.123 277.97 800.29C278.61 796.165 279.09 792.01 280.749 788.111C282.294 784.477 284.504 781.468 288.193 779.791C292.937 777.639 297.156 780.021 297.836 785.207C298.171 787.795 298.011 790.378 297.821 793.367ZM294.032 792.015C293.952 789.572 294.407 787.1 293.717 784.687C293.197 782.875 291.917 782.229 290.148 782.85C287.898 783.636 286.293 785.197 285.138 787.24C283.969 789.317 283.269 791.57 282.799 793.898C282.049 797.587 281.639 801.336 280.804 805.021C280.164 807.854 278.25 810.036 277.25 812.684C276.765 813.966 275.145 814.156 273.821 814.266C271.276 814.482 268.742 814.251 266.222 813.866C264.118 813.546 262.048 812.935 259.893 813.06C257.274 813.205 256.249 814.477 256.614 817.085C256.739 817.961 257.049 818.752 257.574 819.457C259.109 821.515 261.153 822.851 263.653 823.287C266.197 823.727 268.797 823.812 271.346 824.228C275.385 824.889 276.915 827.417 275.715 831.326C275.235 832.888 274.626 834.41 274.026 835.927C273.096 838.294 272.121 840.642 271.756 843.19C271.321 846.199 272.636 848.076 275.615 848.747C276.96 849.052 278.32 849.072 279.68 849.042C284.334 848.942 286.483 847.205 287.498 842.69C288.168 839.721 288.638 836.708 289.403 833.769C291.137 827.101 295.082 824.303 301.95 824.653C304.68 824.794 307.304 825.61 310.024 825.84C313.388 826.12 315.058 824.583 315.013 821.189C314.943 815.683 309.839 810.167 304.06 809.331C303.075 809.19 302.09 809.01 301.115 808.81C297.141 807.984 294.937 805.676 294.287 801.672C293.762 798.463 293.737 795.244 294.032 792.015Z" fill="#FAFAFA"/>
<path d="M277.821 783.367C277.831 785.645 277.611 788.328 278.081 790.991C278.536 793.569 279.391 794.505 281.955 795.071C282.93 795.286 283.915 795.446 284.9 795.601C291.443 796.622 297.447 802.374 298.717 808.857C300.217 816.511 295.628 821.131 287.989 819.679C285.59 819.224 283.2 818.658 280.735 818.618C276.741 818.558 274.677 820.005 273.477 823.839C272.502 826.968 272.212 830.242 271.527 833.435C270.203 839.613 266.238 842.921 259.939 842.997C258.535 843.012 257.14 842.987 255.735 842.736C249.991 841.7 247.202 837.65 248.282 831.849C248.817 828.97 250.011 826.307 250.911 823.544C251.306 822.337 251.656 821.116 251.981 819.885C252.256 818.853 251.901 818.238 250.756 818.118C248.502 817.882 246.242 817.672 244.013 817.307C239.778 816.616 236.329 814.643 234.129 810.814C233.535 809.778 233.205 808.651 233.065 807.46C232.55 803.045 235.144 799.936 239.578 799.666C241.503 799.551 243.393 799.846 245.242 800.312C247.057 800.772 248.887 800.998 250.746 801.018C252.786 801.033 254.286 800.046 255.4 798.399C257.055 795.952 257.53 793.123 257.97 790.29C258.61 786.165 259.09 782.01 260.749 778.111C262.294 774.477 264.504 771.468 268.193 769.791C272.937 767.639 277.156 770.021 277.836 775.207C278.171 777.795 278.011 780.378 277.821 783.367ZM274.032 782.015C273.952 779.572 274.407 777.1 273.717 774.687C273.197 772.875 271.917 772.229 270.148 772.85C267.898 773.636 266.293 775.197 265.138 777.24C263.969 779.317 263.269 781.57 262.799 783.898C262.049 787.587 261.639 791.336 260.804 795.021C260.164 797.854 258.25 800.036 257.25 802.684C256.765 803.966 255.145 804.156 253.821 804.266C251.276 804.482 248.742 804.251 246.222 803.866C244.118 803.546 242.048 802.935 239.893 803.06C237.274 803.205 236.249 804.477 236.614 807.085C236.739 807.961 237.049 808.752 237.574 809.457C239.109 811.515 241.153 812.851 243.653 813.287C246.197 813.727 248.797 813.812 251.346 814.228C255.385 814.889 256.915 817.417 255.715 821.326C255.235 822.888 254.626 824.41 254.026 825.927C253.096 828.294 252.121 830.642 251.756 833.19C251.321 836.199 252.636 838.076 255.615 838.747C256.96 839.052 258.32 839.072 259.68 839.042C264.334 838.942 266.483 837.205 267.498 832.69C268.168 829.721 268.638 826.708 269.403 823.769C271.137 817.101 275.082 814.303 281.95 814.653C284.68 814.794 287.304 815.61 290.024 815.84C293.388 816.12 295.058 814.583 295.013 811.189C294.943 805.683 289.839 800.167 284.06 799.331C283.075 799.19 282.09 799.01 281.115 798.81C277.141 797.984 274.937 795.676 274.287 791.672C273.762 788.463 273.737 785.244 274.032 782.015Z" fill="#F3CC4B"/>
<path d="M1363.21 372.851C1363.24 379.631 1360.82 383.721 1356.13 386.501C1352.12 388.881 1348.43 391.561 1345.93 395.691C1343.6 399.541 1343.11 403.071 1345.71 407.081C1348.39 411.201 1350.15 415.811 1350.96 420.711C1351.69 425.151 1351.19 429.421 1348.88 433.341C1345.54 439.001 1340.48 440.091 1335.04 436.411C1332.35 434.591 1330.43 432.071 1328.57 429.481C1326.19 426.161 1324.05 422.661 1321 419.871C1316.91 416.131 1315.08 416.071 1311.1 419.951C1304.99 425.911 1297.96 429.561 1289.21 429.311C1287.08 429.251 1285.06 428.821 1283.15 427.951C1277.34 425.291 1275.4 419.551 1278.4 413.891C1280.01 410.841 1282.54 408.641 1285.24 406.601C1286.37 405.751 1287.73 405.051 1287.37 403.191C1287.24 402.501 1287.93 402.121 1288.45 401.751C1294.05 397.741 1295.29 392.031 1294.73 385.621C1294.3 380.721 1292.79 376.031 1291.96 371.201C1291.07 366.021 1292.01 361.261 1295.11 357.001C1299.8 350.561 1307.81 350.301 1312.97 356.451C1315.32 359.251 1316.83 362.581 1318.51 365.801C1319.94 368.531 1321.37 371.261 1323.63 373.461C1325.54 375.321 1327.5 375.561 1329.76 374.161C1332.79 372.291 1335.34 369.801 1338.15 367.651C1342.06 364.661 1346.31 362.581 1351.36 362.531C1358.6 362.461 1363.13 366.911 1363.21 372.851ZM1315.96 411.091C1319.54 410.911 1322.18 412.811 1324.68 414.981C1328.44 418.241 1330.98 422.461 1333.8 426.471C1335.27 428.561 1336.84 430.531 1339.14 431.821C1340.57 432.621 1341.73 432.401 1342.74 431.161C1344.69 428.771 1345.34 426.031 1344.93 423.001C1344.26 418.061 1342.41 413.541 1339.91 409.291C1337.06 404.441 1337.28 399.661 1339.78 394.771C1342.32 389.791 1345.82 385.741 1350.64 382.861C1352.35 381.841 1354.14 380.911 1355.55 379.461C1357.92 377.021 1358.5 372.881 1356.9 370.121C1355.46 367.651 1352.76 366.981 1348.9 368.061C1346.32 368.781 1344.03 370.041 1341.94 371.671C1339.36 373.681 1336.92 375.871 1334.28 377.791C1328.28 382.171 1323.1 381.441 1318.33 375.711C1316.04 372.961 1314.58 369.721 1313.02 366.551C1311.74 363.951 1310.62 361.241 1308.68 359.031C1305.57 355.471 1301.66 355.581 1298.72 359.251C1295.89 362.791 1295.44 366.811 1296.34 371.101C1297.05 374.471 1297.89 377.811 1298.5 381.201C1299.54 386.931 1298.65 392.351 1296.94 398.001C1294.99 404.411 1291.47 409.101 1286.27 412.901C1285.55 413.431 1284.95 414.161 1284.4 414.871C1281.43 418.711 1282.88 422.441 1287.7 423.141C1291.75 423.721 1295.65 423.031 1299.34 421.201C1302.64 419.561 1305.38 417.211 1308.03 414.701C1310.26 412.591 1312.71 410.921 1315.96 411.091Z" fill="#E57128"/>
<path opacity="0.2" d="M78.9889 916.217C76.6989 916.947 74.4189 917.758 72.0889 918.398C69.2389 919.178 66.3889 919.237 64.2989 916.757C62.2489 914.327 62.9589 911.618 64.1489 909.058C66.2989 904.448 68.4589 899.848 71.1589 895.528C71.6889 894.688 72.2489 893.837 72.9389 893.127C74.0589 891.967 75.4689 891.598 76.8889 892.518C78.2689 893.408 78.2989 894.798 77.6589 896.148C76.1489 899.348 74.5589 902.507 73.0089 905.687C72.4189 906.907 71.8189 908.138 71.2889 909.398C70.7289 910.708 71.2389 911.108 72.5189 910.678C74.4089 910.038 76.2689 909.278 78.1889 908.738C83.5189 907.228 87.1489 909.987 86.7389 915.507C86.4689 919.107 85.5589 922.658 84.9389 926.228C84.8189 926.928 84.4789 927.628 84.9589 928.518C87.5989 927.408 90.2489 926.278 92.9089 925.178C93.9189 924.758 94.9289 924.347 95.9689 924.037C101.589 922.377 105.259 925.367 104.479 931.157C103.969 934.927 103.099 938.648 102.379 942.388C102.229 943.178 101.909 943.958 102.299 944.898C104.029 944.538 105.279 943.277 106.769 942.507C112.139 939.757 116.259 942.217 116.309 948.237C116.349 952.527 115.399 956.718 115.009 960.958C114.829 962.928 115.329 963.448 117.229 962.668C118.639 962.088 120.149 961.627 121.659 961.377C127.649 960.407 131.079 963.207 130.909 969.237C130.729 975.397 130.189 981.548 129.239 987.648C129.089 988.638 128.979 989.628 128.759 990.598C128.629 991.208 129.309 992.208 128.119 992.338C127.289 992.428 126.829 991.758 126.499 991.088C125.199 988.508 124.959 985.708 124.799 982.898C124.569 978.728 124.339 974.557 124.199 970.377C124.139 968.397 123.279 968.058 121.599 968.728C119.659 969.498 117.709 970.257 115.739 970.927C110.719 972.647 107.579 970.507 107.769 965.177C107.929 960.837 108.629 956.517 109.069 952.177C109.149 951.407 109.659 950.398 108.869 949.918C108.069 949.438 107.419 950.388 106.749 950.788C105.419 951.568 104.179 952.537 102.789 953.177C98.5989 955.097 95.0589 953.008 94.6489 948.408C94.3489 945.098 95.3289 941.927 95.8889 938.717C96.2289 936.747 96.6789 934.808 97.1089 932.858C97.4489 931.328 96.8589 931.038 95.5489 931.618C93.4789 932.548 91.4089 933.477 89.3389 934.407C88.4289 934.817 87.5289 935.268 86.6089 935.638C80.1289 938.238 76.3489 935.308 77.3589 928.428C77.8389 925.198 78.4489 921.988 79.0089 918.768C79.1489 917.968 79.5089 917.187 78.9889 916.217Z" fill="#FFFCF3"/>
<path opacity="0.2" d="M124.17 865.854C124.32 863.314 124.42 860.774 124.64 858.244C124.83 856.094 124.36 855.264 122.2 856.634C120.82 857.504 119.35 858.234 117.86 858.914C111.92 861.664 108.09 859.074 108.53 852.594C108.69 850.244 109.06 847.904 109.27 845.554C109.54 842.604 109.24 842.334 106.38 842.764C105.21 842.934 104.06 843.244 102.89 843.294C99.5897 843.454 97.6598 841.544 98.0498 838.264C98.6498 833.264 100.29 828.554 102.52 824.044C103.22 822.634 104.26 821.514 105.97 822.214C107.7 822.924 107.15 824.374 106.77 825.714C105.86 828.854 105.05 832.024 104.1 835.154C103.57 836.914 103.65 837.854 105.84 837.064C106.43 836.854 107.08 836.784 107.71 836.714C112.75 836.094 115.77 838.694 115.75 843.814C115.74 845.984 115.37 848.144 115.19 850.314C115.13 850.994 114.74 851.824 115.55 852.284C116.18 852.634 116.76 852.114 117.31 851.834C119.26 850.864 121.12 849.674 123.15 848.924C127.26 847.414 130.34 849.274 131.23 853.554C131.81 856.364 131.49 859.164 131.17 861.964C130.52 867.564 130.72 873.214 130.26 878.824C130.12 880.604 130.36 883.404 128.23 883.594C125.93 883.794 125.56 880.994 125.06 879.144C123.91 874.774 124.1 870.304 124.17 865.854Z" fill="#FFFCF3"/>
<path opacity="0.2" d="M342.318 592.04C344.378 590.546 346.406 589.013 348.502 587.579C350.285 586.363 350.629 585.474 348.2 584.672C346.652 584.156 345.156 583.482 343.685 582.761C337.793 579.91 337.368 575.306 342.659 571.539C344.577 570.173 346.622 568.975 348.572 567.648C351.025 565.987 351.044 565.583 348.898 563.644C348.025 562.847 347.056 562.154 346.276 561.281C344.06 558.83 344.314 556.127 347.097 554.349C351.345 551.643 356.027 549.926 360.929 548.792C362.463 548.439 363.988 548.533 364.531 550.3C365.079 552.088 363.609 552.581 362.331 553.137C359.326 554.424 356.361 555.807 353.338 557.056C351.641 557.762 350.965 558.42 352.964 559.613C353.5 559.936 353.967 560.394 354.42 560.837C358.095 564.342 357.998 568.326 354.026 571.556C352.341 572.924 350.436 574.007 348.644 575.244C348.08 575.629 347.191 575.853 347.349 576.771C347.477 577.48 348.247 577.599 348.812 577.847C350.799 578.74 352.898 579.424 354.765 580.519C358.538 582.74 359.052 586.301 356.307 589.703C354.501 591.933 352.133 593.46 349.764 594.988C345.021 598.035 340.779 601.772 336.148 604.972C334.683 605.992 332.67 607.953 331.172 606.426C329.56 604.774 331.491 602.713 332.604 601.154C335.255 597.494 338.832 594.807 342.318 592.04Z" fill="#FFFCF3"/>
<path d="M314.528 564.03C314.789 561.984 316.384 562.031 317.697 562.004C321.402 561.944 325.04 562.579 328.631 563.435C333.944 564.699 339.069 566.485 343.852 569.167C348.589 571.822 350.612 576.082 350.941 581.272C351.316 587.258 349.889 592.902 347.356 598.293C341.313 611.147 333.327 622.624 322.728 632.154C316.893 637.404 310.669 642.179 303.775 646.032C299.695 648.306 295.541 650.372 291.032 651.636C285.197 653.268 279.428 653.877 273.727 650.927C269.674 648.834 267.737 645.376 266.639 641.216C265.198 635.779 266.33 630.71 268.675 625.76C271.503 619.781 275.603 614.732 280.085 609.957C287.81 601.737 296.425 594.554 305.812 588.321C309.979 585.552 314.36 583.038 319.499 582.516C326.366 581.82 330.862 585.74 330.292 593.056C329.709 600.574 325.703 606.325 320.953 611.662C315.54 617.735 309.249 622.791 302.04 626.643C299.407 628.048 296.573 628.991 293.645 629.452C291.173 629.847 288.567 628.021 288.868 624.463C289.143 621.246 291.005 618.785 292.761 616.277C296.573 610.833 301.383 606.305 306.1 601.67C308.217 599.59 310.193 597.43 313.141 596.541C315.526 595.825 317.831 596.862 318.595 599.149C318.997 600.36 317.69 600.687 317.087 600.527C313.617 599.631 311.949 602.179 310.026 604.091C305.128 608.967 300.546 614.13 296.311 619.594C295.528 620.604 294.858 621.681 294.328 622.838C294.154 623.212 293.859 623.574 294.248 623.995C294.637 624.41 295.012 624.142 295.414 624.028C299.233 622.925 302.535 620.872 305.758 618.624C312.183 614.15 317.603 608.706 321.871 602.139C323.74 599.263 324.644 596.026 325.06 592.688C325.535 588.89 323.325 587.184 319.734 587.666C313.55 588.495 308.867 592.1 304.056 595.484C296.579 600.761 289.726 606.787 283.482 613.475C279.274 617.989 275.194 622.63 272.588 628.329C270.705 632.448 270.283 636.695 271.67 641.036C272.936 645.008 275.971 647.256 280.118 647.637C285.103 648.092 289.759 646.955 294.235 644.942C302.194 641.364 309.188 636.361 315.888 630.803C325.087 623.166 332.302 613.983 338.292 603.744C341.521 598.226 344.214 592.448 345.226 586.101C346.358 578.998 344.529 574.317 337.447 571.294C333.086 569.434 328.651 567.769 324.236 566.077C321.723 565.114 319.05 564.586 316.457 563.823C315.821 563.663 315.325 564.258 314.528 564.03Z" fill="#EB893B"/>
<path d="M-8.4473 709.001C-3.40995 708.934 -0.399549 711.243 1.35714 715.335C2.05531 716.966 2.52827 718.694 3.18891 720.347C3.69189 721.616 4.19487 722.914 4.92307 724.054C6.48458 726.492 8.09112 726.923 10.6661 725.586C14.1795 723.767 17.5878 721.744 21.1237 719.978C25.0424 718.03 29.1639 717.018 33.5857 717.97C37.0765 718.724 39.8467 720.619 42.0388 723.367C44.306 726.198 44.5537 729.316 43.0598 732.622C41.5658 735.928 39.126 738.525 36.8588 741.25C33.3004 745.538 31.889 750.218 33.6607 755.759C34.8394 759.466 35.7252 763.286 34.997 767.271C34.2613 771.31 32.5346 774.858 29.5468 777.613C24.089 782.641 18.0007 782.022 13.5339 776.081C12.2651 774.398 11.2967 772.488 10.1781 770.691C9.71269 769.944 9.27726 769.144 8.69169 768.494C7.02509 766.63 5.23837 766.66 3.7144 768.638C1.92017 770.97 0.178489 773.326 -2.13374 775.19C-5.05405 777.553 -8.34221 778.602 -12.0508 777.961C-16.1272 777.251 -18.7773 772.994 -18.4094 768.245C-18.0941 764.176 -16.435 760.749 -13.9126 757.654C-9.20552 751.872 -8.71006 745.697 -12.6814 739.522C-16.5701 733.46 -19.2052 727.051 -18.9874 719.698C-18.7547 712.7 -14.9636 709.009 -8.4473 709.001ZM-13.2745 768.487C-13.312 772.375 -11.1874 773.801 -7.56896 772.322C-6.22517 771.771 -5.07655 770.94 -4.01804 769.944C-2.41149 768.434 -1.18782 766.615 0.216029 764.939C1.89014 762.946 3.96215 761.851 6.63472 761.934C10.3658 762.04 12.5954 764.259 14.2921 767.271C15.6058 769.589 16.7394 772.012 18.7213 773.892C21.1161 776.157 23.2707 776.255 25.7331 774.096C26.7166 773.235 27.4823 772.208 28.1429 771.061C30.5302 766.894 29.8621 762.614 28.7135 758.303C28.0228 755.722 27.2346 753.125 27.4448 750.445C27.8501 745.221 29.9822 740.699 33.3454 736.729C34.9745 734.804 36.6636 732.909 37.8122 730.622C38.4804 729.293 38.608 727.972 37.6771 726.749C35.9504 724.469 33.7733 723.02 30.7855 722.914C27.152 722.786 24.0064 724.19 20.9135 725.82C18.0157 727.345 15.2005 729.036 12.2351 730.425C7.96349 732.433 4.28494 731.407 1.36463 727.723C-0.151826 725.813 -1.08271 723.631 -1.85595 721.344C-2.51659 719.404 -3.03459 717.411 -4.16067 715.652C-5.63209 713.35 -7.85423 713.621 -10.0238 713.931C-11.9982 714.21 -13.3796 715.244 -13.7849 717.411C-14.1678 719.464 -14.2429 721.495 -13.8675 723.533C-13.0868 727.806 -11.6304 731.829 -9.50582 735.634C-7.64402 738.963 -5.45944 742.33 -5.15915 746.172C-4.75376 751.419 -6.06001 756.333 -9.75357 760.417C-11.788 762.659 -13.3495 765.241 -13.2745 768.487Z" fill="#EB893B"/>
<path opacity="0.2" d="M461.481 85.9675C460.74 90.9505 457.977 93.5513 453.657 94.6288C451.935 95.0563 450.153 95.2458 448.415 95.6327C447.083 95.9257 445.721 96.2138 444.479 96.7497C441.821 97.8998 441.139 99.4165 442.045 102.172C443.277 105.932 444.727 109.621 445.903 113.394C447.197 117.575 447.534 121.805 445.886 126.017C444.581 129.342 442.266 131.772 439.202 133.495C436.044 135.278 432.927 135.023 429.903 133.018C426.879 131.013 424.707 128.188 422.381 125.513C418.72 121.313 414.327 119.169 408.573 120.028C404.726 120.597 400.813 120.859 396.996 119.5C393.128 118.126 389.903 115.853 387.662 112.461C383.576 106.268 385.163 100.358 391.744 96.9018C393.609 95.9196 395.65 95.2702 397.603 94.4543C398.415 94.1148 399.275 93.8134 400.009 93.3396C402.117 91.9937 402.374 90.2253 400.666 88.4038C398.652 86.2585 396.606 84.1615 395.137 81.5801C393.273 78.3186 392.765 74.9046 393.993 71.3471C395.348 67.4373 399.975 65.5046 404.603 66.6295C408.569 67.5935 411.685 69.781 414.336 72.7673C419.288 78.3411 425.304 79.8209 432.036 76.8917C438.643 74.0259 445.392 72.4532 452.614 73.8477C459.484 75.2002 462.519 79.5345 461.481 85.9675ZM403.541 71.6592C399.71 70.9984 397.961 72.8665 398.84 76.6755C399.169 78.0903 399.804 79.3573 400.618 80.562C401.85 82.3899 403.45 83.8896 404.879 85.5442C406.577 87.5163 407.325 89.7371 406.814 92.3617C406.111 96.0275 403.563 97.8722 400.318 99.0636C397.82 99.9886 395.246 100.719 393.073 102.373C390.453 104.374 390.011 106.485 391.746 109.262C392.438 110.37 393.329 111.291 394.355 112.127C398.085 115.152 402.417 115.179 406.856 114.737C409.515 114.47 412.205 114.108 414.816 114.746C419.907 115.984 424.029 118.814 427.408 122.77C429.047 124.687 430.646 126.658 432.72 128.159C433.924 129.032 435.207 129.37 436.564 128.647C439.091 127.309 440.871 125.392 441.454 122.46C442.164 118.894 441.283 115.564 440.17 112.25C439.129 109.145 437.912 106.095 437.017 102.945C435.72 98.4064 437.324 94.9402 441.428 92.6488C443.557 91.4584 445.859 90.8895 448.241 90.4933C450.262 90.1525 452.312 89.9609 454.229 89.1316C456.738 88.0487 456.826 85.8117 456.869 83.6206C456.91 81.6269 456.111 80.0976 454.037 79.3498C452.072 78.6425 450.08 78.2426 448.007 78.2861C443.665 78.3712 439.46 79.1632 435.364 80.6499C431.779 81.9534 428.105 83.5695 424.264 83.2495C419.021 82.8079 414.38 80.7301 410.941 76.4292C409.055 74.0614 406.757 72.1059 403.541 71.6592Z" fill="#FFFCF3"/>
<path d="M758.931 953.151C759.198 953.004 759.46 952.86 759.725 952.708C760.87 951.815 761.669 950.778 761.251 949.202C761.226 947.906 760.459 946.898 759.93 945.799C759.247 944.887 759.087 943.571 757.857 943.073C757.76 942.905 757.655 942.734 757.557 942.566C754.85 939.203 751.577 936.473 748.032 934.043C745.415 932.248 742.647 930.7 739.811 929.327C736.787 927.868 733.633 926.579 730.15 926.839C727.945 927.003 726.972 928.151 727.009 930.328C727.243 931.015 727.383 931.748 727.976 932.248C728.207 932.599 728.295 933.06 728.764 933.21C728.881 933.436 728.977 933.696 729.32 933.6C731.191 936.208 734.098 937.304 736.864 938.972C736.641 938.022 736.417 937.373 735.731 937.016C735.428 935.98 734.991 935.009 734.272 934.191C734.632 933.612 735.251 934.088 735.647 933.782C735.83 934.172 736.058 934.488 736.569 934.361C736.949 934.941 737.503 935.325 738.102 935.648C738.407 936.11 738.694 936.587 739.222 936.844C739.89 937.738 740.556 938.64 741.224 939.534C741.472 939.865 741.712 940.194 741.959 940.525C742.039 940.707 742.116 940.897 742.196 941.079C742.174 941.895 742.344 942.767 741.521 943.337C741.246 943.464 740.975 943.589 740.699 943.715C738.121 944.061 735.972 942.784 733.829 941.74C730.504 940.117 727.798 937.597 725.151 935.044C724.959 934.701 724.766 934.358 724.574 934.014C724.563 933.411 724.319 932.963 723.739 932.741C723.7 932.65 723.658 932.554 723.618 932.463C723.664 932.141 723.973 931.789 723.51 931.528C723.418 931.249 723.329 930.963 723.237 930.684C723.13 928.375 724.169 926.523 725.571 924.813C726.677 924.16 727.854 923.657 729.082 923.27C729.443 923.6 729.705 923.124 730.034 923.161C730.796 923.207 731.556 923.362 732.321 923.184C736.765 924.184 741.001 925.782 744.998 927.937C749.867 930.57 754.173 933.981 758.186 937.809C760.304 939.828 761.984 942.153 763.696 944.481C764.134 945.495 764.576 946.506 765.014 947.519C765.723 951.149 764.727 954.09 761.536 956.144C760.26 956.919 758.892 957.494 757.464 957.92C753.391 958.895 749.283 958.898 745.153 958.338C739.165 957.525 733.425 955.779 727.918 953.381C724.471 951.878 721.195 949.968 718.125 947.758C714.536 945.172 711.109 942.407 708.368 938.884C706.757 936.812 705.081 934.786 703.433 932.743C703.326 932.579 703.221 932.408 703.113 932.244C702.887 931.783 703.063 931.085 702.325 930.926C701.417 928.92 700.511 926.919 699.603 924.913C699.84 924.34 699.74 923.835 699.259 923.425C699.222 923.327 699.185 923.229 699.145 923.138C699.162 922.817 699.535 922.473 699.073 922.187C699.021 921.999 698.969 921.811 698.916 921.623C699.09 920.975 699.066 920.341 698.766 919.725C698.789 919.282 698.815 918.831 698.837 918.387C698.921 918.11 699.009 917.83 699.08 917.552C699.897 914.435 701.454 911.868 704.419 910.342C705.981 909.658 707.545 908.98 709.107 908.296C709.568 908.317 709.809 907.917 710.178 907.755C710.276 907.718 710.374 907.681 710.468 907.646C711.146 908.109 711.687 907.474 712.283 907.376C718.057 906.391 723.734 907.087 729.344 908.397C736.973 910.178 744.441 912.446 751.632 915.636C755.863 917.513 759.994 919.56 763.911 921.985C769.916 925.7 775.3 930.198 779.604 935.875C779.771 936.242 779.93 936.606 780.096 936.973C779.97 937.841 780.478 938.836 779.574 939.55C777.787 941.097 777.612 939.265 777.007 938.324C776.991 937.723 776.678 937.324 776.163 937.056C776.126 936.807 776.038 936.604 775.748 936.575C775.643 936.404 775.572 936.2 775.43 936.069C771.548 932.443 767.747 928.769 763.112 925.997C758.508 923.24 753.694 920.938 748.85 918.709C744.982 916.932 740.857 915.833 736.773 914.609C732.896 913.444 729.012 912.331 725.027 911.678C720.17 910.876 715.287 910.428 710.487 912.138C709.052 912.422 707.749 913.023 706.531 913.821C703.922 915.318 702.951 917.574 703.223 920.534C703.373 922.143 704.023 923.587 704.372 925.127C704.653 925.769 704.934 926.411 705.217 927.059C706.92 930.193 708.919 933.095 711.228 935.837C713.571 938.619 716.181 941.031 719.131 943.119C719.171 943.168 719.216 943.19 719.28 943.198C723.134 946.264 727.378 948.624 732.018 950.28C732.057 950.437 732.143 950.496 732.296 950.405C732.705 950.997 733.317 951.06 733.959 951.039L733.937 951.03C734.053 951.118 734.159 951.234 734.287 951.281C741.424 953.892 748.694 955.487 756.344 954.163C756.748 954.028 757.148 953.895 757.551 953.755C758.08 953.698 758.535 953.499 758.931 953.151Z" fill="#F7F7F7"/>
<path d="M762.282 934.381C762.549 934.234 762.811 934.089 763.076 933.937C764.222 933.044 765.021 932.008 764.602 930.432C764.577 929.136 763.811 928.128 763.281 927.028C762.599 926.116 762.439 924.801 761.209 924.303C761.111 924.135 761.006 923.964 760.909 923.796C758.202 920.432 754.929 917.702 751.383 915.272C748.766 913.478 745.999 911.93 743.163 910.557C740.139 909.097 736.985 907.809 733.502 908.068C731.296 908.232 730.323 909.381 730.36 911.558C730.595 912.244 730.735 912.978 731.327 913.478C731.559 913.828 731.646 914.29 732.116 914.44C732.233 914.666 732.328 914.925 732.672 914.829C734.542 917.438 737.449 918.533 740.216 920.202C739.992 919.251 739.769 918.602 739.083 918.246C738.78 917.21 738.343 916.239 737.623 915.421C737.984 914.841 738.602 915.318 738.998 915.012C739.181 915.402 739.41 915.717 739.92 915.59C740.301 916.171 740.854 916.555 741.453 916.877C741.758 917.34 742.045 917.817 742.573 918.074C743.242 918.968 743.907 919.869 744.576 920.763C744.823 921.095 745.063 921.423 745.311 921.755C745.391 921.937 745.467 922.126 745.547 922.308C745.525 923.125 745.696 923.996 744.873 924.567C744.597 924.694 744.326 924.818 744.051 924.945C741.473 925.29 739.324 924.014 737.18 922.97C733.856 921.347 731.15 918.826 728.503 916.274C728.31 915.931 728.118 915.587 727.925 915.244C727.914 914.64 727.67 914.193 727.091 913.97C727.051 913.879 727.009 913.783 726.969 913.692C727.015 913.371 727.325 913.018 726.861 912.757C726.769 912.478 726.68 912.192 726.588 911.913C726.482 909.605 727.52 907.752 728.922 906.042C730.028 905.39 731.206 904.886 732.434 904.5C732.795 904.829 733.057 904.353 733.386 904.39C734.147 904.436 734.908 904.591 735.673 904.413C740.117 905.414 744.352 907.012 748.349 909.166C753.219 911.8 757.525 915.211 761.537 919.039C763.656 921.057 765.336 923.382 767.048 925.711C767.486 926.724 767.928 927.735 768.365 928.749C769.074 932.378 768.079 935.32 764.887 937.373C763.612 938.148 762.243 938.723 760.815 939.149C756.742 940.125 752.635 940.127 748.505 939.568C742.516 938.755 736.776 937.008 731.269 934.611C727.822 933.108 724.547 931.198 721.477 928.987C717.888 926.402 714.461 923.637 711.72 920.113C710.108 918.042 708.433 916.016 706.785 913.972C706.677 913.808 706.572 913.637 706.465 913.474C706.239 913.012 706.415 912.315 705.677 912.156C704.769 910.15 703.863 908.149 702.955 906.143C703.192 905.569 703.091 905.065 702.611 904.655C702.574 904.556 702.537 904.458 702.497 904.367C702.513 904.047 702.887 903.702 702.424 903.417C702.372 903.229 702.32 903.041 702.268 902.853C702.442 902.204 702.418 901.571 702.118 900.955C702.141 900.511 702.166 900.06 702.189 899.616C702.272 899.339 702.361 899.059 702.432 898.781C703.248 895.665 704.806 893.098 707.77 891.571C709.332 890.888 710.897 890.209 712.459 889.525C712.92 889.547 713.16 889.146 713.529 888.985C713.628 888.948 713.726 888.911 713.819 888.876C714.497 889.338 715.039 888.703 715.634 888.605C721.408 887.621 727.086 888.316 732.695 889.626C740.324 891.408 747.792 893.675 754.984 896.865C759.215 898.742 763.346 900.79 767.262 903.214C773.267 906.929 778.652 911.428 782.956 917.104C783.122 917.471 783.281 917.835 783.448 918.202C783.322 919.07 783.83 920.065 782.926 920.78C781.139 922.327 780.963 920.494 780.359 919.554C780.343 918.953 780.03 918.554 779.515 918.285C779.478 918.036 779.389 917.834 779.099 917.804C778.994 917.633 778.923 917.429 778.782 917.299C774.899 913.672 771.099 909.999 766.464 907.226C761.86 904.47 757.045 902.168 752.202 899.938C748.334 898.161 744.209 897.063 740.125 895.838C736.248 894.674 732.363 893.561 728.378 892.907C723.521 892.105 718.639 891.658 713.839 893.367C712.403 893.652 711.1 894.253 709.883 895.05C707.273 896.548 706.303 898.804 706.574 901.763C706.724 903.372 707.374 904.817 707.723 906.357C708.004 906.999 708.285 907.641 708.568 908.288C710.271 911.422 712.27 914.324 714.579 917.067C716.923 919.848 719.533 922.26 722.483 924.348C722.522 924.397 722.568 924.419 722.632 924.428C726.486 927.494 730.729 929.853 735.37 931.509C735.408 931.667 735.494 931.726 735.647 931.635C736.057 932.226 736.669 932.29 737.31 932.268L737.288 932.26C737.405 932.347 737.51 932.464 737.639 932.51C744.776 935.121 752.046 936.716 759.695 935.393C760.1 935.258 760.5 935.125 760.902 934.985C761.432 934.928 761.887 934.729 762.282 934.381Z" fill="#D84E2C"/>
</g>
<defs>
<clipPath id="clip0_1676_3">
<rect width="1440" height="980" fill="white"/>
</clipPath>
<clipPath id="clip1_1676_3">
<rect width="97.9616" height="83.967" fill="white" transform="translate(1345.68 30) rotate(65.9592)"/>
</clipPath>
<clipPath id="clip2_1676_3">
<rect width="94.3527" height="80.9636" fill="white" transform="translate(1173.45 211) rotate(46.2082)"/>
</clipPath>
<clipPath id="clip3_1676_3">
<rect width="94.3527" height="80.9636" fill="white" transform="translate(121.445 327) rotate(46.2082)"/>
</clipPath>
</defs>
</svg>
