<svg width="47" height="48" viewBox="0 0 47 48" fill="none" xmlns="http://www.w3.org/2000/svg">
<path d="M17.7865 1.12568C21.0127 1.88496 22.6795 3.5065 23.4637 6.06186C24.1356 8.24707 24.9867 10.3138 26.6634 11.9781C28.2265 13.5293 29.8483 14.1659 32.0522 13.3827C34.3175 12.5738 36.7104 12.2599 39.1322 12.4324C41.3263 12.5907 43.2987 13.3165 44.8973 14.8661C47.205 17.1058 47.1435 19.6449 44.7711 21.8211C43.5979 22.8972 42.1801 23.5259 40.736 24.118C38.8853 24.875 36.9765 25.4969 35.3009 26.6341C33.0547 28.1592 32.8165 29.0256 34.2049 31.3677C36.3379 34.9635 37.2675 38.7349 36.1463 42.882C35.8738 43.8916 35.438 44.8066 34.8057 45.6188C32.8757 48.0879 29.9251 48.3588 27.5785 46.2813C26.3132 45.165 25.5573 43.7066 24.8969 42.1854C24.6223 41.5491 24.4454 40.8202 23.5201 40.7798C23.1772 40.7631 23.0756 40.3905 22.9593 40.1001C21.6948 36.9701 19.1227 35.7269 16.0117 35.2627C13.6334 34.9089 11.2311 35.0943 8.84026 34.9393C6.27612 34.773 4.12126 33.7813 2.4515 31.8159C-0.072322 28.8429 0.721673 24.9907 4.23602 23.23C5.83613 22.428 7.59193 22.0873 9.31493 21.653C10.7764 21.2821 12.2378 20.9111 13.5424 20.0836C14.6453 19.3844 14.9839 18.4764 14.5774 17.2382C14.0356 15.5788 13.1442 14.0778 12.4441 12.4915C11.4708 10.2844 10.969 8.0189 11.5237 5.60324C12.3198 2.14018 14.954 0.486111 17.7865 1.12568ZM30.5502 28.0375C30.8748 26.3085 32.0803 25.2654 33.3982 24.32C35.3784 22.8976 37.6753 22.167 39.9044 21.2787C41.0662 20.8157 42.1824 20.2912 43.0591 19.3408C43.6031 18.7497 43.6315 18.171 43.1578 17.5475C42.2451 16.3442 41.0172 15.7214 39.53 15.5713C37.1051 15.3274 34.7447 15.6946 32.4382 16.4027C29.8064 17.2094 27.5596 16.559 25.5216 14.808C23.4455 13.0276 21.9214 10.8953 21.1046 8.26647C20.8156 7.33404 20.5786 6.37371 20.0509 5.53539C19.1627 4.12597 17.2613 3.37681 15.7661 3.82545C14.4271 4.23082 13.7993 5.44287 13.8705 7.40817C13.9172 8.72154 14.2537 9.95814 14.7891 11.1415C15.4489 12.6021 16.2104 14.0164 16.8206 15.4953C18.2152 18.8584 17.2748 21.2471 14.0048 22.8696C12.4353 23.6487 10.728 23.9758 9.04251 24.3585C7.66004 24.6727 6.24362 24.898 4.97091 25.5716C2.9225 26.6496 2.52688 28.5281 3.93452 30.3498C5.29298 32.1043 7.15223 32.7777 9.29447 32.8377C10.9776 32.8834 12.6615 32.8636 14.3427 32.9593C17.1854 33.1168 19.6597 34.1599 22.1494 35.6206C24.9729 37.2826 26.7989 39.4975 28.0094 42.4127C28.1789 42.8167 28.4571 43.1864 28.7316 43.5298C30.2166 45.3853 32.1557 45.1189 33.0406 42.8986C33.7802 41.032 33.899 39.0922 33.4519 37.1224C33.0504 35.3605 32.2472 33.7848 31.3577 32.2337C30.6103 30.9288 30.0971 29.569 30.5502 28.0375Z" fill="#0D9D63"/>
</svg>
