<svg width="126" height="118" viewBox="0 0 126 118" fill="none" xmlns="http://www.w3.org/2000/svg">
<g clip-path="url(#clip0_1267_35)">
<path d="M17.0764 52.4669C12.0933 47.7951 8.40614 44.4571 6.12556 39.9234C2.95873 33.6293 5.21699 29.1286 12.2151 27.9086C20.1572 26.5274 27.8993 28.0315 35.5404 29.9208C53.9499 34.4672 71.1938 41.899 87.5562 51.4102C95.4639 56.0018 103.266 60.7659 110.167 66.8233C113.63 69.8687 116.835 73.2206 119.205 77.2283C123.099 83.8062 120.688 88.9876 113.12 90.2649C106.021 91.4654 99.0615 90.2259 92.1852 88.6384C73.0418 84.2205 55.2135 76.5208 38.178 66.863C30.1972 62.3276 22.6983 57.1392 17.0764 52.4669Z" fill="#039C5D"/>
<path d="M26.9213 37.6367C27.4416 37.0159 27.9057 36.322 28.5039 35.7795C29.9569 34.466 31.4245 34.8478 31.9531 36.7391C32.535 38.8315 32.224 41.1021 32.6894 43.1622C33.3067 45.8975 32.2078 48.3297 32.102 50.9158C32.0729 51.7134 32.1057 52.8107 31.0635 52.8245C30.0852 52.8397 30.4263 51.7165 30.2642 51.0848C30.0894 50.3904 30.0595 49.6477 30.0103 48.928C29.9203 47.6653 29.6004 46.6926 28.1133 46.4119C26.7633 46.1546 25.598 45.7391 24.544 47.2304C23.9951 48.0099 23.5865 49.8986 22.1101 49.0136C20.7987 48.2277 21.8715 46.8696 22.2572 45.8489C23.387 42.8816 24.8736 40.0958 26.9213 37.6367Z" fill="#F8FAF8"/>
<path d="M74.4942 59.1343C76.0679 58.1438 77.3543 57.3561 78.6165 56.535C79.2874 56.0926 80.028 55.8783 80.5498 56.5634C80.9593 57.1023 80.6988 57.7713 80.2185 58.2821C79.972 58.5451 79.7828 58.8954 79.4865 59.0777C75.5107 61.4866 73.6834 65.2394 72.7699 69.6145C72.5597 70.6126 72.3008 72.1048 70.8805 71.7756C69.6777 71.4983 69.8224 70.08 69.828 69.0148C69.8287 68.2978 69.7374 67.5037 70.0016 66.877C71.538 63.2066 71.8121 59.47 70.974 55.5971C70.7464 54.5453 70.781 53.1651 72.1695 52.9718C73.7193 52.7572 73.6203 54.292 73.8545 55.2581C74.1317 56.3907 74.2424 57.5664 74.4942 59.1343Z" fill="#F7FAF7"/>
<path d="M45.6243 40.1982C47.0497 41.471 47.9638 42.9024 47.2923 44.9491C46.6272 46.9882 44.8907 47.5813 43.223 47.3449C40.2755 46.9232 38.8535 48.1062 38.2763 50.819C38.1855 51.2387 37.9538 51.6708 37.6712 52.008C37.2986 52.4526 37.126 53.3125 36.3238 53.0708C35.5588 52.8472 35.6442 52.0447 35.6766 51.4455C35.9154 47.5487 36.9334 43.7962 38.4221 40.2294C39.3165 38.1346 43.2867 38.2391 45.6243 40.1982Z" fill="#F6F9F7"/>
<path d="M46.1472 57.089C46.8689 52.6315 47.5076 48.1174 49.6021 44.0144C50.7157 41.8294 53.0901 41.6273 54.8226 43.4054C55.6818 44.2951 56.4445 45.3778 56.9548 46.497C58.2083 49.2827 56.8852 51.7489 53.9039 51.5076C50.623 51.2501 49.1809 52.7685 48.1518 55.4288C47.8745 56.1489 47.2532 56.7502 46.7917 57.3942C46.564 57.3078 46.3556 57.1984 46.1472 57.089Z" fill="#F7F9F7"/>
<path d="M61.4545 48.1804C62.1109 47.4127 62.6821 46.8867 63.4643 47.3857C64.253 47.877 64.3264 48.6301 64.0934 49.5308C63.2316 52.801 61.669 55.771 59.9096 58.6022C58.5978 60.7124 58.9188 61.7773 61.27 62.5213C62.351 62.8662 64.4927 63.004 64.0446 64.3638C63.4339 66.2135 61.6918 64.6492 60.5916 64.3273C54.6247 62.5887 54.453 62.1708 57.0932 56.6072C58.4828 53.688 60.0643 50.8512 61.4545 48.1804Z" fill="#F8FAF8"/>
<path d="M94.6641 77.538C93.9636 78.0469 93.7712 79.086 92.8301 78.6366C92.1856 78.3313 92.0852 77.5949 92.1868 76.9754C92.7874 73.2384 93.7667 69.61 95.5136 66.2334C95.9203 65.4522 96.636 65.0342 97.5479 65.394C98.4674 65.7601 98.684 66.6071 98.4641 67.4144C97.5209 70.9686 96.1888 74.3797 94.6641 77.538Z" fill="#F6F9F6"/>
<path d="M86.183 74.7361C85.9488 75.14 85.4128 75.4215 84.8974 75.2114C84.4485 75.0309 84.5667 74.4384 84.6421 74.0058C85.3441 69.7275 86.3954 65.5461 88.3076 61.6296C88.663 60.9098 89.1791 60.4029 89.9968 60.5793C91.0896 60.8166 91.0165 61.7601 90.8876 62.5523C90.1535 66.8689 87.9446 70.6412 86.183 74.7361Z" fill="#F5F8F5"/>
<path d="M91.5635 83.3551C91.1502 83.7393 90.6776 83.7739 90.1856 83.4268C89.7844 83.1427 89.6139 82.739 89.829 82.2799C90.1073 81.652 90.6491 81.5972 91.145 81.9084C91.6115 82.208 91.7995 82.7309 91.5635 83.3551Z" fill="#E5F3E6"/>
<path d="M29.734 40.0721C29.741 42.1655 30.1429 43.5853 29.2855 44.8108C29.1659 44.9846 27.715 44.6298 27.6645 44.3787C27.3959 42.862 28.4628 41.8381 29.734 40.0721Z" fill="#4A9F75"/>
<path d="M44.1587 41.4488C44.9253 42.4958 45.7663 43.5006 44.5724 44.6138C43.5108 45.616 42.1074 45.6402 40.7495 45.4546C40.3757 45.4024 40.8254 41.1605 41.2988 40.8135C42.5266 39.9245 43.1972 41.4129 44.1587 41.4488Z" fill="#2D9A64"/>
<path d="M52.6396 44.3289C53.8995 45.2542 54.259 46.2731 54.6659 47.2665C55.0182 48.1228 54.8712 48.9521 53.9893 49.335C53.2714 49.6467 52.3522 50.0898 51.6698 49.5962C51.0245 49.1207 51.5519 48.2579 51.6932 47.6066C51.915 46.579 52.2738 45.5749 52.6396 44.3289Z" fill="#339D65"/>
</g>
<defs>
<clipPath id="clip0_1267_35">
<rect width="123.09" height="48.81" fill="white" transform="translate(31.3513 0.746094) rotate(39.9645)"/>
</clipPath>
</defs>
</svg>
