<svg width="48" height="47" viewBox="0 0 48 47" fill="none" xmlns="http://www.w3.org/2000/svg">
<path d="M0.462614 28.8259C1.28349 25.6149 2.93663 23.9794 5.50653 23.2443C7.70419 22.6143 9.78683 21.8028 11.4829 20.1583C13.0637 18.6252 13.7313 17.0159 12.9903 14.7974C12.225 12.517 11.9569 10.1186 12.1758 7.70047C12.376 5.50984 13.1394 3.55173 14.7193 1.98303C17.0028 -0.281404 19.5403 -0.171285 21.6707 2.24229C22.7241 3.43591 23.3256 4.86545 23.8899 6.32068C24.6113 8.18554 25.1966 10.1059 26.3015 11.8029C27.7834 14.0779 28.6451 14.3326 31.0133 12.9893C34.6493 10.9255 38.4377 10.0683 42.5626 11.2686C43.5669 11.5604 44.4733 12.0136 45.2733 12.6614C47.705 14.6382 47.9194 17.5934 45.7974 19.8999C44.657 21.1436 43.1845 21.8715 41.6508 22.5026C41.0095 22.7649 40.2773 22.9279 40.2192 23.8523C40.196 24.1948 39.8214 24.2892 39.5289 24.3999C36.3753 25.6043 35.083 28.1521 34.5595 31.2537C34.1601 33.6248 34.2996 36.0301 34.0989 38.4176C33.8835 40.9781 32.8508 43.1136 30.8537 44.7454C27.833 47.2119 23.9967 46.3443 22.3035 42.7969C21.5323 41.1818 21.2253 39.4198 20.8241 37.6888C20.4812 36.2205 20.1383 34.7522 19.3359 33.432C18.6579 32.3159 17.7565 31.96 16.5107 32.3428C14.8413 32.8527 13.3235 33.7153 11.7241 34.3848C9.4988 35.3157 7.2241 35.7741 4.8195 35.1732C1.3723 34.311 -0.23105 31.6457 0.462614 28.8259ZM27.6137 16.5796C25.8913 16.222 24.8715 14.9967 23.9514 13.661C22.5672 11.6539 21.8806 9.34347 21.0352 7.09779C20.5945 5.92732 20.0915 4.80125 19.158 3.90658C18.5774 3.3513 17.9994 3.31191 17.367 3.7736C16.1464 4.66304 15.5002 5.87883 15.3217 7.36288C15.0315 9.78262 15.3534 12.1496 16.0172 14.4693C16.7734 17.116 16.0801 19.35 14.2905 21.3541C12.4707 23.3958 10.3095 24.8788 7.66559 25.6451C6.7278 25.9162 5.76311 26.1347 4.91484 26.6463C3.48869 27.5074 2.70327 29.3942 3.12322 30.8977C3.50289 32.2442 4.70271 32.895 6.669 32.8615C7.98303 32.8399 9.22585 32.5271 10.4192 32.0145C11.8922 31.3827 13.3208 30.6485 14.8111 30.0667C18.2003 28.7367 20.5705 29.7226 22.1302 33.0231C22.8791 34.6072 23.1734 36.3204 23.5239 38.0129C23.8115 39.4012 24.0097 40.8216 24.6588 42.107C25.6974 44.1757 27.568 44.6072 29.4163 43.2346C31.1964 41.91 31.9053 40.064 32.0063 37.9233C32.0842 36.2413 32.0967 34.5574 32.2245 32.8783C32.4364 30.0391 33.5267 27.5852 35.0347 25.124C36.7504 22.3328 38.9999 20.5495 41.9377 19.395C42.3449 19.2333 42.7198 18.9622 43.0685 18.6943C44.952 17.2451 44.7228 15.3013 42.5198 14.3741C40.6677 13.5988 38.7305 13.443 36.7525 13.8523C34.9832 14.22 33.3924 14.9929 31.8247 15.8525C30.5057 16.5749 29.1364 17.0619 27.6137 16.5796Z" fill="#E66C0D"/>
</svg>
