<svg width="251" height="111" viewBox="0 0 251 111" fill="none" xmlns="http://www.w3.org/2000/svg">
<path d="M216.561 18.2451C216.603 8.28987 224.433 0.661718 234.914 0.746085C242.961 0.81639 251.07 8.22659 251 18.2732C250.937 27.7786 243.184 35.4629 233.704 35.4278C224.062 35.3926 216.526 27.8418 216.561 18.2451Z" fill="#15274C"/>
<path d="M219.276 17.8092C218.912 9.84356 226.161 3.19969 232.458 3.53013C239.994 3.92384 247.327 8.12108 247.648 18.006C247.872 24.9592 241.743 32.2148 233.571 32.264C225.818 32.3062 218.898 25.6201 219.276 17.8092Z" fill="#F06623"/>
<path d="M229.995 26.6606C230.548 24.5584 231.556 22.6953 232.794 20.9377C234.991 17.8372 234.984 17.8724 231.255 17.2326C229.645 16.9584 228.218 16.185 226.854 15.2711C225.993 14.6946 225.86 13.9282 226.308 13.1408C226.784 12.3182 227.504 12.7541 228.141 13.0424C230.702 14.1884 233.403 14.7438 236.174 14.9828C237.321 15.0812 238.58 15.1375 239.091 16.2975C239.616 17.4857 239.077 18.6106 238.224 19.5808C236.523 21.5142 235.124 23.6726 233.704 25.8169C233.256 26.4918 232.724 27.1105 232.171 27.7011C231.738 28.1581 231.143 28.1229 230.576 27.9542C229.904 27.7503 230.142 27.1386 229.995 26.6606Z" fill="#18284B"/>
<path d="M204.492 29.4869C199.573 27.7363 194.437 27.6168 187.027 27.5746C176.336 27.9543 163.588 30.0353 150.867 32.4116C134.313 35.5051 118.311 40.7077 102.274 45.6361C78.4143 52.976 55.5904 63.0156 33.4732 74.6231C25.2168 78.9539 16.9605 83.3269 9.64172 89.1974C5.43658 92.572 1.65126 96.3475 0.32884 101.873C-0.860634 106.83 1.18246 109.79 6.19225 110.458C11.8667 111.217 17.4922 110.289 23.0548 109.488C38.2311 107.287 53.1345 103.779 67.842 99.4057C101.952 89.2536 135.551 77.6462 168.499 64.1335C179.24 59.7253 189.798 54.9516 199.601 48.6663C202.875 46.5641 206.024 44.2651 208.249 40.9748C211.572 36.0605 210.068 31.4695 204.492 29.4869ZM206.185 38.022C204.701 40.8061 202.288 42.7184 199.783 44.469C190.204 51.1551 179.667 56.0062 168.933 60.4213C135.607 74.1379 101.63 85.9985 67.1283 96.3615C52.8686 100.643 38.42 104.116 23.7195 106.464C19.2135 107.182 14.6585 107.631 10.0825 107.653C8.87906 107.653 7.6546 107.765 6.46513 107.631C3.49844 107.294 2.41392 105.712 2.97367 102.759C3.55441 99.687 5.35262 97.3106 7.38872 95.096C11.6708 90.4488 17.0025 87.2077 22.3761 84.0581C40.3301 73.5333 59.1028 64.6256 78.5332 57.3068C88.7837 53.447 99.0272 49.3834 109.627 46.5641C112.776 45.7275 115.687 44.4198 118.751 43.4637C133.018 39.0204 147.495 35.4559 162.244 33.1358C170.13 31.8984 178.05 30.6962 186.055 30.4642C191.575 30.3025 197.096 30.3939 202.476 31.9336C203.204 32.1445 203.925 32.4187 204.589 32.7772C206.863 34.0005 207.409 35.723 206.185 38.022Z" fill="#14274C"/>
<path d="M155.842 47.0984C156.381 48.7084 155.898 49.5099 154.303 49.9387C152.351 50.459 150.552 50.2481 148.761 49.4466C147.894 49.0599 147.061 48.5678 146.158 48.2865C143.912 47.5835 142.352 49.0037 142.765 51.3097C143.304 54.3258 142.037 55.8514 138.917 55.992C137.118 56.0764 135.383 55.7881 133.662 55.3171C132.906 55.1062 132.521 55.0851 132.332 56.1608C131.857 58.8956 130.051 60.351 127.847 60.126C125.154 59.8518 122.32 57.2575 122.243 54.9164C122.215 54.0727 122.432 53.1657 123.425 52.99C124.356 52.8283 124.678 53.4399 124.839 54.3469C125 55.2468 125.734 55.8584 126.469 56.3857C127.134 56.8638 127.875 57.0466 128.624 56.7232C129.422 56.3787 129.303 55.5772 129.317 54.8882C129.324 54.382 129.275 53.8688 129.254 53.3556C129.212 52.3361 129.03 51.2112 130.163 50.6629C131.143 50.1848 132.025 50.7051 132.766 51.3448C134.446 52.7861 136.398 53.6087 138.56 53.9532C138.854 54.0024 139.161 53.9883 139.602 54.0164C138.749 52.7369 137.944 51.605 137.209 50.4238C136.713 49.6223 136.062 48.7365 137.118 47.8928C138.084 47.1195 138.742 47.942 139.427 48.4764C139.56 48.5818 139.721 48.6592 139.861 48.7506C142.24 44.8838 144.836 44.0331 149.034 45.7766C150.021 46.1844 150.979 46.7047 151.861 47.3163C153.239 48.2584 154.527 48.5326 155.842 47.0984Z" fill="#15284C"/>
<path d="M34.0819 88.424C35.0125 89.9988 35.6982 91.1377 36.3629 92.2837C36.8667 93.1415 36.9647 94.0414 36.0691 94.653C35.1385 95.2858 34.3688 94.7374 33.8021 93.964C32.8995 92.7337 32.1368 91.3838 31.1432 90.2378C29.8278 88.7333 30.3246 87.2077 31.1012 85.8719C31.8919 84.522 33.3123 85.0634 34.5577 85.3376C36.6568 85.8016 38.7489 86.3078 40.9249 86.3359C41.9604 86.3499 42.4572 86.0055 42.4782 84.9438C42.5202 83.3479 42.6042 81.752 42.6811 80.1631C42.7231 79.1788 42.905 78.2437 43.9126 77.7797C44.9271 77.3016 45.8017 77.7867 46.5084 78.4195C48.3626 80.0717 50.0839 81.8574 51.5952 83.8471C52.2459 84.7048 52.8826 85.5977 53.7852 86.2234C54.254 86.5538 54.8697 86.8421 54.338 87.5451C53.9252 88.0865 53.3794 88.3326 52.6657 88.0232C50.7136 87.1796 49.1183 85.8227 47.544 84.4447C47.0262 83.9877 46.5364 83.5026 45.8647 82.8698C45.8157 83.8963 45.8157 84.8103 45.7248 85.7172C45.4379 88.5435 44.0245 89.8019 41.1908 89.6824C40.0573 89.6332 38.9168 89.4504 37.7973 89.2536C36.6918 89.0497 35.5933 88.7614 34.0819 88.424Z" fill="#15284C"/>
<path d="M166.1 38.2681C164.546 40.2999 162.475 40.9819 160.705 42.0927C160.25 42.374 159.411 42.395 159.487 43.077C159.55 43.6184 160.264 43.8504 160.775 44.0894C162.846 45.0667 164.994 44.5605 167.121 44.3847C167.87 44.3214 168.66 44.2511 169.325 43.9418C169.899 43.6746 170.172 43.8293 170.41 44.2371C170.731 44.7854 170.515 45.2494 169.969 45.4744C167.233 46.6134 164.434 47.6539 161.461 47.8015C159.879 47.8859 158.41 47.1407 157.178 46.0298C156.563 45.4674 156.129 44.5323 154.995 44.8487C154.625 44.9471 154.345 44.5323 154.415 44.2652C154.8 42.7958 153.722 41.7764 153.372 40.5319C153.148 39.7516 152.938 38.8165 153.911 38.3525C154.821 37.9166 155.59 38.4017 155.961 39.1961C156.955 41.3334 158.312 41.0592 160.047 40.1523C161.831 39.2102 163.651 38.2119 166.1 38.2681Z" fill="#16284D"/>
<path d="M60.0824 81.6396C60.3763 80.0858 60.1104 78.7289 60.5372 77.4283C60.7611 76.7393 61.104 76.2753 61.8386 76.2964C62.4963 76.3104 62.8602 76.7534 63.0071 77.358C63.1331 77.9134 63.287 78.4758 63.294 79.0383C63.336 82.2934 63.35 85.5486 63.343 88.7967C63.343 89.6544 63.4059 90.7441 62.2515 90.8637C61.062 90.9832 60.7191 89.7599 60.7541 89.0217C60.8941 85.7384 59.2638 84.044 56.2971 83.1582C55.4435 82.9051 54.7088 82.1317 54.0161 81.499C53.4144 80.9436 53.1835 80.2054 53.7922 79.4601C54.324 78.8063 54.9957 78.8133 55.6744 79.1719C57.0947 79.9593 58.5081 80.7608 60.0824 81.6396Z" fill="#16284C"/>
<path d="M104.989 67.9229C104.695 69.2306 103.701 69.9196 102.617 70.4258C100.615 71.3679 98.4744 71.9725 96.2984 72.303C93.4227 72.7318 91.0227 69.8915 91.5475 66.6504C91.9463 64.2038 93.3457 62.3829 95.5917 61.265C96.8162 60.6533 97.9007 60.8361 98.8453 61.8415C99.1321 62.1438 99.2721 62.4883 99.1042 62.875C98.9082 63.3249 98.5444 63.1914 98.1456 63.1492C96.4174 62.9523 94.5072 64.8857 94.4722 66.8191C94.4442 68.4854 95.6057 69.4626 97.7398 69.3501C99.8738 69.2376 101.994 68.9142 103.988 68.0917C104.352 67.944 104.639 67.719 105.024 67.9651L104.989 67.9229Z" fill="#16284C"/>
<path d="M105.038 67.9721C101.329 65.3216 100.86 61.9399 103.862 59.423C104.303 59.0574 104.744 58.6848 105.352 58.6637C105.856 58.6496 106.416 58.5582 106.696 59.1207C107.025 59.7745 106.444 59.9854 106.052 60.2737C104.968 61.0752 104.541 62.179 104.912 63.4515C105.254 64.6326 106.297 65.0193 107.402 65.181C110.089 65.5747 112.734 65.1318 115.428 64.8084C112.615 68.0354 108.788 67.9511 104.989 67.9229C104.989 67.9229 105.038 67.9721 105.038 67.9721Z" fill="#16294D"/>
<path d="M91.8274 72.8585C89.1056 69.0269 85.2643 66.7419 80.9682 65.2374C78.2954 64.3023 76.3992 65.9405 76.7211 68.7738C76.98 71.1009 77.4767 73.3999 77.7846 75.72C77.9315 76.8308 78.3374 77.6182 79.5408 77.4565C80.7163 77.3018 80.6813 76.3035 80.6953 75.4176C80.2125 74.356 80.7373 73.9131 81.6539 73.5827C82.2976 73.3507 82.9203 72.9921 83.4801 72.5843C84.8585 71.5649 86.0689 71.347 87.4054 72.7671C88.168 73.5756 89.2525 74.0959 90.2181 74.7076C90.8128 75.0872 91.4985 75.4669 92.0933 74.7568C92.639 74.0818 92.2472 73.4491 91.8274 72.8585ZM82.9833 70.6509C79.6178 72.0219 79.5618 71.9727 79.8137 68.127C81.367 68.5207 82.1577 68.9495 83.8579 70.3697C83.4661 70.4963 83.2142 70.5525 82.9833 70.6509Z" fill="#15284C"/>
<path d="M120.046 58.0662C119.297 57.7568 118.507 57.56 117.905 56.9413C117.177 56.189 116.366 56.3085 115.47 56.7093C113.91 57.4053 113.189 58.72 112.986 60.2668C112.79 61.7783 113.616 62.9243 114.861 63.7609C115.995 64.5132 117.233 64.9139 118.591 64.9491C120.774 65.0053 122.432 63.8945 122.789 62.1439C123.125 60.555 122.005 58.8817 120.046 58.0662ZM117.968 61.694C117.044 61.3635 115.68 61.5041 115.554 59.9504C115.498 59.2051 116.065 58.2912 116.603 58.4318C117.835 58.7482 118.717 59.8449 119.227 60.9557C119.542 61.6377 118.577 61.5885 117.968 61.694Z" fill="#15284C"/>
</svg>
