<svg width="86" height="81" viewBox="0 0 86 81" fill="none" xmlns="http://www.w3.org/2000/svg">
<path d="M1.14388 49.8421C2.4295 46.021 5.1168 43.4026 9.09223 42.1547C11.3043 41.4597 13.5975 41.0289 15.8443 40.4334C19.0009 39.5934 21.9397 38.3789 24.1096 35.7994C26.129 33.3915 26.0241 32.5102 23.5299 30.4947C17.9534 25.9901 14.99 20.1706 14.7434 13.091C14.6675 10.9334 14.9351 8.77841 15.9071 6.80006C19.1511 0.227252 26.0917 -1.35622 32.4159 3.0103C34.2956 4.3078 35.7657 6.00486 37.2916 7.66992C40.6816 11.3833 43.9595 15.1865 47.8204 18.4529C51.5908 21.6519 55.4703 22.4993 60.0677 20.2157C64.9539 17.7932 70.1489 16.4214 75.7515 17.3881C80.8472 18.267 84.1784 21.0201 85.0701 25.3161C86.0526 30.0449 84.1227 33.5721 80.2504 36.1702C78.6414 37.2486 76.9509 38.2106 75.2604 39.1725C72.3861 40.8189 69.8471 42.8563 67.6096 45.2809C64.605 48.5321 63.0326 52.2669 63.1829 56.7815C63.4146 64.073 61.5976 70.7536 56.6587 76.3479C55.7189 77.4076 54.6814 78.3711 53.4725 79.1248C50.688 80.8646 47.7119 80.7179 45.0682 78.7005C42.342 76.6185 40.7789 73.714 39.412 70.7067C38.3886 68.4583 37.5185 66.1525 36.5637 63.8855C35.9436 62.4265 35.066 61.1177 33.9727 59.9657C31.9758 57.8694 29.9575 57.565 27.513 59.0974C25.8098 60.1678 24.2389 61.4339 22.5507 62.5358C18.3529 65.2769 13.8177 66.7049 8.6813 65.8895C2.77642 64.9525 0.0779046 61.9154 0.0185643 56.0513C-0.0137913 53.9443 0.350926 51.9113 1.14388 49.8421ZM6.73502 51.7436C6.21416 53.0854 5.93967 54.3076 5.89999 55.5887C5.80496 58.78 6.56348 59.637 9.80534 60.1233C13.5597 60.682 16.7399 59.3375 19.7467 57.3738C21.621 56.148 23.4093 54.7694 25.3719 53.7146C29.4664 51.5273 33.5096 52.0688 37.1109 55.0761C39.5444 57.113 41.1005 59.7194 42.329 62.5723C43.4525 65.1785 44.4723 67.8516 45.792 70.3549C48.4821 75.4409 50.1618 75.5097 53.4024 70.8744C56.3349 66.6755 57.2416 61.9 57.1038 56.9117C56.9384 50.8527 59.113 45.7709 63.1126 41.3321C66.2292 37.8693 69.8671 35.0646 73.9119 32.7462C75.2708 31.9686 76.6631 31.2204 77.7468 30.0563C79.9648 27.6854 79.2692 24.5559 76.2086 23.4223C73.2573 22.3282 70.2552 22.546 67.3457 23.4841C64.856 24.2873 62.4351 25.3153 60.0124 26.2992C55.5479 28.1179 51.3149 27.3686 47.2485 25.0363C45.0845 23.7924 43.1901 22.194 41.4249 20.4336C38.0693 17.0892 34.9058 13.5795 31.8628 9.95696C30.8441 8.74498 29.7558 7.6034 28.3911 6.7618C25.3489 4.86971 22.5497 5.55215 20.722 8.57719C19.9128 9.91023 19.8454 11.39 19.812 12.8733C19.6584 19.5211 23.4476 23.9615 28.4063 27.7817C31.9968 30.5504 32.5243 33.9495 29.9717 37.6599C27.8084 40.8069 24.896 43.0221 21.3228 44.4765C18.239 45.7255 14.9511 46.1963 11.7929 47.114C9.27028 47.8618 7.34862 49.2183 6.73502 51.7436Z" fill="#FFC900"/>
</svg>
