<svg width="94" height="63" viewBox="0 0 94 63" fill="none" xmlns="http://www.w3.org/2000/svg">
<path d="M60.3048 16.4843C61.006 19.458 61.2112 21.9306 61.0995 24.421C61.0418 25.6431 61.5236 26.3047 62.5927 26.8091C65.586 28.22 68.4678 28.0518 71.2959 26.4076C73.6734 25.0269 75.4882 23.0365 77.0534 20.8352C80.62 15.8354 84.0905 10.7661 87.6478 5.76089C88.8025 4.13439 90.0791 2.58666 91.6738 1.33439C92.2415 0.884256 92.7597 0.485929 93.5099 0.969499C94.334 1.497 93.752 2.04486 93.5403 2.56913C89.9431 11.4578 85.1065 19.6658 78.9782 26.9869C74.4016 32.4551 68.4797 34.7292 61.3982 31.8252C60.2333 31.3451 60.1184 32.0957 59.9112 32.8226C58.9711 36.0333 57.4882 38.99 55.551 41.7015C50.8663 48.2556 43.7963 50.5472 36.2418 47.8183C34.7745 47.2897 34.484 47.9359 34.0052 48.9515C30.8868 55.4367 26.104 60.0321 19.0064 61.8759C8.06269 64.7211 -2.26355 54.6679 0.461536 43.8605C0.82077 42.4362 1.38683 41.1162 2.30192 39.9661C2.91256 39.1914 3.64553 38.5895 4.63802 38.3607C5.82936 38.0813 6.92847 38.241 7.42729 39.4628C7.92798 40.6919 6.97171 41.6799 6.09893 41.8861C4.49517 42.2704 4.31354 43.4064 4.08238 44.5943C3.24272 48.9398 4.28969 52.6568 7.8434 55.5012C11.8612 58.7215 16.1612 58.7652 20.6459 56.6056C25.3735 54.3216 28.3161 50.445 30.3708 45.7591C30.8274 44.7178 30.2543 44.2833 29.6346 43.696C26.5432 40.7889 24.6475 37.3113 24.6394 32.9617C24.6359 30.6966 25.0788 28.5532 26.3836 26.6847C27.8662 24.5593 29.8554 23.3165 32.5498 23.737C34.737 24.0747 36.217 25.9174 36.7409 28.8108C37.4835 32.9344 37.3747 37.0706 36.5524 41.1452C36.2325 42.7241 36.7893 43.249 38.0939 43.6309C42.5889 44.9657 46.5961 44.1351 49.8761 40.7528C52.9248 37.602 54.6399 33.7081 55.6034 29.4487C55.8624 28.3086 55.3456 27.6638 54.668 26.9108C51.8726 23.8109 49.8646 20.354 49.8436 16.0155C49.842 15.6082 49.8679 15.1861 49.929 14.7785C50.2448 12.6282 50.9725 10.7104 53.2642 9.97879C55.1288 9.38709 57.1069 10.4445 58.6197 12.663C59.4931 14.0013 60.0906 15.4567 60.3048 16.4843ZM32.0901 39.6923C32.2144 38.5159 32.3823 37.6343 32.3862 36.7551C32.4016 34.6263 32.3931 32.4958 32.3072 30.3693C32.2725 29.5234 32.426 28.2769 31.3123 28.1524C30.2392 28.0332 29.7718 29.1556 29.3957 30.051C28.1289 33.1173 29.0649 36.7371 32.0901 39.6923ZM54.5508 16.0262C54.6156 17.4838 54.6547 18.9636 55.8774 20.072C55.6265 18.6225 55.3684 17.2375 54.5508 16.0262Z" fill="#E57128"/>
</svg>
