<svg width="75" height="70" viewBox="0 0 75 70" fill="none" xmlns="http://www.w3.org/2000/svg">
<path d="M71.5976 47.727C67.7373 51.038 64.2194 51.6364 60.343 50.2958C57.0269 49.1511 53.6954 48.3357 50.1156 48.9076C46.7788 49.441 44.5224 50.8748 43.4987 54.3148C42.4512 57.8541 40.6749 61.1036 38.2695 63.9489C36.088 66.5247 33.4037 68.3123 30.0367 68.8912C25.1728 69.7244 22.0818 67.3504 21.5316 62.4412C21.2597 60.0135 21.7635 57.6875 22.3365 55.362C23.0731 52.3834 24.0297 49.4552 24.1366 46.3496C24.2792 42.1858 23.4209 41.1066 19.2622 40.7079C12.8757 40.0974 7.36078 37.8367 3.23585 32.6945C2.23124 31.4432 1.49174 30.0752 1.05736 28.5566C-0.256217 23.9305 2.07809 20.0288 6.77616 19.0005C9.30459 18.4426 11.7959 18.8255 14.2788 19.3837C15.3157 19.6192 16.3791 20.0595 17.2666 18.9493C17.5975 18.5395 18.1513 18.7508 18.6163 18.8694C23.6396 20.1346 27.5078 18.0721 30.8981 14.6368C33.4888 12.0095 35.4328 8.86465 37.7884 6.04192C40.3148 3.01472 43.4937 1.24163 47.4404 0.950858C53.4086 0.513364 57.4641 4.98321 56.466 10.9318C56.0119 13.6405 54.8453 16.1247 53.8244 18.653C52.9616 20.7998 52.0988 22.9466 51.9438 25.3122C51.8124 27.3118 52.6312 28.553 54.5336 29.1697C57.0803 29.9998 59.7471 30.2533 62.3465 30.8212C65.9624 31.6122 69.2241 33.0404 71.7159 35.9138C75.2872 40.0341 74.9534 44.7953 71.5976 47.727ZM26.6963 39.1922C28.5453 41.159 28.7471 43.5969 28.7263 46.0856C28.6971 49.8269 27.5241 53.3344 26.6078 56.9007C26.1303 58.7595 25.7701 60.6174 26.1547 62.5639C26.395 63.7731 27.0865 64.3318 28.2878 64.3089C30.6048 64.2668 32.4879 63.3086 34.0196 61.6013C36.5161 58.817 38.1971 55.5596 39.4067 52.0604C40.7885 48.0688 43.6277 45.8729 47.6418 44.9318C51.7269 43.9699 55.7487 44.0107 59.7456 45.3772C61.1626 45.8629 62.5672 46.4382 64.0836 46.5429C66.6341 46.7174 69.2831 45.0389 70.0801 42.78C70.7894 40.7538 69.8554 38.879 67.3555 37.1888C65.6856 36.0582 63.8485 35.3563 61.8975 34.9489C59.4904 34.445 57.0486 34.1088 54.6636 33.5268C49.2339 32.2118 47.1245 28.8849 48.0728 23.3641C48.5275 20.7141 49.6672 18.3023 50.718 15.8672C51.5796 13.8696 52.5822 11.9104 52.899 9.72356C53.4167 6.20955 51.4468 4.01942 47.9153 4.11537C44.5118 4.21128 41.9947 5.90603 39.9819 8.50659C38.4022 10.5512 36.903 12.6558 35.263 14.6527C32.4955 18.0332 28.9637 20.1556 24.9006 21.9192C20.286 23.9144 15.8887 24.173 11.1806 23.0353C10.5265 22.8797 9.81662 22.8901 9.14257 22.9194C5.4993 23.0807 4.07476 25.7248 6.02565 28.8306C7.66955 31.4363 9.96613 33.3389 12.8118 34.5672C15.3587 35.664 18.0382 36.0946 20.7653 36.3958C23.0589 36.6503 25.2083 37.2448 26.6963 39.1922Z" fill="#E66C0D"/>
</svg>
