<svg width="95" height="133" viewBox="0 0 95 133" fill="none" xmlns="http://www.w3.org/2000/svg">
<path d="M22.3654 32.6031C19.1621 33.5633 15.9729 34.6289 12.7137 35.4708C8.72706 36.4968 4.7404 36.5757 1.81689 33.3134C-1.05067 30.1169 -0.0574651 26.552 1.60712 23.1845C4.61456 17.1202 7.636 11.0691 11.4128 5.38638C12.1542 4.2814 12.9374 3.16323 13.9026 2.22926C15.4693 0.703333 17.4416 0.216634 19.4279 1.42685C21.3583 2.5976 21.4003 4.42609 20.505 6.20195C18.3928 10.4114 16.1687 14.5682 14.0005 18.7513C13.1753 20.3562 12.336 21.9742 11.5946 23.6317C10.8113 25.3549 11.5247 25.8811 13.3151 25.3155C15.9589 24.4736 18.5607 23.4738 21.2464 22.7635C28.702 20.7772 33.7797 24.4078 33.2062 31.6691C32.8285 36.4047 31.5556 41.0746 30.6883 45.7708C30.5205 46.6916 30.0449 47.6124 30.7163 48.7832C34.4092 47.323 38.1161 45.8365 41.8369 44.3895C43.2497 43.8371 44.6625 43.2977 46.1172 42.8899C53.9785 40.7063 59.1122 44.6395 58.0211 52.2559C57.3077 57.2152 56.0908 62.1087 55.0837 67.0285C54.8738 68.0677 54.4261 69.0938 54.9716 70.3303C57.3916 69.8567 59.1401 68.1992 61.2243 67.1863C68.7359 63.5688 74.499 66.8048 74.569 74.7238C74.6249 80.3671 73.2962 85.8789 72.7506 91.4564C72.4988 94.0479 73.1982 94.732 75.8559 93.7059C77.8283 92.9429 79.9404 92.3378 82.0526 92.0089C90.4314 90.7329 95.2294 94.4162 94.9916 102.348C94.7398 110.452 93.9845 118.542 92.6557 126.566C92.4458 127.868 92.292 129.171 91.9843 130.446C91.8024 131.249 92.7536 132.564 91.089 132.735C89.928 132.854 89.2845 131.972 88.8229 131.091C87.0045 127.697 86.6687 124.014 86.4449 120.317C86.1231 114.832 85.8014 109.347 85.6056 103.848C85.5217 101.243 84.3187 100.796 81.9687 101.678C79.255 102.69 76.5274 103.69 73.7717 104.571C66.7497 106.834 62.3573 104.019 62.6231 97.0076C62.8469 91.2986 63.8261 85.6158 64.4416 79.9067C64.5535 78.8938 65.267 77.5653 64.1619 76.9339C63.0429 76.3025 62.1336 77.5521 61.1964 78.0783C59.336 79.1044 57.6014 80.3803 55.657 81.2222C49.796 83.7479 44.8443 80.9986 44.2708 74.9475C43.8512 70.5934 45.222 66.4234 46.0053 62.2007C46.4809 59.6093 47.1104 57.0573 47.7119 54.4922C48.1875 52.4796 47.3621 52.0981 45.5297 52.8611C42.6341 54.0844 39.7387 55.3078 36.8431 56.5312C35.5702 57.0705 34.3112 57.6625 33.0243 58.1492C23.96 61.5693 18.6725 57.7151 20.0853 48.6648C20.7568 44.4159 21.6101 40.1932 22.3934 35.9575C22.5892 34.9051 23.0928 33.879 22.3654 32.6031Z" fill="#F3CC4B"/>
</svg>
