<svg width="155" height="78" viewBox="0 0 155 78" fill="none" xmlns="http://www.w3.org/2000/svg">
<path d="M56.1488 22.9192C55.2381 23.7678 54.3521 24.6408 53.4169 25.4648C52.859 25.9543 52.1535 26.2236 51.5711 25.5546C51.1116 25.0324 50.5456 24.6244 50.8409 23.6046C51.2265 22.2502 52.3422 21.4425 52.818 20.2187C62.5231 9.29397 76.9289 5.96516 90.1288 11.6029C103.091 17.1428 111.212 30.5478 110.08 44.5483C109.055 57.2517 99.317 68.9188 86.7242 72.5903C79.3244 74.7524 72.0395 74.6137 64.8447 71.7826C62.2113 70.7464 61.1777 69.0331 61.9324 66.8546C62.6051 64.921 64.5822 64.2846 67.1992 65.1658C80.2432 69.5471 92.8114 64.766 99.2021 52.9928C105.273 41.807 102.418 27.9369 92.4094 19.9494C81.7937 11.4887 65.9112 12.786 56.1488 22.9192Z" fill="#049B5D"/>
<path d="M122.452 64.7012C118.276 64.8399 114.478 64.2362 110.868 62.686C109.309 62.017 107.931 61.0461 108.185 59.0553C108.44 57.0074 110.286 56.1426 112.911 56.8524C115.716 57.6112 118.514 58.3537 121.451 58.3455C135.496 58.2802 145.611 47.8206 146.825 35.0438C148.162 20.929 138.991 9.27002 124.937 6.96107C117.538 5.7454 110.802 7.89117 104.691 12.1256C103.468 12.9741 101.967 14.5488 100.646 12.8273C99.4237 11.2363 100.868 9.77587 102.065 8.63363C105.938 4.96215 110.614 2.7511 115.782 1.63334C126.299 -0.634822 135.824 1.68229 143.855 8.72338C152.568 16.3601 156.309 26.2486 154.594 37.6465C152.765 49.7624 145.545 57.962 134.175 62.5555C130.352 64.1056 126.365 64.9378 122.452 64.7012Z" fill="#4F9AD4"/>
<path d="M81.8103 48.4894C83.492 48.6036 84.9113 48.5873 86.2977 48.8157C87.4216 49.0034 88.8819 49.0931 89.1362 50.5291C89.3823 51.9243 88.1354 52.528 87.1345 53.1644C84.6159 54.7635 81.6954 55.0817 78.8733 55.6855C77.7904 55.9139 76.6665 56.0445 75.559 56.069C74.1561 56.1097 72.8928 55.7181 72.179 54.3556C71.4817 53.042 71.695 51.8019 72.5154 50.5944C73.9675 48.4567 75.6574 46.4823 76.8388 44.157C78.1514 41.5544 78.6682 38.8456 78.0693 35.9819C77.6345 33.8932 76.2973 33.3874 74.7632 34.7662C73.6803 35.7371 72.581 36.3001 71.4735 35.1497C70.4316 34.0727 70.6121 32.6857 71.3915 31.4782C72.8107 29.2916 74.9191 28.3207 77.4787 28.4839C80.2433 28.6552 82.2287 30.1809 83.4018 32.5796C85.6332 37.1241 84.9031 41.6441 82.9506 46.0825C82.6224 46.8413 82.2533 47.5593 81.8103 48.4894Z" fill="#079B5E"/>
<path d="M123.485 27.0559C122.747 27.0804 122.829 27.5291 122.665 27.8228C122.091 28.8427 121.213 29.3404 120.064 28.8182C118.965 28.3287 118.629 27.3986 118.842 26.24C119.293 23.8005 121.787 21.7527 124.215 21.8179C126.668 21.8914 128.695 23.8332 129.039 26.4603C129.663 31.2006 129.671 31.1843 132.895 34.3091C135.307 36.6426 135.873 39.6042 135.167 42.6964C134.511 45.5683 132.255 46.988 129.49 47.7467C126.882 48.4566 124.289 49.0114 121.59 48.3097C120.844 48.1139 120.138 47.9018 120.023 46.988C119.908 46.0742 120.573 45.5846 121.221 45.2909C123.182 44.4016 125.183 43.6265 127.185 42.827C128.276 42.3864 129.154 41.8724 129.121 40.4609C129.08 39.0086 128.399 38.1519 127.095 37.6053C122.542 35.6798 122.575 35.6716 123.559 30.6458C123.781 29.4546 123.879 28.2145 123.485 27.0559Z" fill="#4F9BD4"/>
<path d="M63.8849 36.5365C62.6543 31.1924 59.7338 26.8927 56.1569 22.9194C54.7049 22.6828 54.3357 24.0779 53.4579 24.698C53.0231 24.9999 52.6457 25.3752 52.0961 25.0162C51.5464 24.6572 51.3495 24.1432 51.5628 23.4986C51.8007 22.797 52.2355 22.2177 52.6785 21.6221C52.9821 21.2142 53.5974 20.7654 52.8262 20.2106C48.6587 17.4285 44.1302 15.3969 39.1341 14.8747C29.8311 13.9038 21.2827 16.1638 13.8829 21.8995C3.57079 29.8952 -1.58117 40.4527 0.428751 53.409C2.7094 68.1194 14.5146 77.192 28.6579 77.7223C40.98 78.1792 51.087 73.1942 58.3966 63.1506C64.2294 55.1305 66.1245 46.2781 63.8849 36.5365ZM55.6811 55.0815C50.1108 65.1822 41.2753 70.6731 29.7654 70.6078C18.8298 70.5426 9.84667 64.2276 7.64806 52.6584C5.72018 42.5577 9.55954 33.9746 17.4516 27.3822C22.5871 23.0907 28.5595 20.7328 35.4096 20.8715C45.2295 21.0918 52.9 24.8775 56.9445 34.2275C60.0127 41.3257 59.3564 48.4158 55.6811 55.0815Z" fill="#F06623"/>
<path d="M29.6915 43.2019C29.0598 42.9898 28.7399 43.3896 28.3871 43.618C27.4273 44.2136 26.5659 44.1239 25.7537 43.3651C24.8923 42.5574 25.0482 41.562 25.5486 40.7543C26.6069 39.0817 27.7472 37.4418 29.0106 35.9161C29.8638 34.8799 31.0369 34.0722 32.5136 34.5454C33.8344 34.9696 34.8763 35.7937 35.1306 37.2541C36.3694 44.3605 36.6155 51.475 35.2209 58.6058C34.9583 59.952 34.3923 61.1351 32.8664 60.9882C31.4471 60.8577 30.8975 59.6583 30.5857 58.3366C29.4946 53.6616 29.831 48.9213 29.7818 44.1973C29.7818 43.8546 29.7243 43.5038 29.6915 43.2019Z" fill="#F06623"/>
</svg>
