<svg width="98" height="76" viewBox="0 0 98 76" fill="none" xmlns="http://www.w3.org/2000/svg">
<path d="M68.3735 1.55115C69.2459 -0.268255 70.7093 0.265442 71.9345 0.644342C75.3868 1.72757 78.5628 3.43587 81.6273 5.33461C86.162 8.14145 90.3622 11.3749 93.9698 15.3351C97.5421 19.2562 98.1054 23.8329 96.8115 28.7515C95.3159 34.4233 92.255 39.2243 88.248 43.4496C78.6887 53.5239 67.7531 61.722 54.9952 67.3101C47.9702 70.3894 40.7313 72.9086 33.1556 74.3649C28.6739 75.2213 24.1877 75.8625 19.6197 75.6496C13.7088 75.3703 8.17526 74.1617 3.79942 69.6709C0.687439 66.4815 -0.0422658 62.6765 0.220444 58.4771C0.559852 52.9869 3.17034 48.6291 6.86764 44.756C11.3292 40.075 16.6842 36.6484 22.3088 33.5937C31.9992 28.3387 42.1963 24.32 52.815 21.4197C57.5298 20.1307 62.3651 19.1436 67.2882 20.2393C73.867 21.705 76.8265 26.7252 74.0456 33.342C71.1904 40.1409 65.7061 44.2482 59.6602 47.742C52.773 51.7148 45.3855 54.474 37.518 55.8336C34.6453 56.3278 31.7283 56.3318 28.8728 55.86C26.46 55.4662 24.6069 52.9701 25.982 49.76C27.2272 46.8582 29.7113 45.1462 32.1104 43.3578C37.32 39.4763 43.1726 36.7523 48.9712 33.9001C51.5738 32.6202 54.0707 31.2226 57.0768 31.3033C59.5076 31.3723 61.3244 33.0431 61.3279 35.4012C61.3277 36.6485 60.016 36.551 59.5065 36.2166C56.5661 34.3177 54.2353 36.1702 51.8642 37.3546C45.8239 40.3747 39.9867 43.7585 34.3798 47.5288C33.3423 48.2253 32.3898 49.0189 31.543 49.9302C31.2662 50.2243 30.8818 50.4689 31.1122 50.9795C31.3447 51.4839 31.7748 51.3509 32.1823 51.3689C36.0614 51.5187 39.7549 50.6282 43.4336 49.533C50.7661 47.3551 57.4659 43.968 63.4436 39.1836C66.0616 37.0887 67.8967 34.362 69.3094 31.3918C70.9201 28.0117 69.3962 25.7488 65.9197 25.0918C59.9332 23.9603 54.4828 25.8667 48.9824 27.5292C40.4278 30.1287 32.2201 33.6151 24.3735 37.9036C19.0839 40.8006 13.8732 43.8547 9.70302 48.3429C6.68954 51.5884 4.99055 55.4009 4.93923 59.8564C4.88942 63.9335 7.01021 66.9526 10.7364 68.5815C15.216 70.5362 19.8816 70.9124 24.6493 70.4197C33.1278 69.5454 41.1508 67.0521 49.0716 63.9529C59.9489 59.6912 69.4641 53.3857 78.1683 45.7223C82.8603 41.5933 87.1358 37.0574 90.0279 31.4768C93.2645 25.2317 93.0111 20.3236 87.3788 15.3401C83.9091 12.2733 80.3114 9.36378 76.7405 6.43563C74.7086 4.76918 72.3938 3.45685 70.2256 1.95193C69.6852 1.60725 69.0424 2.00735 68.3735 1.55115Z" fill="#4EA0F7"/>
</svg>
