<svg width="60" height="56" viewBox="0 0 60 56" fill="none" xmlns="http://www.w3.org/2000/svg">
<path d="M1.34803 34.325C2.23802 31.6798 4.09836 29.8672 6.85041 29.0033C8.38178 28.5222 9.9693 28.2239 11.5247 27.8117C13.7099 27.2302 15.7443 26.3894 17.2464 24.6037C18.6444 22.9368 18.5718 22.3267 16.8451 20.9314C12.9847 17.813 10.9332 13.7844 10.7625 8.88343C10.71 7.3898 10.8952 5.89795 11.5682 4.5284C13.8139 -0.0217465 18.6186 -1.11793 22.9966 1.90486C24.2979 2.80309 25.3156 3.97791 26.3719 5.13058C28.7187 7.70121 30.9879 10.3341 33.6607 12.5953C36.2708 14.8098 38.9565 15.3965 42.1391 13.8156C45.5217 12.1386 49.118 11.1889 52.9965 11.8582C56.5241 12.4666 58.8302 14.3725 59.4475 17.3465C60.1276 20.6201 58.7916 23.0618 56.1109 24.8604C54.997 25.6069 53.8268 26.2729 52.6565 26.9388C50.6667 28.0786 48.9091 29.4889 47.3601 31.1675C45.2801 33.4182 44.1916 36.0036 44.2957 39.1289C44.456 44.1766 43.1982 48.8014 39.7792 52.6741C39.1286 53.4077 38.4103 54.0747 37.5735 54.5965C35.6458 55.8009 33.5856 55.6993 31.7555 54.3028C29.8682 52.8614 28.7861 50.8508 27.8398 48.7689C27.1313 47.2124 26.529 45.6162 25.868 44.0468C25.4387 43.0368 24.8312 42.1308 24.0744 41.3332C22.692 39.882 21.2948 39.6713 19.6025 40.7322C18.4234 41.4732 17.3359 42.3496 16.1673 43.1124C13.2613 45.0101 10.1217 45.9986 6.56594 45.4341C2.47819 44.7855 0.61009 42.683 0.56901 38.6235C0.546611 37.1648 0.799094 35.7575 1.34803 34.325ZM5.2186 35.6414C4.85802 36.5702 4.668 37.4163 4.64053 38.3032C4.57475 40.5124 5.09985 41.1057 7.34408 41.4423C9.94312 41.8291 12.1447 40.8984 14.2262 39.539C15.5237 38.6904 16.7617 37.736 18.1203 37.0058C20.9548 35.4916 23.7538 35.8665 26.2469 37.9483C27.9315 39.3585 29.0087 41.1627 29.8592 43.1377C30.6369 44.9419 31.3429 46.7924 32.2565 48.5254C34.1188 52.0462 35.2816 52.0938 37.5249 48.885C39.555 45.9783 40.1827 42.6723 40.0873 39.2191C39.9728 35.0246 41.4782 31.5067 44.247 28.4338C46.4045 26.0366 48.9229 24.095 51.723 22.4901C52.6637 21.9518 53.6276 21.4338 54.3778 20.6279C55.9132 18.9867 55.4317 16.8202 53.3129 16.0354C51.2698 15.278 49.1916 15.4288 47.1775 16.0782C45.4539 16.6342 43.778 17.3459 42.1008 18.027C39.0102 19.286 36.0798 18.7673 33.2648 17.1528C31.7667 16.2917 30.4553 15.1851 29.2333 13.9665C26.9103 11.6512 24.7204 9.22161 22.6137 6.71381C21.9086 5.8748 21.1551 5.08452 20.2104 4.50191C18.1044 3.19208 16.1666 3.66451 14.9013 5.75865C14.3412 6.68147 14.2945 7.70585 14.2714 8.73273C14.165 13.3348 16.7882 16.4087 20.2209 19.0533C22.7065 20.97 23.0717 23.3231 21.3046 25.8917C19.807 28.0703 17.7909 29.6038 15.3173 30.6106C13.1825 31.4752 10.9064 31.8012 8.72003 32.4365C6.97368 32.9541 5.64337 33.8931 5.2186 35.6414Z" fill="#4F9AD4"/>
</svg>
