<svg width="91" height="142" viewBox="0 0 91 142" fill="none" xmlns="http://www.w3.org/2000/svg">
<g clip-path="url(#clip0_1267_51)">
<path d="M49.3804 22.5922C51.6772 20.5975 53.8198 18.4452 56.2323 16.5687C59.9715 13.6626 63.8831 11.0509 68.0827 8.87121C68.6168 8.59397 69.1317 8.29215 69.6611 8.00024C74.0412 14.682 80.8412 17.8588 87.938 20.6048C88.5497 20.8403 89.2211 20.9546 89.7279 21.4231C89.5157 24.4878 88.8899 27.4751 88.2738 30.4771C87.668 33.4256 86.8096 36.2886 85.8589 39.1311C85.4314 40.3993 84.9651 41.6524 84.4599 42.8905C84.3199 43.2304 84.2289 43.5415 84.2593 43.8977C82.8833 47.3258 80.858 50.3912 78.8232 53.4369C77.7191 55.0881 76.7409 56.8284 75.5352 58.4102C75.2486 58.7876 75.0675 59.322 74.417 59.0812C73.8374 58.5729 73.2074 58.2299 72.3882 58.2702C69.7989 58.3992 67.3759 57.5353 64.941 56.8761C60.7273 55.7351 56.7541 53.9627 52.9407 51.8312C49.573 49.9531 46.4277 47.7798 43.7224 45.0064C42.4541 43.7109 41.1956 42.4056 39.9125 41.1245C39.3096 40.5234 38.7851 39.8792 38.4668 39.0811C38.2584 38.5035 38.5847 38.0535 38.8381 37.5978C40.8594 33.9765 43.0503 30.4594 45.6477 27.2147C46.502 26.1461 47.4674 25.1712 48.4761 24.2553C49.0025 23.778 49.276 23.2543 49.3804 22.5922Z" fill="#FAC917"/>
<path d="M49.7973 79.4058C50.7451 81.054 50.7799 82.8633 50.6587 84.671C50.294 90.2014 47.9773 95.0434 45.1849 99.6904C39.4266 109.275 31.7269 117.152 23.3366 124.413C17.2972 129.635 10.8157 134.249 3.91634 138.278C3.43582 138.555 3.07728 138.82 2.98306 139.443C2.87326 140.159 2.28029 140.469 1.60819 140.423C0.892281 140.372 0.355262 139.991 0.280747 139.19C0.214963 138.488 0.124863 137.78 0.107811 137.077C-0.0861452 127.626 0.542867 118.241 2.80766 109.03C5.50005 98.0726 9.75902 87.8482 17.4264 79.3416C20.9962 75.3805 25.0903 72.0978 30.145 70.1709C30.3407 70.0949 30.4888 69.9111 30.6608 69.7764C31.4671 70.0432 32.0571 70.4833 31.9984 71.4433C27.5283 76.2044 23.1355 81.0248 19.8206 86.7097C17.7463 90.267 16.2063 93.9957 16.2453 98.204C16.2807 102.295 18.6214 105.913 22.2926 107.195C24.3225 107.903 26.4619 107.916 28.4711 106.864C32.7639 104.622 36.0305 101.233 38.9018 97.4307C42.0745 93.2315 44.3942 88.5748 46.0011 83.5693C46.3939 82.3544 46.3445 81.0179 46.9997 79.874C47.1487 79.6074 47.2057 79.2862 47.4903 79.1038C48.2854 79.039 49.0757 78.9643 49.7973 79.4058Z" fill="#E63825"/>
<path d="M74.5395 59.0092C75.5627 58.1032 76.1215 56.8657 76.8641 55.7568C78.9384 52.6676 80.9691 49.5535 82.8061 46.3155C83.2678 45.5061 83.1873 44.3496 84.2496 43.8975C85.9741 44.9101 86.0038 46.7389 86.284 48.3753C87.1979 53.7483 86.3293 59.0004 85.1586 64.2444C83.6709 70.9089 81.208 77.144 77.4542 82.8536C77.0035 83.5413 76.3834 84.1199 75.9424 84.8126C75.5956 85.3551 75.2411 85.7024 74.5695 85.6028C73.7861 85.4825 73.6561 84.857 73.526 84.2462C72.9505 81.4853 72.1646 78.7905 71.1539 76.1567C70.3614 74.1054 69.4462 72.126 68.2226 70.2848C67.8724 69.7545 67.2902 69.4998 66.9789 68.9651C66.4502 68.2574 66.8305 67.7738 67.3713 67.326C68.8357 67.1072 69.4083 65.9429 70.0244 64.8181C71.2694 63.2074 72.5143 61.6016 73.6141 59.887C73.8228 59.504 74.0751 59.1409 74.5395 59.0092Z" fill="#F16623"/>
<path d="M67.4917 67.4589C67.0342 67.8637 66.8924 68.3791 66.9739 68.9748C66.176 68.8397 65.8375 69.5237 65.3606 69.9185C63.2613 71.6617 61.1669 73.405 58.7937 74.7797C56.1179 74.7908 53.5771 74.0086 51.0651 73.2608C47.5133 72.2096 44.0173 70.9541 40.7859 69.0969C38.2666 67.6517 35.7322 66.2455 33.5304 64.2624C32.333 63.1821 31.0719 62.1353 29.8056 61.1127C30.0222 57.6287 30.7933 54.2577 31.9144 50.9635C32.0352 50.604 32.0151 50.1942 32.0581 49.8046C32.6967 48.8604 33.6656 48.0172 34.2517 47.8917C35.0656 50.2406 36.9986 51.821 38.5943 53.5004C40.783 55.8051 43.3451 57.8212 46.1005 59.5223C47.9165 60.6432 49.7317 61.8469 51.6582 62.6472C53.6672 63.4824 55.73 64.3035 57.8589 64.8669C60.2793 65.5114 62.6388 66.3893 65.1761 66.5717C65.9942 66.6388 66.795 66.9689 67.4917 67.4589Z" fill="#FAC917"/>
<path d="M34.3589 47.9075C34.0954 47.9291 33.8073 47.9847 33.7555 48.2815C33.5846 49.2452 32.7781 49.466 32.063 49.8096C28.2534 50.1161 24.907 51.8073 21.5182 53.3567C20.8816 53.6475 20.2497 53.9481 19.6131 54.234C19.099 54.4627 18.5719 54.5303 18.1478 54.0773C17.714 53.6145 17.6808 53.0534 17.8965 52.4656C19.3608 48.5119 20.9319 44.6032 23.2644 41.0583C28.2166 33.5327 34.8928 28.0047 43.0607 24.3061C45.0342 23.4148 47.1096 22.5588 49.3803 22.5971C49.6535 23.0387 49.9764 23.3932 49.3665 23.9232C45.2103 27.5563 42.3549 32.1733 39.6495 36.8992C39.2623 37.5729 38.9333 38.2765 38.5752 38.97C38.4686 39.3736 38.2989 39.757 38.1535 40.1504C36.9855 42.3227 36.0941 44.6197 35.0086 46.8269C34.8098 47.1906 34.887 47.7326 34.3589 47.9075Z" fill="#F06623"/>
<path d="M89.723 21.4229C87.4849 21.0583 85.4579 20.0766 83.4301 19.168C79.4522 17.3859 75.7076 15.1966 72.5569 12.1309C71.3411 10.9481 70.0912 9.75019 69.6611 8.00013C74.6405 5.34099 79.9525 3.51423 85.3212 1.84896C87.1499 1.2829 87.6849 1.86383 88.4629 3.44199C90.9783 8.53428 90.2111 13.8752 89.9607 19.1922C89.9238 19.9329 89.8039 20.6777 89.723 21.4229Z" fill="#F16623"/>
<path d="M29.8105 61.1129C30.4648 60.9978 30.9083 61.4657 31.2702 61.8156C34.9029 65.3836 39.179 68.0173 43.7232 70.1808C45.8086 71.1728 47.9981 71.9953 50.258 72.6088C52.829 73.3036 55.3445 74.1831 58.0382 74.3233C58.2964 74.3358 58.5468 74.6212 58.7987 74.775C57.2359 76.0118 55.5055 76.9738 53.7605 77.9211C50.613 77.3617 47.5859 76.472 44.7459 74.9406C41.7556 73.3248 38.5167 72.1793 35.6657 70.2968C33.3858 68.7956 31.0766 67.299 29.522 64.9473C29.4672 63.6595 29.4805 62.3772 29.8105 61.1129Z" fill="#4F9AD4"/>
<path d="M29.522 64.9522C31.7975 66.8776 33.875 69.0885 36.5658 70.4525C41.4286 72.907 46.1316 75.7304 51.4732 77.1416C52.2411 77.3446 53.194 77.1059 53.7655 77.9212C52.6245 78.904 51.0143 78.6142 49.8022 79.4061C49.0225 79.398 48.2477 79.385 47.468 79.3769C45.6738 79.4362 44.2463 78.4559 42.7483 77.6894C42.2829 77.4505 41.8373 77.1777 41.3669 76.9583C39.458 75.8608 37.4397 74.9865 35.4711 74.0054C34.2918 73.057 32.8111 72.5003 31.864 71.252C31.7497 70.5291 30.8735 70.4225 30.6658 69.7767C29.5745 68.3318 29.6118 66.6256 29.522 64.9522Z" fill="#15284C"/>
<path d="M75.3524 35.7255C75.359 41.6351 70.4739 46.4699 64.5183 46.4518C58.6115 46.4292 53.8469 41.5719 53.8219 35.545C53.7982 29.8741 58.5065 25.1642 64.1369 25.0571C71.761 24.9122 75.4892 31.0119 75.3524 35.7255Z" fill="#15284C"/>
<path d="M37.9198 40.1187C38.1044 39.711 37.9401 39.1096 38.5801 38.9602C40.0686 40.6384 41.5227 42.3455 43.1096 43.9418C47.1851 48.0508 51.9094 51.167 57.1432 53.5668C60.1991 54.9688 63.3309 56.0985 66.6123 56.9031C68.7805 57.4328 70.9098 57.9523 73.1464 58C73.8237 58.0119 74.4509 58.155 74.5395 59.0092C74.52 59.4771 73.8273 59.5381 73.9047 60.0606C73.4085 60.4407 72.8239 60.4151 72.249 60.3993C70.2269 60.349 68.3224 59.7684 66.3676 59.3385C64.8651 59.0059 63.3874 58.6346 61.9301 58.1708C56.9704 56.593 52.4534 54.1567 48.1807 51.1915C45.1807 49.1075 42.5698 46.6277 40.0874 43.9835C39.2969 43.1414 38.8599 42.0447 38.0154 41.2362C37.7018 40.9355 37.7452 40.5118 37.9198 40.1187Z" fill="#509CD3"/>
<path d="M41.4958 76.7402C43.4949 77.5997 45.3592 78.7601 47.4631 79.3768C46.0514 85.2913 43.888 90.8565 40.3896 95.9057C38.9002 98.0551 37.353 100.145 35.5163 101.95C33.1379 104.285 30.6336 106.546 27.3899 107.731C24.6159 108.745 20.2585 107.364 18.3397 104.891C15.6225 101.387 15.4329 97.596 16.5679 93.4487C18.1894 87.5072 21.7866 82.7955 25.5391 78.1391C26.8427 76.5193 28.3007 75.0473 29.6766 73.5013C30.3768 72.7139 30.9032 71.7832 31.8639 71.2519C33.2019 71.9436 34.4408 72.7854 35.5412 73.8209C35.8986 74.6096 35.2079 74.9437 34.8139 75.3394C32.3756 77.8105 30.6106 80.6835 29.6499 84.0135C29.2403 85.433 29.1716 86.8854 29.8687 88.2774C30.7328 90.0076 32.16 90.5491 33.9463 89.846C36.5253 88.8294 41.3613 83.1067 41.0244 79.4219C40.936 78.5482 40.5766 77.4912 41.4958 76.7402Z" fill="#F16623"/>
<path d="M37.9199 40.1188C38.6415 41.9645 40.0257 43.3637 41.3173 44.7571C45.838 49.6411 51.3024 53.2964 57.3222 56.036C60.2133 57.3534 63.2436 58.3992 66.4146 59.0417C68.9047 59.5503 71.3448 60.1804 73.9048 60.0559C72.703 61.7304 71.6608 63.5286 70.1544 64.9708C68.3041 65.2733 66.5227 65.0451 64.6692 64.7137C61.2591 64.1028 57.9793 63.1422 54.7706 61.9093C51.4648 60.6364 48.4027 58.8979 45.4205 56.975C41.4991 54.4425 38.4741 51.0076 35.4101 47.5869C35.174 47.3212 34.8344 47.1714 34.6575 46.8477C35.6899 44.5814 36.5576 42.2305 37.9199 40.1188Z" fill="#F9C918"/>
<path d="M34.6622 46.8526C35.2616 46.8588 35.5463 47.1348 35.9601 47.6462C38.5202 50.7935 41.346 53.69 44.6992 56.0312C47.5974 58.0605 50.6745 59.765 53.9008 61.1785C55.6814 61.9577 57.5715 62.5138 59.4322 63.089C62.9203 64.1688 66.5008 64.7961 70.1494 64.9755C69.9209 66.3286 68.7643 67.4088 67.4868 67.4589C62.3253 66.5421 57.2941 65.2804 52.4275 63.1916C47.2746 60.9779 42.7495 57.9223 38.6897 54.1743C37.1305 52.7294 35.6267 51.1144 34.506 49.2206C34.2138 48.7251 34.1736 48.3736 34.3539 47.9074C34.46 47.5526 34.5611 47.2026 34.6622 46.8526Z" fill="#509BD3"/>
<path d="M41.4958 76.74C41.4571 77.1785 41.3501 77.621 41.3944 78.0506C41.7698 81.7846 40.0436 84.6678 37.677 87.281C36.7353 88.3195 35.779 89.353 34.4808 89.9928C31.4778 91.4682 29.4337 89.7891 29.0745 86.8452C28.6929 83.706 30.2456 81.094 31.7882 78.5161C32.8298 76.7765 34.3885 75.4665 35.5412 73.8207C37.6141 74.6029 39.6471 75.4823 41.4958 76.74Z" fill="#FAC817"/>
<path d="M72.8577 35.6507C72.7497 40.4085 69.0234 43.9437 64.2435 43.8256C59.6682 43.7097 56.1152 39.967 56.2023 35.3504C56.2907 30.607 60.2789 26.7235 65.1834 27.0525C69.3038 27.3246 72.9525 30.766 72.8577 35.6507Z" fill="#FFFAF2"/>
</g>
<defs>
<clipPath id="clip0_1267_51">
<rect width="88.9366" height="139.668" fill="white" transform="translate(1.45508 0.746094) rotate(0.596908)"/>
</clipPath>
</defs>
</svg>
