<svg width="87" height="87" viewBox="0 0 87 87" fill="none" xmlns="http://www.w3.org/2000/svg">
<path d="M86.2079 20.8511C86.2379 27.6311 83.8179 31.7211 79.1279 34.5011C75.1179 36.8811 71.4279 39.5611 68.9279 43.6911C66.5979 47.5411 66.1079 51.0711 68.7079 55.0811C71.3879 59.2011 73.1479 63.8111 73.9579 68.7111C74.6879 73.1511 74.1879 77.4211 71.8779 81.3411C68.5379 87.0011 63.4779 88.0911 58.0379 84.4111C55.3479 82.5911 53.4279 80.0711 51.5679 77.4811C49.1879 74.1611 47.0479 70.6611 43.9979 67.8711C39.9079 64.1311 38.0779 64.0711 34.0979 67.9511C27.9879 73.9111 20.9579 77.5611 12.2079 77.3111C10.0779 77.2511 8.05794 76.8211 6.14794 75.9511C0.337935 73.2911 -1.60206 67.5511 1.39794 61.8911C3.00794 58.8411 5.53794 56.6411 8.23794 54.6011C9.36794 53.7511 10.7279 53.0511 10.3679 51.1911C10.2379 50.5011 10.9279 50.1211 11.4479 49.7511C17.0479 45.7411 18.2879 40.0311 17.7279 33.6211C17.2979 28.7211 15.7879 24.0311 14.9579 19.2011C14.0679 14.0211 15.0079 9.26114 18.1079 5.00114C22.7979 -1.43886 30.8079 -1.69887 35.9679 4.45113C38.3179 7.25113 39.8279 10.5811 41.5079 13.8011C42.9379 16.5311 44.3679 19.2611 46.6279 21.4611C48.5379 23.3211 50.4979 23.5611 52.7579 22.1611C55.7879 20.2911 58.3379 17.8011 61.1479 15.6511C65.0579 12.6611 69.3079 10.5811 74.3579 10.5311C81.5979 10.4611 86.1279 14.9111 86.2079 20.8511ZM38.9579 59.0911C42.5379 58.9111 45.1779 60.8111 47.6779 62.9811C51.4379 66.2411 53.9779 70.4611 56.7979 74.4711C58.2679 76.5611 59.8379 78.5311 62.1379 79.8211C63.5679 80.6211 64.7279 80.4011 65.7379 79.1611C67.6879 76.7711 68.3379 74.0311 67.9279 71.0011C67.2579 66.0611 65.4079 61.5411 62.9079 57.2911C60.0579 52.4411 60.2779 47.6611 62.7779 42.7711C65.3179 37.7911 68.8179 33.7411 73.6379 30.8611C75.3479 29.8411 77.1379 28.9111 78.5479 27.4611C80.9179 25.0211 81.4979 20.8811 79.8979 18.1211C78.4579 15.6511 75.7579 14.9811 71.8979 16.0611C69.3179 16.7811 67.0279 18.0411 64.9379 19.6711C62.3579 21.6811 59.9179 23.8711 57.2779 25.7911C51.2779 30.1711 46.0979 29.4411 41.3279 23.7111C39.0379 20.9611 37.5779 17.7211 36.0179 14.5511C34.7379 11.9511 33.6179 9.24113 31.6779 7.03114C28.5679 3.47114 24.6579 3.58114 21.7179 7.25114C18.8879 10.7911 18.4379 14.8111 19.3379 19.1011C20.0479 22.4711 20.8879 25.8111 21.4979 29.2011C22.5379 34.9311 21.6479 40.3511 19.9379 46.0011C17.9879 52.4111 14.4679 57.1011 9.26793 60.9011C8.54793 61.4311 7.94794 62.1611 7.39794 62.8711C4.42794 66.7111 5.87793 70.4411 10.6979 71.1411C14.7479 71.7211 18.6479 71.0311 22.3379 69.2011C25.6379 67.5611 28.3779 65.2111 31.0279 62.7011C33.2579 60.5911 35.7079 58.9211 38.9579 59.0911Z" fill="#E57128"/>
</svg>
