<svg width="129" height="68" viewBox="0 0 129 68" fill="none" xmlns="http://www.w3.org/2000/svg">
<path d="M106.326 0.54C106.876 0.56 107.416 0.57 107.966 0.59C108.836 0.96 109.706 1.36 110.696 1.15C111.426 1.92 112.486 1.65 113.356 1.98C120.556 4.22 126.186 8.14 128.196 15.9C128.566 23 125.606 28.87 121.826 34.66C118.236 40.15 113.926 44.96 109.096 49.22C102.346 55.17 94.6556 59.77 86.2556 63.23C76.9156 67.08 67.2656 67.57 57.3856 67.11C55.4256 67.02 53.4956 66.86 51.6256 66.43C43.2456 64.48 40.7056 56.92 46.0556 50.02C49.0056 46.21 52.7757 43.39 56.9157 41.08C64.2957 36.95 71.7356 32.97 80.4856 32.66C81.7556 32.61 83.0356 32.62 84.2956 32.74C87.5556 33.04 89.8156 34.9 90.3656 37.63C90.8056 39.8 89.0257 43.02 86.5357 44.24C81.2057 46.84 75.6256 48.75 69.8856 50.2C69.2856 50.35 68.5456 50.55 68.0756 49.57C67.5856 48.56 68.2857 48.31 68.7757 47.87C71.4357 45.5 74.7956 44.34 77.8756 42.7C79.7856 41.68 81.7956 40.87 83.9356 39.09C79.7256 38.49 76.0356 38.53 72.5056 39.92C65.5156 42.66 58.8756 46.09 53.0656 50.9C51.6456 52.08 50.4757 53.63 49.4057 55.17C48.2357 56.85 49.5057 59.26 52.0857 60.05C57.2057 61.61 62.5057 61.45 67.7157 60.86C80.6657 59.39 91.9156 53.97 101.936 45.74C108.426 40.42 113.906 34.29 118.176 27.07C119.486 24.85 120.496 22.5 120.986 19.99C121.746 16.1 120.036 13.14 116.876 11.05C113.146 8.58 108.996 7.19 104.546 6.63C102.696 6.4 100.966 5.67 99.0257 5.6C92.6157 5.37 86.4357 6.66 80.1557 7.6C73.5557 8.59 67.2456 10.45 60.9856 12.57C47.8156 17.02 35.2756 22.89 23.5756 30.36C17.5256 34.22 11.7256 38.55 7.07564 44.16C5.58564 45.18 4.74562 46.71 3.80562 48.19C2.95562 49.53 3.46564 50.1 4.82564 50.32C5.06564 51.56 4.25561 51.84 3.29561 52C1.83561 52.12 0.745653 51.59 0.0856532 50.25C-0.104347 48.76 -0.0143322 47.32 0.725668 45.97C2.16567 43.8 3.60561 41.62 5.04561 39.45C5.04561 39.45 5.02565 39.47 5.01565 39.47C6.84565 37.63 8.68565 35.8 10.5156 33.96C10.6756 33.82 10.8356 33.68 10.9956 33.54C12.5456 33.12 13.2756 31.75 14.3056 30.72L14.2757 30.75C14.5457 30.72 14.8856 30.79 15.0656 30.65C24.8956 22.57 36.1256 16.95 47.6756 11.85C51.7556 10.05 56.1256 8.94 60.0156 6.71C61.5856 6.75 62.8556 5.73 64.3556 5.49C69.4456 4.22 74.5356 2.95 79.6156 1.67C80.7056 1.48 81.7956 1.3 82.8856 1.11C83.7956 0.94 84.7056 0.77 85.6156 0.59C86.3756 0.62 87.1656 0.85 87.8756 0.35C88.5756 0.23 89.2757 0.12 89.9757 0C94.8857 0.02 99.7856 0.04 104.696 0.05C105.166 0.45 105.666 0.78 106.326 0.54Z" fill="#4B9A67"/>
</svg>
