<svg width="90" height="85" viewBox="0 0 90 85" fill="none" xmlns="http://www.w3.org/2000/svg">
<path d="M2.57674 32.4625C6.73064 27.9815 10.827 26.7659 15.5978 27.7974C19.6788 28.6773 23.7357 29.1645 27.9088 27.9713C31.7987 26.8587 34.2913 24.8342 35.0635 20.6086C35.8513 16.2617 37.5408 12.1536 40.0286 8.43422C42.2855 5.06641 45.2401 2.56091 49.16 1.39003C54.8229 -0.297736 58.7949 2.07185 60.0785 7.81294C60.713 10.652 60.4143 13.4821 60.0334 16.3216C59.5424 19.9588 58.784 23.5682 59.0563 27.2653C59.4223 32.2223 60.5792 33.3782 65.564 33.2525C73.2186 33.0572 80.0515 34.9437 85.6057 40.4465C86.9583 41.7855 88.0114 43.3009 88.7219 45.0388C90.8747 50.3342 88.607 55.2959 83.1659 57.1911C80.2382 58.2164 77.2335 58.121 74.2164 57.8165C72.956 57.6866 71.6379 57.3176 70.7278 58.7615C70.3879 59.2949 69.7038 59.1241 69.1368 59.0504C63.0152 58.2733 58.6915 61.2752 55.1111 65.836C52.3754 69.3235 50.4735 73.3317 48.0418 77.0173C45.4339 80.9698 41.8906 83.5293 37.246 84.442C30.2223 85.8196 24.8368 81.1039 25.2563 73.9079C25.4468 70.6312 26.5115 67.5182 27.3976 64.3738C28.1452 61.7044 28.8928 59.0351 28.7727 56.2082C28.6716 53.8187 27.5407 52.465 25.2046 52.0077C22.0769 51.39 18.8806 51.4732 15.724 51.174C11.3328 50.7566 7.27991 49.5328 3.9547 46.4847C-0.811486 42.1138 -1.02746 36.4211 2.57674 32.4625ZM56.9397 36.1192C54.4934 34.0536 53.9407 31.1924 53.6456 28.2389C53.1994 23.7992 54.14 19.4719 54.7688 15.112C55.0963 12.8396 55.2847 10.585 54.5784 8.33276C54.1379 6.93377 53.2458 6.37087 51.8236 6.57086C49.0803 6.9543 46.9697 8.36124 45.372 10.6058C42.7682 14.2661 41.1928 18.3698 40.2076 22.6924C39.0814 27.6235 35.9955 30.6355 31.3545 32.3289C26.6321 34.0572 21.8558 34.5876 16.9386 33.5426C15.1952 33.1708 13.455 32.6908 11.6427 32.785C8.5946 32.9451 5.66783 35.3163 5.01267 38.1091C4.43166 40.6134 5.78061 42.7016 8.96353 44.3457C11.0898 45.4458 13.3593 46.0135 15.7261 46.2157C18.6465 46.4668 21.5863 46.5139 24.4904 46.8608C31.1007 47.6383 34.0306 51.2791 33.6152 57.9607C33.4164 61.1679 32.3744 64.1912 31.4408 67.2295C30.6754 69.7217 29.7378 72.1888 29.6431 74.827C29.4805 79.0676 32.099 81.3806 36.276 80.7587C40.3012 80.1551 43.0693 77.7837 45.1229 74.4109C46.7342 71.7596 48.2422 69.0487 49.931 66.4452C52.7796 62.0392 56.6965 59.0147 61.29 56.339C66.5078 53.3096 71.691 52.3701 77.4224 53.0414C78.2184 53.1318 79.0591 53.0173 79.855 52.8856C84.1562 52.17 85.5063 48.8303 82.7928 45.4289C80.5078 42.5763 77.5388 40.6511 74.0052 39.6044C70.8429 38.6706 67.6088 38.5457 64.335 38.5811C61.5814 38.6094 58.9552 38.2139 56.9397 36.1192Z" fill="#1FA3FF"/>
</svg>
