<svg width="66" height="70" viewBox="0 0 66 70" fill="none" xmlns="http://www.w3.org/2000/svg">
<path d="M31.7105 22.2254C36.6317 17.7243 41.2925 13.4222 45.9923 9.17146C47.9517 7.39926 49.9696 5.69126 52.2284 4.29148C52.619 4.04748 53.1723 3.51454 53.5824 4.22086C53.9404 4.83728 53.3415 5.24822 52.9249 5.46654C51.4798 6.2178 50.4253 7.39926 49.3057 8.49084C44.1306 13.5313 39.0077 18.6232 33.8196 23.6509C33.032 24.415 32.8497 25.0057 33.3119 26.0459C35.0824 30.0462 36.7424 34.0915 38.4413 38.1239C39.255 38.0019 39.561 37.379 39.9906 36.9488C47.4635 29.4748 54.8127 21.8787 62.6826 14.8091C63.3792 14.1799 64.1148 13.5891 64.8633 13.0241C65.1107 12.8379 65.4232 12.5232 65.7942 12.8892C66.3475 13.4415 65.6314 13.5699 65.4361 13.7882C57.6768 22.5914 49.5725 31.08 41.312 39.4273C39.9906 40.7629 39.932 41.7774 40.6481 43.3442C43.4471 49.5019 45.9923 55.7624 48.2967 62.1193C48.4334 62.4981 48.6352 62.8834 48.6547 63.2751C48.6808 63.7887 49.1495 64.5464 48.3032 64.7519C47.5676 64.9317 47.4895 64.2189 47.2096 63.6924C43.7531 57.1494 40.6611 50.4394 37.836 44.2174C34.8546 46.895 31.7952 49.6239 28.7617 52.3786C28.0197 53.0464 28.6966 53.7013 28.944 54.2856C30.7992 58.6262 32.7065 62.9476 34.5943 67.2753C34.731 67.5964 34.8416 67.9239 34.9848 68.2449C35.2452 68.8485 35.5642 69.5612 34.783 69.9208C34.0605 70.2483 33.787 69.4842 33.5006 69.0154C30.9619 64.8803 28.7813 60.5525 26.6982 56.1798C26.5746 55.9165 26.4248 55.6661 26.2491 55.3386C25.4745 55.5056 25.149 56.1734 24.7128 56.655C21.6338 60.0389 18.5939 63.4613 15.5084 66.8451C14.8445 67.5771 14.0633 68.2192 13.2757 68.8292C12.7875 69.2081 12.0519 69.3044 11.6223 68.8806C11.0885 68.3605 11.5832 67.8597 11.9803 67.3845C14.8575 63.9107 17.7151 60.4113 20.5793 56.9246C21.1001 56.289 21.5623 55.5634 22.2067 55.0818C24.7389 53.1812 24.7324 51.1521 23.1571 48.5516C21.6209 46.0153 20.4622 43.2414 19.297 40.5061C18.6786 39.0549 18.2619 39.2732 17.3246 40.2235C12.9437 44.6541 8.08112 48.5645 3.25108 52.5006C2.4374 53.1619 1.29173 54.4076 0.367386 53.3738C-0.726207 52.1474 0.894627 51.3769 1.68227 50.6256C6.39514 46.1245 11.5181 42.0536 16.1398 37.4497C16.947 36.6406 17.2335 36.037 16.6867 34.9134C13.3017 27.908 10.8542 20.5303 8.14623 13.2617C7.79471 12.3178 7.37159 11.2133 8.58235 10.6547C9.85821 10.064 10.5157 11.0143 10.9974 12.0352C13.7444 17.8527 15.5996 24.0169 18.1773 29.8985C18.5288 30.7012 18.9129 31.4974 19.1798 32.3257C19.5378 33.4365 19.9153 33.7576 20.8983 32.7687C23.2938 30.3544 25.7479 27.9851 28.2475 25.6671C28.9896 24.9736 28.9896 24.415 28.612 23.5482C26.2491 18.1481 23.9773 12.703 21.2563 7.46347C20.5012 6.01232 19.7982 4.52907 19.4011 2.93665C19.1993 2.1276 19.1602 1.31854 19.668 0.580127C20.0065 0.0921286 20.4882 -0.0619729 21.061 0.0215005C21.6729 0.111395 21.7966 0.528759 21.7445 1.04244C21.6924 1.53044 21.8552 1.96707 22.0895 2.3716C25.7609 8.70915 29.1002 15.1944 31.7105 22.2254ZM30.3956 27.587C27.4078 30.3994 24.472 33.1669 21.5297 35.9279C21.0806 36.3517 21.0545 36.7562 21.3149 37.3277C23.079 41.206 24.8105 45.1035 26.529 49.0011C26.874 49.7845 27.18 49.7909 27.7593 49.2066C30.3631 46.5804 32.9994 43.9799 35.6358 41.3793C36.0393 40.9812 36.2672 40.6345 35.9873 40.0181C34.08 35.8316 32.2118 31.6258 30.3956 27.587Z" fill="#FFC900"/>
</svg>
