<svg width="74" height="82" viewBox="0 0 74 82" fill="none" xmlns="http://www.w3.org/2000/svg">
<path d="M79.3937 21.0273C80.3164 24.9406 80.5865 28.1943 80.4395 31.4716C80.3635 33.0799 80.9975 33.9505 82.4045 34.6143C86.3434 36.471 90.1358 36.2497 93.8574 34.0859C96.9862 32.2689 99.3744 29.6497 101.434 26.7528C106.128 20.1734 110.695 13.5024 115.376 6.91577C116.895 4.77537 118.575 2.73862 120.674 1.09068C121.421 0.498331 122.103 -0.0258503 123.09 0.610504C124.175 1.30468 123.409 2.02563 123.13 2.71555C118.396 14.4127 112.032 25.214 103.967 34.8483C97.9444 42.0442 90.1515 45.0367 80.8325 41.2152C79.2996 40.5835 79.1483 41.5712 78.8756 42.5278C77.6386 46.7529 75.6872 50.6438 73.1378 54.212C66.973 62.837 57.6692 65.8525 47.7278 62.2615C45.7968 61.5658 45.4146 62.4162 44.7845 63.7527C40.6809 72.287 34.3869 78.3344 25.0468 80.7607C10.6453 84.5048 -2.94356 71.2753 0.642535 57.0531C1.11527 55.1789 1.86018 53.4417 3.0644 51.9284C3.86798 50.9089 4.83254 50.1168 6.13861 49.8157C7.70636 49.448 9.15273 49.6581 9.80916 51.2659C10.468 52.8835 9.20964 54.1836 8.0611 54.455C5.95061 54.9607 5.71161 56.4556 5.40741 58.0188C4.30245 63.7374 5.68022 68.6287 10.3567 72.3718C15.644 76.6096 21.3026 76.6671 27.2043 73.8252C33.4255 70.8196 37.2979 65.7181 40.0018 59.5517C40.6027 58.1813 39.8485 57.6096 39.033 56.8367C34.9649 53.0112 32.4703 48.4347 32.4595 42.7109C32.4549 39.7301 33.0378 36.9095 34.7549 34.4506C36.7058 31.6536 39.3236 30.0181 42.8693 30.5715C45.7475 31.016 47.6951 33.4409 48.3846 37.2484C49.3618 42.6749 49.2187 48.118 48.1365 53.48C47.7156 55.5578 48.4483 56.2485 50.1651 56.751C56.0803 58.5076 61.3536 57.4145 65.6699 52.9637C69.6819 48.8172 71.9389 43.6931 73.2068 38.0878C73.5476 36.5876 72.8675 35.739 71.9759 34.7481C68.2973 30.6688 65.6548 26.1197 65.6272 20.4104C65.625 19.8744 65.6592 19.3189 65.7395 18.7825C66.1551 15.9529 67.1127 13.4291 70.1285 12.4663C72.5823 11.6877 75.1854 13.0792 77.1761 15.9986C78.3255 17.7597 79.1118 19.675 79.3937 21.0273ZM42.2643 51.568C42.4279 50.02 42.6489 48.8597 42.6539 47.7028C42.6743 44.9014 42.663 42.0977 42.55 39.2993C42.5043 38.1862 42.7064 36.5459 41.2408 36.382C39.8286 36.2251 39.2136 37.7022 38.7187 38.8805C37.0516 42.9157 38.2833 47.6791 42.2643 51.568ZM71.8216 20.4245C71.9069 22.3426 71.9584 24.29 73.5674 25.7485C73.2372 23.8411 72.8976 22.0185 71.8216 20.4245Z" fill="#E57128"/>
</svg>
