<svg width="124" height="82" viewBox="0 0 124 82" fill="none" xmlns="http://www.w3.org/2000/svg">
<path d="M79.3937 21.0269C80.3164 24.9402 80.5865 28.194 80.4395 31.4712C80.3635 33.0796 80.9975 33.9502 82.4045 34.6139C86.3434 36.4706 90.1358 36.2493 93.8574 34.0855C96.9862 32.2686 99.3744 29.6493 101.434 26.7525C106.128 20.1731 110.695 13.502 115.376 6.9154C116.895 4.775 118.575 2.73825 120.674 1.09031C121.421 0.497965 122.103 -0.0262165 123.09 0.610138C124.175 1.30431 123.409 2.02527 123.13 2.71519C118.396 14.4123 112.032 25.2137 103.967 34.848C97.9444 42.0439 90.1515 45.0364 80.8325 41.2148C79.2996 40.5831 79.1483 41.5708 78.8756 42.5275C77.6386 46.7526 75.6872 50.6434 73.1378 54.2116C66.973 62.8366 57.6692 65.8522 47.7278 62.2611C45.7968 61.5655 45.4146 62.4159 44.7845 63.7523C40.6809 72.2867 34.3869 78.334 25.0468 80.7603C10.6453 84.5044 -2.94356 71.2749 0.642535 57.0528C1.11527 55.1785 1.86018 53.4414 3.0644 51.928C3.86798 50.9085 4.83254 50.1164 6.13861 49.8153C7.70636 49.4477 9.15273 49.6578 9.80916 51.2656C10.468 52.8831 9.20964 54.1833 8.0611 54.4547C5.95061 54.9603 5.71161 56.4553 5.40741 58.0184C4.30245 63.737 5.68022 68.6284 10.3567 72.3714C15.644 76.6093 21.3026 76.6667 27.2043 73.8248C33.4255 70.8192 37.2979 65.7177 40.0018 59.5513C40.6027 58.181 39.8485 57.6092 39.033 56.8363C34.9649 53.0108 32.4703 48.4344 32.4595 42.7105C32.4549 39.7298 33.0378 36.9091 34.7549 34.4502C36.7058 31.6532 39.3236 30.0178 42.8693 30.5711C45.7475 31.0156 47.6951 33.4405 48.3846 37.248C49.3618 42.6745 49.2187 48.1176 48.1365 53.4796C47.7156 55.5574 48.4483 56.2482 50.1651 56.7506C56.0803 58.5072 61.3536 57.4141 65.6699 52.9633C69.6819 48.8168 71.9389 43.6927 73.2068 38.0875C73.5476 36.5872 72.8675 35.7386 71.9759 34.7478C68.2973 30.6684 65.6548 26.1193 65.6272 20.4101C65.625 19.8741 65.6592 19.3185 65.7395 18.7822C66.1551 15.9525 67.1127 13.4288 70.1285 12.466C72.5823 11.6873 75.1854 13.0788 77.1761 15.9983C78.3255 17.7594 79.1118 19.6747 79.3937 21.0269ZM42.2643 51.5676C42.4279 50.0196 42.6489 48.8594 42.6539 47.7025C42.6743 44.9011 42.663 42.0974 42.55 39.2989C42.5043 38.1859 42.7064 36.5455 41.2408 36.3816C39.8286 36.2247 39.2136 37.7018 38.7187 38.8801C37.0516 42.9153 38.2833 47.6787 42.2643 51.5676ZM71.8216 20.4241C71.9069 22.3423 71.9584 24.2896 73.5674 25.7481C73.2372 23.8407 72.8976 22.0182 71.8216 20.4241Z" fill="#E57128"/>
</svg>
