<svg xmlns="http://www.w3.org/2000/svg" xmlns:xlink="http://www.w3.org/1999/xlink" width="104" height="37" viewBox="0 0 104 37">
  <defs>
    <clipPath id="clip-path">
      <rect id="Rectangle_1" data-name="Rectangle 1" width="104" height="37" transform="translate(382 422)" fill="#fff" stroke="#707070" stroke-width="1"/>
    </clipPath>
  </defs>
  <g id="Mask_Group_1" data-name="Mask Group 1" transform="translate(-382 -422)" clip-path="url(#clip-path)">
    <g id="Group_7237" data-name="Group 7237" transform="translate(391 424)">
      <g id="Component_1_1" data-name="Component 1 – 1" transform="translate(2.5 22.58)">
        <path id="Path_1" data-name="Path 1" d="M3,25H82m1193,0" transform="translate(-3 -25)" fill="none" stroke="#000" stroke-linecap="round" stroke-width="4"/>
      </g>
      <path id="Path_2" data-name="Path 2" d="M.5,30.5V20a5,5,0,0,1,5-5H26.929a5,5,0,0,1,3.536,1.465l5,5a5,5,0,0,1,0,7.071l-5.5,5.5A5,5,0,0,1,26.429,35.5H5.5A5,5,0,0,1,.5,30.5Z" transform="translate(-0.5 -2.42)" fill="#e66c0d"/>
      <path id="Path_3" data-name="Path 3" d="M7.024,4.268a1.777,1.777,0,0,0-.384-.324,3.1,3.1,0,0,0-.54-.276,3.186,3.186,0,0,0-.66-.2,3.11,3.11,0,0,0-.732-.084,2.321,2.321,0,0,0-1.452.372,1.232,1.232,0,0,0-.468,1.02,1.03,1.03,0,0,0,.24.72,1.724,1.724,0,0,0,.732.432q.5.168,1.272.348a8.561,8.561,0,0,1,1.536.468,2.354,2.354,0,0,1,1,.744,1.968,1.968,0,0,1,.348,1.224,2.262,2.262,0,0,1-.24,1.068,2.063,2.063,0,0,1-.648.744,3.064,3.064,0,0,1-.984.432,5.366,5.366,0,0,1-1.224.132,6.129,6.129,0,0,1-1.272-.132,5.732,5.732,0,0,1-1.164-.408,5.021,5.021,0,0,1-1.032-.66l.516-.912a2.959,2.959,0,0,0,.492.408,5.644,5.644,0,0,0,.7.36,5.314,5.314,0,0,0,.852.276,4.531,4.531,0,0,0,.936.1,2.613,2.613,0,0,0,1.416-.324,1.1,1.1,0,0,0,.5-.972,1.038,1.038,0,0,0-.288-.768,2.076,2.076,0,0,0-.828-.48Q5.092,7.376,4.3,7.184a9.733,9.733,0,0,1-1.452-.468,2.129,2.129,0,0,1-.888-.684A1.893,1.893,0,0,1,1.672,4.94a2.341,2.341,0,0,1,.4-1.38A2.434,2.434,0,0,1,3.16,2.708,4.078,4.078,0,0,1,4.732,2.42,4.5,4.5,0,0,1,5.8,2.54a4.325,4.325,0,0,1,.936.336,4.087,4.087,0,0,1,.792.516Zm5.263,6.42q-.132.06-.36.156a3.429,3.429,0,0,1-.528.168,2.718,2.718,0,0,1-.636.072,1.859,1.859,0,0,1-.708-.132,1.185,1.185,0,0,1-.516-.432,1.354,1.354,0,0,1-.192-.744V5.564H8.5V4.736h.852V2.648H10.4V4.736h1.4v.828H10.4V9.452a.682.682,0,0,0,.228.5.768.768,0,0,0,.48.156A1.507,1.507,0,0,0,11.687,10a3.618,3.618,0,0,0,.348-.156Zm.487-1.5a1.631,1.631,0,0,1,.336-1.032,2.22,2.22,0,0,1,.948-.684,3.73,3.73,0,0,1,1.392-.24,5.849,5.849,0,0,1,.888.072,3.822,3.822,0,0,1,.828.192V7.04a1.477,1.477,0,0,0-.432-1.128,1.684,1.684,0,0,0-1.224-.42,2.658,2.658,0,0,0-1,.192,5.278,5.278,0,0,0-1,.528l-.384-.744a4.922,4.922,0,0,1,1.224-.624,3.794,3.794,0,0,1,1.272-.216,2.615,2.615,0,0,1,1.9.672,2.424,2.424,0,0,1,.7,1.848V9.8a.477.477,0,0,0,.072.288.4.4,0,0,0,.264.1V11q-.156.024-.276.036a1.683,1.683,0,0,1-.18.012.738.738,0,0,1-.564-.2.772.772,0,0,1-.2-.432l-.024-.4a2.67,2.67,0,0,1-1.068.816,3.251,3.251,0,0,1-1.308.288,2.413,2.413,0,0,1-1.116-.252,2.025,2.025,0,0,1-.768-.7A1.827,1.827,0,0,1,12.774,9.188Zm4.08.444a1.664,1.664,0,0,0,.228-.336.746.746,0,0,0,.084-.3v-.78A4.156,4.156,0,0,0,16.386,8a3.98,3.98,0,0,0-.8-.084,2.383,2.383,0,0,0-1.308.324.973.973,0,0,0-.492.864,1.221,1.221,0,0,0,.156.588,1.319,1.319,0,0,0,.48.456,1.61,1.61,0,0,0,.792.18,2.333,2.333,0,0,0,.936-.192A2.085,2.085,0,0,0,16.854,9.632ZM23.223,5.66a2.6,2.6,0,0,0-1.4.408,2.09,2.09,0,0,0-.852,1.068V11H19.911V4.736h.984V6.188a2.9,2.9,0,0,1,.852-1.044,2.145,2.145,0,0,1,1.128-.456h.2a.745.745,0,0,1,.144.012Zm4.287,5.028q-.132.06-.36.156a3.429,3.429,0,0,1-.528.168,2.718,2.718,0,0,1-.636.072,1.859,1.859,0,0,1-.708-.132,1.185,1.185,0,0,1-.516-.432,1.354,1.354,0,0,1-.192-.744V5.564h-.852V4.736h.852V2.648h1.056V4.736h1.4v.828h-1.4V9.452a.682.682,0,0,0,.228.5.768.768,0,0,0,.48.156A1.507,1.507,0,0,0,26.91,10a3.618,3.618,0,0,0,.348-.156Z" transform="translate(-0.5 -2.42)"/>
    </g>
  </g>
</svg>
